<svg xmlns="http://www.w3.org/2000/svg" width="56" height="56.515" viewBox="0 0 56 56.515">
  <defs>
    <style>
      .cls-1 {
        fill: #fff;
      }
    </style>
  </defs>
  <g id="Group_496" data-name="Group 496" transform="translate(-187.817 -362.186)">
    <g id="Group_414" data-name="Group 414" transform="translate(187.817 362.186)">
      <g id="Group_404" data-name="Group 404" transform="translate(0 17.358)">
        <g id="Group_400" data-name="Group 400" transform="translate(8.66 10.843)">
          <path id="Path_1380" data-name="Path 1380" class="cls-1" d="M197.237,419.113a.633.633,0,0,1-.633-.632V391.432a.632.632,0,0,1,1.264,0v27.049A.632.632,0,0,1,197.237,419.113Z" transform="translate(-196.604 -390.8)"/>
        </g>
        <g id="Group_401" data-name="Group 401">
          <path id="Path_1381" data-name="Path 1381" class="cls-1" d="M191.39,418.954a.632.632,0,0,1-.632-.632V391.628a6.431,6.431,0,1,1,9.925-5.4,6.548,6.548,0,0,1-.054.838.632.632,0,1,1-1.254-.165,5.242,5.242,0,0,0,.043-.673,5.168,5.168,0,1,0-7.716,4.493.631.631,0,0,1,.319.55v27.049A.632.632,0,0,1,191.39,418.954Z" transform="translate(-187.817 -379.798)"/>
        </g>
        <g id="Group_402" data-name="Group 402" transform="translate(46.075 10.842)">
          <path id="Path_1382" data-name="Path 1382" class="cls-1" d="M235.2,419.113a.632.632,0,0,1-.633-.632V391.432a.632.632,0,1,1,1.264,0v27.049A.632.632,0,0,1,235.2,419.113Z" transform="translate(-234.566 -390.799)"/>
        </g>
        <g id="Group_403" data-name="Group 403" transform="translate(43.134)">
          <path id="Path_1383" data-name="Path 1383" class="cls-1" d="M240.875,418.954a.632.632,0,0,1-.632-.632V391.273a.632.632,0,0,1,.319-.549,5.167,5.167,0,1,0-7.716-4.494,5.255,5.255,0,0,0,.04.651.632.632,0,1,1-1.254.158,6.51,6.51,0,0,1-.051-.809,6.433,6.433,0,1,1,9.926,5.4v26.694A.633.633,0,0,1,240.875,418.954Z" transform="translate(-231.582 -379.798)"/>
        </g>
      </g>
      <g id="Group_405" data-name="Group 405" transform="translate(5.801 22.731)">
        <path id="Path_1384" data-name="Path 1384" class="cls-1" d="M215.9,394.536c-6.723,0-13.446-1.75-18.1-5.251l-3.85-2.9a.632.632,0,0,1,.761-1.01l3.849,2.9c8.75,6.587,25.927,6.587,34.676,0l3.85-2.9a.632.632,0,0,1,.76,1.01l-3.85,2.9C229.349,392.786,222.625,394.536,215.9,394.536Z" transform="translate(-193.703 -385.249)"/>
      </g>
      <g id="Group_406" data-name="Group 406" transform="translate(8.049)">
        <path id="Path_1385" data-name="Path 1385" class="cls-1" d="M232.232,372.372h-1.054a3.658,3.658,0,0,1-3.6-3.021H204.29a3.66,3.66,0,0,1-3.6,3.021h-1.054a3.657,3.657,0,0,1-3.654-3.653v-2.88a3.658,3.658,0,0,1,3.654-3.654h32.594a3.657,3.657,0,0,1,3.653,3.654v2.88A3.656,3.656,0,0,1,232.232,372.372Zm-28.52-4.285h24.445a.633.633,0,0,1,.633.633,2.391,2.391,0,0,0,2.388,2.388h1.054a2.391,2.391,0,0,0,2.389-2.388v-2.88a2.391,2.391,0,0,0-2.389-2.389H199.638a2.392,2.392,0,0,0-2.389,2.389v2.88a2.392,2.392,0,0,0,2.389,2.388h1.054a2.391,2.391,0,0,0,2.388-2.388A.633.633,0,0,1,203.712,368.087Z" transform="translate(-195.984 -362.186)"/>
      </g>
      <g id="Group_407" data-name="Group 407" transform="translate(36.078 10.257)">
        <path id="Path_1386" data-name="Path 1386" class="cls-1" d="M225.056,390.572a.633.633,0,0,1-.633-.632v-9.128a.636.636,0,0,1,.037-.215l2.74-7.587a.632.632,0,0,1,1.19.43l-2.7,7.483v9.018A.632.632,0,0,1,225.056,390.572Z" transform="translate(-224.423 -372.593)"/>
      </g>
      <g id="Group_408" data-name="Group 408" transform="translate(36.078 32.276)">
        <path id="Path_1387" data-name="Path 1387" class="cls-1" d="M225.056,411.832a.633.633,0,0,1-.633-.633V395.566a.632.632,0,0,1,1.265,0V411.2A.632.632,0,0,1,225.056,411.832Z" transform="translate(-224.423 -394.934)"/>
      </g>
      <g id="Group_409" data-name="Group 409" transform="translate(18.657 32.275)">
        <path id="Path_1388" data-name="Path 1388" class="cls-1" d="M207.38,411.832a.632.632,0,0,1-.633-.633V395.566a.632.632,0,1,1,1.265,0V411.2A.632.632,0,0,1,207.38,411.832Z" transform="translate(-206.747 -394.933)"/>
      </g>
      <g id="Group_410" data-name="Group 410" transform="translate(15.917 10.256)">
        <path id="Path_1389" data-name="Path 1389" class="cls-1" d="M207.34,390.572a.632.632,0,0,1-.633-.632v-9.018L204,373.44a.632.632,0,0,1,1.19-.43l2.74,7.587a.636.636,0,0,1,.037.215v9.128A.632.632,0,0,1,207.34,390.572Z" transform="translate(-203.967 -372.592)"/>
      </g>
      <g id="Group_411" data-name="Group 411" transform="translate(18.657 17.843)">
        <path id="Path_1390" data-name="Path 1390" class="cls-1" d="M224.8,381.555H207.38a.632.632,0,1,1,0-1.264H224.8a.632.632,0,0,1,0,1.264Z" transform="translate(-206.747 -380.29)"/>
      </g>
      <g id="Group_412" data-name="Group 412" transform="translate(13.81 48.12)">
        <path id="Path_1391" data-name="Path 1391" class="cls-1" d="M229.577,419.4a.633.633,0,0,1-.633-.632V414.03a1.758,1.758,0,0,0-1.756-1.755H204.85a1.758,1.758,0,0,0-1.756,1.755v4.743a.632.632,0,0,1-1.265,0V414.03a3.024,3.024,0,0,1,3.021-3.02h22.338a3.024,3.024,0,0,1,3.021,3.02v4.743A.632.632,0,0,1,229.577,419.4Z" transform="translate(-201.829 -411.01)"/>
      </g>
      <g id="Group_413" data-name="Group 413" transform="translate(19.594 11.871)">
        <path id="Path_1392" data-name="Path 1392" class="cls-1" d="M223.039,378.306l1.472-4.075H207.7l1.471,4.075Z" transform="translate(-207.697 -374.231)"/>
      </g>
    </g>
  </g>
</svg>
