<svg xmlns="http://www.w3.org/2000/svg" width="74" height="41.645" viewBox="0 0 74 41.645">
  <defs>
    <style>
      .cls-1 {
        fill: #565656;
      }

      .cls-2 {
        fill: #03a6dc;
      }
    </style>
  </defs>
  <g id="Group_487" data-name="Group 487" transform="translate(-167.808 -73.92)">
    <g id="Group_454" data-name="Group 454" transform="translate(167.808 73.92)">
      <g id="Group_437" data-name="Group 437" transform="translate(28.106 10.551)">
        <path id="Path_1407" data-name="Path 1407" class="cls-1" d="M217,99.331c-5.84,0-9.778-5.711-9.828-5.787-.476-.648-1.219-1.434-1.954-1.382-.788.061-1.465,1.053-1.66,1.431a5.657,5.657,0,0,1-2.974,3.4,4,4,0,0,1-3.23-.259,2.36,2.36,0,0,1-1.2-2.793l.993-3.409a6.084,6.084,0,0,1,3.4-3.876L204.3,85a7.341,7.341,0,0,1,4.74-.172l9.811,2.323a.835.835,0,0,1,.575.484l3.734,8.728a.834.834,0,0,1-.3,1.02A10.4,10.4,0,0,1,217,99.331Zm-11.7-8.84c1.13,0,2.217.7,3.235,2.1.247.362,5.583,8.052,12.809,3.783l-3.288-7.687-9.378-2.22a5.725,5.725,0,0,0-3.709.07l-3.754,1.652A4.418,4.418,0,0,0,198.748,91l-.993,3.409a.7.7,0,0,0,.336.829,2.352,2.352,0,0,0,1.9.2,4.212,4.212,0,0,0,2.051-2.538c.141-.283,1.186-2.245,3.035-2.395C205.155,90.495,205.23,90.491,205.3,90.491Z" transform="translate(-196.055 -84.524)"/>
      </g>
      <g id="Group_438" data-name="Group 438" transform="translate(45.194 21.888)">
        <path id="Path_1408" data-name="Path 1408" class="cls-1" d="M218.1,104.466a.834.834,0,0,1-.678-.347l-4.038-5.627a.834.834,0,0,1,1-1.258c.172.071,4.3,1.705,7.551-1.112a.835.835,0,0,1,1.313.3l2.067,4.832a.835.835,0,0,1-.514,1.122l-6.444,2.049A.857.857,0,0,1,218.1,104.466Zm-2.049-5.118,2.373,3.306,4.992-1.587-1.286-3.007A8.849,8.849,0,0,1,216.054,99.348Z" transform="translate(-213.23 -95.919)"/>
      </g>
      <g id="Group_439" data-name="Group 439" transform="translate(8.828 8.5)">
        <path id="Path_1409" data-name="Path 1409" class="cls-1" d="M184.665,102.35a.8.8,0,0,1-.3-.057l-7.151-2.782a.834.834,0,0,1,.6-1.554l6.4,2.489,5.831-13.628-6.534-2.752a.834.834,0,1,1,.648-1.536l7.307,3.076a.835.835,0,0,1,.443,1.1l-6.477,15.142A.834.834,0,0,1,184.665,102.35Z" transform="translate(-176.681 -82.463)"/>
      </g>
      <g id="Group_440" data-name="Group 440" transform="translate(49.876 10.083)">
        <path id="Path_1410" data-name="Path 1410" class="cls-1" d="M225.248,103.941a.834.834,0,0,1-.767-.506L218,88.293a.833.833,0,0,1,.444-1.1l7.306-3.077a.834.834,0,1,1,.648,1.537l-6.534,2.751,5.831,13.629,6.4-2.489a.834.834,0,1,1,.6,1.554l-7.15,2.782A.822.822,0,0,1,225.248,103.941Z" transform="translate(-217.936 -84.054)"/>
      </g>
      <g id="Group_441" data-name="Group 441" transform="translate(39.189 23.103)">
        <path id="Path_1411" data-name="Path 1411" class="cls-1" d="M217.291,109.178a3.065,3.065,0,0,1-2.241-.973l-7.628-8.1a.834.834,0,0,1,1.214-1.144l7.628,8.1a1.425,1.425,0,0,0,2.381-.5,1.137,1.137,0,0,0-.184-1.094L212.9,98.494a.834.834,0,1,1,1.3-1.04l5.557,6.968a2.8,2.8,0,0,1,.454,2.688,3.073,3.073,0,0,1-2.276,2A3.15,3.15,0,0,1,217.291,109.178Z" transform="translate(-207.195 -97.14)"/>
      </g>
      <g id="Group_442" data-name="Group 442" transform="translate(35.815 28.473)">
        <path id="Path_1412" data-name="Path 1412" class="cls-1" d="M213.465,111.957a4.145,4.145,0,0,1-3.01-1.293l-6.421-6.717a.834.834,0,0,1,1.206-1.152l6.42,6.717a2.507,2.507,0,0,0,2.389.71,2.416,2.416,0,0,0,1.78-1.624.876.876,0,0,1,1.053-.609.794.794,0,0,1,.576.99l-.042.134a4.07,4.07,0,0,1-2.993,2.734A4.263,4.263,0,0,1,213.465,111.957Z" transform="translate(-203.804 -102.537)"/>
      </g>
      <g id="Group_443" data-name="Group 443" transform="translate(32.739 31.63)">
        <path id="Path_1413" data-name="Path 1413" class="cls-1" d="M209.32,114.434c-.077,0-.152,0-.225-.006a4.163,4.163,0,0,1-2.86-1.429l-5.309-5.9a.834.834,0,0,1,1.24-1.115l5.309,5.9a2.546,2.546,0,0,0,1.71.88,2.859,2.859,0,0,0,2.579-1.675.834.834,0,1,1,1.424.869A4.459,4.459,0,0,1,209.32,114.434Z" transform="translate(-200.712 -105.71)"/>
      </g>
      <g id="Group_444" data-name="Group 444" transform="translate(22.456 11.468)">
        <path id="Path_1414" data-name="Path 1414" class="cls-1" d="M201.826,87.831a.813.813,0,0,1-.187-.022,40.338,40.338,0,0,0-10.36-.589.834.834,0,1,1-.137-1.662,41.319,41.319,0,0,1,10.87.626.834.834,0,0,1-.186,1.647Z" transform="translate(-190.377 -85.446)"/>
      </g>
      <g id="Group_445" data-name="Group 445" transform="translate(17.113 24.067)">
        <path id="Path_1415" data-name="Path 1415" class="cls-1" d="M205.181,115.686a3.027,3.027,0,0,1-2.1-.846l-2.488-2.388a131.9,131.9,0,0,0-15.226-12.824.834.834,0,0,1,.95-1.372,134,134,0,0,1,15.437,13l2.482,2.383a1.36,1.36,0,0,0,1.4.306,1.245,1.245,0,0,0,.858-.995.867.867,0,0,1,.948-.728.8.8,0,0,1,.712.9,2.926,2.926,0,0,1-1.988,2.406A3.071,3.071,0,0,1,205.181,115.686Z" transform="translate(-185.007 -98.108)"/>
      </g>
      <g id="Group_446" data-name="Group 446" transform="translate(20.244 27.226)">
        <path id="Path_1416" data-name="Path 1416" class="cls-1" d="M190.792,106.535a2.7,2.7,0,0,1-1.715-.616,2.517,2.517,0,0,1-.281-3.626l.655-.732a.834.834,0,0,1,1.242,1.113l-.655.731a.85.85,0,0,0,.1,1.223,1.034,1.034,0,0,0,1.433-.114l.639-.721a.834.834,0,1,1,1.249,1.105l-.639.722A2.7,2.7,0,0,1,190.792,106.535Z" transform="translate(-188.154 -101.284)"/>
      </g>
      <g id="Group_447" data-name="Group 447" transform="translate(22.399 29.589)">
        <path id="Path_1417" data-name="Path 1417" class="cls-1" d="M193.247,110.335a2.93,2.93,0,0,1-2.212-4.85l1.336-1.539a.834.834,0,0,1,1.26,1.092l-1.336,1.54a1.258,1.258,0,0,0,1.878,1.675l1.434-1.565a.834.834,0,0,1,1.23,1.127l-1.435,1.565A2.917,2.917,0,0,1,193.247,110.335Z" transform="translate(-190.319 -103.659)"/>
      </g>
      <g id="Group_448" data-name="Group 448" transform="translate(25.996 32.349)">
        <path id="Path_1418" data-name="Path 1418" class="cls-1" d="M196.84,112.589a2.907,2.907,0,0,1-2.144-4.873l.929-1.013a.834.834,0,1,1,1.229,1.128l-.929,1.012a1.242,1.242,0,0,0,1.821,1.69l.969-1.029a.834.834,0,1,1,1.214,1.143l-.969,1.03A2.908,2.908,0,0,1,196.84,112.589Z" transform="translate(-193.935 -106.432)"/>
      </g>
      <g id="Group_449" data-name="Group 449" transform="translate(29.517 35.301)">
        <path id="Path_1419" data-name="Path 1419" class="cls-1" d="M200.266,114.761a2.792,2.792,0,0,1-2.034-4.71l.366-.389a.834.834,0,0,1,1.215,1.143l-.367.389a1.128,1.128,0,0,0,1.628,1.563l.51-.522a.834.834,0,0,1,1.193,1.166l-.51.522A2.792,2.792,0,0,1,200.266,114.761Z" transform="translate(-197.474 -109.4)"/>
      </g>
      <g id="Group_450" data-name="Group 450">
        <path id="Path_1420" data-name="Path 1420" class="cls-1" d="M174.364,107.11a.839.839,0,0,1-.307-.059l-5.721-2.267a.834.834,0,0,1,.614-1.551L173.9,105.2l9.627-23.508-15.2-6.163a.834.834,0,1,1,.627-1.545l15.978,6.477a.833.833,0,0,1,.459,1.089l-10.256,25.047A.836.836,0,0,1,174.364,107.11Z" transform="translate(-167.808 -73.92)"/>
      </g>
      <g id="Group_451" data-name="Group 451" transform="translate(56.354 1.582)">
        <path id="Path_1421" data-name="Path 1421" class="cls-1" d="M235.536,108.7a.836.836,0,0,1-.772-.518L224.509,83.137a.834.834,0,0,1,.459-1.09l15.977-6.477a.834.834,0,1,1,.627,1.546l-15.2,6.163L236,106.788l4.955-1.963a.834.834,0,0,1,.615,1.551l-5.722,2.267A.835.835,0,0,1,235.536,108.7Z" transform="translate(-224.447 -75.51)"/>
      </g>
      <g id="Group_452" data-name="Group 452" transform="translate(4.934 6.095)">
        <path id="Path_1422" data-name="Path 1422" class="cls-2" d="M172.767,80.046h0A21.516,21.516,0,0,1,174.9,91.217l-.491,6.228L180.289,83.1Z" transform="translate(-172.767 -80.046)"/>
      </g>
      <g id="Group_453" data-name="Group 453" transform="translate(61.416 7.124)">
        <path id="Path_1423" data-name="Path 1423" class="cls-2" d="M237.056,81.08h0a21.5,21.5,0,0,0-2.137,11.171l.491,6.227L229.534,84.13Z" transform="translate(-229.534 -81.08)"/>
      </g>
    </g>
  </g>
</svg>
