<svg xmlns="http://www.w3.org/2000/svg" width="54.648" height="71.78" viewBox="0 0 54.648 71.78">
  <defs>
    <style>
      .cls-1 {
        fill: #fff;
      }
    </style>
  </defs>
  <g id="Group_501" data-name="Group 501" transform="translate(-398.189 -249.999)">
    <g id="Group_357" data-name="Group 357" transform="translate(402.937 258.411)">
      <path id="Path_1356" data-name="Path 1356" class="cls-1" d="M402.143,267.872l10.775-10.867-8.723,5.09Z" transform="translate(-402.143 -257.005)"/>
    </g>
    <path id="Path_1357" data-name="Path 1357" class="cls-1" d="M423.536,250.114l-20.322,11.515-.37.449-4.655,13.956.151.783,6.537,7.683-1.657,19.111.078.7.288.621,19.681,16.629.523.221h8.625l.539-.234,19.882-17.666-.321-1.4-8.69-2.428-1.542-15.41L449,276.821l.154-.785L444.5,262.078l-.37-.449M423.738,250l-.068.04m26.977,53.628-18.539,16.488h-8.02l-19.138-16.171,1.458-17.719,3.267,3.777v9.276l.239.612,10.352,9.008.064.028-.014.026,7.8,5.5,1-.047,14.559-12.474m-6.426-37.128-13.087,7.3-.052-.007,0,.038-.438.273-5.642,3.883h-.229v.019l-7.384,5.084-.323.622-.315,5.706-9.41-11.067Zm-35.42,9.677,21.991-22.533,17.419,9.87Zm24.341,33.056h-1.88v-6.087H422.66v6.087h-1.58l-1.667-1.4v-6.79l.634.072h7.274l.208-.035v6.746Zm-7.071-26.437-.5-.1-4.7.034,4.617-3.123h10.635v-.1l4.55,3-4.644.194-.475.108-2.818,1.665,1.472.509,1.087-.536a2.127,2.127,0,0,0,.949,1.254,1.608,1.608,0,0,0,1.685.022,1.84,1.84,0,0,0,.537-.413,1.323,1.323,0,0,0,.213-.357.392.392,0,0,0,.049-.2,1.511,1.511,0,0,1-.034-.171l4.331-.4v9.355l-1.819,1.182-.461-.614-7.954-1.85-.49.555-.928.991h-1.021l-1.125-1.089v-8.244m1.607-8.522,3.038,2.029h-6.006ZM421.2,292.259l1.264,1.264.268.11-2.349,1.637-5.708.064.032-1.449Zm-1.792,4.643,1.18-.012.486-.145,2.663-1.846,2.656,1.846.358.145.772.01v.4l-.522.538h-6.645l-.949-.626Zm7.717-1.632-2.37-1.651.138-.052,1.18-1,.261-.3,6.467,1.62.034,1.449Zm-7.8-12.471,1.3,1.046v6.871l-6.939,1.743-.519.717-1.876-1.215V289.9l.029-.024.321-7.332,4.3.4c0,.028,0,.055,0,.084,0,.638.647,1.035,1.176,1.219a1.87,1.87,0,0,0,2.211-1.442M411.3,293.879l1.218.992v5.447l-1.218-1.369Zm2.841,3.082,3.651-.04v7.847l-3.651-3.041Zm15.014.875v-.919l3.653.04v4.822l-3.653,3v-6.538m5.276-3.372,1.623-1.061v5.136l-1.623,1.444Zm3.246-7.234v-5.752l-.612-.675-10.545-7.094,20.086,2.777ZM426.757,309.1l.285-.139,10.434-9.019.2-.623v-9.44l3.091-3.534,1.495,14.637.007.025L428.524,312.83l-5.187-3.631h2.974m20.887-33.89-20.369-2.8,16.386-9.139Zm-42.913-12.422L419.1,254.5l-18.249,18.7Z" transform="translate(0 0)"/>
  </g>
</svg>
