<svg xmlns="http://www.w3.org/2000/svg" width="65.657" height="55.477" viewBox="0 0 65.657 55.477">
  <defs>
    <style>
      .cls-1 {
        fill: #fff;
      }

      .cls-2 {
        fill: #565656;
      }
    </style>
  </defs>
  <g id="Group_498" data-name="Group 498" transform="translate(-437.3 -55.999)">
    <g id="Group_481" data-name="Group 481" transform="translate(437.3 55.999)">
      <g id="Group_456" data-name="Group 456" transform="translate(0 23.333)">
        <path id="Path_1424" data-name="Path 1424" class="cls-1" d="M452.9,101.2H441.482a4.187,4.187,0,0,1-4.182-4.181V80.652a.759.759,0,0,1,1.518,0V97.014a2.667,2.667,0,0,0,2.665,2.664H452.9a.759.759,0,0,1,0,1.518Z" transform="translate(-437.3 -79.893)"/>
      </g>
      <g id="Group_457" data-name="Group 457" transform="translate(4.875 11.27)">
        <path id="Path_1425" data-name="Path 1425" class="cls-1" d="M447.621,78.2a5.328,5.328,0,1,1,5.328-5.328A5.335,5.335,0,0,1,447.621,78.2Zm0-9.139a3.811,3.811,0,1,0,3.81,3.811A3.815,3.815,0,0,0,447.621,69.057Z" transform="translate(-442.292 -67.54)"/>
      </g>
      <g id="Group_458" data-name="Group 458" transform="translate(4.049 23.333)">
        <path id="Path_1426" data-name="Path 1426" class="cls-1" d="M453,97.026h-5.585a5.973,5.973,0,0,1-5.965-5.966V83.215a3.326,3.326,0,0,1,3.322-3.322h5.852a3.138,3.138,0,0,1,3.135,3.136v3.366a.759.759,0,0,1-1.518,0V83.029a1.618,1.618,0,0,0-1.617-1.617h-5.852a1.806,1.806,0,0,0-1.8,1.8V91.06a4.454,4.454,0,0,0,4.448,4.448h4.826V90.874a.759.759,0,0,1,1.518,0v5.393A.758.758,0,0,1,453,97.026Z" transform="translate(-441.446 -79.893)"/>
      </g>
      <g id="Group_459" data-name="Group 459" transform="translate(9.445 25.137)">
        <path id="Path_1427" data-name="Path 1427" class="cls-1" d="M457.5,89.437h-7.738a2.793,2.793,0,0,1-2.79-2.79V82.5a.759.759,0,0,1,1.518,0v4.147a1.274,1.274,0,0,0,1.272,1.272H457.5a.759.759,0,1,1,0,1.518Z" transform="translate(-446.972 -81.741)"/>
      </g>
      <g id="Group_460" data-name="Group 460" transform="translate(14.84 38.948)">
        <path id="Path_1428" data-name="Path 1428" class="cls-1" d="M457.629,108.111a.759.759,0,0,1-.759-.759v-8.9a1.048,1.048,0,0,0-1.047-1.047h-2.568a.759.759,0,0,1,0-1.518h2.568a2.567,2.567,0,0,1,2.564,2.564v8.9A.758.758,0,0,1,457.629,108.111Z" transform="translate(-452.497 -95.884)"/>
      </g>
      <g id="Group_461" data-name="Group 461" transform="translate(4.743 43.118)">
        <path id="Path_1429" data-name="Path 1429" class="cls-1" d="M442.916,112.513a.759.759,0,0,1-.537-1.3l3.255-3.254v-7.05a.759.759,0,0,1,1.518,0v7.365a.756.756,0,0,1-.223.536l-3.476,3.476A.753.753,0,0,1,442.916,112.513Z" transform="translate(-442.157 -100.154)"/>
      </g>
      <g id="Group_462" data-name="Group 462" transform="translate(8.219 50.482)">
        <path id="Path_1430" data-name="Path 1430" class="cls-1" d="M449.773,112.511a.757.757,0,0,1-.537-.223l-3.3-3.3a.759.759,0,1,1,1.073-1.073l3.3,3.3a.759.759,0,0,1-.536,1.295Z" transform="translate(-445.717 -107.696)"/>
      </g>
      <g id="Group_463" data-name="Group 463" transform="translate(49.299 23.333)">
        <path id="Path_1431" data-name="Path 1431" class="cls-1" d="M499.961,101.2H488.545a.759.759,0,1,1,0-1.518h11.416a2.667,2.667,0,0,0,2.665-2.664V80.652a.759.759,0,1,1,1.517,0V97.014A4.186,4.186,0,0,1,499.961,101.2Z" transform="translate(-487.785 -79.893)"/>
      </g>
      <g id="Group_464" data-name="Group 464" transform="translate(50.126 11.27)">
        <path id="Path_1432" data-name="Path 1432" class="cls-1" d="M493.96,78.2a5.328,5.328,0,1,1,5.328-5.328A5.334,5.334,0,0,1,493.96,78.2Zm0-9.139a3.811,3.811,0,1,0,3.81,3.811A3.816,3.816,0,0,0,493.96,69.057Z" transform="translate(-488.632 -67.54)"/>
      </g>
      <g id="Group_465" data-name="Group 465" transform="translate(49.299 23.333)">
        <path id="Path_1433" data-name="Path 1433" class="cls-1" d="M494.128,97.026h-5.584a.759.759,0,0,1-.76-.759V90.874a.759.759,0,0,1,1.518,0v4.635h4.825a4.453,4.453,0,0,0,4.448-4.448V83.215a1.8,1.8,0,0,0-1.8-1.8h-5.852a1.618,1.618,0,0,0-1.617,1.617v3.366a.759.759,0,0,1-1.518,0V83.029a3.139,3.139,0,0,1,3.136-3.136h5.852a3.325,3.325,0,0,1,3.321,3.322V91.06A5.972,5.972,0,0,1,494.128,97.026Z" transform="translate(-487.785 -79.893)"/>
      </g>
      <g id="Group_466" data-name="Group 466" transform="translate(44.925 25.137)">
        <path id="Path_1434" data-name="Path 1434" class="cls-1" d="M491.8,89.437h-7.739a.759.759,0,1,1,0-1.518H491.8a1.274,1.274,0,0,0,1.272-1.272V82.5a.759.759,0,0,1,.759-.759h0a.759.759,0,0,1,.759.759v4.147A2.793,2.793,0,0,1,491.8,89.437Z" transform="translate(-483.306 -81.741)"/>
      </g>
      <g id="Group_467" data-name="Group 467" transform="translate(44.925 38.948)">
        <path id="Path_1435" data-name="Path 1435" class="cls-1" d="M484.065,108.111a.759.759,0,0,1-.759-.759v-8.9a2.568,2.568,0,0,1,2.565-2.564h2.568a.759.759,0,0,1,0,1.518h-2.568a1.049,1.049,0,0,0-1.048,1.047v8.9A.758.758,0,0,1,484.065,108.111Z" transform="translate(-483.306 -95.884)"/>
      </g>
      <g id="Group_468" data-name="Group 468" transform="translate(55.921 43.118)">
        <path id="Path_1436" data-name="Path 1436" class="cls-1" d="M498.8,112.513a.753.753,0,0,1-.536-.223l-3.476-3.476a.756.756,0,0,1-.223-.536v-7.365a.759.759,0,0,1,1.518,0v7.05l3.254,3.254a.759.759,0,0,1-.536,1.3Z" transform="translate(-494.566 -100.154)"/>
      </g>
      <g id="Group_469" data-name="Group 469" transform="translate(52.623 50.482)">
        <path id="Path_1437" data-name="Path 1437" class="cls-1" d="M491.948,112.511a.759.759,0,0,1-.536-1.295l3.3-3.3a.759.759,0,0,1,1.073,1.073l-3.3,3.3A.757.757,0,0,1,491.948,112.511Z" transform="translate(-491.189 -107.696)"/>
      </g>
      <g id="Group_470" data-name="Group 470" transform="translate(25.265 30.585)">
        <path id="Path_1438" data-name="Path 1438" class="cls-1" d="M477.862,90.719h-12.99a1.7,1.7,0,0,1-1.7-1.7h0a1.7,1.7,0,0,1,1.7-1.7h12.99a1.7,1.7,0,0,1,1.7,1.7h0A1.7,1.7,0,0,1,477.862,90.719Z" transform="translate(-463.173 -87.32)"/>
      </g>
      <g id="Group_471" data-name="Group 471" transform="translate(28.965 34.947)">
        <path id="Path_1439" data-name="Path 1439" class="cls-1" d="M467.72,112.316A.759.759,0,0,1,467.2,111l3.494-3.252v-15.2a.759.759,0,0,1,1.518,0v15.535a.759.759,0,0,1-.242.556l-3.735,3.475A.756.756,0,0,1,467.72,112.316Z" transform="translate(-466.961 -91.787)"/>
      </g>
      <g id="Group_472" data-name="Group 472" transform="translate(32.701 50.482)">
        <line id="Line_1" data-name="Line 1" class="cls-2" x2="3.304" y2="3.476" transform="translate(0.759 0.759)"/>
        <path id="Path_1440" data-name="Path 1440" class="cls-1" d="M474.85,112.69a.757.757,0,0,1-.551-.236l-3.3-3.476a.758.758,0,0,1,1.1-1.045l3.3,3.475a.759.759,0,0,1-.55,1.282Z" transform="translate(-470.787 -107.696)"/>
      </g>
      <g id="Group_478" data-name="Group 478" transform="translate(23.977)">
        <g id="Group_473" data-name="Group 473" transform="translate(12.862 17.511)">
          <path id="Path_1441" data-name="Path 1441" class="cls-1" d="M475.784,84.593a.758.758,0,0,1-.759-.759V74.69a.759.759,0,0,1,1.518,0v9.144A.758.758,0,0,1,475.784,84.593Z" transform="translate(-475.025 -73.931)"/>
        </g>
        <g id="Group_474" data-name="Group 474" transform="translate(3.918)">
          <path id="Path_1442" data-name="Path 1442" class="cls-1" d="M470.961,66.189a5.095,5.095,0,1,1,5.094-5.1A5.1,5.1,0,0,1,470.961,66.189Zm0-8.672a3.577,3.577,0,1,0,3.577,3.577A3.582,3.582,0,0,0,470.961,57.516Z" transform="translate(-465.866 -55.999)"/>
        </g>
        <g id="Group_475" data-name="Group 475" transform="translate(0 11.362)">
          <path id="Path_1443" data-name="Path 1443" class="cls-1" d="M462.613,82.927a.759.759,0,0,1-.759-.759V71.214a3.584,3.584,0,0,1,3.579-3.58H476.3a3.584,3.584,0,0,1,3.58,3.58v9.9a.759.759,0,0,1-1.518,0v-9.9a2.064,2.064,0,0,0-2.062-2.061H465.433a2.064,2.064,0,0,0-2.061,2.061V82.168A.759.759,0,0,1,462.613,82.927Z" transform="translate(-461.854 -67.634)"/>
        </g>
        <g id="Group_476" data-name="Group 476" transform="translate(3.646 17.511)">
          <path id="Path_1444" data-name="Path 1444" class="cls-1" d="M466.347,84.593a.758.758,0,0,1-.759-.759V74.69a.759.759,0,1,1,1.517,0v9.144A.758.758,0,0,1,466.347,84.593Z" transform="translate(-465.588 -73.931)"/>
        </g>
        <g id="Group_477" data-name="Group 477" transform="translate(8.254 11.362)">
          <path id="Path_1445" data-name="Path 1445" class="cls-1" d="M471.066,74.178a.759.759,0,0,1-.759-.759V68.394a.759.759,0,1,1,1.517,0v5.025A.759.759,0,0,1,471.066,74.178Z" transform="translate(-470.307 -67.634)"/>
        </g>
      </g>
      <g id="Group_479" data-name="Group 479" transform="translate(28.496 36.426)">
        <path id="Path_1446" data-name="Path 1446" class="cls-1" d="M467.24,106.093a.759.759,0,0,1-.759-.759V94.061a.759.759,0,1,1,1.518,0v11.274A.759.759,0,0,1,467.24,106.093Z" transform="translate(-466.481 -93.301)"/>
      </g>
      <g id="Group_480" data-name="Group 480" transform="translate(36.567 36.426)">
        <path id="Path_1447" data-name="Path 1447" class="cls-1" d="M475.506,106.093a.759.759,0,0,1-.759-.759V94.061a.759.759,0,1,1,1.518,0v11.274A.758.758,0,0,1,475.506,106.093Z" transform="translate(-474.747 -93.301)"/>
      </g>
    </g>
  </g>
</svg>
