<svg xmlns="http://www.w3.org/2000/svg" width="62.17" height="56.333" viewBox="0 0 62.17 56.333">
  <defs>
    <style>
      .cls-1 {
        fill: #fff;
      }
    </style>
  </defs>
  <g id="Group_494" data-name="Group 494" transform="translate(-327.565 -154.481)">
    <g id="Group_354" data-name="Group 354" transform="translate(330.614 199.738)">
      <path id="Path_1346" data-name="Path 1346" class="cls-1" d="M330.7,200.525h0a21.248,21.248,0,0,0,9.409,6.139l5.876,1.885-15.317-.007Z" transform="translate(-330.667 -200.525)"/>
    </g>
    <g id="Group_355" data-name="Group 355" transform="translate(327.565 154.481)">
      <path id="Path_1347" data-name="Path 1347" class="cls-1" d="M382.826,161.079h-3.949a.828.828,0,0,0-.815.785v5.558h-4.441v-.889h1.657a.722.722,0,0,0,.693-1.035l-4.817-10.562a.774.774,0,0,0-.693-.456H337.7a.774.774,0,0,0-.693.456l-4.817,10.578a.706.706,0,0,0,.053.7.734.734,0,0,0,.64.32h1.657v.889h-6.217a.769.769,0,0,0-.762.771v41.839a.783.783,0,0,0,.224.548.772.772,0,0,0,.538.233h0l54.082-.138a7.372,7.372,0,0,0,7.324-7.361v-35.3A6.939,6.939,0,0,0,382.826,161.079Zm-48.756,3.933L338.193,156h31.778l4.123,9.008H361.607l-7.006-6.473a.76.76,0,0,0-1.036-.016l-7.007,6.489Zm48.336,44.133-53.319.125V168.945h5.456v2.03a.761.761,0,1,0,1.522,0v-4.441h10.79a.732.732,0,0,0,.518-.172l6.708-6.212,6.707,6.2a.741.741,0,0,0,.518.18H372.1v13.829H336.066V176.3a.761.761,0,1,0-1.522,0v20.7a.737.737,0,0,0,.737.737h37.6a.737.737,0,0,0,.737-.737h0V168.945h4.441v27.782a.811.811,0,0,0,.815.765h3.51a5.827,5.827,0,1,1,.02,11.653ZM359.5,183.789H348.571A1.213,1.213,0,0,0,347.358,185v11.222H336.066V181.886H372.1v14.338H360.68v-11.2A1.19,1.19,0,0,0,359.5,183.789Zm-.338,1.523v10.912H348.88V185.312Zm29.055,13.529a7.341,7.341,0,0,0-5.826-2.871h-2.8V162.6h3.242a5.416,5.416,0,0,1,5.386,5.414Z" transform="translate(-327.565 -154.481)"/>
      <path id="Path_1348" data-name="Path 1348" class="cls-1" d="M332.328,174.22a.762.762,0,0,0-.761.762V189.16a.761.761,0,1,0,1.523,0V174.982A.762.762,0,0,0,332.328,174.22Z" transform="translate(-327.633 -154.818)"/>
      <path id="Path_1349" data-name="Path 1349" class="cls-1" d="M332.328,171.178a.761.761,0,0,0-.761.761v.62a.761.761,0,0,0,1.523,0v-.62A.762.762,0,0,0,332.328,171.178Z" transform="translate(-327.633 -154.766)"/>
      <path id="Path_1350" data-name="Path 1350" class="cls-1" d="M354.5,167.2a2.513,2.513,0,1,0-2.512-2.513h0A2.516,2.516,0,0,0,354.5,167.2Zm0-3.5a.99.99,0,1,1-.991.991h0A.991.991,0,0,1,354.5,163.693Z" transform="translate(-327.982 -154.612)"/>
      <path id="Path_1351" data-name="Path 1351" class="cls-1" d="M340.952,178.465h6.42a.718.718,0,0,0,.71-.76V173.5a3.933,3.933,0,1,0-7.866,0v4.206a.74.74,0,0,0,.719.76Zm3.21-7.4a2.406,2.406,0,0,1,2.326,1.688h-4.651a2.4,2.4,0,0,1,2.326-1.688Zm-2.425,3.21h4.822v2.665h-4.822Z" transform="translate(-327.781 -154.739)"/>
      <path id="Path_1352" data-name="Path 1352" class="cls-1" d="M342.3,184.292a2.861,2.861,0,0,0-2.854,2.868v7.361a.786.786,0,0,0,.732.817H344.4a.8.8,0,0,0,.748-.817v-7.352a2.862,2.862,0,0,0-2.846-2.877Zm1.333,9.523h-2.665v-6.646a1.332,1.332,0,1,1,2.665,0Z" transform="translate(-327.768 -154.991)"/>
      <path id="Path_1353" data-name="Path 1353" class="cls-1" d="M361.7,178.465h6.42a.741.741,0,0,0,.739-.744V173.5a3.933,3.933,0,1,0-7.866,0v4.206A.716.716,0,0,0,361.7,178.465Zm3.21-7.4a2.407,2.407,0,0,1,2.327,1.688h-4.652A2.407,2.407,0,0,1,364.915,171.068Zm-2.394,3.21h4.821v2.665H362.52Z" transform="translate(-328.136 -154.739)"/>
      <path id="Path_1354" data-name="Path 1354" class="cls-1" d="M364.712,195.338h4.23a.788.788,0,0,0,.733-.817v-7.352a2.854,2.854,0,1,0-5.709,0v7.352A.8.8,0,0,0,364.712,195.338Zm.777-8.169a1.332,1.332,0,1,1,2.664,0v6.646H365.49Z" transform="translate(-328.187 -154.991)"/>
    </g>
  </g>
</svg>
