<svg id="Layer_1" data-name="Layer 1" xmlns="http://www.w3.org/2000/svg" xmlns:xlink="http://www.w3.org/1999/xlink" viewBox="0 0 200 200"><defs><style>.cls-1,.cls-11,.cls-5,.cls-8{fill:none;}.cls-2{fill:#fff;}.cls-3{fill:#00904e;}.cls-4{fill:#ffdf5d;}.cls-11,.cls-5{stroke:#231f20;stroke-miterlimit:10;}.cls-5{stroke-width:0.1px;}.cls-6{clip-path:url(#clip-path);}.cls-7{fill:url(#linear-gradient);}.cls-8{stroke:#010101;stroke-linejoin:round;}.cls-11,.cls-8{stroke-width:0.09px;}.cls-9{fill:#231f20;}.cls-10{fill:#010101;}</style><clipPath id="clip-path"><path class="cls-1" d="M100,82.36c-6.39-4.17-12.12-5.61-17-5.61A25.15,25.15,0,0,0,65.49,84l-12,46.78c7,4.69,17.35-.8,17.35-1,17-11,29.16,3.32,29.16,3.32s12.16-14.28,29.16-3.32c0,.2,10.35,5.69,17.35,1L134.5,84A25.1,25.1,0,0,0,117,76.75c-4.87,0-10.6,1.44-17,5.61"/></clipPath><linearGradient id="linear-gradient" x1="-3817.99" y1="3571.98" x2="-3816.06" y2="3571.98" gradientTransform="translate(183566.19 -171582.02) scale(48.07)" gradientUnits="userSpaceOnUse"><stop offset="0" stop-color="#ffdf5d"/><stop offset="0.11" stop-color="#ffdb57"/><stop offset="0.26" stop-color="#fdce47"/><stop offset="0.42" stop-color="#fbba2c"/><stop offset="0.5" stop-color="#faae1c"/><stop offset="0.58" stop-color="#fbba2c"/><stop offset="0.74" stop-color="#fdce47"/><stop offset="0.89" stop-color="#ffdb57"/><stop offset="1" stop-color="#ffdf5d"/></linearGradient></defs><polygon class="cls-2" points="100.95 33.76 104.12 36.11 111.64 37.99 115.52 38.58 118.93 39.63 122.22 41.75 125.86 44.34 127.51 47.27 130.09 50.21 131.74 51.98 136.32 52.45 142.2 53.15 148.9 56.44 153.83 62.08 155.95 70.66 156.89 160.93 43.82 159.52 43.94 71.01 47.35 60.2 55.93 53.74 63.92 51.62 70.39 51.38 70.39 49.86 71.44 47.51 73.44 44.92 77.91 41.28 82.14 39.28 88.96 37.75 96.13 36.69 98.48 35.29 100.95 33.76"/><path class="cls-3" d="M157.73,72.59c0-.45-.07-.92-.13-1.4a27.33,27.33,0,0,0-1.79-7.2,20.27,20.27,0,0,0-10-10.84,31.69,31.69,0,0,0-13.88-2.83l-.69-1.3-.09-.15a36.83,36.83,0,0,0-2.55-3.24,32.07,32.07,0,0,0-4.55-4.48,21.56,21.56,0,0,0-6.88-3.58,39.34,39.34,0,0,0-5.66-1.26c-.61-.1-1.24-.17-1.89-.23a25.39,25.39,0,0,1-3.39-.54,8.47,8.47,0,0,1-4.51-2.94c-.19-.25-.38-.52-.56-.8L100,29.85,98.83,31.8a7.54,7.54,0,0,1-.55.8,8.47,8.47,0,0,1-4.51,2.94,25.28,25.28,0,0,1-3.4.54c-.64.06-1.28.13-1.88.23a39.34,39.34,0,0,0-5.66,1.26A21.46,21.46,0,0,0,76,41.15a31.56,31.56,0,0,0-4.55,4.48,40.07,40.07,0,0,0-2.56,3.25l-.77,1.44a31.69,31.69,0,0,0-13.88,2.83,20.05,20.05,0,0,0-7.85,6.79,24.85,24.85,0,0,0-3.93,11.25c-.06.54-.11,1-.14,1.65v97.31H157.73V72.59Zm-112.58-1a21.88,21.88,0,0,1,3.43-9.89,17.26,17.26,0,0,1,6.77-5.85A29.24,29.24,0,0,1,68.2,53.24h1.49l1.44-2.71a31.19,31.19,0,0,1,2.32-2.93,29.28,29.28,0,0,1,4.14-4.1,18.92,18.92,0,0,1,6-3.12,37,37,0,0,1,5.28-1.18c.57-.09,1.16-.15,1.77-.22a26.76,26.76,0,0,0,3.76-.59A11.38,11.38,0,0,0,100,35a11.41,11.41,0,0,0,5.59,3.44,26.31,26.31,0,0,0,3.76.59c.6.07,1.19.13,1.76.22a37,37,0,0,1,5.28,1.18,18.92,18.92,0,0,1,6,3.12,31,31,0,0,1,4.15,4.1,33.86,33.86,0,0,1,2.31,2.93l1.45,2.71h1.48a29.17,29.17,0,0,1,12.84,2.56,17.24,17.24,0,0,1,8.63,9.35,24.63,24.63,0,0,1,1.59,6.39c0,.44.09.87.11,1.16v81.87H145v-6.34H130.18v-6.5H69.81v6.5H55v6.34H45V72.94c0-.45.08-.91.13-1.4"/><path class="cls-4" d="M152.89,134.74l-10.6-44.35L99.74,83.76l-42,6.63L47.1,134.74l0,.17H58.2l1.33,0,1,0H96.9A2.46,2.46,0,0,0,98.24,137a3.82,3.82,0,0,0,1.32.46h.88a4,4,0,0,0,1.32-.46,2.48,2.48,0,0,0,1.34-2.11h36.35l1,0,1.33,0h11.15Z"/><path class="cls-5" d="M152.89,134.74l-10.6-44.35L99.74,83.76l-42,6.63L47.1,134.74l0,.17H58.2l1.33,0,1,0H96.9A2.46,2.46,0,0,0,98.24,137a3.82,3.82,0,0,0,1.32.46h.88a4,4,0,0,0,1.32-.46,2.48,2.48,0,0,0,1.34-2.11h36.35l1,0,1.33,0h11.15Z"/><path class="cls-4" d="M139.48,87.88l-1.91-.37c-7-1.32-24.67-6.9-37.57-4.43-12.9-2.47-30.58,3.11-37.57,4.43l-1.92.37L48.73,133.43c11.66,3,21,.81,26.68-2.34,10.71-6,24.59,2.67,24.59,2.67s13.88-8.62,24.59-2.67c5.67,3.15,15,5.3,26.68,2.34Z"/><path class="cls-5" d="M139.48,87.88l-1.91-.37c-7-1.32-24.67-6.9-37.57-4.43-12.9-2.47-30.58,3.11-37.57,4.43l-1.92.37L48.73,133.43c11.66,3,21,.81,26.68-2.34,10.71-6,24.59,2.67,24.59,2.67s13.88-8.62,24.59-2.67c5.67,3.15,15,5.3,26.68,2.34Z"/><path class="cls-4" d="M136.4,85.18S113.5,78.42,100,82.65h0C86.5,78.42,63.6,85.18,63.6,85.18L51.16,132.35c8.14,2.92,16.4.69,20.73-1.15,16.17-9.74,28.11,2.23,28.11,2.23s11.94-12,28.11-2.23c4.33,1.84,12.59,4.07,20.72,1.15Z"/><path class="cls-5" d="M136.4,85.18S113.5,78.42,100,82.65h0C86.5,78.42,63.6,85.18,63.6,85.18L51.16,132.35c8.14,2.92,16.4.69,20.73-1.15,16.17-9.74,28.11,2.23,28.11,2.23s11.94-12,28.11-2.23c4.33,1.84,12.59,4.07,20.72,1.15Z"/><g class="cls-6"><rect class="cls-7" x="53.49" y="76.75" width="93.02" height="58.74"/></g><path class="cls-5" d="M134.5,84S120.74,68.83,100,82.36C79.25,68.83,65.49,84,65.49,84l-12,46.78c7,4.7,17.35-.8,17.35-1,17-11,29.16,3.32,29.16,3.32s12.16-14.28,29.16-3.32c0,.2,10.35,5.7,17.35,1Z"/><line class="cls-8" x1="100" y1="133.43" x2="100" y2="82.29"/><path class="cls-2" d="M99.2,144.36l.22-.9a5.12,5.12,0,0,0-1.07,3.16.59.59,0,0,0,.77.43c.34-.13.77-.39.82-.78a1.7,1.7,0,0,0-.74-1.91m.48,1.56c-.3.18-.65.48-1,.35a1.8,1.8,0,0,1,.22-1c.25.18.77.26.77.69"/><path class="cls-2" d="M98.56,148l-.47,1.39c.47,3.42.56,7.06.86,10.57-.22,1.47.81,3.6-.86,4.34-1,.26-2.41.13-3-.7.95-.69,2.62-.52,2.67-2.12-1.72-1.74-4.77-1.47-7-.87-1,0-1.12,1.21-1.42,1.91l1-.22a3.26,3.26,0,0,1,2.19,1.17,5.16,5.16,0,0,1-3,1,1.46,1.46,0,0,1-1.12-.95c-.9-3.6-.9-7.81-3.35-10.58l-.22,1.17c.73,2.47,2.07,4.77,2,7.5-1.89,2.55-4.51,4.5-7.6,4.42a1.24,1.24,0,0,1-.82-1.3c1.5-1.21,3.69-2.39,4.12-4.38.86-4.46-.25-9-.21-13.43.21.22.39.52.64.56a13.83,13.83,0,0,0-1.33-3.81l-.43,1c.39,5.07.69,10.44.9,15.64a11.09,11.09,0,0,1-3.52,2.6,3.68,3.68,0,0,0,.3-1.47c-.43.65-.26,1.69-1.07,2.12-1.64.83-3.65,1.56-5.55.83a3.42,3.42,0,0,1-1.84-3.26c-.09-1.47.72-2.55,1.11-3.81-.08.22-.34.65-.68.56-.65-.95.17-1.86.25-2.81-.51,1-1.28,2.47-.42,3.64a7.09,7.09,0,0,0-.61,3.2,4.4,4.4,0,0,0,2,4.08c2,.95,4.13-.05,5.8-1l.26,1.56a1.82,1.82,0,0,0,1.55,1.12A9.43,9.43,0,0,0,87.26,162c.34,1.26.17,2.69,1.12,3.68,1.89,1.26,3.65-.34,5.2-1.2,1.11,1,2.32,1.86,4,1.64,1-.13,1.55-1.3,1.89-2.12,1-4.08-.22-8.41-.17-12.65l.73.43A12.58,12.58,0,0,0,98.56,148m-5.63,13.82a3.53,3.53,0,0,1,2.37.22l-1.3.61Z"/><path class="cls-2" d="M103.07,143.67c-.39.13-.3.56-.47.82l.56-.13c.65.7-.65,1.4-.82,1.95a2.79,2.79,0,0,0,1.42-2.29c-.08-.3-.39-.35-.69-.35"/><path class="cls-2" d="M86,144.45c0-.31-.3-.31-.51-.39a.83.83,0,0,0-.61.87l.57-.13c.47.74-.65,1.43-.86,1.95a2.73,2.73,0,0,0,1.41-2.3"/><path class="cls-2" d="M108.23,146.79l.56.35c0-.26.38-.48.17-.78-.82-.31,0-1-.26-1.56-.22-.83-.94-.05-1.29.26-.6.56,0,1.34.52,1.64-1.21,1.22-2.67,1.69-4,2.69a7.68,7.68,0,0,0,4.25-2.6m-.56-1.34c.09-.26.6-.39.6,0v.26c-.21.13-.43-.13-.6-.3"/><path class="cls-2" d="M112.05,152.73l-.26.64c1.25-.34,2.41-1.08,3.61-1.33.17,3.76.65,7.53.56,11.3,1.59-3.46.35-7.8.39-11.52l5.92-2.39.18-.52c-2.06.87-4,1.34-6.1,2.21a9.22,9.22,0,0,1-.26-2.85c.26.08.47.56.73.47A14,14,0,0,0,115.4,145l-.51,1.48a19.3,19.3,0,0,1,.38,5Z"/><path class="cls-2" d="M76.13,148.13a.53.53,0,0,0,.6.44c.48-.26.48-.82.6-1.26l-.6.56c-.86-.82.09-1.86.13-2.81a4.81,4.81,0,0,0-.73,3.07"/><path class="cls-2" d="M91.94,147.92c.09.43,0,1,.65,1s.47-.83.6-1.26c-.22.22-.26.61-.6.56-.73-.86,0-1.9.17-2.81a6.07,6.07,0,0,0-.82,2.56"/><path class="cls-2" d="M118.37,148.31a.59.59,0,0,0,.64.56c.43-.26.43-.82.6-1.26l-.6.57c-.73-.78,0-2,.09-2.82a5.29,5.29,0,0,0-.73,2.95"/><path class="cls-2" d="M101.22,147.57l-.55,1.56c.55,5.5,1,11.31,1.07,16.77a7.64,7.64,0,0,0,.77-3.13l-.64-11.9.73.51a19,19,0,0,0-1.38-3.81"/><path class="cls-2" d="M85.75,147.92a6.67,6.67,0,0,0-.9,3.25c.09.3.39.3.61.38a1.12,1.12,0,0,0,.94-.69,1.62,1.62,0,0,0-.69-2l.26-1Zm.44,2.34a.82.82,0,0,1-.77.47H85.2c-.18-.34.08-.73.22-1a4.61,4.61,0,0,1,.77.57"/><path class="cls-2" d="M126.1,149.56a5.56,5.56,0,0,0-1,3.25c.05.39.47.39.78.35a1.11,1.11,0,0,0,.81-1.21,1.37,1.37,0,0,0-.73-1.39c0-.39.34-.74.17-1m.3,2.39a.93.93,0,0,1-.9.47c-.3-.34,0-.73.13-1a1.37,1.37,0,0,1,.77.57"/><path class="cls-2" d="M107.71,150.6a3.16,3.16,0,0,0-1.29-.78l-.55,1.22,1.37,1,.56-1,1.29.82a3.66,3.66,0,0,0,.64-1.26,9,9,0,0,0-1.37-.91c-.21.31-.35.79-.65.91"/><path class="cls-2" d="M87.26,154c1.68-.52,3.48-1.25,4.38-3,.22.18.56.48.82.18.56.56.6,1.43.9,2.07.43-.86.39-2,1-2.76l.56.34c.13-.13.13-.3.21-.43-.08-.35-.34-.74-.77-.65-.73.6-.56,1.77-1,2.29-.22-.73-.34-1.73-1.29-2-1,2.08-3.35,2.77-4.81,3.94"/><path class="cls-2" d="M74.58,151.73c1,.09,2.32-.18,3.14.31-.94.77-2.1,1.08-3,1.9,1.8-.35,3.91-1.34,4.34-3.34a6.48,6.48,0,0,0-3-.34c-.86,0-1.12.87-1.47,1.47"/><path class="cls-2" d="M121.59,153.94c.08.22.3.56.6.43.48-.26.48-.82.65-1.25-.22.13-.34.56-.69.56-.69-.87.09-1.91.17-2.81a5.05,5.05,0,0,0-.73,3.07"/><path class="cls-2" d="M110.63,151.69a18.85,18.85,0,0,1-2.36,3.72l-1.42-1.47c.17-.26.52-.09.77-.13v-.13a6.14,6.14,0,0,0-2-1.17c-1,1.82,1.38,2.73,1.94,4.16-.82,1.43-1.72,3-1.37,4.81a1,1,0,0,0,1.37.6c1.16-.43,2.58-1.38,2.62-2.85a4.72,4.72,0,0,0-1.33-3.38c.81-1.31,2.06-2.56,1.8-4.16m-1,7.36a3.1,3.1,0,0,1-2.83,1.3c-.43-.34,0-.82,0-1.17l1.25-2a4.76,4.76,0,0,1,1.54,1.82"/><path class="cls-2" d="M118.93,154.5a2.88,2.88,0,0,0,.55-1.26,3.5,3.5,0,0,0-1.37-.86l-.56,1.21Z"/><path class="cls-2" d="M89.67,156.62l6.87-2.77.13-.43c-2.28.82-4.56,1.56-6.74,2.51Z"/><path class="cls-2" d="M104.06,158c.6-.09.56-.78.69-1.26-.22.22-.26.69-.69.57-.6-.87.09-1.95.21-2.74a5.38,5.38,0,0,0-.73,3c0,.22.26.61.52.48"/><path class="cls-2" d="M127.73,160a4.33,4.33,0,0,0-1.89-4,1.71,1.71,0,0,0-1.84.78,3.17,3.17,0,0,0-.48,2.12c.56,1.7,3,.18,3.66,1.7a11.67,11.67,0,0,1-6.54,4.37,2.53,2.53,0,0,1-1.84-.6c.94-.83,2.23-1.61,2.4-2.91.73-1.73-.68-2.9-1-4.29l.56.13a11.3,11.3,0,0,0-1.68-1.82c-.85,2.17,1.42,3.64,1.85,5.55a11.59,11.59,0,0,1-2.79,2.25c-.43-1.39.3-2.73.38-3.94a13.54,13.54,0,0,0-1,4.33,8.7,8.7,0,0,1-3.48,1.26,2.18,2.18,0,0,1-1.68-.83,4.83,4.83,0,0,0,2.06-2.64c.74-1.73-.73-2.9-1.07-4.29l.56.13a9.5,9.5,0,0,0-1.63-1.82c-.9,2,1.12,3.47,1.76,5.2v.48a7.88,7.88,0,0,1-2.24,1.68,21.33,21.33,0,0,1,.52-3.59,11.37,11.37,0,0,0-1,4c-1.59,1-3.78,2.34-5.59,1-1.45-1.34-.34-3.56-.21-5a8,8,0,0,0-.56,1.43c-.43,1.82-.73,4.25,1,5.55,2,.78,4-.48,5.63-1.56a3.56,3.56,0,0,0,1,1.43c1.8,1,3.74-.22,5.33-1.09a3.56,3.56,0,0,0,1.2,1.35c1.72.73,3.31-.22,4.64-1.13,1.54-1.38,4.08-2.86,4-5.2m-1.63-1.73c-.56-.21-1.67.26-1.72-.61.22-.34.73-.21,1-.13a3,3,0,0,1,.68.61Z"/><path class="cls-2" d="M78,159.62c.09.34.22.77.69.64a1.41,1.41,0,0,0,.56-1.21c-.22.18-.26.61-.6.57-.78-.87,0-1.91.17-2.82a5.19,5.19,0,0,0-.82,2.82"/><path class="cls-2" d="M74.58,161.74c0,.21.27.56.61.43s.47-.82.6-1.26c-.17.13-.3.57-.65.57-.68-.87,0-1.91.17-2.82a4.88,4.88,0,0,0-.73,3.08"/><path class="cls-2" d="M85.33,159.09c0-.34-.35-.51-.69-.43a.93.93,0,0,0-.47.83l.56-.14c.47.7-.48,1.3-.86,1.87a2.91,2.91,0,0,0,1.46-2.13"/><polygon class="cls-2" points="124.13 167.54 129.93 163.34 129.93 162.65 124.13 166.98 124.13 167.54"/><path class="cls-2" d="M104,165.2a.86.86,0,0,0-.48.83l.52-.13c.73.69-.65,1.34-.77,1.94a3,3,0,0,0,1.41-2.12c0-.39-.3-.6-.68-.52"/><path class="cls-9" d="M69.64,70.93c-.65-.07-.72-.89-1.3-1-1.25.64-1.5,2.08-2.06,3.18-.16.31-.47.66-.88.57-.85-.57-.46-1.87-.51-2.7a3.86,3.86,0,0,0,0,2.76c.17.27.38.67.78.62,1.28-.7,1-2.35,2.07-3.29.9-1,.89.91,1.79.75a2,2,0,0,0,1.37-.52c-.09.64-.3,1.51.15,2.08,1,.38,1.61-.72,2.35-1.07.47,1.3-1.32,1.1-1.41,2l1.28-.75a1.74,1.74,0,0,0,.47,1,1.22,1.22,0,0,0,1.14.18,7,7,0,0,0,3.93-4.36l1.55-.94c.38,0,.74.44,1.19.46,1.14.25,2-.61,2.69-1.42l.11.57c.18.35.58.33.94.33.63-.11,1.17-.81,1.52-1.2a1.25,1.25,0,0,0,.32.7c.22.16.47.09.74.07.49-.17.65-.68.88-1,.15.31.37.75.78.79a1.43,1.43,0,0,0,1.1-.52,2.54,2.54,0,0,0,.82,2c1.08.15,1.1-1.12,1.48-1.74s.7-1.25,1.37-1.16a2.69,2.69,0,0,0,2.13,1.59,20.43,20.43,0,0,0,2.06.17l.11-.29,0-.55a14.88,14.88,0,0,1-3.15-.47c-.49-.4-.53-1.15-1.18-1.3-1.19.39-1.42,1.66-1.91,2.58-.16.31-.5.66-.9.51a1.88,1.88,0,0,1-.56-1.9c.57-2.1-.05-4.3-.07-6.45l.07-.07c.11.07.2.31.36.22a10.43,10.43,0,0,0-.74-1.89c.06-.13-.07-.35.11-.44a9.53,9.53,0,0,1,2.64,4,4.28,4.28,0,0,1-.71,3.91,3.7,3.7,0,0,0,1.13-2.08,6.86,6.86,0,0,0-3.21-6.77c-.29.61,0,1.29-.16,1.93,0,2.39.41,4.81.4,7.29l-.2.33a1.32,1.32,0,0,1-1,.3c-.38-.1-.47-.52-.4-.92H89a3,3,0,0,1-.92,1.12.69.69,0,0,1-.83-.07c-.22-.22-.13-.51-.06-.77-.49.4-.88,1.12-1.53,1.27a1.11,1.11,0,0,1-1-.13c-.2-.22-.07-.48-.07-.75-.42.2-.71.7-1.12,1a2.07,2.07,0,0,1-2.2.26c.52-.44,1.28-.59,1.39-1.36a3.8,3.8,0,0,0-3.13-.07,1.42,1.42,0,0,0-1.19,1.29,1.25,1.25,0,0,1,.62-.22,1.31,1.31,0,0,1,1,.44l-1.23.7c-.2-.28-.36-.64-.69-.79a.78.78,0,0,0-.88.17,1.74,1.74,0,0,0-.52,1.47c.38.62,1.26.16,1.77.09l0,.29c-1,1.38-2.41,3-4.23,3.07a1.05,1.05,0,0,1-.62-.55c.62-.44,1.32-.73,2-1.14l.14-.28c-.67.32-1.33.72-2,1.11h-.16l0-.84c.68-.72,1.55-1.31,2.18-2.1.2-.55.36-1.34-.13-1.8-.82-.4-1.83-.38-2.55-1,.15-.08.4-.06.47-.21a3.39,3.39,0,0,0-1.3-.31v.59a4.59,4.59,0,0,0,2.93,1.59c.2.11.54.15.58.44a19.81,19.81,0,0,1-4,3.22.61.61,0,0,1-.68-.14,2.14,2.14,0,0,1,.75-2.32c.07.24-.11.52-.11.72a2.45,2.45,0,0,0,.45-1.2c0-.16,0-.36-.18-.36-.74.51-1.26,1.78-2.36,1.65m11.75-3-.67.44L80.07,68a2.57,2.57,0,0,1,1.32-.06m-4.3,2,0-.2a.56.56,0,0,1,.87.11,1.26,1.26,0,0,1-.84.09"/><path class="cls-9" d="M101.33,68.84a17.7,17.7,0,0,0,4.51-1.08c.09.22.12.49.22.68a1,1,0,0,0,1.06.51,1,1,0,0,0,.56-.55,2,2,0,0,0-.18-1.82c-.06.2-.13.4-.2.57-.07.35.4.64.09.92a1.09,1.09,0,0,1-.9-.06c-.31-.27-.24-.75-.24-1.08a20.81,20.81,0,0,1-5,1.1l0,.6Z"/><path class="cls-9" d="M118.68,61.2a.4.4,0,0,0,.36-.3.9.9,0,0,0-.38-1l.11-.44c-.43.26-.47.92-.59,1.45a.38.38,0,0,0,.5.3m-.2-.9a.87.87,0,0,1,.42.33.37.37,0,0,1-.49.18c-.13-.16,0-.35.07-.51"/><path class="cls-9" d="M84.26,60.88a.87.87,0,0,0-.36-1.08c0-.15.18-.33.13-.44-.17.09-.2.31-.29.46-.13.44-.49,1.1-.07,1.43a.86.86,0,0,0,.59-.37m-.52-.57a.65.65,0,0,1,.45.24.75.75,0,0,1-.52.29.56.56,0,0,1,.07-.53"/><path class="cls-9" d="M116.24,61.7c.22-.08.26-.37.31-.59-.07.09-.18.26-.31.25-.38-.43,0-1,0-1.41a2.47,2.47,0,0,0-.38,1.31.39.39,0,0,0,.34.44"/><path class="cls-9" d="M122.49,61.76c.18-.15.18-.35.24-.55l-.29.22c-.49-.37,0-1,0-1.4a2,2,0,0,0-.38,1.45.31.31,0,0,0,.38.28"/><path class="cls-9" d="M111.35,62a.74.74,0,0,0,.29-.62c-.07.11-.18.28-.31.27-.36-.45,0-1,.09-1.43a2.3,2.3,0,0,0-.43,1.4c0,.17.13.37.36.38"/><path class="cls-9" d="M81.36,62.17c.29-.13.34-.44.41-.71-.12.1-.18.36-.41.34-.24-.44,0-1,.14-1.43a3.53,3.53,0,0,0-.42,1.38c0,.16,0,.46.28.42"/><path class="cls-9" d="M109.72,66.72c-.09.24-.29.48-.24.72l.29-.06c.58-.09.94.37,1.32.75-.79.32-1.64.43-2.43.74-1.43.15-1.91,2.3-3.45,2.06-1-.8,0-2,.09-2.86a4.16,4.16,0,0,0-.74,2,1.54,1.54,0,0,0,.76,1.47c1.07.38,1.55-.85,2.33-1.36,1.17-.87,2.65-1,4-1.48a2.55,2.55,0,0,0,2.2,1c.38-.11.6-.5.78-.81.57-2-.12-4.13,0-6.2.94,1.56,2.17,3,2.32,4.89a3.09,3.09,0,0,1-1.55,2.19V68.47l-.13.32c-.18.62,0,1.52-.72,1.76a1.66,1.66,0,0,0,.58-.24c.11,0,.06.15.06.22.23.66.36,1.67,1.26,1.72.92-.57.81-1.73,1.73-2.35.2-.09.52-.22.69,0,.41.77,1,1.81,2,1.72a1.3,1.3,0,0,0,.87-.59,1.79,1.79,0,0,0,0-1.52c.89.77,1.58,2.29,3,2,.49-.13.58-.63.72-1l.11.6a3.8,3.8,0,0,0,2.77,2.18l.07-.53c0-.26-.38-.37-.58-.5-.36-.36-1-.56-1-1.06l1.77-.3a3,3,0,0,0,1,1.16c.27.11.67.24.81-.13a1.57,1.57,0,0,0-.33-1.69,1.58,1.58,0,0,0-1.17-.2,8.48,8.48,0,0,1-.39-2.75l1.68-.15c.15,0,.24-.19.2-.28l-1.91.17a25.06,25.06,0,0,1-.14-3.38l.38.35a13.24,13.24,0,0,0-.72-2.09c-.11,0-.15.28-.24.44.13,1.51.08,3.16.28,4.68-.41.22-1.17-.07-1.26.48l1.26-.13c.15.9.17,1.89.35,2.75L127,70.4a1.19,1.19,0,0,0-.72.93l-.09-.12c-1-2.17-.53-4.94-.86-7.4a9,9,0,0,0-.53-2.33l-.19.57a47.47,47.47,0,0,1,.5,8.15c0,.27-.25.44-.47.55a1.43,1.43,0,0,1-1.16-.29,75,75,0,0,0-5.93-5.55,18.18,18.18,0,0,1,5.07-1.54c.52,0,1.26-.24,1.52.27-.47.56-1.26,1-1.32,1.79.45-.9,1.72-1.27,1.68-2.36-.22-.56-1-.4-1.52-.38a15,15,0,0,0-5.43,1.59,2.47,2.47,0,0,0-.16,1.27l3.13,3.1a4.11,4.11,0,0,1,1.12,1.81,1.24,1.24,0,0,1-1.08.3c-1-.07-1.12-1.16-1.72-1.73-1.21-.14-1.55,1.26-2,2-.13.24-.39.63-.76.5-.58-.2-.67-.84-.74-1.36a4.14,4.14,0,0,0,1.71-1.71c.68-2.63-1.25-4.68-2.39-6.84-.28-.32-.26-.87-.62-1.1-.14.33-.36.77-.05,1.08.15,2.26.37,4.48.41,6.76,0,.2-.07.42-.29.49a1.7,1.7,0,0,1-1.75-.42c.52-.26,1.33-.2,1.39-.94a3.12,3.12,0,0,0-1.25-.77,4.27,4.27,0,0,0-2.78,0m20.16,4.51v.11a1.06,1.06,0,0,1-.74-.47.93.93,0,0,1,.74.36M112.5,67.62l-.67.24-.63-.57a2.4,2.4,0,0,1,1.3.33"/><path class="cls-9" d="M85.91,62c-.61.66-1.39,1-2,1.6A5.23,5.23,0,0,0,86.09,62l.29.13c0-.13.22-.28.07-.41-.34-.05-.07-.35-.11-.53.14-.66-.58-.27-.69,0-.28.29,0,.66.26.77m.2-.64,0,.2a.66.66,0,0,1-.29-.2c0-.11.34-.24.31,0"/><path class="cls-9" d="M130,62.92c.22-.46-.09-.87-.36-1.2,0-.14.18-.29.14-.42A1.58,1.58,0,0,0,129.3,63c.2.09.51.15.67-.09m-.51-.77a.82.82,0,0,1,.42.44.62.62,0,0,1-.49.07c-.14-.16,0-.35.07-.51"/><path class="cls-9" d="M125.92,62a3.23,3.23,0,0,1,.4,1.07.55.55,0,0,0-.23.55c.07-.06.31-.22.43,0l-.45.18a17.85,17.85,0,0,0,.24,2.72,6.14,6.14,0,0,0-.22-2.37,2.61,2.61,0,0,1,.85-.15c.29-.4-.29-.71-.49-1l.27-1c.12-.39.34,0,.47.07l0,0a.49.49,0,0,0-.18-.55c-.58-.07-.43.7-.63,1.05-.18-.44-.22-1-.76-1.23l-.23.33c.12.13.27.4.48.29"/><path class="cls-9" d="M88.44,63.13c.25-.13.29-.42.36-.66-.11.06-.16.33-.36.29-.31-.42,0-1,.09-1.41a2.87,2.87,0,0,0-.38,1.49c0,.13.11.31.29.29"/><path class="cls-9" d="M120.72,61.43c-1.19.21-2.43.32-3.57.63l-.07.28,3.57-.69Z"/><path class="cls-9" d="M106.64,63.18l3.54-1,.11-.24-2.19.52c-.47.26-1.3.09-1.46.71"/><path class="cls-9" d="M82.57,62.81l.22.15a.42.42,0,0,0,.1-.35l-.16-.2c-.61.16-.47.86-.68,1.3a1.82,1.82,0,0,0-.42-.86c-.11,0-.29-.17-.38,0s-.29.35,0,.48a.27.27,0,0,0,.34,0,1.4,1.4,0,0,1,.38,1,18.34,18.34,0,0,1-2.18,1.84,6.31,6.31,0,0,0,1.66-1c.83-.61.63-1.66,1.17-2.36"/><path class="cls-9" d="M70.31,63.52c-.11.09-.2.35-.4.35-.25-.43,0-1,.13-1.42a2,2,0,0,0-.25,1.8c.41,0,.41-.46.52-.73"/><path class="cls-9" d="M108.77,63.9l3.58-.91.07-.22c-1.21.24-2.38.52-3.52.85Z"/><path class="cls-9" d="M78.89,64.16l.23.09c.51-.41-.47-.46-.05-.93,0-.15.05-.39-.17-.37a1,1,0,0,0-.63.81c0,.2.26.24.38.36-.56.72-1.46,1.14-2,1.73a6.36,6.36,0,0,0,2.24-1.69m-.36-.64c0-.15.32-.26.32,0l0,.2a.76.76,0,0,1-.29-.16"/><path class="cls-9" d="M92.43,65.07a1.58,1.58,0,0,0,.33-.66c-.08-.13-.22-.15-.33-.22-.61-.15.11-.5,0-.79L91.74,63l-.34.66.34.2c.55.11,0,.53,0,.79Z"/><path class="cls-9" d="M74.21,64a.34.34,0,0,0,.44,0,2.11,2.11,0,0,1,.43,1c.29-.42.2-1,.45-1.44.09-.19.25,0,.36,0,.11-.11.09-.24.09-.39a.47.47,0,0,0-.27-.16c-.47.27-.4.86-.54,1.3-.11,0-.09-.18-.13-.29s-.27-.57-.6-.57c-.5,1.07-1.69,1.75-2.57,2.52a4.76,4.76,0,0,0,2.34-2"/><path class="cls-9" d="M64.77,67.73a9.11,9.11,0,0,0,1.61-1.18c.81-.64.77-1.63,1.1-2.46a.15.15,0,0,1,.27,0c.18.11.16-.18.18-.28a.4.4,0,0,0-.22-.22c-.51.28-.43,1-.63,1.38a1.22,1.22,0,0,0-.41-.79H66.3c0,.18-.29.31-.09.49s.33.13.38,0a1.86,1.86,0,0,1,.42,1,20.69,20.69,0,0,1-2.24,2.15"/><path class="cls-9" d="M86.47,63.94c-.27.33.24.81-.2,1.07-.61.11-.16-.61-.39-.88l-.15.2c0,.24,0,.53.08.86,0,.09.14.26.3.22a.65.65,0,0,0,.42-.42l.18.22c.11,0,.27,0,.34-.07.4-.41-.07-.87-.09-1.31-.25.33,0,.66.11,1-.65.37-.31-.64-.6-.86"/><path class="cls-9" d="M71.63,63.86c-1.23.61-2.38,1.37-3.57,2.1l-.09.35,3.48-2.15Z"/><path class="cls-9" d="M131.49,72.15,131.13,66l.06-.06.36.4a10,10,0,0,0-.75-2.14l-.25.64c.26,2.88.5,5.86.51,8.72a2.77,2.77,0,0,0,.43-1.45"/><path class="cls-9" d="M108.16,65.9a.35.35,0,0,0,.33.29.72.72,0,0,0,.29-.62c-.06.11-.18.31-.34.26-.31-.43,0-1,.1-1.38a2.38,2.38,0,0,0-.38,1.45"/><path class="cls-9" d="M129.31,66.26a.62.62,0,0,0,.29-.57.36.36,0,0,1-.31.22c-.38-.42,0-1,.07-1.38a2.27,2.27,0,0,0-.41,1.38.46.46,0,0,0,.36.35"/><path class="cls-9" d="M120.87,65.39c.11.06,0,.23.2.21s.24-.06.18-.21-.36-.29-.59-.38c-.4-.09-1-.15-1.32.19.29.66,1.27.89,1.37,1.61a8,8,0,0,1-2-1.65c-.07.94,1.08,1.34,1.7,1.8a.5.5,0,0,0,.56-.22c.1-.81-1-.92-1.29-1.6a1.69,1.69,0,0,1,1.17.25"/><path class="cls-9" d="M83.62,66.59c0,.17.11.37.33.33a1,1,0,0,0,.29-.64c-.11.09-.16.31-.33.29-.32-.46,0-1,.11-1.43a2.71,2.71,0,0,0-.4,1.45"/><path class="cls-9" d="M115.53,65.79l-.29.59.57.51-.29.54a9.29,9.29,0,0,0,.74.6,1.28,1.28,0,0,0,.3-.59A6.59,6.59,0,0,0,116,67c0-.13.12-.2.16-.3.25-.42-.41-.64-.65-.86"/><path class="cls-9" d="M69.36,67c-.09.11-.27.26-.16.4s-.06.65.25.83c.31,0,.47-.29.58-.48l.16.2a.36.36,0,0,0,.4-.2c.23-.4,0-.86-.17-1.21-.34.39.26.73,0,1.06-.58.06-.2-.62-.45-.86-.42.24.29.81-.29,1.12-.58,0-.09-.66-.36-.86"/><path class="cls-9" d="M122.92,68.44c0,.22.08.48.38.46a.62.62,0,0,0,.27-.52l-.27.22c-.47-.38-.06-1,0-1.43a2.23,2.23,0,0,0-.43,1.27"/><path class="cls-9" d="M126.28,69.24c0,.11.18.29.31.29s.27-.44.29-.58c-.06.09-.13.25-.29.22-.44-.44,0-1,.07-1.42a2.17,2.17,0,0,0-.38,1.49"/><path class="cls-9" d="M66.73,68.74c.23.07.48.24.66.22.11-.24.31-.43.29-.72L67,68l-.29.54L66,68.3,65.7,69l.67.28c.18-.17.16-.44.36-.57"/><path class="cls-9" d="M64.65,70.71c.31-.1.38-.54.38-.72a.54.54,0,0,1-.34.35c-.29-.44,0-1,.14-1.45a3.06,3.06,0,0,0-.43,1.58c0,.11.09.27.25.24"/><path class="cls-9" d="M106.31,69.74c.16-.37-.42-.53-.65-.75l-.34.64.58.44c.23.17.28-.22.41-.33"/><path class="cls-9" d="M87.57,69.94l0-.27-.36.44c-1.36-.31-1.79,1.38-2.8,1.91.53-.09.85-.66,1.25-1,.43-.77,1.31-.18,1.78-.79a.43.43,0,0,0,.56-.11c0-.17.18-.48,0-.64-.07.12-.16.27-.07.4-.07.11-.22,0-.34.07"/><path class="cls-9" d="M88.85,71.13a.23.23,0,0,0,.25.21c.26-.08.35-.45.36-.66a.41.41,0,0,1-.34.29c-.36-.42.07-.94.11-1.43a2.47,2.47,0,0,0-.38,1.59"/><path class="cls-9" d="M111,72.1a1.61,1.61,0,0,0,1.51-.21c-.5,0-1.15.17-1.53-.16-.07-.66,1-.86,1-1.45-.26.11-.62.46-.89,0l.07-.15a.17.17,0,0,1,.34,0c.06-.1.15-.17.18-.28s-.16-.2-.27-.18c-.25.18-.59.44-.59.77a.87.87,0,0,0,.34.35l-.3.46c-.09.22-.17.62.11.77"/><polygon class="cls-9" points="90.64 71.68 94.23 70.11 94.25 69.88 90.73 71.35 90.64 71.68"/><path class="cls-9" d="M103,70.72l-.71-.44-.3.64.72.46.29-.44c.22.15.45.33.67.49l.23-.36c.31-.48-.4-.52-.61-.79Z"/><path class="cls-9" d="M80.6,72.82a1.73,1.73,0,0,0,1.21-.64c-.47.16-1,.51-1.5.22,0-.72,1-1,1-1.73L81,71a.42.42,0,0,1-.54,0l0-.22c.1-.13.27-.18.36,0l.14-.32L81,70.32a1.25,1.25,0,0,0-.74.92c0,.19.18.21.31.3a2.11,2.11,0,0,0-.38,1,.34.34,0,0,0,.45.29"/><path class="cls-9" d="M83.06,72c0,.13.09.33.3.28s.26-.41.36-.65l-.3.3c-.44-.35,0-1,0-1.43a3.22,3.22,0,0,0-.39,1.5"/><path class="cls-9" d="M114,72.2a.33.33,0,0,0,.32.26c.27-.09.31-.48.29-.57-.07.09-.16.24-.29.22-.45-.39,0-1,.07-1.43A2.15,2.15,0,0,0,114,72.2"/><path class="cls-9" d="M118.2,72.78a1.07,1.07,0,0,0,.77-.94.33.33,0,0,0-.41-.29.41.41,0,0,0-.18.37l.07,0a.23.23,0,0,1,.29.09c0,.35-.34.57-.54.79"/><path class="cls-9" d="M123.27,74.15a.37.37,0,0,0,.35.27.63.63,0,0,0,.25-.55l-.29.21c-.41-.41,0-1,.07-1.4a2,2,0,0,0-.38,1.47"/><path class="cls-9" d="M129.34,74h.06c.32-.14.75-.48.7-.88,0-.22-.22-.31-.43-.31a.48.48,0,0,0-.18.35.3.3,0,0,1,.39.09c.06.35-.39.53-.54.75"/><path class="cls-9" d="M69.3,73.56c-.07.29-.29,0-.45,0-.51-.37-.47.42-.65.64l.72.29.29-.55.67.27c.11-.25.34-.47.3-.73l-.68-.29Z"/><path class="cls-9" d="M126.78,75.08,127,75a1,1,0,0,0,.57-1,.35.35,0,0,0-.34-.21c-.2,0-.23.24-.2.37l0,0a.32.32,0,0,1,.33.11c0,.35-.4.52-.58.76"/><path class="cls-9" d="M67.08,75.31c0,.16.11.33.31.27a1.08,1.08,0,0,0,.34-.73c-.11.13-.18.38-.38.33-.27-.48.09-.94.16-1.4a3,3,0,0,0-.43,1.53"/><path class="cls-9" d="M131.33,75.38h.09a.29.29,0,0,1,.29.13c0,.31-.36.5-.58.73.11,0,.15,0,.22-.07.31-.2.65-.5.56-.92a.48.48,0,0,0-.36-.22c-.18,0-.22.2-.22.35"/><polygon class="cls-10" points="136.5 79.89 136.5 79.9 136.45 79.92 136.5 79.89"/><path class="cls-3" d="M105.71,48.74c3.18-.47,5.32,3.45,5.32,3.45-.42-6.28-7.09-5.35-7.09-5.35,1.69-1.34,5.12.35,5.12.35A5.76,5.76,0,0,0,103,44.7c.42-.81,3-.63,3-.63-2.33-2.29-5,0-5,0a7.48,7.48,0,0,0-.94-3.24,7.44,7.44,0,0,0-1,3.24s-2.71-2.3-5,0c0,0,2.56-.18,3,.63a5.76,5.76,0,0,0-6.06,2.49s3.43-1.69,5.11-.35c0,0-6.67-.93-7.08,5.35,0,0,2.14-3.92,5.31-3.45,0,0-6.79,1.93-3.54,8,0,0-.18-5,3.74-6.16,0,0-5.15,4.11-.51,7.58,0,0-1-3.89,1.73-5.67a7.49,7.49,0,0,0,1.8,8.06s-.76-3.75,1.63-5.8v6.49c0,.93-.1,2-.15,2.85-.08,1.47-.15,2.55-.16,2.6a7.84,7.84,0,0,0-.2,1.52v0h0l0,.44,0,.54-.11.29,0,.09a1.28,1.28,0,0,0-.17.6.8.8,0,0,0,.21.56l-.25,4.62a9.34,9.34,0,0,0-1.24,2l-.09.21h6l-.1-.21a9.11,9.11,0,0,0-1.24-2l-.24-4.61a.8.8,0,0,0,.21-.56,1.2,1.2,0,0,0-.18-.6l-.06-.17-.07-.21,0-.6v-.38h0a7.89,7.89,0,0,0-.2-1.53s-.08-1.12-.16-2.6c0-.81-.11-1.92-.14-2.85V54.73c2.39,2.05,1.63,5.8,1.63,5.8a7.51,7.51,0,0,0,1.8-8.06C107,54.25,106,58.14,106,58.14c4.63-3.47-.51-7.58-.51-7.58,3.91,1.14,3.74,6.16,3.74,6.16,3.25-6-3.55-8-3.55-8"/><path class="cls-11" d="M105.71,48.74c3.18-.47,5.32,3.45,5.32,3.45-.42-6.28-7.09-5.35-7.09-5.35,1.69-1.34,5.12.35,5.12.35A5.76,5.76,0,0,0,103,44.7c.42-.81,3-.63,3-.63-2.33-2.29-5,0-5,0a7.48,7.48,0,0,0-.94-3.24,7.44,7.44,0,0,0-1,3.24s-2.71-2.3-5,0c0,0,2.56-.18,3,.63a5.76,5.76,0,0,0-6.06,2.49s3.43-1.69,5.11-.35c0,0-6.67-.93-7.08,5.35,0,0,2.14-3.92,5.31-3.45,0,0-6.79,1.93-3.54,8,0,0-.18-5,3.74-6.16,0,0-5.15,4.11-.51,7.58,0,0-1-3.89,1.73-5.67a7.49,7.49,0,0,0,1.8,8.06s-.76-3.75,1.63-5.8v6.49c0,.93-.1,2-.15,2.85-.08,1.47-.15,2.55-.16,2.6a7.84,7.84,0,0,0-.2,1.52v0h0l0,.44,0,.54-.11.29,0,.09a1.28,1.28,0,0,0-.17.6.8.8,0,0,0,.21.56l-.25,4.62a9.34,9.34,0,0,0-1.24,2l-.09.21h6l-.1-.21a9.11,9.11,0,0,0-1.24-2l-.24-4.61a.8.8,0,0,0,.21-.56,1.2,1.2,0,0,0-.18-.6l-.06-.17-.07-.21,0-.6v-.38h0a7.89,7.89,0,0,0-.2-1.53s-.08-1.12-.16-2.6c0-.81-.11-1.92-.14-2.85V54.73c2.39,2.05,1.63,5.8,1.63,5.8a7.51,7.51,0,0,0,1.8-8.06C107,54.25,106,58.14,106,58.14c4.63-3.47-.51-7.58-.51-7.58,3.91,1.14,3.74,6.16,3.74,6.16C112.51,50.67,105.71,48.74,105.71,48.74Z"/><path class="cls-3" d="M115.47,77.18c-1,.17-2,.4-3,.66A27.81,27.81,0,0,0,109.14,79a27.46,27.46,0,0,0-3.51,1.77,32.84,32.84,0,0,0-3.6,2.48c-1.26,1-2.46,2-3.63,3.13-.62.57-1.23,1.15-1.83,1.73-.45.43-.89.87-1.35,1.28l-.28.25-.08.07,0,.1a1.43,1.43,0,0,0,1,.9l.1,0,0-.09a2.08,2.08,0,0,1,.12-.2,4.14,4.14,0,0,1,.38-.45,1.77,1.77,0,0,1,1.24-.63l.32,0a1.37,1.37,0,0,1,1,1.33,1.66,1.66,0,0,1-1,1.45h0l-.13,0a1.93,1.93,0,0,1-.49.05c-.67,0-1.84-.29-3.29-1.91l-.08-.09-.11.07-.31.21c-.62.38-1.26.75-1.9,1.12a4.49,4.49,0,0,1-2.19.69,1.65,1.65,0,0,1-1.83-1.55,1.52,1.52,0,0,1,.06-.42,1.22,1.22,0,0,1,1.25-1,2,2,0,0,1,.72.14,1.38,1.38,0,0,1,.35.26l.17.18,0,0h0l.27.07h.11c.26,0,.91-.16,2.35-1.43l0,0v-.08a1.28,1.28,0,0,0-.41-1l-.07-.07-.09,0-.11,0a1.93,1.93,0,0,1-.31.13,3,3,0,0,1-1,.19,1.4,1.4,0,0,1-1-.41,1.35,1.35,0,0,1-.38-.94,1.5,1.5,0,0,1,1.62-1.45h.18A1.62,1.62,0,0,1,93,86.19c.29.58.45,1.28.65,1.78l.09.2.15-.15.23-.24c11.39-12.56,24.46-11.06,24.76-11.06-.3,0-.6,0-.9.09-.83.1-1.65.22-2.48.37"/><path class="cls-8" d="M115.47,77.18c-1,.17-2,.4-3,.66A27.81,27.81,0,0,0,109.14,79a27.46,27.46,0,0,0-3.51,1.77,32.84,32.84,0,0,0-3.6,2.48c-1.26,1-2.46,2-3.63,3.13-.62.57-1.23,1.15-1.83,1.73-.45.43-.89.87-1.35,1.28l-.28.25-.08.07,0,.1a1.43,1.43,0,0,0,1,.9l.1,0,0-.09a2.08,2.08,0,0,1,.12-.2,4.14,4.14,0,0,1,.38-.45,1.77,1.77,0,0,1,1.24-.63l.32,0a1.37,1.37,0,0,1,1,1.33,1.66,1.66,0,0,1-1,1.45h0l-.13,0a1.93,1.93,0,0,1-.49.05c-.67,0-1.84-.29-3.29-1.91l-.08-.09-.11.07-.31.21c-.62.38-1.26.75-1.9,1.12a4.49,4.49,0,0,1-2.19.69,1.65,1.65,0,0,1-1.83-1.55,1.52,1.52,0,0,1,.06-.42,1.22,1.22,0,0,1,1.25-1,2,2,0,0,1,.72.14,1.38,1.38,0,0,1,.35.26l.17.18,0,0h0l.27.07h.11c.26,0,.91-.16,2.35-1.43l0,0v-.08a1.28,1.28,0,0,0-.41-1l-.07-.07-.09,0-.11,0a1.93,1.93,0,0,1-.31.13,3,3,0,0,1-1,.19,1.4,1.4,0,0,1-1-.41,1.35,1.35,0,0,1-.38-.94,1.5,1.5,0,0,1,1.62-1.45h.18A1.62,1.62,0,0,1,93,86.19c.29.58.45,1.28.65,1.78l.09.2.15-.15.23-.24c11.39-12.56,24.46-11.06,24.76-11.06-.3,0-.6,0-.9.09C117.12,76.91,116.3,77,115.47,77.18Z"/><path class="cls-3" d="M84.52,77.18c1,.17,2,.4,3,.66A28,28,0,0,1,90.86,79a27.46,27.46,0,0,1,3.51,1.77A33.83,33.83,0,0,1,98,83.23c1.26,1,2.46,2,3.63,3.13.62.57,1.22,1.15,1.83,1.73.44.43.89.87,1.35,1.28l.28.25.07.07,0,.1a1.43,1.43,0,0,1-1,.9l-.1,0,0-.09a1.47,1.47,0,0,0-.13-.2,3.08,3.08,0,0,0-.37-.45,1.79,1.79,0,0,0-1.24-.63,1.73,1.73,0,0,0-.32,0,1.37,1.37,0,0,0-1,1.33,1.65,1.65,0,0,0,1,1.45h0l.12,0a2,2,0,0,0,.5.05c.67,0,1.84-.29,3.29-1.91l.08-.09.11.07a2.82,2.82,0,0,0,.31.21c.62.38,1.26.75,1.89,1.12a4.55,4.55,0,0,0,2.2.69,1.65,1.65,0,0,0,1.83-1.55,1.23,1.23,0,0,0-.07-.42,1.2,1.2,0,0,0-1.25-1,1.89,1.89,0,0,0-.71.14,1.38,1.38,0,0,0-.35.26l-.17.18,0,0h0l-.26.07h-.11c-.26,0-.92-.16-2.36-1.43l0,0v-.08a1.28,1.28,0,0,1,.41-1l.07-.07.09,0,.11,0a1.6,1.6,0,0,0,.31.13,2.91,2.91,0,0,0,1,.19,1.42,1.42,0,0,0,1-.41,1.39,1.39,0,0,0,.38-.94,1.51,1.51,0,0,0-1.63-1.45h-.17A1.62,1.62,0,0,0,107,86.19c-.29.58-.45,1.28-.65,1.78l-.09.2-.15-.15-.23-.24C94.52,75.22,81.45,76.72,81.15,76.72l.89.09c.83.1,1.66.22,2.48.37"/><path class="cls-8" d="M84.52,77.18c1,.17,2,.4,3,.66A28,28,0,0,1,90.86,79a27.46,27.46,0,0,1,3.51,1.77A33.83,33.83,0,0,1,98,83.23c1.26,1,2.46,2,3.63,3.13.62.57,1.22,1.15,1.83,1.73.44.43.89.87,1.35,1.28l.28.25.07.07,0,.1a1.43,1.43,0,0,1-1,.9l-.1,0,0-.09a1.47,1.47,0,0,0-.13-.2,3.08,3.08,0,0,0-.37-.45,1.79,1.79,0,0,0-1.24-.63,1.73,1.73,0,0,0-.32,0,1.37,1.37,0,0,0-1,1.33,1.65,1.65,0,0,0,1,1.45h0l.12,0a2,2,0,0,0,.5.05c.67,0,1.84-.29,3.29-1.91l.08-.09.11.07a2.82,2.82,0,0,0,.31.21c.62.38,1.26.75,1.89,1.12a4.55,4.55,0,0,0,2.2.69,1.65,1.65,0,0,0,1.83-1.55,1.23,1.23,0,0,0-.07-.42,1.2,1.2,0,0,0-1.25-1,1.89,1.89,0,0,0-.71.14,1.38,1.38,0,0,0-.35.26l-.17.18,0,0h0l-.26.07h-.11c-.26,0-.92-.16-2.36-1.43l0,0v-.08a1.28,1.28,0,0,1,.41-1l.07-.07.09,0,.11,0a1.6,1.6,0,0,0,.31.13,2.91,2.91,0,0,0,1,.19,1.42,1.42,0,0,0,1-.41,1.39,1.39,0,0,0,.38-.94,1.51,1.51,0,0,0-1.63-1.45h-.17A1.62,1.62,0,0,0,107,86.19c-.29.58-.45,1.28-.65,1.78l-.09.2-.15-.15-.23-.24C94.52,75.22,81.45,76.72,81.15,76.72l.89.09C82.87,76.91,83.7,77,84.52,77.18Z"/><path class="cls-3" d="M132.39,110.62a17.38,17.38,0,0,1-3.47,4.56,14.65,14.65,0,0,1-10.27,4.07,13.6,13.6,0,0,1-10.37-4.49,16.42,16.42,0,0,1-2.22-3.09c-.23-.42-.39-.77-.5-1v0Z"/><path class="cls-8" d="M132.39,110.62a17.38,17.38,0,0,1-3.47,4.56,14.65,14.65,0,0,1-10.27,4.07,13.6,13.6,0,0,1-10.37-4.49,16.42,16.42,0,0,1-2.22-3.09c-.23-.42-.39-.77-.5-1v0Z"/><polygon class="cls-8" points="118.97 76.75 105.52 110.25 132.41 110.25 118.97 76.75"/><path class="cls-3" d="M94.57,110.62a17.62,17.62,0,0,1-3.47,4.56,14.65,14.65,0,0,1-10.28,4.07,13.58,13.58,0,0,1-10.36-4.49,16,16,0,0,1-2.22-3.09c-.23-.42-.39-.77-.5-1l0,0Z"/><path class="cls-8" d="M94.57,110.62a17.62,17.62,0,0,1-3.47,4.56,14.65,14.65,0,0,1-10.28,4.07,13.58,13.58,0,0,1-10.36-4.49,16,16,0,0,1-2.22-3.09c-.23-.42-.39-.77-.5-1l0,0Z"/><polygon class="cls-8" points="81.14 76.75 67.7 110.25 94.59 110.25 81.14 76.75"/></svg>