<svg id="Layer_1" data-name="Layer 1" xmlns="http://www.w3.org/2000/svg" xmlns:xlink="http://www.w3.org/1999/xlink" viewBox="0 0 200 200"><defs><style>.cls-1{fill:none;}.cls-2{clip-path:url(#clip-path);}.cls-3{fill:#69767b;}.cls-4{fill:#dbbf74;}.cls-5{fill:#9e892e;}.cls-6{fill:#9ea5a9;}.cls-7{fill:#3c934e;}.cls-8{fill:#056d31;}.cls-9{fill:#951b15;}.cls-10{fill:#cb3438;}.cls-11{fill:#fff;}.cls-12{fill:#bec6cb;}</style><clipPath id="clip-path"><rect class="cls-1" x="32.2" y="29.85" width="135.61" height="140.31"/></clipPath></defs><g class="cls-2"><path class="cls-3" d="M42.68,154.56a16.77,16.77,0,0,1-4.18.81,6.43,6.43,0,0,1-4.21-1.25,1.65,1.65,0,0,1-.39-.48,1.8,1.8,0,0,1,.32-2.07.88.88,0,0,0,.14-.15,31,31,0,0,1,6.2-1.11h.06l.43-2h-.12a36.66,36.66,0,0,0-4,.69,4.12,4.12,0,0,1-3.36-3.65A4.32,4.32,0,0,1,37.21,143a6.84,6.84,0,0,1,2.67.69l.08,0,.41-.75-.07,0c-.47-.3-.83-.57-1.18-.83a11.37,11.37,0,0,0-1.58-1c-2.58,0-5.34,2-5.34,5a4.76,4.76,0,0,0,2.22,3.84l-.56.32a2.34,2.34,0,0,0-.74.87,4,4,0,0,0,2.5,6,11.44,11.44,0,0,0,2.85.33h0l2.17-1c.74-.34,1.46-.67,2.3-1l.08,0-.3-.78Zm44-13.7c-2.62,0-4.29,3.82-4.29,5.82,0,1.64,1.81,2.8,5.91,3.76H46.76c0-4.75-.17-7.32-.39-12l-.09-1.92H44.23v.1c.58,6.49.81,10.65,1,15.64v.09h45v-.08c.09-.42.35-3.25.35-3.94,0-4.71-1.47-7.51-3.94-7.51m2.41,8a11.76,11.76,0,0,1-5.32-2.2c.18-2.1,1.43-3.94,2.67-3.94,1.56,0,2.65,2.46,2.65,6Zm-.92-10.8-1.56-1.5L85,138.28l1.7,1.54Zm67.18,1.44L153.8,138l-1.66,1.73,1.7,1.53Zm-19.53,0L134.28,138l-1.66,1.73,1.7,1.53Zm-3.57,0L130.7,138,129,139.72l1.7,1.53Zm10,3.1-1.91,1.08,0,.08A29,29,0,0,1,143,150.5a7.31,7.31,0,0,1-4.07,4.81,9.48,9.48,0,0,1-3.36.63h-.08l0,.83,4.45.59c2.73-2.08,4.3-4.79,4.3-7.43,0-1.65-.59-3.88-1.9-7.24Zm7.33,9.79c-.14-6.52-.26-9.52-.53-15.74v-.08h-2v.09c.46,6.06.65,9.6.91,14.51l.07,1.22Zm5.7-9.79-1.9,1.08,0,.08a29,29,0,0,1,2.6,6.75,7.3,7.3,0,0,1-4.06,4.81,9.57,9.57,0,0,1-3.36.63h-.09l0,.83,4.44.59c2.73-2.08,4.3-4.79,4.3-7.43,0-1.65-.59-3.88-1.9-7.24Zm8.61-.32c-2.47,0-4.33,3.48-4.33,5.73,0,1.94,2.11,3.22,6.45,3.92a6.65,6.65,0,0,1-3.33,3.45,9.49,9.49,0,0,1-3.54.57H159l-.08.83,4.45.59a9.9,9.9,0,0,0,4.39-7.91c0-4.36-1.54-7.18-3.93-7.18m-3,5.72c.24-2.06,1.51-3.86,2.71-3.86,1.5,0,2.54,2.25,2.78,6-2.78-.4-4.48-1.09-5.49-2.16M113,136.64v-.08h-2v.09c.43,5.57.62,8.94.88,13.79H102.7c-.87,0-1.5-.48-2.06-1.55A19.58,19.58,0,0,1,99,141.77v-.12l-1.77.77v.07a22,22,0,0,0,2.3,7.75,2.75,2.75,0,0,0,.19.28,20.48,20.48,0,0,1-7.13-.2l-.09,0-.33,1.85.08,0a18,18,0,0,0,4.11.52,19.27,19.27,0,0,0,4-.31h.06l.21-.84a3,3,0,0,0,2,.84l.06,0h11v-.09c-.14-6.59-.26-9.39-.54-15.65m24.36,13.58c0-1.16-1.93-5.24-3.52-7.7a12.17,12.17,0,0,0-1.5,1c-2.23,1.79-3.78,4.16-3.78,5.78,0,1.84,1.93,3.34,4.3,3.34a7.2,7.2,0,0,0,3.89-1.05Zm-4.35.58a3.83,3.83,0,0,1-3-1.39,9.27,9.27,0,0,1,3.28-4.49,22.53,22.53,0,0,1,2.47,5.18,5.56,5.56,0,0,1-2.71.7m-14.3,1.58c-.14-6.52-.26-9.52-.54-15.74v-.08h-2.05v.09c.47,6.06.66,9.6.92,14.51l.07,1.22Z"/><polygon class="cls-3" points="37.01 165.4 33.87 160.98 32.2 160.98 32.77 161.77 32.77 169.97 33.91 169.97 33.91 163.37 36.79 167.41 39.8 163.38 39.8 169.97 41.16 169.97 41.16 160.98 40.39 160.98 37.01 165.4"/><polygon class="cls-3" points="86.97 164.89 84.93 161.05 84.89 160.98 83.37 160.98 86.12 166.18 86.12 169.97 87.48 169.97 87.48 166.27 90.42 160.98 89.14 160.98 86.97 164.89"/><path class="cls-3" d="M80.78,165.61a2.67,2.67,0,0,0,.59-.53,3,3,0,0,0,.47-.74,2.4,2.4,0,0,0,.19-1,2.44,2.44,0,0,0-.25-1.12,2.26,2.26,0,0,0-.67-.8,3.24,3.24,0,0,0-1-.47,4.65,4.65,0,0,0-1.27-.16,10.69,10.69,0,0,0-1.4.08c-.33.05-.67.11-1,.18l-.11,0V170h1.36v-3.65l1.31,0L81.6,170h1.71l-3.08-4.06a3.08,3.08,0,0,0,.55-.3m-.23-1.44a2.21,2.21,0,0,1-.3.52,2,2,0,0,1-.38.39,1.71,1.71,0,0,1-.41.26H77.69v-3.48h.77a2.88,2.88,0,0,1,1.67.39,1.49,1.49,0,0,1,.53,1.27,1.88,1.88,0,0,1-.11.65"/><rect class="cls-3" x="44.01" y="160.98" width="1.36" height="8.99"/><rect class="cls-3" x="58.06" y="160.98" width="1.36" height="8.99"/><polygon class="cls-3" points="54.06 167.15 49.13 160.98 47.42 160.98 48.33 162.11 48.33 169.97 49.47 169.97 49.47 163.54 54.58 169.97 55.21 169.97 55.21 160.98 54.06 160.98 54.06 167.15"/><polygon class="cls-3" points="68.12 162.09 70.79 162.09 70.79 169.97 72.16 169.97 72.16 162.09 74.6 162.09 75.03 160.98 68.12 160.98 68.12 162.09"/><path class="cls-3" d="M66.49,166.19h0a3.43,3.43,0,0,0-.52-.49c-.18-.13-.36-.26-.53-.36l-.82-.52-.51-.3a3.66,3.66,0,0,1-.42-.34,1.36,1.36,0,0,1-.3-.39,1,1,0,0,1-.11-.48,1.15,1.15,0,0,1,.14-.59,1.18,1.18,0,0,1,.37-.43,1.91,1.91,0,0,1,.54-.25A2.53,2.53,0,0,1,65,162a2.33,2.33,0,0,1,1.11.26,3.3,3.3,0,0,1,.61.42l.22.19v-1.42l-.07,0-.27-.14a2.67,2.67,0,0,0-.48-.18,4,4,0,0,0-.55-.14,3.56,3.56,0,0,0-1.8.12,2.84,2.84,0,0,0-.95.53,2.41,2.41,0,0,0-.62.83,2.66,2.66,0,0,0-.22,1.07,2.15,2.15,0,0,0,.4,1.23,4.2,4.2,0,0,0,1.27,1.11l1.17.71a3.07,3.07,0,0,1,.4.29,1.85,1.85,0,0,1,.33.4,1,1,0,0,1,.14.51,1.24,1.24,0,0,1-.13.55,1.29,1.29,0,0,1-.36.41,1.56,1.56,0,0,1-.51.27,1.63,1.63,0,0,1-.59.1,3.08,3.08,0,0,1-1.26-.24,4.74,4.74,0,0,1-.79-.45l-.25-.17.2,1.55.08,0a6.24,6.24,0,0,0,1,.27,5.36,5.36,0,0,0,1.16.12A3.6,3.6,0,0,0,65.3,170a2.86,2.86,0,0,0,.92-.52,2.41,2.41,0,0,0,.6-.81,2.48,2.48,0,0,0,.22-1.06,1.77,1.77,0,0,0-.16-.77,2.32,2.32,0,0,0-.39-.62"/><path class="cls-3" d="M159.75,166.19a3.37,3.37,0,0,0-.51-.49c-.19-.13-.37-.26-.54-.36l-.82-.52a4.75,4.75,0,0,1-.5-.31,2.88,2.88,0,0,1-.43-.33,1.85,1.85,0,0,1-.3-.39,1.06,1.06,0,0,1-.11-.48,1.25,1.25,0,0,1,.14-.59,1.21,1.21,0,0,1,.38-.43,1.73,1.73,0,0,1,.53-.25,2.59,2.59,0,0,1,.63-.08,2.33,2.33,0,0,1,1.11.26,3.3,3.3,0,0,1,.61.42l.22.19v-1.42l-.06,0-.28-.14a2.87,2.87,0,0,0-.47-.18,4.58,4.58,0,0,0-.56-.14A3.53,3.53,0,0,0,157,161a2.8,2.8,0,0,0-1,.53,2.39,2.39,0,0,0-.61.83,2.5,2.5,0,0,0-.22,1.07,2.14,2.14,0,0,0,.39,1.23,4.14,4.14,0,0,0,1.28,1.11l1.16.71a2.13,2.13,0,0,1,.4.29,1.8,1.8,0,0,1,.33.4.87.87,0,0,1,.14.51,1.12,1.12,0,0,1-.13.55,1.39,1.39,0,0,1-.35.41,1.8,1.8,0,0,1-.51.28,2,2,0,0,1-.59.09,3.13,3.13,0,0,1-1.27-.24,6.18,6.18,0,0,1-.79-.45l-.24-.17.19,1.55.08,0a7,7,0,0,0,.95.27,5.36,5.36,0,0,0,1.16.12,3.55,3.55,0,0,0,1.15-.18,2.66,2.66,0,0,0,.92-.52,2.44,2.44,0,0,0,.61-.81,2.61,2.61,0,0,0,.21-1.06,1.92,1.92,0,0,0-.15-.77,2.36,2.36,0,0,0-.4-.62"/><polygon class="cls-3" points="139.74 165.93 142.26 165.93 142.68 164.88 139.74 164.88 139.74 162.03 142.85 162.03 143.28 160.98 138.38 160.98 138.38 169.97 142.96 169.97 143.53 168.88 139.74 168.88 139.74 165.93"/><polygon class="cls-3" points="131.65 169.97 133.01 169.97 133.01 166.13 135.61 166.13 136.04 165.07 133.01 165.07 133.01 162.03 136.21 162.03 136.64 160.98 131.65 160.98 131.65 169.97"/><path class="cls-3" d="M101.81,162.13a4.06,4.06,0,0,0-1.41-1,4.47,4.47,0,0,0-1.77-.35,4.52,4.52,0,0,0-1.78.35,4.06,4.06,0,0,0-1.41,1,4.65,4.65,0,0,0-.91,1.48,5.55,5.55,0,0,0,0,3.77,4.34,4.34,0,0,0,.91,1.47,4.2,4.2,0,0,0,1.41,1,4.48,4.48,0,0,0,1.78.34,4.43,4.43,0,0,0,1.77-.34,4.09,4.09,0,0,0,1.41-1,4.44,4.44,0,0,0,.91-1.48,5.14,5.14,0,0,0,.33-1.87,5.19,5.19,0,0,0-.33-1.88,4.44,4.44,0,0,0-.91-1.48m-.2,3.36a4.71,4.71,0,0,1-.21,1.43,3.24,3.24,0,0,1-.57,1.11,2.6,2.6,0,0,1-.94.73,3.1,3.1,0,0,1-2.53,0,2.6,2.6,0,0,1-.94-.73,3,3,0,0,1-.58-1.11,5.18,5.18,0,0,1,0-2.85,3.44,3.44,0,0,1,.58-1.13,2.71,2.71,0,0,1,.94-.73,3.21,3.21,0,0,1,2.53,0,2.71,2.71,0,0,1,.94.73,3.29,3.29,0,0,1,.57,1.12,4.71,4.71,0,0,1,.21,1.43"/><polygon class="cls-3" points="164.01 168.88 164.01 165.93 166.53 165.93 166.95 164.88 164.01 164.88 164.01 162.03 167.12 162.03 167.55 160.98 162.65 160.98 162.65 169.97 167.23 169.97 167.8 168.88 164.01 168.88"/><polygon class="cls-3" points="151.52 167.15 146.58 160.98 144.88 160.98 145.78 162.11 145.78 169.97 146.92 169.97 146.92 163.54 152.04 169.97 152.67 169.97 152.67 160.98 151.52 160.98 151.52 167.15"/><polygon class="cls-3" points="125.73 165.93 128.26 165.93 128.67 164.88 125.73 164.88 125.73 162.03 128.84 162.03 129.27 160.98 124.37 160.98 124.37 169.97 128.95 169.97 129.52 168.88 125.73 168.88 125.73 165.93"/><polygon class="cls-3" points="105.06 169.97 106.42 169.97 106.42 166.13 109.02 166.13 109.44 165.07 106.42 165.07 106.42 162.03 109.62 162.03 110.05 160.98 105.06 160.98 105.06 169.97"/><path class="cls-3" d="M121.13,162.1a3.89,3.89,0,0,0-1.45-.93,5.45,5.45,0,0,0-1.94-.33,11.09,11.09,0,0,0-1.51.08c-.39.05-.76.11-1.09.18l-.11,0v8.67l.1,0a10.25,10.25,0,0,0,1.09.23,8.81,8.81,0,0,0,1.5.11,5.28,5.28,0,0,0,1.91-.33,4.17,4.17,0,0,0,1.47-1,4.34,4.34,0,0,0,.93-1.46,5.12,5.12,0,0,0,.33-1.88,5.6,5.6,0,0,0-.32-1.94,3.93,3.93,0,0,0-.91-1.48m-.22,3.43a4.19,4.19,0,0,1-.21,1.32,3.74,3.74,0,0,1-.62,1.15,3.09,3.09,0,0,1-1,.8A3.39,3.39,0,0,1,117,169l-.58-.12v-7h1a3.9,3.9,0,0,1,1.5.27,3.19,3.19,0,0,1,1.1.76,3.33,3.33,0,0,1,.68,1.16,4.69,4.69,0,0,1,.23,1.48"/><path class="cls-4" d="M101.39,33.8H98.61a1.39,1.39,0,0,1,1-1.33,1.42,1.42,0,0,1,.42-.06,1.39,1.39,0,0,1,1.39,1.39"/><path class="cls-5" d="M101.39,33.8A1.4,1.4,0,0,1,100,35.2h-.14a1.4,1.4,0,0,1-1.06-.67,1.43,1.43,0,0,1-.19-.72Z"/><path class="cls-4" d="M100,29.85h0a17.63,17.63,0,0,1-1,2h2a17.63,17.63,0,0,1-1-2"/><path class="cls-5" d="M100,31.89H99l.59.58a1.5,1.5,0,0,1,.84,0l.59-.58Z"/><path class="cls-6" d="M85.31,59.46l-.39.26.28.37.41-.27a26.3,26.3,0,0,1,12.1-4.15c0-.15,0-.3,0-.46a26.9,26.9,0,0,0-12.42,4.25"/><path class="cls-6" d="M80.84,57.58a31.72,31.72,0,0,0-6.25,6.53l-.4-.22a31.73,31.73,0,0,1,6.37-6.67Z"/><path class="cls-6" d="M100,117.91l-1.38,0,.18.19.27.28h1.86l.27-.28.18-.19-1.38,0"/><path class="cls-6" d="M95.55,99a16.14,16.14,0,0,0,2.81.52v.46a16,16,0,0,1-2.65-.46Z"/><path class="cls-6" d="M64.8,73.58l.44.15h0A35.88,35.88,0,0,1,92.65,47.15a4.41,4.41,0,0,0-.22-.43A36.36,36.36,0,0,0,64.8,73.58"/><path class="cls-6" d="M72.11,68.25a30.85,30.85,0,0,0-2.28,6.06h-.48a31.58,31.58,0,0,1,2.34-6.26Z"/><path class="cls-6" d="M69.23,77.14a31.85,31.85,0,0,0-.4,5,30.68,30.68,0,0,0,.68,6.47l-.44.16a31.72,31.72,0,0,1-.29-11.71Z"/><path class="cls-6" d="M119.08,57.52A31.71,31.71,0,0,1,126,65h.53a31.77,31.77,0,0,0-7.16-7.78Z"/><path class="cls-6" d="M111.8,68.77a18.3,18.3,0,0,1,1.47,1.45l-.42.22a16.44,16.44,0,0,0-1.33-1.31Z"/><path class="cls-6" d="M113.74,64.41a23.12,23.12,0,0,1,3.73,3.67l-.41.22a22.33,22.33,0,0,0-3.61-3.53Z"/><path class="cls-6" d="M116.27,61.15a27.16,27.16,0,0,1,5,5l.42-.2a27.6,27.6,0,0,0-5.1-5.2Z"/><path class="cls-6" d="M64.55,74.69a36.66,36.66,0,0,0-.77,7.46A35.86,35.86,0,0,0,65.9,94.36l.41-.21a35.83,35.83,0,0,1-1.39-19,3.38,3.38,0,0,1-.37-.51Z"/><path class="cls-6" d="M73.06,79.89c-.06.74-.1,1.5-.1,2.26a27.47,27.47,0,0,0,.54,5.4l.46-.07a26.69,26.69,0,0,1-.54-5.33c0-.74,0-1.48.09-2.21l-.45,0Z"/><path class="cls-6" d="M77.56,82.1a22,22,0,0,0,.49,4.76l.46-.07A21.24,21.24,0,0,1,78,82.11h-.46"/><path class="cls-6" d="M82.23,83.89a18.73,18.73,0,0,0,.31,2l.43-.21a17.55,17.55,0,0,1-.28-1.79h-.46Z"/><path class="cls-6" d="M84.17,109a30.88,30.88,0,0,0,13.1,4.2s-1.39,0-2.42.16A30.32,30.32,0,0,1,84,109.44s.13-.34.15-.44"/><path class="cls-6" d="M85.88,104.66A26.19,26.19,0,0,0,89,106.35l.21.48.07.15a25.65,25.65,0,0,1-3.59-1.9Z"/><path class="cls-6" d="M93.75,117.83a3,3,0,0,1-.18-.5,35.47,35.47,0,0,1-14-5.87h0c-.82-.38-2.58-1.39-2.58-1.39a36.07,36.07,0,0,0,16.8,7.76"/><path class="cls-6" d="M87.91,100.51c.42.27.84.53,1.28.78l-.19.42c-.45-.26-.89-.52-1.32-.81Z"/><path class="cls-6" d="M98.36,104.07v.46a22.21,22.21,0,0,1-7-1.65c-.1-.15-.2-.3-.28-.45L91,102.2a21.74,21.74,0,0,0,7.38,1.87"/><path class="cls-6" d="M75.86,70a27.53,27.53,0,0,0-1.67,4.12l.49,0a26.49,26.49,0,0,1,1.6-3.89Z"/><path class="cls-6" d="M80.37,71.28A21.34,21.34,0,0,0,79.1,74l.48,0a22.39,22.39,0,0,1,1.2-2.52Z"/><path class="cls-6" d="M84.46,73.37a17.24,17.24,0,0,0-.9,1.83h0l.39.25a18,18,0,0,1,.92-1.87Z"/><path class="cls-6" d="M88.44,69.17l-.28-.36A17.68,17.68,0,0,0,86,71.07l.42.21a17.42,17.42,0,0,1,2-2.11"/><path class="cls-6" d="M86.18,64.48A22.6,22.6,0,0,0,81.86,69l.41.21a22.57,22.57,0,0,1,4.19-4.32Z"/><path class="cls-6" d="M83.37,60.85a27.12,27.12,0,0,0-5.14,5.29l.4.22a27.51,27.51,0,0,1,5-5.15Z"/><path class="cls-6" d="M135.2,73.58l-.44.15a35.88,35.88,0,0,0-27.41-26.58,4.41,4.41,0,0,1,.22-.43A36.36,36.36,0,0,1,135.2,73.58"/><path class="cls-6" d="M104.31,99.48a17.31,17.31,0,0,1-2.67.45v-.46a16.11,16.11,0,0,0,2.81-.51Z"/><path class="cls-6" d="M116.06,109.39a31.2,31.2,0,0,1-10.91,4c-1-.11-2.41-.16-2.41-.16A30.91,30.91,0,0,0,115.9,109Z"/><path class="cls-6" d="M114.33,105.07a27.72,27.72,0,0,1-3.62,1.91l.07-.15.21-.48a27.07,27.07,0,0,0,3.14-1.7Z"/><path class="cls-6" d="M123.05,110.07h0s-1.76,1-2.58,1.39h0a35.47,35.47,0,0,1-14,5.87,3,3,0,0,1-.18.5,36.07,36.07,0,0,0,16.8-7.76"/><path class="cls-6" d="M112,100.57c-.38.25-.77.49-1.18.72l.19.42c.42-.24.82-.48,1.22-.74Z"/><path class="cls-6" d="M109,102.2l-.13.23c-.08.15-.18.3-.28.45a22.21,22.21,0,0,1-7,1.65v-.46A21.69,21.69,0,0,0,109,102.2"/><path class="cls-6" d="M127.21,67a30.9,30.9,0,0,1,3,7.36h.48a31.89,31.89,0,0,0-3.14-7.76l-.3.4"/><path class="cls-6" d="M123.68,70.08a26.21,26.21,0,0,1,1.64,4l.49,0a27.26,27.26,0,0,0-1.74-4.25l-.39.24"/><path class="cls-6" d="M119.6,72.19c.3.59.57,1.2.82,1.82l.48,0c-.27-.68-.56-1.34-.89-2Z"/><path class="cls-6" d="M115.51,74.28l.41-.21c.19.37.36.75.52,1.13l-.39.25q-.26-.6-.54-1.17"/><path class="cls-6" d="M131.22,77.07l-.45.07a31.85,31.85,0,0,1,.4,5,31.08,31.08,0,0,1-.83,7.14h.48a31.74,31.74,0,0,0,.4-12.21"/><path class="cls-6" d="M126.94,79.89l-.45,0c.06.73.09,1.47.09,2.21a27,27,0,0,1-.62,5.72l.42.19a26.76,26.76,0,0,0,.66-5.91c0-.76,0-1.52-.1-2.26Z"/><path class="cls-6" d="M122,82.11h.46a22,22,0,0,1-.57,5.1h-.47a21.36,21.36,0,0,0,.58-5.09"/><path class="cls-6" d="M117.31,83.88h.46a17.34,17.34,0,0,1-.58,3.07l-.41-.22a17.83,17.83,0,0,0,.53-2.86Z"/><path class="cls-7" d="M79.64,42.89a13.77,13.77,0,0,0-3.38,4.26,9.94,9.94,0,0,0-1.1,4.32,31.82,31.82,0,0,1,4.48-8.58"/><path class="cls-7" d="M83.6,41.64a13.58,13.58,0,0,0-3.69,3.68,9.27,9.27,0,0,0-1.52,4,31.19,31.19,0,0,1,5.21-7.63"/><path class="cls-7" d="M87.57,40.78a13.57,13.57,0,0,0-3.93,3.13,9,9,0,0,0-1.88,3.54,31.07,31.07,0,0,1,5.81-6.67"/><path class="cls-7" d="M75.73,44.58h0a14.2,14.2,0,0,0-3,4.83,10.61,10.61,0,0,0-.62,4.67h0a32.73,32.73,0,0,1,3.61-9.5"/><path class="cls-7" d="M69.67,121.79a25.35,25.35,0,0,0,11.49,1.59,19.85,19.85,0,0,0,8.45-2.75l-.42-.09a45.65,45.65,0,0,1-19.52,1.25"/><path class="cls-7" d="M63.67,116.19a23,23,0,0,0,10.21,3.35,17.91,17.91,0,0,0,8.37-1.34l-.22-.1a41.4,41.4,0,0,1-18.36-1.91"/><path class="cls-7" d="M59.08,109.92h0A21.8,21.8,0,0,0,68,114.69a16.31,16.31,0,0,0,8.1,0l-.1-.07a39.26,39.26,0,0,1-16.93-4.72"/><path class="cls-7" d="M55.77,103.25a21.19,21.19,0,0,0,7.67,5.89,15.2,15.2,0,0,0,7.62,1.27l-.06,0a38.74,38.74,0,0,1-15.23-7.11"/><path class="cls-7" d="M53.63,96.42a21,21,0,0,0,6.43,6.72,14.41,14.41,0,0,0,7,2.37l0-.06a39,39,0,0,1-13.35-9"/><path class="cls-7" d="M52.52,89.63a21.26,21.26,0,0,0,5.23,7.3A14.28,14.28,0,0,0,64,100.2l0-.09A39.93,39.93,0,0,1,52.52,89.63"/><path class="cls-7" d="M52.34,83a21.26,21.26,0,0,0,4.08,7.64,14.12,14.12,0,0,0,5.44,4s0-.09,0-.13A41,41,0,0,1,52.34,83"/><path class="cls-7" d="M53,76.76a20.72,20.72,0,0,0,3,7.79A14.06,14.06,0,0,0,60.57,89l0-.18A42,42,0,0,1,53,76.76"/><path class="cls-7" d="M54.3,70.89a20.3,20.3,0,0,0,2,7.77,13.9,13.9,0,0,0,3.8,4.83v-.2a40.56,40.56,0,0,1-5.78-12.4"/><path class="cls-7" d="M56.23,65.51a19.71,19.71,0,0,0,1,7.6,13.8,13.8,0,0,0,3.07,5,1.23,1.23,0,0,1,0-.19,41.62,41.62,0,0,1-4.12-12.46"/><path class="cls-7" d="M58.67,60.65A18.94,18.94,0,0,0,58.83,68a13.52,13.52,0,0,0,2.37,5.19c0-.06,0-.12,0-.18a44.64,44.64,0,0,1-2.58-12.32"/><path class="cls-7" d="M61.54,56.35a17.8,17.8,0,0,0-.64,6.92,13.22,13.22,0,0,0,1.72,5.25l.05-.14a42.91,42.91,0,0,1-1.13-12"/><path class="cls-7" d="M64.75,52.6a16.61,16.61,0,0,0-1.35,6.46,12.43,12.43,0,0,0,1.09,5.22l0-.08a40.49,40.49,0,0,1,.22-11.6"/><path class="cls-7" d="M68.22,49.4a15.89,15.89,0,0,0-2,6,12.11,12.11,0,0,0,.49,5.12l0,0a37.93,37.93,0,0,1,1.46-11"/><path class="cls-7" d="M71.9,46.74h0a15,15,0,0,0-2.53,5.4,11.29,11.29,0,0,0-.08,4.93l0,0A34.94,34.94,0,0,1,71.9,46.74"/><path class="cls-7" d="M96.24,122.29a51,51,0,0,1-19,4.09,29,29,0,0,0,12.74-.5,23.87,23.87,0,0,0,6.34-2.73,1.13,1.13,0,0,1-.05-.32Z"/><path class="cls-8" d="M77.76,47.14a26.74,26.74,0,0,0,1.88-4.25,31.82,31.82,0,0,0-4.48,8.58c.93-1.43,1.81-2.87,2.6-4.33"/><path class="cls-8" d="M81.35,45.45a25.24,25.24,0,0,0,2.25-3.81,31.81,31.81,0,0,0-5.22,7.63c1.06-1.26,2.06-2.52,3-3.82"/><path class="cls-8" d="M85,44.15a23.27,23.27,0,0,0,2.56-3.37,31.07,31.07,0,0,0-5.81,6.67C82.9,46.38,84,45.28,85,44.15"/><path class="cls-8" d="M96.24,121.68c-3.13.78-6.08,1.45-8.93,2.1-3.73.86-7.07,1.66-10.1,2.61a51.23,51.23,0,0,0,19-4.1Z"/><path class="cls-8" d="M96.39,120.84c-19.06-1.44-32.46-15.08-35-32.62C58.87,70,68.2,53.85,83.18,47.06a42.74,42.74,0,0,1,4.41-1.71l0-.07-1.19.36a37.28,37.28,0,0,0-14.26,8.43c.79-1.6,1.52-3.2,2.16-4.82a30.62,30.62,0,0,0,1.45-4.67,33.1,33.1,0,0,0-3.62,9.49h0A36.74,36.74,0,0,0,69.33,57c.61-1.75,1.17-3.48,1.63-5.22a31,31,0,0,0,.94-5.06,34.94,34.94,0,0,0-2.59,10.31l0,0a37.35,37.35,0,0,0-2.47,3.27c.41-1.85.76-3.69,1-5.52a33.43,33.43,0,0,0,.38-5.42,37.59,37.59,0,0,0-1.46,11l0,0a36.77,36.77,0,0,0-2.12,3.59c.19-1.94.33-3.85.38-5.75a37.53,37.53,0,0,0-.24-5.71,40.49,40.49,0,0,0-.22,11.6l0,.08a38.74,38.74,0,0,0-1.74,3.89c0-2-.11-4-.28-5.88a40,40,0,0,0-.93-5.94,42.91,42.91,0,0,0,1.13,12l-.05.14a39.52,39.52,0,0,0-1.3,4.17c-.27-2-.59-4-1-6a43,43,0,0,0-1.66-6.09A44.28,44.28,0,0,0,61.25,73c0,.06,0,.12,0,.18a41.83,41.83,0,0,0-.81,4.47c-.52-2-1.08-4-1.72-6a43.59,43.59,0,0,0-2.44-6.12A41.62,41.62,0,0,0,60.35,78a1.23,1.23,0,0,0,0,.19,39.73,39.73,0,0,0-.25,4.76c-.8-2-1.63-4-2.53-6a48.17,48.17,0,0,0-3.25-6,40.56,40.56,0,0,0,5.78,12.4v.2a40.92,40.92,0,0,0,.41,5c-1.11-2-2.23-4-3.42-6A52.21,52.21,0,0,0,53,76.76a42,42,0,0,0,7.57,12.09l0,.18a38.92,38.92,0,0,0,1.18,5.25c-1.47-2-2.93-3.92-4.45-5.8a54.2,54.2,0,0,0-5-5.44,40.88,40.88,0,0,0,9.48,11.48.65.65,0,0,0,0,.13,41.47,41.47,0,0,0,2,5.29c-1.83-1.84-3.65-3.66-5.51-5.41a60.89,60.89,0,0,0-5.83-4.9A39.89,39.89,0,0,0,63.94,100.1a1,1,0,0,0,0,.1,38.17,38.17,0,0,0,2.92,5.12c-2.22-1.6-4.39-3.21-6.59-4.74a65.46,65.46,0,0,0-6.68-4.16,39,39,0,0,0,13.35,9l0,.06a35.69,35.69,0,0,0,3.87,4.74c-2.6-1.27-5.11-2.56-7.62-3.77a71.68,71.68,0,0,0-7.51-3.23A38.74,38.74,0,0,0,71,110.36l.06,0a35.57,35.57,0,0,0,4.76,4.09c-2.91-.82-5.7-1.69-8.46-2.5a82.19,82.19,0,0,0-8.28-2.08A39.39,39.39,0,0,0,76,114.64l.11.07a36.2,36.2,0,0,0,5.53,3.21c-3.11-.3-6.07-.67-9-1-3.21-.37-6.19-.67-9-.73A41.4,41.4,0,0,0,82,118.1l.22.1a38,38,0,0,0,6.24,2.17c-3.21.25-6.26.41-9.21.58-3.49.2-6.67.42-9.61.83a45.49,45.49,0,0,0,19.52-1.24l.42.09a39.2,39.2,0,0,0,6.62.89h0v-.17a.9.9,0,0,1,.15-.51"/><path class="cls-7" d="M120.36,42.89a14,14,0,0,1,3.39,4.26,10.06,10.06,0,0,1,1.09,4.32,31.82,31.82,0,0,0-4.48-8.58"/><path class="cls-7" d="M116.4,41.64a13.58,13.58,0,0,1,3.69,3.68,9.43,9.43,0,0,1,1.53,4,31.52,31.52,0,0,0-5.22-7.63"/><path class="cls-7" d="M112.43,40.78a13.57,13.57,0,0,1,3.93,3.13,9,9,0,0,1,1.88,3.54,31.07,31.07,0,0,0-5.81-6.67"/><path class="cls-7" d="M124.28,44.58h0a14.32,14.32,0,0,1,3,4.83,10.61,10.61,0,0,1,.62,4.67h0a33.31,33.31,0,0,0-3.61-9.5"/><path class="cls-7" d="M130.33,121.79a25.35,25.35,0,0,1-11.49,1.59,19.85,19.85,0,0,1-8.45-2.75l.42-.09a45.65,45.65,0,0,0,19.52,1.25"/><path class="cls-7" d="M136.33,116.19a23,23,0,0,1-10.21,3.35,17.91,17.91,0,0,1-8.37-1.34l.23-.1a41.37,41.37,0,0,0,18.35-1.91"/><path class="cls-7" d="M140.92,109.92h0a21.8,21.8,0,0,1-8.93,4.77,16.31,16.31,0,0,1-8.1,0l.11-.07a39.25,39.25,0,0,0,16.92-4.72"/><path class="cls-7" d="M144.23,103.25a21.19,21.19,0,0,1-7.67,5.89,15.2,15.2,0,0,1-7.62,1.27l.06,0a38.74,38.74,0,0,0,15.23-7.11"/><path class="cls-7" d="M146.37,96.42a21,21,0,0,1-6.43,6.72,14.41,14.41,0,0,1-7,2.37l.05-.06a39,39,0,0,0,13.35-9"/><path class="cls-7" d="M147.48,89.63a21.26,21.26,0,0,1-5.23,7.3A14.28,14.28,0,0,1,136,100.2l0-.09a39.93,39.93,0,0,0,11.42-10.48"/><path class="cls-7" d="M147.66,83a21.26,21.26,0,0,1-4.08,7.64,14,14,0,0,1-5.44,4s0-.09.05-.13A41,41,0,0,0,147.66,83"/><path class="cls-7" d="M147,76.76a20.72,20.72,0,0,1-3,7.79A14.06,14.06,0,0,1,139.43,89l0-.18A42,42,0,0,0,147,76.76"/><path class="cls-7" d="M145.7,70.89a20.48,20.48,0,0,1-2,7.77,14,14,0,0,1-3.81,4.83v-.2a40.56,40.56,0,0,0,5.78-12.4"/><path class="cls-7" d="M143.77,65.51a19.71,19.71,0,0,1-1,7.6,13.78,13.78,0,0,1-3.06,5l0-.19a41.62,41.62,0,0,0,4.12-12.46"/><path class="cls-7" d="M141.33,60.65a18.94,18.94,0,0,1-.16,7.31,13.52,13.52,0,0,1-2.37,5.19c0-.06,0-.12-.05-.18a44.64,44.64,0,0,0,2.58-12.32"/><path class="cls-7" d="M138.46,56.35a17.8,17.8,0,0,1,.64,6.92,13.22,13.22,0,0,1-1.72,5.25l0-.14a42.91,42.91,0,0,0,1.13-12"/><path class="cls-7" d="M135.25,52.6a16.61,16.61,0,0,1,1.35,6.46,12.43,12.43,0,0,1-1.09,5.22s0,0,0-.08a40.49,40.49,0,0,0-.22-11.6"/><path class="cls-7" d="M131.78,49.4a15.89,15.89,0,0,1,2,6,12.11,12.11,0,0,1-.49,5.12l0,0a37.59,37.59,0,0,0-1.46-11"/><path class="cls-7" d="M128.1,46.74h0a15,15,0,0,1,2.53,5.4,11.29,11.29,0,0,1,.08,4.93l0,0a34.94,34.94,0,0,0-2.59-10.31"/><path class="cls-7" d="M103.76,122.29a51,51,0,0,0,19,4.09,29,29,0,0,1-12.73-.5,23.8,23.8,0,0,1-6.35-2.73,1.13,1.13,0,0,0,.05-.32Z"/><path class="cls-8" d="M122.24,47.14a26.74,26.74,0,0,1-1.88-4.25,31.82,31.82,0,0,1,4.48,8.58c-.93-1.43-1.81-2.87-2.6-4.33"/><path class="cls-8" d="M118.65,45.45a25.24,25.24,0,0,1-2.25-3.81,31.52,31.52,0,0,1,5.22,7.63c-1.06-1.26-2.06-2.52-3-3.82"/><path class="cls-8" d="M115,44.15a23.27,23.27,0,0,1-2.56-3.37,31.07,31.07,0,0,1,5.81,6.67c-1.14-1.07-2.24-2.17-3.25-3.3"/><path class="cls-8" d="M103.76,121.68c3.13.78,6.08,1.45,8.93,2.1,3.73.86,7.07,1.66,10.1,2.61a51.23,51.23,0,0,1-19-4.1Z"/><path class="cls-8" d="M103.61,120.84c19.06-1.44,32.46-15.08,35-32.62,2.55-18.24-6.78-34.37-21.76-41.16a42.74,42.74,0,0,0-4.41-1.71l0-.07,1.19.36a37.39,37.39,0,0,1,14.27,8.43c-.79-1.6-1.53-3.2-2.17-4.82a29.46,29.46,0,0,1-1.44-4.67,33.36,33.36,0,0,1,3.61,9.49h0A36.74,36.74,0,0,1,130.67,57c-.61-1.75-1.17-3.48-1.63-5.22a32.06,32.06,0,0,1-.94-5.06,34.94,34.94,0,0,1,2.59,10.31l0,0a37.35,37.35,0,0,1,2.47,3.27c-.4-1.85-.76-3.69-1-5.52a33.43,33.43,0,0,1-.38-5.42,37.59,37.59,0,0,1,1.46,11l0,0a36.77,36.77,0,0,1,2.12,3.59c-.19-1.94-.33-3.85-.38-5.75a37.53,37.53,0,0,1,.24-5.71,40.49,40.49,0,0,1,.22,11.6s0,0,0,.08a38.74,38.74,0,0,1,1.74,3.89c0-2,.11-4,.28-5.88a40,40,0,0,1,.93-5.94,42.91,42.91,0,0,1-1.13,12l0,.14a39.52,39.52,0,0,1,1.3,4.17c.28-2,.59-4,1-6a40.52,40.52,0,0,1,1.66-6.09A44.64,44.64,0,0,1,138.75,73c0,.06,0,.12.05.18a41.83,41.83,0,0,1,.81,4.47c.52-2,1.08-4,1.72-6a43.59,43.59,0,0,1,2.44-6.12A41.62,41.62,0,0,1,139.65,78a1.23,1.23,0,0,1,0,.19,41.93,41.93,0,0,1,.26,4.76c.79-2,1.62-4,2.52-6a48.17,48.17,0,0,1,3.25-6,40.56,40.56,0,0,1-5.78,12.4v.2a40.92,40.92,0,0,1-.41,5c1.11-2,2.23-4,3.43-6A50.9,50.9,0,0,1,147,76.76a42,42,0,0,1-7.57,12.09l0,.18a40.46,40.46,0,0,1-1.17,5.25c1.46-2,2.92-3.92,4.44-5.8a54.2,54.2,0,0,1,5-5.44,41,41,0,0,1-9.47,11.48.65.65,0,0,0,0,.13,43.1,43.1,0,0,1-2,5.29c1.84-1.84,3.65-3.66,5.51-5.41a60.89,60.89,0,0,1,5.83-4.9,39.89,39.89,0,0,1-11.42,10.47,1,1,0,0,1,0,.1,38.17,38.17,0,0,1-2.92,5.12c2.22-1.6,4.39-3.21,6.59-4.74a65.46,65.46,0,0,1,6.68-4.16,39,39,0,0,1-13.35,9l-.05.06a35.69,35.69,0,0,1-3.87,4.74c2.6-1.27,5.11-2.56,7.62-3.77a71.68,71.68,0,0,1,7.51-3.23A38.74,38.74,0,0,1,129,110.36l-.06,0a35.57,35.57,0,0,1-4.76,4.09c2.91-.82,5.7-1.69,8.46-2.5a82.19,82.19,0,0,1,8.28-2.08A39.35,39.35,0,0,1,124,114.64l-.11.07a36.2,36.2,0,0,1-5.53,3.21c3.11-.3,6.07-.67,9-1,3.21-.37,6.19-.67,9-.73A41.4,41.4,0,0,1,118,118.1l-.22.1a38,38,0,0,1-6.24,2.17c3.21.25,6.26.41,9.21.58,3.49.2,6.67.42,9.61.83a45.49,45.49,0,0,1-19.52-1.24l-.42.09a39.18,39.18,0,0,1-6.63.89v-.17a.9.9,0,0,0-.15-.51"/><path class="cls-9" d="M100,116.72h3.2a13.38,13.38,0,0,0,1.25-2.29l.22-.54v0H95.32l.23.56a14.12,14.12,0,0,0,.94,1.81c.1.16.2.32.31.48Z"/><path class="cls-10" d="M102.37,123.73h.49a.91.91,0,0,0,.85-.58,1.13,1.13,0,0,0,.06-.32v-1.48a.91.91,0,0,0-.16-.51,1,1,0,0,0-.4-.32l2.23-2.56a2.2,2.2,0,0,0,.19-2.63l-.95-1.46v0l-.22.54a13.38,13.38,0,0,1-1.25,2.29,13.12,13.12,0,0,1-1.44,1.79L100,120.34l-1.76-1.83a13.12,13.12,0,0,1-1.44-1.79c-.11-.16-.21-.32-.31-.48a14.12,14.12,0,0,1-.94-1.81l-.23-.56-.95,1.46a2.2,2.2,0,0,0,.19,2.63l2.23,2.56a1,1,0,0,0-.4.32.9.9,0,0,0-.15.51v1.48a1.13,1.13,0,0,0,.05.32.91.91,0,0,0,.85.58h.49a18.59,18.59,0,0,1-5.75,4h3.48a16.58,16.58,0,0,0,3.61-4H101a16.58,16.58,0,0,0,3.61,4h3.48a18.59,18.59,0,0,1-5.75-4"/><path class="cls-9" d="M95.37,127.78v3.42a21.36,21.36,0,0,0,4.64-7.27,21.36,21.36,0,0,0,4.64,7.27v-3.42a16.62,16.62,0,0,1-3.6-4H99a16.62,16.62,0,0,1-3.6,4"/><path class="cls-11" d="M100,94a11.73,11.73,0,1,1,11.72-11.72A11.72,11.72,0,0,1,100,94"/><path class="cls-8" d="M108.72,83.06c-2.55,0-6.06,1.8-8.07,3a48.24,48.24,0,0,1-.12-8.51h0c1.24.79.89,3,.63,3.61a0,0,0,0,0,0,0,3.9,3.9,0,0,0,.47-4.38s0,0,0,0A3.73,3.73,0,0,1,103,80.2s0,0,0,0a3.64,3.64,0,0,0-1-4.51s0,0,0,0a3,3,0,0,1,2.18,2.93v0s0,0,0,0a3.25,3.25,0,0,0,0-2,3,3,0,0,0-2.24-1.8s0,0,0,0a2.83,2.83,0,0,1,2.24.6,1.85,1.85,0,0,1,.43.53,0,0,0,0,0,0,0,2,2,0,0,0-.46-1.09,2.57,2.57,0,0,0-2.79-.7s0,0,0,0a1.84,1.84,0,0,1,2.17-.59s0,0,0,0a1.81,1.81,0,0,0-3,.13h0c-.08-.15-.16-.31-.23-.47A4.8,4.8,0,0,1,100,72s0,0,0,0a5.27,5.27,0,0,1-.3,1.2c-.08.16-.15.32-.24.47h0a1.8,1.8,0,0,0-3-.13s0,0,0,0a1.86,1.86,0,0,1,2.17.59s0,0,0,0a2.59,2.59,0,0,0-2.79.7A2,2,0,0,0,95.37,76a0,0,0,0,0,0,0,1.85,1.85,0,0,1,.43-.53,2.83,2.83,0,0,1,2.24-.6s0,0,0,0a3,3,0,0,0-2.25,1.8,3.25,3.25,0,0,0,0,2s0,0,0,0v0A3,3,0,0,1,98,75.68s0,0,0,0a3.64,3.64,0,0,0-1,4.51s0,0,0,0a3.73,3.73,0,0,1,1.25-3.46s0,0,0,0a3.89,3.89,0,0,0,.48,4.38s0,0,0,0c-.26-.63-.61-2.82.63-3.61h0A48.24,48.24,0,0,1,99.35,86c-2-1.17-5.52-3-8.06-3a4.43,4.43,0,0,0-1.4.21c3.36.54,7.35,2.87,9,3.94A42.3,42.3,0,0,1,94,90c-.22,0-.24-.25-.42-.25s-.16.11-.16.16c0,.72,1,1.19,1.77.82L100,87.94l4.85,2.81c.79.37,1.77-.1,1.77-.82,0-.05,0-.16-.16-.16s-.2.25-.41.25a41.5,41.5,0,0,1-5-2.81c1.67-1.07,5.66-3.4,9-3.94a4.4,4.4,0,0,0-1.39-.21"/><path class="cls-3" d="M119.4,80.53c1.62.13,5,.55,6.1-.2.06.29-1,1.38-4.48,1.15-2.88-.19-6.63-.61-7.67.26.27-1.24,2.7-1.49,6.05-1.21"/><polygon class="cls-3" points="66.86 92.96 67.23 93.69 76.22 89.1 66.86 92.96"/><polygon class="cls-3" points="130.34 89.29 129.13 89.32 130.9 90.12 131.42 89.27 130.82 89.28 130.34 89.29"/><path class="cls-3" d="M128.86,94.13l-8.41-4.38a6.3,6.3,0,0,0-3.77-.65l3.94,5.54,6.19,3.49-.38.93,3,1.54.9-1.78a3.48,3.48,0,0,0-1.5-4.69"/><path class="cls-3" d="M110.49,101.47a7.84,7.84,0,0,0-.55-1,4.83,4.83,0,0,1-1.63,4.54l1.32-.91a8.12,8.12,0,0,1-3.5,4.16c-2.42,1.14-6.13,2.37-6.13,2.76,0-.4-3.9-1.62-6.32-2.76a8.16,8.16,0,0,1-3.51-4.16l2,.82.72-.13a6.43,6.43,0,0,1-2.08-2.21,6,6,0,0,1-.34-.67,5.2,5.2,0,0,1-.38-1.44,6.82,6.82,0,0,0-.56,1c-.07.14-.13.28-.19.42a5.66,5.66,0,0,0,.24,4.78l.53-.76c1.48,4.3,7.68,4.09,9.91,7.18h0c2.23-3.09,8.43-2.88,9.91-7.18l.54.76a5.7,5.7,0,0,0,.23-4.78c-.06-.14-.12-.28-.19-.42"/><path class="cls-3" d="M80.6,80.53c-1.62.13-5,.55-6.1-.2-.06.29,1,1.38,4.48,1.15,2.88-.19,6.63-.61,7.67.26-.27-1.24-2.7-1.49-6.05-1.21"/><path class="cls-3" d="M84.27,79.34a3.59,3.59,0,0,0-.35-.47c-1.68-1.89-4.92-.82-8.31-.51-2.94.26-4.09,0-5-.38-.61-.26-.66-.37-.66-.37a.12.12,0,0,0,0,0c0,.43,1.47,2,5.77,1.69,3.89-.28,7-1,8.59,0"/><path class="cls-3" d="M115.73,79.34a3.59,3.59,0,0,1,.35-.47c1.68-1.89,4.92-.82,8.31-.51,2.94.26,4.09,0,5-.38.62-.26.66-.37.66-.37a.12.12,0,0,1,0,0c0,.43-1.47,2-5.78,1.69-3.88-.28-7-1-8.58,0"/><polygon class="cls-12" points="125.13 97.18 126.81 98.14 126.43 99.06 125.13 97.18"/><path class="cls-12" d="M86,71.07l-3.74-1.91L81.86,69l-.77-.39.1-.19a.53.53,0,0,0-.21-.7l-2.35-1.31-.4-.22-3.64-2-.4-.22L71.7,62.5l-.53,1-1,1.92-.51,1,.61.31,0-.07a2.07,2.07,0,0,1,2.78-.91l7.47,3.77-.48.94.38-.1a3.33,3.33,0,0,1,2.24.27L90,74.37c.28-.28.57-.56.87-.82l-4.46-2.27Z"/><path class="cls-12" d="M108.31,105.05a4.81,4.81,0,0,0,1.62-4.54,4.89,4.89,0,0,1-.39,1.44,4.62,4.62,0,0,1-.33.67,6.43,6.43,0,0,1-2.08,2.21Z"/><path class="cls-12" d="M103.9,107.93a3.26,3.26,0,0,1-.7-.07h0a13.67,13.67,0,0,0-2.51,1,3.8,3.8,0,0,0-.69.46V94.22c-.43,0-.85,0-1.27,0v11a2.87,2.87,0,0,1-.71,2.07c-1.5,1.53-5.09.52-6.33-2.17l.46-.08-2-.83a8.16,8.16,0,0,0,3.51,4.16c2.42,1.14,6.32,2.36,6.32,2.76,0-.39,3.71-1.62,6.13-2.76a8.12,8.12,0,0,0,3.5-4.16l-1.32.91a5.07,5.07,0,0,1-4.41,2.88"/><path class="cls-12" d="M101.47,54.79A9.52,9.52,0,0,1,100,55c-.45,0-.92,0-1.59,0a.43.43,0,0,0,.14.23.93.93,0,0,0,.18.13,2.47,2.47,0,0,0,.9.29l.37,0V70.3a14.14,14.14,0,0,0-3.52.42V65.43a.86.86,0,0,1,.49-.78l.74-.43a1,1,0,0,0-.49,1l0,.25L98,70.06V55.83a11.27,11.27,0,0,1,.73-4L100,48.43v5.12c0,.74.08,1.17,1.47,1.24"/><polygon class="cls-12" points="78.07 92.73 69.08 97.31 69.45 98.03 78.07 92.73"/><path class="cls-12" d="M78.4,82.38h0"/><path class="cls-12" d="M86.65,81.74h0c-1.64-.48-7.19.79-8.26.63h0c.25.3,2.25.27,4.59.2a10,10,0,0,1,3.75.33c-.06-1-.09-1.16-.09-1.17"/><path class="cls-12" d="M86.63,81.64a3.75,3.75,0,0,0-2.09-2.19l-.27-.11c-1.32-.48-2.63.1-7,.83a13.2,13.2,0,0,1-2.79.16h0c1,.75,4.48.33,6.1.19,3.35-.27,5.78,0,6.05,1.22a.44.44,0,0,0,0-.1"/><path class="cls-12" d="M84.15,79.15a5.17,5.17,0,0,0-1.92-1.91c-1.39-.7-3-.29-5.26,0-3.09.38-6,.79-7,.38,0,0,0,.11.66.37.94.41,2.09.64,5,.38,3.39-.31,6.63-1.38,8.31.51a3.59,3.59,0,0,1,.35.47l-.12-.19"/><path class="cls-12" d="M121.6,82.38h0"/><path class="cls-12" d="M113.35,81.74h0c1.64-.48,7.19.79,8.26.63h0c-.25.3-2.25.27-4.59.2a10,10,0,0,0-3.75.33c.06-1,.09-1.16.09-1.17"/><path class="cls-12" d="M113.37,81.64a3.75,3.75,0,0,1,2.09-2.19l.27-.11c1.33-.48,2.63.1,7,.83a13.2,13.2,0,0,0,2.79.16h0c-1,.75-4.48.33-6.1.19-3.35-.27-5.78,0-6.05,1.22a.44.44,0,0,1,0-.1"/><path class="cls-12" d="M115.85,79.15a5.17,5.17,0,0,1,1.92-1.91c1.4-.7,3-.29,5.26,0,3.09.38,6,.79,7.05.38,0,0,0,.11-.66.37-.94.41-2.09.64-5,.38-3.4-.31-6.64-1.38-8.32.51a3.59,3.59,0,0,0-.35.47l.12-.19"/><path class="cls-12" d="M82.54,85.88l-.84.43-3.19.48-.46.07L74,87.48l-.46.07-.39.06a25.94,25.94,0,0,0-3.6,1l-.44.16A26.82,26.82,0,0,0,66.38,90l-.83.42L66.86,93l9.36-3.87-9,4.59-.92.46-.42.21a37.71,37.71,0,0,0,1.6,3.75,2.07,2.07,0,0,1,.91-2.8L87.28,85.7a11.73,11.73,0,0,1-.45-1.86l-.17-.06L83,85.67Z"/><path class="cls-12" d="M83.56,75.2a9.21,9.21,0,0,0-4-1.19l-.48,0-1.08,0c-1,0-2.14.06-3.34.13l-.49,0-1.85.12c-.85.05-1.7.09-2.51.1h-1a15.75,15.75,0,0,1-3.58-.58l-.44-.15a1.33,1.33,0,0,1-.24-.12l0,0,.09.1c2.7,2.85,6.69,1.85,14.39,1.54,3.63-.14,6,2.53,7.85,5.6a9.84,9.84,0,0,1,.31-1.43h0a10.17,10.17,0,0,0-1.78-2.6A9.64,9.64,0,0,0,84,75.45l-.39-.25"/><path class="cls-12" d="M116.05,75.45l.39-.25h0a9.21,9.21,0,0,1,4-1.19l.48,0,1.08,0c1,0,2.14.06,3.34.13l.49,0,1.85.12c.85.05,1.7.09,2.51.1h1a15.75,15.75,0,0,0,3.58-.58l.44-.15a1.33,1.33,0,0,0,.24-.12l.05,0-.09.1c-2.7,2.85-6.69,1.85-14.39,1.54-3.63-.14-6,2.53-7.85,5.6a9.84,9.84,0,0,0-.31-1.43h0a10.17,10.17,0,0,1,1.78-2.6,9.64,9.64,0,0,1,1.42-1.19"/><path class="cls-5" d="M100,35.2a1.4,1.4,0,0,1-.37.68c-.2.23-.45.49-.72.83-1.4.69-5.35.24-5.35,4.17A3.46,3.46,0,0,0,95,43.64,3.25,3.25,0,0,1,92.47,41a3.91,3.91,0,0,1,2.25-4.17c1.5-.75,4.46-.68,5.14-1.59H100"/><path class="cls-5" d="M92.17,38.18a4.16,4.16,0,0,0-.23.42l0,.08h0a2.9,2.9,0,0,0-2.23,2.83,2.49,2.49,0,0,0,.42,1.5,1.92,1.92,0,0,0,.18.22h0a3.23,3.23,0,0,1-.29-4.4,6.4,6.4,0,0,1,2.36-2h0a3.76,3.76,0,0,0-.19,1.37"/><path class="cls-5" d="M91.18,44.61h0a5,5,0,0,1,2.36,3.56A15.43,15.43,0,0,1,100,46.86c-3-2.79-7.26-2.21-8.82-2.25"/><path class="cls-5" d="M100,35.2a1.49,1.49,0,0,0,.37.68c.2.23.45.49.72.83,1.4.69,5.35.24,5.35,4.17a3.46,3.46,0,0,1-1.39,2.76A3.25,3.25,0,0,0,107.53,41a3.92,3.92,0,0,0-2.24-4.17c-1.51-.75-4.47-.68-5.15-1.59H100"/><path class="cls-5" d="M107.83,38.18a4.16,4.16,0,0,1,.23.42l0,.08h0a2.9,2.9,0,0,1,2.23,2.83,2.49,2.49,0,0,1-.42,1.5,1.24,1.24,0,0,1-.18.22h0a3.23,3.23,0,0,0,.29-4.4,6.4,6.4,0,0,0-2.36-2h0a3.76,3.76,0,0,1,.19,1.37"/><path class="cls-4" d="M107.64,36.81h0a6.4,6.4,0,0,1,2.36,2,3.23,3.23,0,0,1-.29,4.4h0a3.12,3.12,0,0,1-3,.82l-.13,0a3.36,3.36,0,0,0,2-3.14,5.83,5.83,0,0,0-.13-1.21,5.77,5.77,0,0,0-.32-1,.3.3,0,0,1,0-.08,4.16,4.16,0,0,0-.23-.42c-2-3.38-5-2.3-6.63-3.66a1.52,1.52,0,0,1-.45.46,1.39,1.39,0,0,1-.61.21c.68.91,3.64.84,5.15,1.59A3.92,3.92,0,0,1,107.53,41a3.25,3.25,0,0,1-2.48,2.69c-.82-.18-1.39-.33-2-.43a13.06,13.06,0,0,0-2.17-.2,7.89,7.89,0,0,0,.2-6.3h0c-.54-.68-1-1-1.09-1.51-.07.47-.55.83-1.09,1.51h0a7.81,7.81,0,0,0-.56,2.92A7.89,7.89,0,0,0,99.11,43a13,13,0,0,0-2.17.2c-.6.1-1.17.25-2,.43A3.25,3.25,0,0,1,92.47,41a3.92,3.92,0,0,1,2.24-4.17c1.51-.75,4.47-.68,5.15-1.59a1.43,1.43,0,0,1-.62-.21,1.48,1.48,0,0,1-.44-.46c-1.62,1.36-4.68.28-6.63,3.66a4.16,4.16,0,0,0-.23.42.3.3,0,0,1,0,.08,5,5,0,0,0-.32,1,5.83,5.83,0,0,0-.13,1.21,3.36,3.36,0,0,0,2,3.14l-.13,0a3.12,3.12,0,0,1-3-.82h0a3.23,3.23,0,0,1-.29-4.4,6.4,6.4,0,0,1,2.36-2h0a4.69,4.69,0,0,0-4,6.87c0,.11.12.22.18.33l.27,0a4.54,4.54,0,0,1,2.31.62h0c1.57,0,5.88-.54,8.83,2.24h0c3-2.78,7.25-2.2,8.82-2.24h0a4.54,4.54,0,0,1,2.31-.62l.26,0c.07-.11.13-.22.19-.33a4.69,4.69,0,0,0-4-6.87"/><path class="cls-5" d="M108.83,44.61h0a5,5,0,0,0-2.36,3.56A15.43,15.43,0,0,0,100,46.86c3-2.79,7.26-2.21,8.83-2.25"/><path class="cls-3" d="M135.49,73.43l-.09.1c-2.7,2.85-6.68,1.85-14.39,1.54-3.63-.14-6,2.53-7.84,5.6a11.39,11.39,0,0,0-.32-1.43,10.82,10.82,0,0,0-.53-1.44c-.08-.18-.16-.36-.25-.53v0a12.09,12.09,0,0,0-.84-1.38L122.77,70A12.73,12.73,0,0,0,128,65l-3.37,1.7c-.06,0-1.57.85-1.16,2.06a6.57,6.57,0,0,1-1.41-2.51,10.71,10.71,0,0,0,0,1.73l-12.29,6.23a12.4,12.4,0,0,0-1.68-1.38l4-5.13-.2-1.62,9-11.65-.39-.31-8.34,10.74L106.75,72l0,0h0a13.27,13.27,0,0,0-3.18-1.23V65.43a.86.86,0,0,0-.49-.78S102,64,102,64V55.83a11.27,11.27,0,0,0-.73-4L100,48.43v5.11c0,.75.08,1.18,1.47,1.25A9.34,9.34,0,0,1,100,55c-.45,0-.92,0-1.59,0,0,0,0,.18.32.36a2.47,2.47,0,0,0,.9.29l.37,0V70.29a14.63,14.63,0,0,0-3.52.43A15.24,15.24,0,0,0,93.25,72L79.44,54.14l-.4.29,9,11.65-.19,1.62,4,5.12c-.35.24-.68.49-1,.73s-.59.53-.87.82l-7.3-3.68a3.33,3.33,0,0,0-2.24-.27l-.38.09.47-.93-7.46-3.77a2.07,2.07,0,0,0-2.78.91l0,.07,9,4.15a.53.53,0,0,0,.69-.23l.1-.2,9.2,4.67a11.51,11.51,0,0,0-2.15,4.06,9.84,9.84,0,0,0-.31,1.43C85,77.6,82.62,74.93,79,75.07c-7.7.31-11.69,1.31-14.39-1.54l-.09-.11c-.08.22.17.66.3.85.71,1,2.67,2.57,6.91,2.34a73.83,73.83,0,0,1,8-.26,5.36,5.36,0,0,1,2.54.89,5.17,5.17,0,0,1,1.92,1.91l.12.19.27.11a3.72,3.72,0,0,1,2.09,2.19.44.44,0,0,1,0,.1s0,.2.09,1.17A10,10,0,0,0,83,82.58c-2.34.07-4.34.1-4.59-.2h0c.23.32,1.61,1,3.95.91a13.62,13.62,0,0,1,4.32.49l.17.06a10.71,10.71,0,0,0,.44,1.86L68.4,95.31a2.08,2.08,0,0,0-.91,2.8l1.59-.8,9-4.58L69.45,98l1.31,2.57.83-.42a27.15,27.15,0,0,0,5.86-4.06l6.18-6.22,4.49-2.3h0a11.38,11.38,0,0,0,1.21,1.78,13.3,13.3,0,0,0,5.9,4,15,15,0,0,0,3.49.74c.42,0,.84,0,1.27,0v15.11a8.86,8.86,0,0,1,3.2-1.47,2.4,2.4,0,0,1-1.22-.64,2.89,2.89,0,0,1-.71-2.07v-11a14.84,14.84,0,0,0,3.49-.74,13.3,13.3,0,0,0,5.9-4,11.41,11.41,0,0,0,1-1.4h0a12.47,12.47,0,0,0,.61-1.14h0l4.42,2.25a5.6,5.6,0,0,0-2.53-2.58l-1.46-.73a11.28,11.28,0,0,0,.48-2l.17-.06a13.56,13.56,0,0,1,4.31-.49c2.34,0,3.72-.59,3.95-.91h0c-.25.3-2.25.27-4.59.2a10,10,0,0,0-3.75.33c.06-1,.09-1.17.09-1.17s0-.06,0-.1a3.72,3.72,0,0,1,2.09-2.19l.27-.11.12-.19a5.24,5.24,0,0,1,1.92-1.91,5.36,5.36,0,0,1,2.54-.89,73.83,73.83,0,0,1,8,.26c4.24.23,6.21-1.3,6.91-2.34.14-.21.38-.64.3-.84M100,94a11.73,11.73,0,1,1,11.72-11.72A11.72,11.72,0,0,1,100,94"/><path class="cls-12" d="M131.42,89.27l-.53.85-1.76-.8-2.75-1.26-.42-.19-1.53-.7-2.56,0h-.47l-3.65,0-.56-.28-.41-.22L113,84.8c-.08.32-.17.65-.29,1l1.46.74a5.58,5.58,0,0,1,2.52,2.54,0,0,0,0,1,0,0,6.3,6.3,0,0,1,3.77.65l8.41,4.38a3.48,3.48,0,0,1,1.5,4.69l-.9,1.78,5-9.79Z"/><path class="cls-12" d="M106.69,72h0l0,0,5.48-7.12,8.34-10.73-.7-.56-7,8.93-5.85,7.56,5-8.21-5.16,6.29-.79,0-2.2,2.66A13.27,13.27,0,0,1,106.69,72"/><path class="cls-3" d="M112.09,61.86h0l-.69-.54a1.5,1.5,0,0,0-.49-.27c-.5-.12-.92.28-1,1.22l-.41,2.79Z"/><path class="cls-6" d="M109.88,62.25c0-.08,0-.15,0-.22a22.13,22.13,0,0,0-7.59-2.2v.46a21.76,21.76,0,0,1,7.52,2.21Z"/><polygon class="cls-3" points="112.9 62.52 112.09 61.85 107.07 70.06 112.9 62.52"/><path class="cls-12" d="M79.44,54.14,93.25,72a14.75,14.75,0,0,1,2.81-1.14l-2.2-2.66-.79,0-5.16-6.29-.83.65-7-8.93Z"/><path class="cls-3" d="M90.54,65.05l-.42-2.8c-.11-.93-.53-1.33-1-1.21a1.5,1.5,0,0,0-.49.27l-.69.54Z"/><path class="cls-6" d="M90.08,62c0,.08,0,.15,0,.23l0,.25a21.76,21.76,0,0,1,7.52-2.21v-.46A22.34,22.34,0,0,0,90.08,62"/><polygon class="cls-3" points="92.93 70.06 87.91 61.85 87.08 62.5 92.93 70.06"/><path class="cls-12" d="M117.47,68.08l-.41.21-3.79,1.93-.42.22-4.7,2.4a11.54,11.54,0,0,1,1.67,1.37L122.11,68a10.71,10.71,0,0,1,0-1.73,2.22,2.22,0,0,0,.1.41,4.9,4.9,0,0,0,.4.84l.25.39a10.52,10.52,0,0,0,.66.87,1.38,1.38,0,0,1-.07-.43,1.9,1.9,0,0,1,.85-1.38l.29-.2c.11-.07-.22.11,3.46-1.75a12.88,12.88,0,0,0-1.49-.06h0L126,65a12.91,12.91,0,0,0-4.33,1l-.42.2-.31.15Z"/><path class="cls-6" d="M114.25,92.89a17.78,17.78,0,0,0,2-3.33l-.41-.21A17.42,17.42,0,0,1,114,92.52Z"/><path class="cls-6" d="M116.8,97a23.54,23.54,0,0,0,2.52-3.44l-.29-.41a21.82,21.82,0,0,1-2.52,3.49Z"/><path class="cls-6" d="M119.74,100.59a26.89,26.89,0,0,0,3.14-4l-.4-.22a26.86,26.86,0,0,1-3,3.91Z"/><path class="cls-6" d="M122.68,104.17a30.89,30.89,0,0,0,3.64-4.5l-.28-.4a30.76,30.76,0,0,1-3.65,4.54Z"/><path class="cls-6" d="M77.61,103.81a31.51,31.51,0,0,1-3.56-4.41l-.39.24h0a31.27,31.27,0,0,0,3.66,4.53Z"/><path class="cls-6" d="M80.55,100.23a26.58,26.58,0,0,1-2.86-3.65l-.35.31a26.85,26.85,0,0,0,2.92,3.7Z"/><path class="cls-6" d="M83.5,96.65A22.65,22.65,0,0,1,81,93.23l-.33.33A23.1,23.1,0,0,0,83.2,97Z"/><path class="cls-6" d="M86.05,92.52a17.64,17.64,0,0,1-1.53-2.45l-.41.21a17,17,0,0,0,1.64,2.6Z"/><path class="cls-6" d="M82.38,55.9l-.29.19.28.37.3-.21a31,31,0,0,1,16-5.23l.17-.46a31.38,31.38,0,0,0-16.5,5.34"/><path class="cls-6" d="M91.93,66.75l.42-.22a17.4,17.4,0,0,1,3.79-1.34,1.11,1.11,0,0,1,.23-.52,18.11,18.11,0,0,0-4.32,1.5l-.42.22Z"/><path class="cls-6" d="M107.65,66.54c.14.06.28.14.42.21l.3-.36-.42-.22a18.11,18.11,0,0,0-4.32-1.5,1.11,1.11,0,0,1,.23.52,16.91,16.91,0,0,1,3.79,1.35"/><path class="cls-6" d="M114.8,60.09l.28-.37-.39-.26a26.9,26.9,0,0,0-12.43-4.25l0,.47a26.18,26.18,0,0,1,12.1,4.14l.41.27"/><path class="cls-6" d="M117.63,56.45l.28-.36-.29-.2a31.46,31.46,0,0,0-16.5-5.33l.16.46a31.12,31.12,0,0,1,16,5.23l.3.2"/><path class="cls-3" d="M97.26,65.52,98,70.06V64l-.32.18a1,1,0,0,0-.5,1Z"/><path class="cls-3" d="M81.47,104.55s.44,2.36.84,4.36a1.42,1.42,0,0,1-.08-.18,7.25,7.25,0,0,0-.64-1.21,9.19,9.19,0,0,0-1.17-1.47h0c-1.88-.26-4.71,0-5.87,1.5a.45.45,0,0,0-.11.3.48.48,0,0,0,.22.41L82.26,112a.55.55,0,0,0,.25.07.47.47,0,0,0,.33-.14.9.9,0,0,0,.21-.51,47.94,47.94,0,0,1,6.46-14.13,1.88,1.88,0,0,1,.23-.3.58.58,0,0,1,.8,0c.11.11.13.2.26.58,0,0,1.14,3.48,1.18,3.62a1,1,0,0,0,.23.44.58.58,0,0,0,.43.18,1.11,1.11,0,0,0,.63-.24l2-1.43.08-.07a.36.36,0,0,0,.1-.26.42.42,0,0,0-.1-.26.43.43,0,0,0-.19-.1l-2.14-.4h0a12.07,12.07,0,0,0-.79,1.7c0-.44.16-2.46.2-3.21l-1.21-3.11a1,1,0,0,0-.8-.64,1,1,0,0,0-1,.38Z"/><path class="cls-6" d="M74.5,107.61h0s0,0,0,0l0,0a2.09,2.09,0,0,1,.14-.17,35.79,35.79,0,0,1-6.53-9l-.41.2a36.33,36.33,0,0,0,6.69,9.17.36.36,0,0,1,.07-.17"/><path class="cls-12" d="M74.62,107.46c1.21-1.42,4-1.66,5.8-1.41h0a9.19,9.19,0,0,1,1.17,1.47,7.87,7.87,0,0,1,.64,1.2,1.08,1.08,0,0,0,.08.19c-.4-2-.84-4.36-.84-4.36l8-10.33a1,1,0,0,1,1-.38,1,1,0,0,1,.8.64l1.21,3.11c0,.75-.17,2.77-.2,3.21a12.07,12.07,0,0,1,.79-1.7v0l2.14.4a.43.43,0,0,1,.19.1l.08.12-2.13-7.1a12.87,12.87,0,0,1-4-3.21L89,89l-5.12,6.21.06,1Z"/><path class="cls-3" d="M118.53,104.55s-.44,2.36-.84,4.36a1.42,1.42,0,0,0,.08-.18,7.25,7.25,0,0,1,.64-1.21,9.19,9.19,0,0,1,1.17-1.47h0c1.88-.26,4.71,0,5.87,1.5a.45.45,0,0,1,.11.3.48.48,0,0,1-.22.41L117.74,112a.55.55,0,0,1-.25.07.47.47,0,0,1-.33-.14.9.9,0,0,1-.21-.51,47.94,47.94,0,0,0-6.46-14.13,1.88,1.88,0,0,0-.23-.3.58.58,0,0,0-.8,0c-.11.11-.13.2-.26.58,0,0-1.14,3.48-1.17,3.62a1.08,1.08,0,0,1-.24.44.58.58,0,0,1-.43.18,1.11,1.11,0,0,1-.63-.24l-2-1.43a.45.45,0,0,1-.07-.07.33.33,0,0,1-.11-.26.38.38,0,0,1,.11-.26.37.37,0,0,1,.18-.1l2.14-.4h0a12.07,12.07,0,0,1,.79,1.7c0-.44-.15-2.46-.2-3.21l1.21-3.11a1,1,0,0,1,.81-.64,1,1,0,0,1,1,.38Z"/><path class="cls-6" d="M136.22,82.15a36,36,0,0,0-.77-7.46,3.92,3.92,0,0,1-.37.51,35.76,35.76,0,0,1-3.47,23.66h0a35.67,35.67,0,0,1-6.29,8.52,2.09,2.09,0,0,1,.14.17h0l0,0v0h0a.36.36,0,0,1,.07.17A36.4,36.4,0,0,0,132,99.07a36,36,0,0,0,4.2-16.92"/><path class="cls-12" d="M125.38,107.46c-1.21-1.42-3.95-1.66-5.79-1.41h0a9.19,9.19,0,0,0-1.17,1.47,7.87,7.87,0,0,0-.64,1.2,1.08,1.08,0,0,1-.08.19c.4-2,.84-4.36.84-4.36l-8-10.33a1,1,0,0,0-1-.38,1,1,0,0,0-.8.64l-1.21,3.11c0,.75.17,2.77.2,3.21a12.07,12.07,0,0,0-.79-1.7v0l-2.14.4a.43.43,0,0,0-.19.1l-.08.12c.17-.54,2.13-7.1,2.13-7.1a12.87,12.87,0,0,0,4-3.21c.12-.14.23-.29.34-.44l5.12,6.21-.06,1Z"/></g></svg>