<svg id="Layer_1" data-name="Layer 1" xmlns="http://www.w3.org/2000/svg" viewBox="0 0 200 200"><defs><style>.cls-1{fill:#008054;}.cls-2{fill:#ae9a64;}</style></defs><path class="cls-1" d="M172.19,124.34a9.33,9.33,0,0,0-8.75,6.51c-1.47,7.63,7.07,8.12,7.07,8.12l1.68-1.61a11.73,11.73,0,0,1-3.34-.42,5,5,0,0,1-3.31-5.53,6.42,6.42,0,0,1,6.72-5.18v14.84c-.56,2.17-1.33,2.31-1.33,2.31a5.63,5.63,0,0,1-3.57.49l-.07,1.54a7.08,7.08,0,0,0,5.18-.84c1.68-.84,2-3.22,2-3.22v-17Z"/><path class="cls-2" d="M172.5,162.91h1.82v-4.86a9.16,9.16,0,0,0-.2-2.32,2.29,2.29,0,0,0-2.35-1.75,3.39,3.39,0,0,0-1.85.61,9.84,9.84,0,0,0-1.44,1.28V148.8l-1.82,1.09v13h1.82v-6.43a3.67,3.67,0,0,1,2.44-1.32,1.56,1.56,0,0,1,.87.22,1.62,1.62,0,0,1,.66,1.24,13,13,0,0,1,.05,1.42v4.87"/><path class="cls-1" d="M123.55,44.62s-6.59-14.56-22.4-9.8a.55.55,0,0,1-.4-.42,5.82,5.82,0,0,0-.58-2.1,5.59,5.59,0,0,0-.58,2.1.55.55,0,0,1-.4.42c-15.82-4.76-22.4,9.8-22.4,9.8,5.74-6,12-5.6,12-5.6-8.54,7.7-6.44,16.66-6.44,16.66,2.24-9,8.26-11.34,8.26-11.34-4.9,11.9,2.66,19.6,2.66,19.6C89.53,50.5,97.79,44.2,97.79,44.2a53.35,53.35,0,0,0,2.38,19.74,53.35,53.35,0,0,0,2.38-19.74s8.26,6.3,4.48,19.74c0,0,7.56-7.7,2.66-19.6,0,0,6,2.38,8.26,11.34,0,0,2.1-9-6.44-16.66,0,0,6.3-.42,12,5.6"/><path class="cls-2" d="M103.53,101.8h14.91S99.33,86.06,88.73,79.23c0,0-19.22-13.75-29.72-11.55,0,0-14.69.53-13.75,20.9,0,0-2-15.47,13.86-17.22,0,0,7.14-1.26,18.16,7,0,0,22.15,17.75,26.25,23.41"/><path class="cls-2" d="M96.72,101.8H81.81s19.11-15.74,29.71-22.57c0,0,19.21-13.75,29.71-11.55,0,0,14.7.53,13.75,20.9,0,0,2-15.47-13.85-17.22,0,0-7.14-1.26-18.17,7,0,0-22.15,17.75-26.24,23.41"/><path class="cls-1" d="M81.81,74.87A15.92,15.92,0,0,1,95.13,68c12.6.42,24.15,13.86,24.15,13.86l8.92,8.5c18.79,15.86,25.72,2.14,25.72,2.14v0c-3.36,8.19-12.7,9.35-12.7,9.35-13.55,1.78-27.09-14.49-27.09-14.49l-7.56-7.56c-16.06-13-24.76-4.93-24.76-4.93Z"/><rect class="cls-1" x="59.97" y="79.38" width="7.24" height="7.24" transform="translate(-40.06 69.28) rotate(-45)"/><rect class="cls-1" x="51.09" y="79.38" width="7.24" height="7.24" transform="translate(-42.66 62.99) rotate(-45)"/><path class="cls-1" d="M156.51,141.07c-.56,2.17-1.33,2.31-1.33,2.31a5.63,5.63,0,0,1-3.57.49l-.07,1.54a7.08,7.08,0,0,0,5.18-.84c1.68-.84,2-3.22,2-3.22V126.23h-2.17Z"/><path class="cls-1" d="M138.94,141.07c-.56,2.17-1.33,2.31-1.33,2.31a5.63,5.63,0,0,1-3.57.49l-.07,1.54a7.08,7.08,0,0,0,5.18-.84c1.68-.84,2-3.22,2-3.22V126.23h-2.17Z"/><rect class="cls-1" x="147.41" y="115.1" width="2.17" height="23.73"/><rect class="cls-1" x="107.94" y="115.1" width="2.17" height="23.73"/><path class="cls-1" d="M99.08,137.22H92.61c1.75-10-4.48-12-4.48-12C81.41,123.08,76.3,132,76.3,132c-.42.7-2.87,5.25-2.87,5.25v-8H71.26v8h-6V135.4s.28-8-9-10.15H46.07V127H55.3s6.58.38,7.63,7.87v2.38H37.46V123.85H35.22c-8,0-9.24,6.86-9.24,6.86-1.09,8.86,7.25,8.07,7.25,8.07l1.49-1.43c-.53-.08-3-.13-3-.13-4.43-1.29-3.49-6.23-3.49-6.23a6.86,6.86,0,0,1,7.11-5.25v13.09h66V115.1H99.08ZM81.27,128.4c6.93-4.48,8.75,1.75,8.75,1.75,1,2.26.66,5.56.42,7.07H75.53c.77-5.25,5.74-8.82,5.74-8.82"/><path class="cls-1" d="M120.33,131.34a6.84,6.84,0,0,0,5.52,7.49h6V124h-3.7s-6.65,1.05-7.84,7.35m9.44,6h-3.83c-4.06-1.34-3.53-5.95-3.53-5.95a6.75,6.75,0,0,1,5-5.84h2.36Z"/><path class="cls-1" d="M35.92,120.56a1.68,1.68,0,1,0-1.68-1.68,1.68,1.68,0,0,0,1.68,1.68"/><path class="cls-1" d="M31.3,120.56a1.68,1.68,0,1,0-1.68-1.68,1.68,1.68,0,0,0,1.68,1.68"/><path class="cls-1" d="M130.56,117.2a1.68,1.68,0,1,0,1.68,1.68,1.68,1.68,0,0,0-1.68-1.68"/><path class="cls-1" d="M157.56,117.2a1.68,1.68,0,1,0,1.68,1.68,1.68,1.68,0,0,0-1.68-1.68"/><path class="cls-1" d="M125.94,120.56a1.68,1.68,0,1,0-1.68-1.68,1.68,1.68,0,0,0,1.68,1.68"/><path class="cls-2" d="M57.79,148.89a1.16,1.16,0,0,0-.78.28.91.91,0,0,0-.32.71.93.93,0,0,0,.32.71,1.12,1.12,0,0,0,.78.29,1.1,1.1,0,0,0,.77-.29,1,1,0,0,0,.31-.71.94.94,0,0,0-.31-.71,1.14,1.14,0,0,0-.77-.28"/><path class="cls-2" d="M65.66,158.26l-1.58-.69c-1.15-.51-1.72-1.12-1.72-1.82a1,1,0,0,1,.57-.87,2,2,0,0,1,1.12-.31,2.55,2.55,0,0,1,1.24.28,5.9,5.9,0,0,1,1.42,1.23l.6-.87-1.46-.91-.35-.09a5.81,5.81,0,0,0-1.42-.23,3.24,3.24,0,0,0-2.16.72,2.38,2.38,0,0,0-.85,1.9,2.19,2.19,0,0,0,.78,1.7,7.89,7.89,0,0,0,1.76,1,11.41,11.41,0,0,1,1.68.87,1.75,1.75,0,0,1,.93,1.44,1.2,1.2,0,0,1-.49,1,1.89,1.89,0,0,1-1.18.37l-1.09-.26c-.81-.14-2.07-1.64-2.07-1.64l-.73.56a5.32,5.32,0,0,0,1.81,1.65,8.09,8.09,0,0,0,2.08.3,3.62,3.62,0,0,0,2.31-.78,2.4,2.4,0,0,0,1-2c0-1.07-.73-1.93-2.18-2.59"/><path class="cls-2" d="M73.06,162.34q-1,0-1-1.5V155h2.31v-.71H72.07v-3h-.36a8.27,8.27,0,0,1-.69,1.39,5,5,0,0,1-2.33,2V155h1.58v6.09a3.67,3.67,0,0,0,.22,1.44,1.72,1.72,0,0,0,1.69,1,2.43,2.43,0,0,0,2.48-1.78h-.41a1.1,1.1,0,0,1-1.19.66"/><path class="cls-2" d="M81.17,154.29a1.51,1.51,0,0,0-1-.31c-.87,0-1.72.68-2.54,2v-2h-1.8v9.33h1.8v-6.47c.57-1,1-1.54,1.43-1.54a1.75,1.75,0,0,1,.69.35,1.62,1.62,0,0,0,.84.34.91.91,0,0,0,.68-.27.89.89,0,0,0,.27-.64.94.94,0,0,0-.41-.79"/><path class="cls-2" d="M87.77,160.94l-3.26-7h-2l4.42,9-.72,1.58c-.44,1-.94,1.49-1.48,1.49a2,2,0,0,1-.53-.16,3.65,3.65,0,0,0-1-.2c-.74,0-1.11.3-1.11.91a.94.94,0,0,0,.44.81,1.81,1.81,0,0,0,1,.31,3.07,3.07,0,0,0,2.07-.87A5.32,5.32,0,0,0,86.91,165l5-11h-1Z"/><path class="cls-2" d="M103.17,154a5,5,0,0,0-2.36.59A4.32,4.32,0,0,0,99,156.39a5.11,5.11,0,0,0-.67,2.48A4.81,4.81,0,0,0,99.48,162a4.38,4.38,0,0,0,3.57,1.64,5,5,0,0,0,2.49-.63,4.53,4.53,0,0,0,1.78-1.91,5.27,5.27,0,0,0,.62-2.45,4.53,4.53,0,0,0-1.15-3.06,4.59,4.59,0,0,0-3.62-1.57m.35,8.89a2.68,2.68,0,0,1-2.47-1.78,7.06,7.06,0,0,1-.64-3.05,4.86,4.86,0,0,1,.35-2,2.15,2.15,0,0,1,2.07-1.42,2.4,2.4,0,0,1,1.94,1,5.78,5.78,0,0,1,1.15,3.8c0,2.33-.8,3.49-2.4,3.49"/><path class="cls-2" d="M117.47,149.93a3.56,3.56,0,0,0-2.09-.67,4.31,4.31,0,0,0-2.21.57,3.36,3.36,0,0,0-2,3.35v.6H109.3v.7h1.91v6.42a4.08,4.08,0,0,1-.13,1.3,1.21,1.21,0,0,1-1.27.73h-.44v.39h5.95v-.39h-.91a1.38,1.38,0,0,1-1.07-.43,2.57,2.57,0,0,1-.31-1.6v-6.42h2.55v-.7H113v-.64a7.17,7.17,0,0,1,.16-2.16,1.26,1.26,0,0,1,1.33-1,1.82,1.82,0,0,1,1.47.88c.44.59.85.88,1.24.88a.89.89,0,0,0,.6-.26.79.79,0,0,0,.29-.57,1.24,1.24,0,0,0-.65-1"/><path class="cls-2" d="M143.48,155a3.8,3.8,0,0,0-2.78-1,4.27,4.27,0,0,0-3.47,1.5,5.13,5.13,0,0,0-1.13,3.42,4.9,4.9,0,0,0,1.11,3.24,4,4,0,0,0,3.22,1.46,3.84,3.84,0,0,0,2.73-1.1,4.45,4.45,0,0,0,1.35-2.49l-.37-.2a3,3,0,0,1-2.87,2.19,3.18,3.18,0,0,1-2.76-1.43,5,5,0,0,1-.86-2.91h6.86a3.58,3.58,0,0,0-1-2.65m-5.83,2.1a2.85,2.85,0,0,1,.73-1.65,2.2,2.2,0,0,1,1.72-.74,2,2,0,0,1,1.93,1.16,3.64,3.64,0,0,1,.22,1.23Z"/><path class="cls-2" d="M150.1,153.77a5.22,5.22,0,0,0-2.34.51,2,2,0,0,0-1.29,1.77.83.83,0,0,0,.92.95q1,0,.93-1l0-.57a.91.91,0,0,1,.48-.84,1.8,1.8,0,0,1,1-.29,1.56,1.56,0,0,1,1.49.74,3.19,3.19,0,0,1,.33,1.65v.37a25.81,25.81,0,0,0-3.65,1.44c-1.23.68-1.85,1.48-1.85,2.41a2.33,2.33,0,0,0,.63,1.68,2.25,2.25,0,0,0,1.71.66,3,3,0,0,0,1.24-.25,14.33,14.33,0,0,0,1.92-1.23v1.48h1.8v-6.4a4.92,4.92,0,0,0-.2-1.75c-.41-.91-1.45-1.37-3.1-1.37m1.5,7.39a4,4,0,0,1-2.15,1,1.33,1.33,0,0,1-1.09-.51,1.79,1.79,0,0,1-.42-1.17c0-.76.52-1.42,1.56-2a22,22,0,0,1,2.1-.86Z"/><path class="cls-2" d="M163.25,162.34q-1,0-1-1.5V155h2.31v-.71h-2.31v-3h-.35a10.22,10.22,0,0,1-.69,1.39,5,5,0,0,1-2.33,2V155h1.58v6.09a3.49,3.49,0,0,0,.22,1.44,1.71,1.71,0,0,0,1.69,1,2.59,2.59,0,0,0,2.48-2h-.42a1.24,1.24,0,0,1-1.19.83"/><path class="cls-2" d="M157.84,156.48V148.8L156,149.89v13h1.82v-6.43Z"/><path class="cls-2" d="M58.69,156.48v-3.13l-1.82,1.08v8.22c0,.09,0,.18,0,.81h1.83v-7Z"/><path class="cls-2" d="M43.31,148.89a1.16,1.16,0,0,0-.77.28.88.88,0,0,0-.32.71.9.9,0,0,0,.32.71,1.12,1.12,0,0,0,.77.29,1.08,1.08,0,0,0,.77-.29.92.92,0,0,0,.31-.71.9.9,0,0,0-.31-.71,1.12,1.12,0,0,0-.77-.28"/><path class="cls-2" d="M44.22,156.48v-3.13l-1.83,1.08v9h1.83v-7Z"/><path class="cls-2" d="M133.31,151.49c0-.25,0-.47,0-.66h-2.11v5.28H125v-4.62c0-.25,0-.47,0-.66h-2.11c0,.17,0,.39,0,.66v11a6,6,0,0,1,0,.79H125c0-.17,0-.44,0-.79v-5.66h6.25v5.66a6,6,0,0,1,0,.79h2.15c0-.17,0-.43,0-.79Z"/><path class="cls-2" d="M52,154a4.73,4.73,0,0,0-3.31,1.91V154H46.89v9.34h1.82v-6.84a3.54,3.54,0,0,1,2.52-1.3c1,0,1.54.79,1.54,2.35v5.79h1.8v-5.94a5.75,5.75,0,0,0-.22-1.82A2.36,2.36,0,0,0,52,154"/><polygon class="cls-2" points="32.77 160.39 28.09 150.88 25.57 150.88 25.57 163.32 26.52 163.31 26.52 152.02 32.03 163.32 32.37 163.32 37.87 152.02 37.87 163.31 39.9 163.32 39.9 150.88 37.39 150.88 32.77 160.39"/></svg>