<svg id="Layer_1" data-name="Layer 1" xmlns="http://www.w3.org/2000/svg" xmlns:xlink="http://www.w3.org/1999/xlink" viewBox="0 0 200 200"><defs><style>.cls-1{fill:none;}.cls-2{fill:#5e5a57;}.cls-3{fill:#006e43;}.cls-4{clip-path:url(#clip-path);}.cls-5{fill:url(#linear-gradient);}.cls-6{clip-path:url(#clip-path-2);}.cls-7{fill:url(#linear-gradient-2);}.cls-8{clip-path:url(#clip-path-3);}.cls-9{fill:url(#linear-gradient-3);}.cls-10{clip-path:url(#clip-path-4);}.cls-11{fill:url(#linear-gradient-4);}.cls-12{clip-path:url(#clip-path-5);}.cls-13{fill:url(#linear-gradient-5);}.cls-14{clip-path:url(#clip-path-6);}.cls-15{fill:url(#linear-gradient-6);}.cls-16{clip-path:url(#clip-path-7);}.cls-17{fill:url(#linear-gradient-7);}.cls-18{clip-path:url(#clip-path-8);}.cls-19{fill:url(#linear-gradient-8);}.cls-20{clip-path:url(#clip-path-9);}.cls-21{fill:url(#linear-gradient-9);}.cls-22{clip-path:url(#clip-path-10);}.cls-23{fill:url(#linear-gradient-10);}</style><clipPath id="clip-path"><polygon class="cls-1" points="98.02 34.06 98.02 94.96 101.95 94.96 101.95 34.06 99.99 32.1 98.02 34.06"/></clipPath><linearGradient id="linear-gradient" x1="-2554.43" y1="3557.76" x2="-2552.23" y2="3557.76" gradientTransform="translate(95620.32 68630.26) rotate(90) scale(26.85)" gradientUnits="userSpaceOnUse"><stop offset="0" stop-color="#00a6a1"/><stop offset="1" stop-color="#096a35"/></linearGradient><clipPath id="clip-path-2"><polygon class="cls-1" points="105.88 94.96 109.81 94.96 109.81 48.12 105.88 44.19 105.88 94.96"/></clipPath><linearGradient id="linear-gradient-2" x1="-2559.96" y1="3553.85" x2="-2557.76" y2="3553.85" gradientTransform="translate(91333.24 65762.74) rotate(90) scale(25.67)" xlink:href="#linear-gradient"/><clipPath id="clip-path-3"><polygon class="cls-1" points="121.6 109.49 125.53 109.49 125.53 71.58 121.6 67.66 121.6 109.49"/></clipPath><linearGradient id="linear-gradient-3" x1="-2521.97" y1="3579.16" x2="-2519.77" y2="3579.16" gradientTransform="translate(131285.31 92465.28) rotate(90) scale(36.65)" gradientUnits="userSpaceOnUse"><stop offset="0" stop-color="#00a6a1"/><stop offset="0.75" stop-color="#096a35"/><stop offset="1" stop-color="#096a35"/></linearGradient><clipPath id="clip-path-4"><polygon class="cls-1" points="129.46 95.02 133.39 95.02 133.39 83.42 129.46 79.49 129.46 95.02"/></clipPath><linearGradient id="linear-gradient-4" x1="-2584.63" y1="3536.58" x2="-2582.43" y2="3536.58" gradientTransform="translate(76061.08 55548.93) rotate(90) scale(21.47)" xlink:href="#linear-gradient"/><clipPath id="clip-path-5"><polygon class="cls-1" points="90.15 47.86 90.15 94.96 94.08 94.96 94.08 43.93 90.15 47.86"/></clipPath><linearGradient id="linear-gradient-5" x1="-2559.33" y1="3554.61" x2="-2557.13" y2="3554.61" gradientTransform="translate(91797.45 66077.76) rotate(90) scale(25.8)" xlink:href="#linear-gradient"/><clipPath id="clip-path-6"><polygon class="cls-1" points="82.29 59.63 82.29 94.96 86.22 94.96 86.22 55.69 82.29 59.63"/></clipPath><linearGradient id="linear-gradient-6" x1="-2562.44" y1="3552.69" x2="-2560.24" y2="3552.69" gradientTransform="translate(89527.54 64563.13) rotate(90) scale(25.18)" xlink:href="#linear-gradient"/><clipPath id="clip-path-7"><polygon class="cls-1" points="74.43 71.52 74.43 118.55 78.36 118.55 78.36 94.96 78.36 67.59 74.43 71.52"/></clipPath><linearGradient id="linear-gradient-7" x1="-2558.38" y1="3555.44" x2="-2556.19" y2="3555.44" gradientTransform="translate(92344.43 66452.64) rotate(90) scale(25.95)" xlink:href="#linear-gradient"/><clipPath id="clip-path-8"><polygon class="cls-1" points="66.61 83.39 66.61 94.96 70.54 94.96 70.54 79.46 66.61 83.39"/></clipPath><linearGradient id="linear-gradient-8" x1="-2584.84" y1="3538.04" x2="-2582.64" y2="3538.04" gradientTransform="translate(75928.94 55479.7) rotate(90) scale(21.44)" xlink:href="#linear-gradient"/><clipPath id="clip-path-9"><polygon class="cls-1" points="58.75 94.66 58.75 102.83 62.68 102.83 62.68 90.74 58.75 94.66"/></clipPath><linearGradient id="linear-gradient-9" x1="-2572.91" y1="3546.16" x2="-2570.71" y2="3546.16" gradientTransform="translate(82577.06 59926.45) rotate(90) scale(23.27)" xlink:href="#linear-gradient"/><clipPath id="clip-path-10"><polygon class="cls-1" points="113.74 102.83 117.67 102.83 117.67 59.75 113.74 55.82 113.74 102.83"/></clipPath><linearGradient id="linear-gradient-10" x1="-2556.02" y1="3556.33" x2="-2553.82" y2="3556.33" gradientTransform="translate(94318.93 67756.73) rotate(90) scale(26.49)" xlink:href="#linear-gradient"/></defs><path class="cls-2" d="M47.4,148c-.46.11-1,.21-1.63.32l-1.93.28c-.65.08-1.28.14-1.89.19s-1.13.08-1.55.08a14.31,14.31,0,0,1-2.78-.26,7.87,7.87,0,0,1-2.5-.92,5.08,5.08,0,0,1-1.8-1.77,5.43,5.43,0,0,1-.69-2.88v-6.57h3.24v6.44a2.31,2.31,0,0,0,.42,1.43,2.82,2.82,0,0,0,1.07.86,5.07,5.07,0,0,0,1.46.43,10.81,10.81,0,0,0,1.58.12h.86l1.05,0,1,0a6.51,6.51,0,0,0,.87-.07V134.63H47.4ZM40,132.64a1.84,1.84,0,0,1-1.35-.56,1.77,1.77,0,0,1-.56-1.32,1.9,1.9,0,0,1,3.24-1.38,1.82,1.82,0,0,1,.58,1.38,1.75,1.75,0,0,1-.58,1.32,1.83,1.83,0,0,1-1.33.56"/><path class="cls-2" d="M55.71,145.57a6,6,0,0,1-3.73-1,3.82,3.82,0,0,1-1.33-3.26V127.55h3.18v13.76a1.06,1.06,0,0,0,.56,1.07,3.22,3.22,0,0,0,1.35.25h1v2.94Z"/><path class="cls-2" d="M56.29,145.57v-2.94h6.79a4.28,4.28,0,0,0,.81-.08,2,2,0,0,0,.67-.26,1.54,1.54,0,0,0,.47-.48,1.45,1.45,0,0,0,.17-.72v-1.38a1.59,1.59,0,0,0-.2-.86,1.78,1.78,0,0,0-.49-.53,1.61,1.61,0,0,0-.66-.26,3.78,3.78,0,0,0-.74-.07H57.3V135.5l10.55-8.61v3.76l-5.43,4.4H63a10.09,10.09,0,0,1,2.22.23,4.65,4.65,0,0,1,1.69.72,3.37,3.37,0,0,1,1.1,1.36,5,5,0,0,1,.43,2.06v1.67a6.71,6.71,0,0,1-.11,1.28,4,4,0,0,0,.84.19,5.94,5.94,0,0,0,1,.07h1.41v2.94h-1a7.8,7.8,0,0,1-2.12-.25,13.59,13.59,0,0,1-1.67-.57,6.85,6.85,0,0,1-3.63.82Z"/><path class="cls-2" d="M71,145.57v-2.94h1a3.22,3.22,0,0,0,1.35-.25,1.05,1.05,0,0,0,.55-1.07v-6.68h3.18v6.68a7,7,0,0,1-.07,1.06,4.72,4.72,0,0,0,1,.29,5.77,5.77,0,0,0,1.1.1c1.2,0,1.81-.62,1.81-1.88v-6.25h3.2v6.46a2.51,2.51,0,0,1-.08.72,3.7,3.7,0,0,1-.16.5,3.45,3.45,0,0,0,1,.33,5.58,5.58,0,0,0,1.23.12c1.2,0,1.8-.62,1.8-1.88v-6.25h3.21V141a6.52,6.52,0,0,1-.32,2.18,3.31,3.31,0,0,1-.91,1.4,3.42,3.42,0,0,1-1.45.76,7.43,7.43,0,0,1-1.91.22,8,8,0,0,1-2.25-.28,12.77,12.77,0,0,1-1.75-.64,3.58,3.58,0,0,1-1.38.69,7.28,7.28,0,0,1-1.88.23,14.37,14.37,0,0,1-4.11-.61,4.64,4.64,0,0,1-1.39.47,9.11,9.11,0,0,1-1.71.14Z"/><path class="cls-2" d="M102.28,145.57H93.9v-2.94h3.47V131h3.18v11.63h1.7a3.22,3.22,0,0,0,1.35-.25,1.06,1.06,0,0,0,.56-1.07V127.55h3.18v13.76a3.82,3.82,0,0,1-1.33,3.26,6.06,6.06,0,0,1-3.73,1m-6.07,4.31h.92a3.34,3.34,0,0,1-.12-.4,2,2,0,0,1,0-.37,2.47,2.47,0,0,1,.18-1,1.84,1.84,0,0,1,.49-.66,2,2,0,0,1,.73-.38,3,3,0,0,1,.84-.13,2.16,2.16,0,0,1,.71.12,3.92,3.92,0,0,1,.76.36V149a4,4,0,0,0-.56-.29,2.31,2.31,0,0,0-.7-.17,1.2,1.2,0,0,0-.59.1.56.56,0,0,0-.24.54,2.23,2.23,0,0,0,.06.34,1.18,1.18,0,0,0,.17.39h1.86v1.45H96.21Z"/><rect class="cls-2" x="110.13" y="127.55" width="3.18" height="18.02"/><path class="cls-2" d="M133.16,145.57H128a8,8,0,0,1-2.3-.33,5.84,5.84,0,0,1-2-1,4.57,4.57,0,0,1-1.37-1.72,5.66,5.66,0,0,1-.51-2.5,5.49,5.49,0,0,1,.41-2.12,4.62,4.62,0,0,1,1.23-1.71,5.82,5.82,0,0,1,2-1.16,8.09,8.09,0,0,1,2.72-.42,10.15,10.15,0,0,1,1.08.08c.45,0,.91.12,1.38.2s.94.18,1.4.3.83.25,1.15.37Zm-7.87-12.9a1.88,1.88,0,0,1-1.36-.56,1.8,1.8,0,0,1-.55-1.33,1.9,1.9,0,0,1,1.91-1.93,1.79,1.79,0,0,1,1.33.56,1.83,1.83,0,0,1,.58,1.37,1.8,1.8,0,0,1-.58,1.33,1.83,1.83,0,0,1-1.33.56m4.69,5-.7-.15a6.08,6.08,0,0,0-1.13-.09,3.66,3.66,0,0,0-2.47.71,2.63,2.63,0,0,0,0,3.79,3.4,3.4,0,0,0,2.25.69h2Zm.08-5a1.84,1.84,0,0,1-1.35-.56,1.78,1.78,0,0,1-.56-1.33,1.91,1.91,0,1,1,3.82,0,1.79,1.79,0,0,1-.57,1.33,1.87,1.87,0,0,1-1.34.56"/><path class="cls-2" d="M137.44,134.63h3.18v12.75a3.6,3.6,0,0,1-1.19,3,4.78,4.78,0,0,1-3.08,1,5.36,5.36,0,0,1-1.16-.12,9.63,9.63,0,0,1-1-.28v-2.68a7.62,7.62,0,0,0,.9.26,3.15,3.15,0,0,0,.82.11,1.67,1.67,0,0,0,1.13-.36,1.78,1.78,0,0,0,.41-1.36Z"/><rect class="cls-2" x="143.76" y="127.55" width="3.18" height="18.02"/><path class="cls-2" d="M151.13,134.63h3.18v12.74a3.62,3.62,0,0,1-1.19,3,4.78,4.78,0,0,1-3.08,1,5.36,5.36,0,0,1-1.16-.12,8.43,8.43,0,0,1-1-.28v-2.68a7.11,7.11,0,0,0,.9.26,3.64,3.64,0,0,0,.82.11,1.67,1.67,0,0,0,1.13-.36,1.76,1.76,0,0,0,.41-1.36Zm1.43-2a1.84,1.84,0,0,1-1.35-.56,1.81,1.81,0,0,1-.56-1.32,1.88,1.88,0,0,1,.56-1.38,1.84,1.84,0,0,1,1.35-.56,1.93,1.93,0,0,1,1.91,1.94,1.82,1.82,0,0,1-.57,1.32,1.87,1.87,0,0,1-1.34.56"/><path class="cls-2" d="M164.16,145.57h-2a8.06,8.06,0,0,1-2.31-.33,5.8,5.8,0,0,1-2-1,4.65,4.65,0,0,1-1.36-1.72,5.66,5.66,0,0,1-.5-2.5,5.48,5.48,0,0,1,.4-2.12,4.83,4.83,0,0,1,1.22-1.71,6.07,6.07,0,0,1,2-1.16,8.14,8.14,0,0,1,2.72-.42,10.15,10.15,0,0,1,1.08.08c.45,0,.91.12,1.38.2s.94.18,1.39.3.84.25,1.16.38v10.62a5.05,5.05,0,0,1-.57,2.52,4.71,4.71,0,0,1-1.45,1.61,5.76,5.76,0,0,1-1.93.84,8.89,8.89,0,0,1-2.07.26,9.32,9.32,0,0,1-4-.88v-3a10,10,0,0,0,2,.89,6.94,6.94,0,0,0,2,.28,3.18,3.18,0,0,0,2-.64,2.34,2.34,0,0,0,.82-2Zm0-7.89-.7-.15a6.08,6.08,0,0,0-1.13-.09,3.66,3.66,0,0,0-2.47.71,2.63,2.63,0,0,0,0,3.79,3.41,3.41,0,0,0,2.26.69h2Z"/><polygon class="cls-2" points="39.65 167.82 39.65 160.71 37.09 166.35 36.23 166.35 33.63 160.71 33.63 167.82 32.63 167.82 32.63 158.47 33.63 158.47 36.68 165.1 39.65 158.47 40.65 158.47 40.65 167.82 39.65 167.82"/><rect class="cls-2" x="43.36" y="158.47" width="1" height="9.36"/><polygon class="cls-2" points="53.03 167.82 48.06 160.32 48.06 167.82 47.06 167.82 47.06 158.47 48.01 158.47 52.98 165.94 52.98 158.47 53.98 158.47 53.98 167.82 53.03 167.82"/><rect class="cls-2" x="56.69" y="158.47" width="1" height="9.36"/><path class="cls-2" d="M62.8,167.9a4.09,4.09,0,0,1-3.21-1.23l.69-.69a3.19,3.19,0,0,0,2.55,1c1.36,0,2.2-.64,2.2-1.74a1.53,1.53,0,0,0-.44-1.17,2,2,0,0,0-1.22-.44l-1.09-.17a3.49,3.49,0,0,1-1.73-.71,2.22,2.22,0,0,1-.71-1.75c0-1.59,1.15-2.64,3-2.64a3.78,3.78,0,0,1,2.79,1l-.65.65a2.93,2.93,0,0,0-2.18-.81,1.73,1.73,0,0,0-2,1.74,1.35,1.35,0,0,0,.42,1.08,2.68,2.68,0,0,0,1.26.51l1,.16a3,3,0,0,1,1.7.65,2.34,2.34,0,0,1,.79,1.86c0,1.64-1.28,2.65-3.23,2.65"/><polygon class="cls-2" points="70.87 159.36 70.87 167.82 69.87 167.82 69.87 159.36 67.16 159.36 67.16 158.47 73.58 158.47 73.58 159.36 70.87 159.36"/><path class="cls-2" d="M80.7,167.83l-2.13-4.16H76.33v4.16h-1v-9.37h3.58a2.54,2.54,0,0,1,2.78,2.61,2.43,2.43,0,0,1-2,2.51l2.22,4.25Zm-1.88-8.47H76.33v3.43h2.49a1.72,1.72,0,1,0,0-3.43"/><polygon class="cls-2" points="86.49 163.96 86.49 167.82 85.49 167.82 85.49 163.96 82.7 158.47 83.78 158.47 85.99 162.95 88.17 158.47 89.25 158.47 86.49 163.96"/><path class="cls-2" d="M99.29,166.93a3.43,3.43,0,0,1-4.78,0c-.88-.88-.88-1.8-.88-3.78s0-2.91.88-3.79a3.43,3.43,0,0,1,4.78,0c.88.88.88,1.8.88,3.79s0,2.9-.88,3.78m-.78-7a2.23,2.23,0,0,0-1.61-.67,2.27,2.27,0,0,0-1.62.67c-.59.6-.65,1.24-.65,3.2s.06,2.58.65,3.19a2.27,2.27,0,0,0,1.62.67,2.23,2.23,0,0,0,1.61-.67c.6-.61.66-1.24.66-3.19s-.06-2.6-.66-3.2"/><polygon class="cls-2" points="103.52 159.36 103.52 162.8 107.63 162.8 107.63 163.69 103.52 163.69 103.52 167.82 102.52 167.82 102.52 158.47 108.33 158.47 108.33 159.36 103.52 159.36"/><polygon class="cls-2" points="118.86 167.82 118.86 163.55 114.42 163.55 114.42 167.82 113.42 167.82 113.42 158.47 114.42 158.47 114.42 162.66 118.86 162.66 118.86 158.47 119.86 158.47 119.86 167.82 118.86 167.82"/><path class="cls-2" d="M127.88,166.93a3.43,3.43,0,0,1-4.78,0c-.88-.88-.88-1.8-.88-3.78s0-2.91.88-3.79a3.43,3.43,0,0,1,4.78,0c.88.88.88,1.8.88,3.79s0,2.9-.88,3.78m-.78-7a2.23,2.23,0,0,0-1.61-.67,2.27,2.27,0,0,0-1.62.67c-.59.6-.66,1.24-.66,3.2s.07,2.58.66,3.19a2.27,2.27,0,0,0,1.62.67,2.23,2.23,0,0,0,1.61-.67c.6-.61.66-1.24.66-3.19s-.06-2.6-.66-3.2"/><path class="cls-2" d="M134.24,167.9a3.09,3.09,0,0,1-3.26-3.16v-6.27h1v6.18a2.27,2.27,0,1,0,4.54,0v-6.18h1v6.27a3.11,3.11,0,0,1-3.28,3.16"/><path class="cls-2" d="M142.5,167.9a4.08,4.08,0,0,1-3.21-1.23L140,166a3.22,3.22,0,0,0,2.56,1c1.36,0,2.2-.64,2.2-1.74a1.53,1.53,0,0,0-.44-1.17,2,2,0,0,0-1.23-.44l-1.09-.17a3.49,3.49,0,0,1-1.72-.71,2.22,2.22,0,0,1-.71-1.75c0-1.59,1.15-2.64,3-2.64a3.76,3.76,0,0,1,2.78,1l-.64.65a2.94,2.94,0,0,0-2.18-.81,1.73,1.73,0,0,0-2,1.74,1.35,1.35,0,0,0,.42,1.08,2.68,2.68,0,0,0,1.26.51l1,.16a3,3,0,0,1,1.71.65,2.34,2.34,0,0,1,.79,1.86c0,1.64-1.29,2.65-3.23,2.65"/><rect class="cls-2" x="147.82" y="158.47" width="1" height="9.36"/><polygon class="cls-2" points="157.5 167.82 152.53 160.32 152.53 167.82 151.53 167.82 151.53 158.47 152.47 158.47 157.44 165.94 157.44 158.47 158.44 158.47 158.44 167.82 157.5 167.82"/><path class="cls-2" d="M166.57,166.82a3.43,3.43,0,0,1-4.89.11c-.88-.88-.88-1.8-.88-3.78s0-2.91.88-3.79a3.31,3.31,0,0,1,2.39-1,3.18,3.18,0,0,1,3.27,2.8h-1a2.24,2.24,0,0,0-2.27-1.91,2.27,2.27,0,0,0-1.62.67c-.59.6-.65,1.24-.65,3.2s.06,2.6.65,3.2a2.34,2.34,0,0,0,3.39-.14,2.48,2.48,0,0,0,.53-1.7v-.71h-2.3v-.88h3.3v1.49a3.19,3.19,0,0,1-.8,2.41"/><rect class="cls-3" x="58.75" y="114.62" width="10.61" height="3.93"/><rect class="cls-3" x="77.99" y="114.62" width="37.31" height="3.93"/><rect class="cls-3" x="84.67" y="106.76" width="9.01" height="3.93"/><rect class="cls-3" x="84.67" y="98.9" width="25.14" height="3.93"/><rect class="cls-3" x="105.88" y="106.78" width="3.93" height="11.77"/><rect class="cls-3" x="98.02" y="106.78" width="3.93" height="11.77"/><rect class="cls-3" x="82.29" y="98.9" width="3.93" height="11.79"/><rect class="cls-3" x="90.15" y="106.78" width="3.93" height="11.77"/><rect class="cls-3" x="66.61" y="106.76" width="3.93" height="11.79"/><rect class="cls-3" x="58.75" y="106.76" width="3.93" height="11.79"/><rect class="cls-3" x="66.61" y="98.9" width="3.93" height="3.93"/><g class="cls-4"><rect class="cls-5" x="98.02" y="32.1" width="3.93" height="62.87"/></g><g class="cls-6"><rect class="cls-7" x="105.88" y="44.19" width="3.93" height="50.77"/></g><g class="cls-8"><rect class="cls-9" x="121.6" y="67.66" width="3.93" height="41.83"/></g><g class="cls-10"><rect class="cls-11" x="129.46" y="79.49" width="3.93" height="15.53"/></g><g class="cls-12"><rect class="cls-13" x="90.15" y="43.93" width="3.93" height="51.03"/></g><g class="cls-14"><rect class="cls-15" x="82.29" y="55.69" width="3.93" height="39.27"/></g><g class="cls-16"><rect class="cls-17" x="74.43" y="67.59" width="3.93" height="50.95"/></g><g class="cls-18"><rect class="cls-19" x="66.61" y="79.46" width="3.93" height="15.5"/></g><g class="cls-20"><rect class="cls-21" x="58.75" y="90.74" width="3.93" height="12.09"/></g><polygon class="cls-3" points="50.89 106.75 50.89 114.62 37.75 114.62 33.82 118.55 50.89 118.55 54.82 118.55 54.82 114.62 54.82 102.82 50.89 106.75"/><polygon class="cls-3" points="141.25 94.64 137.32 90.71 137.32 98.84 137.32 100.86 137.32 118.55 141.25 118.55 141.25 100.86 141.25 94.64"/><rect class="cls-3" x="121.6" y="114.62" width="10.6" height="3.93"/><rect class="cls-3" x="129.46" y="98.95" width="3.93" height="19.6"/><rect class="cls-3" x="113.74" y="106.78" width="3.93" height="11.77"/><g class="cls-22"><rect class="cls-23" x="113.74" y="55.82" width="3.93" height="47"/></g><polygon class="cls-3" points="149.11 106.75 149.11 114.62 162.25 114.62 166.18 118.55 149.11 118.55 145.18 118.55 145.18 114.62 145.18 102.83 149.11 106.75"/><polygon class="cls-3" points="125.53 111.51 125.53 110.23 123.92 110.23 122.64 110.23 122.64 112.37 121.65 112.37 121.65 113.66 125.53 113.66 125.53 112.37 123.92 112.37 123.92 111.51 125.53 111.51"/></svg>