<svg id="Layer_1" data-name="Layer 1" xmlns="http://www.w3.org/2000/svg" xmlns:xlink="http://www.w3.org/1999/xlink" viewBox="0 0 200 200"><defs><style>.cls-1{fill:none;}.cls-2{clip-path:url(#clip-path);}.cls-3{fill:url(#linear-gradient);}.cls-4{fill:#263169;}.cls-5{clip-path:url(#clip-path-2);}.cls-6{fill:url(#linear-gradient-2);}.cls-7{clip-path:url(#clip-path-3);}.cls-8{fill:url(#linear-gradient-3);}.cls-9{clip-path:url(#clip-path-4);}.cls-10{fill:url(#linear-gradient-4);}.cls-11{clip-path:url(#clip-path-5);}.cls-12{fill:url(#linear-gradient-5);}.cls-13{clip-path:url(#clip-path-6);}.cls-14{fill:url(#linear-gradient-6);}.cls-15{clip-path:url(#clip-path-7);}.cls-16{fill:url(#linear-gradient-7);}.cls-17{clip-path:url(#clip-path-8);}.cls-18{fill:url(#linear-gradient-8);}.cls-19{clip-path:url(#clip-path-9);}.cls-20{fill:url(#linear-gradient-9);}.cls-21{clip-path:url(#clip-path-10);}.cls-22{fill:url(#linear-gradient-10);}.cls-23{clip-path:url(#clip-path-11);}.cls-24{fill:url(#linear-gradient-11);}.cls-25{clip-path:url(#clip-path-12);}.cls-26{fill:url(#linear-gradient-12);}.cls-27{clip-path:url(#clip-path-13);}.cls-28{fill:url(#linear-gradient-13);}.cls-29{clip-path:url(#clip-path-14);}.cls-30{fill:url(#linear-gradient-14);}.cls-31{clip-path:url(#clip-path-15);}.cls-32{fill:url(#linear-gradient-15);}.cls-33{clip-path:url(#clip-path-16);}.cls-34{fill:url(#linear-gradient-16);}.cls-35{clip-path:url(#clip-path-17);}.cls-36{fill:url(#linear-gradient-17);}.cls-37{clip-path:url(#clip-path-18);}.cls-38{fill:url(#linear-gradient-18);}.cls-39{clip-path:url(#clip-path-19);}.cls-40{fill:url(#linear-gradient-19);}.cls-41{clip-path:url(#clip-path-20);}.cls-42{fill:url(#linear-gradient-20);}.cls-43{clip-path:url(#clip-path-21);}.cls-44{fill:url(#linear-gradient-21);}.cls-45{clip-path:url(#clip-path-22);}.cls-46{fill:url(#linear-gradient-22);}.cls-47{clip-path:url(#clip-path-23);}.cls-48{fill:url(#linear-gradient-23);}.cls-49{clip-path:url(#clip-path-24);}.cls-50{fill:url(#linear-gradient-24);}.cls-51{clip-path:url(#clip-path-25);}.cls-52{fill:url(#linear-gradient-25);}.cls-53{clip-path:url(#clip-path-26);}.cls-54{fill:url(#linear-gradient-26);}.cls-55{clip-path:url(#clip-path-27);}.cls-56{fill:url(#linear-gradient-27);}.cls-57{clip-path:url(#clip-path-28);}.cls-58{fill:url(#linear-gradient-28);}.cls-59{clip-path:url(#clip-path-29);}.cls-60{fill:url(#linear-gradient-29);}.cls-61{clip-path:url(#clip-path-30);}.cls-62{fill:url(#linear-gradient-30);}.cls-63{clip-path:url(#clip-path-31);}.cls-64{fill:url(#linear-gradient-31);}</style><clipPath id="clip-path"><polygon class="cls-1" points="148.39 81.18 150.85 79.8 149.57 78.72 148.39 81.18"/></clipPath><linearGradient id="linear-gradient" x1="-3828.28" y1="279.15" x2="-3826.66" y2="279.15" gradientTransform="matrix(-94.9, 39.87, -39.87, -94.9, -352005.96, 179190.17)" gradientUnits="userSpaceOnUse"><stop offset="0" stop-color="#4bad4b"/><stop offset="0.34" stop-color="#009aba"/><stop offset="1" stop-color="#253169"/></linearGradient><clipPath id="clip-path-2"><polygon class="cls-1" points="45.83 56.1 46.32 56.48 73.89 33.56 69.92 31.79 45.83 56.1"/></clipPath><linearGradient id="linear-gradient-2" x1="-3781.47" y1="218.46" x2="-3779.85" y2="218.46" gradientTransform="translate(245449.12 267748.21) rotate(50.8) scale(95.89)" gradientUnits="userSpaceOnUse"><stop offset="0" stop-color="#4bad4b"/><stop offset="0.06" stop-color="#47ac51"/><stop offset="0.14" stop-color="#3ba962"/><stop offset="0.23" stop-color="#28a47f"/><stop offset="0.34" stop-color="#0d9da6"/><stop offset="0.38" stop-color="#009aba"/><stop offset="1" stop-color="#253169"/></linearGradient><clipPath id="clip-path-3"><polygon class="cls-1" points="73.89 33.56 100.19 45.33 109.44 44.21 75.8 31.99 73.89 33.56"/></clipPath><linearGradient id="linear-gradient-3" x1="-3781.3" y1="213.94" x2="-3779.68" y2="213.94" gradientTransform="matrix(55.67, 68.25, -68.25, 55.67, 225146.46, 246145.12)" gradientUnits="userSpaceOnUse"><stop offset="0" stop-color="#4bad4b"/><stop offset="0.06" stop-color="#47ac51"/><stop offset="0.14" stop-color="#3ba962"/><stop offset="0.23" stop-color="#28a47f"/><stop offset="0.33" stop-color="#0d9da6"/><stop offset="0.38" stop-color="#009aba"/><stop offset="1" stop-color="#253169"/></linearGradient><clipPath id="clip-path-4"><polygon class="cls-1" points="69.92 31.79 73.89 33.56 75.8 31.99 71.32 30.36 69.92 31.79"/></clipPath><linearGradient id="linear-gradient-4" x1="-3781.3" y1="213.99" x2="-3779.68" y2="213.99" gradientTransform="matrix(55.67, 68.25, -68.25, 55.67, 225141.59, 246149.09)" xlink:href="#linear-gradient-3"/><clipPath id="clip-path-5"><polygon class="cls-1" points="78.61 47.93 79.26 50.6 85.9 50.33 82.87 47.42 78.61 47.93"/></clipPath><linearGradient id="linear-gradient-5" x1="-3720" y1="255.48" x2="-3718.38" y2="255.48" gradientTransform="translate(238746.44 -135472.6) rotate(-25.66) scale(73.62)" gradientUnits="userSpaceOnUse"><stop offset="0" stop-color="#4bad4b"/><stop offset="0.4" stop-color="#009aba"/><stop offset="0.54" stop-color="#0884a9"/><stop offset="0.83" stop-color="#1c4c7e"/><stop offset="0.95" stop-color="#253169"/><stop offset="1" stop-color="#253169"/></linearGradient><clipPath id="clip-path-6"><polygon class="cls-1" points="86.92 46.93 90.4 50.15 109.3 49.4 100.19 45.33 86.92 46.93"/></clipPath><linearGradient id="linear-gradient-6" x1="-3720" y1="255.5" x2="-3718.38" y2="255.5" gradientTransform="translate(238748.03 -135469.26) rotate(-25.66) scale(73.62)" xlink:href="#linear-gradient-5"/><clipPath id="clip-path-7"><polygon class="cls-1" points="59.13 50.29 59.76 51.39 76.09 50.72 75.58 48.3 59.13 50.29"/></clipPath><linearGradient id="linear-gradient-7" x1="-3720" y1="255.44" x2="-3718.38" y2="255.44" gradientTransform="translate(238745.06 -135475.44) rotate(-25.66) scale(73.62)" xlink:href="#linear-gradient-5"/><clipPath id="clip-path-8"><polygon class="cls-1" points="100.19 45.33 109.3 49.4 109.44 44.21 100.19 45.33"/></clipPath><linearGradient id="linear-gradient-8" x1="-3720" y1="255.51" x2="-3718.38" y2="255.51" gradientTransform="translate(238748.6 -135468.06) rotate(-25.66) scale(73.62)" xlink:href="#linear-gradient-5"/><clipPath id="clip-path-9"><polygon class="cls-1" points="57.72 51.47 88.79 111.94 85.33 95.31 59.76 51.39 57.72 51.47"/></clipPath><linearGradient id="linear-gradient-9" x1="-3721.59" y1="255.92" x2="-3719.98" y2="255.92" gradientTransform="translate(245002.87 -139025.13) rotate(-25.66) scale(75.52)" gradientUnits="userSpaceOnUse"><stop offset="0" stop-color="#4bad4b"/><stop offset="0.4" stop-color="#009aba"/><stop offset="0.44" stop-color="#0490b2"/><stop offset="0.7" stop-color="#165d8b"/><stop offset="0.89" stop-color="#213d72"/><stop offset="1" stop-color="#253169"/></linearGradient><clipPath id="clip-path-10"><polygon class="cls-1" points="57.72 51.47 59.76 51.39 59.13 50.29 57.72 51.47"/></clipPath><linearGradient id="linear-gradient-10" x1="-3721.59" y1="255.75" x2="-3719.98" y2="255.75" gradientTransform="translate(244993.81 -139043.98) rotate(-25.66) scale(75.52)" xlink:href="#linear-gradient-9"/><clipPath id="clip-path-11"><polygon class="cls-1" points="75.58 48.3 78.61 47.93 77.08 41.84 73.52 38.4 75.58 48.3"/></clipPath><linearGradient id="linear-gradient-11" x1="-3789.57" y1="222.95" x2="-3787.95" y2="222.95" gradientTransform="translate(213447.59 335074.78) rotate(60.88) scale(104.65)" gradientUnits="userSpaceOnUse"><stop offset="0" stop-color="#009aba"/><stop offset="0.17" stop-color="#009aba"/><stop offset="0.31" stop-color="#0294b5"/><stop offset="0.49" stop-color="#0882a7"/><stop offset="0.7" stop-color="#136591"/><stop offset="0.94" stop-color="#213d72"/><stop offset="1" stop-color="#253169"/></linearGradient><clipPath id="clip-path-12"><polygon class="cls-1" points="76.09 50.72 85.33 95.31 94.15 110.44 79.26 50.6 76.09 50.72"/></clipPath><linearGradient id="linear-gradient-12" x1="-3789.57" y1="223" x2="-3787.95" y2="223" gradientTransform="translate(213443.07 335077.31) rotate(60.88) scale(104.65)" xlink:href="#linear-gradient-11"/><clipPath id="clip-path-13"><polygon class="cls-1" points="75.58 48.3 76.09 50.72 79.26 50.6 78.61 47.93 75.58 48.3"/></clipPath><linearGradient id="linear-gradient-13" x1="-3789.57" y1="222.96" x2="-3787.95" y2="222.96" gradientTransform="translate(213446.95 335075.16) rotate(60.88) scale(104.65)" xlink:href="#linear-gradient-11"/><clipPath id="clip-path-14"><polygon class="cls-1" points="88.79 111.94 94.15 110.44 85.33 95.31 88.79 111.94"/></clipPath><linearGradient id="linear-gradient-14" x1="-3789.57" y1="223" x2="-3787.95" y2="223" gradientTransform="translate(213437.34 335080.5) rotate(60.88) scale(104.65)" xlink:href="#linear-gradient-11"/><clipPath id="clip-path-15"><polygon class="cls-1" points="85.9 50.33 127.15 90.12 131.3 88 90.4 50.15 85.9 50.33"/></clipPath><linearGradient id="linear-gradient-15" x1="-3794.59" y1="306.41" x2="-3792.98" y2="306.41" gradientTransform="translate(-384111.7 -242602.79) rotate(-143.11) scale(119.39)" gradientUnits="userSpaceOnUse"><stop offset="0" stop-color="#4bad4b"/><stop offset="0.34" stop-color="#009aba"/><stop offset="1" stop-color="#253169"/></linearGradient><clipPath id="clip-path-16"><polygon class="cls-1" points="77.08 41.84 82.87 47.42 86.92 46.93 75.8 36.63 77.08 41.84"/></clipPath><linearGradient id="linear-gradient-16" x1="-3794.59" y1="306.44" x2="-3792.98" y2="306.44" gradientTransform="translate(-384109.92 -242605.17) rotate(-143.11) scale(119.39)" xlink:href="#linear-gradient-15"/><clipPath id="clip-path-17"><polygon class="cls-1" points="129.09 91.99 131.73 94.54 136.66 92.97 133.14 89.71 129.09 91.99"/></clipPath><linearGradient id="linear-gradient-17" x1="-3794.59" y1="306.4" x2="-3792.97" y2="306.4" gradientTransform="translate(-384112.95 -242601.1) rotate(-143.11) scale(119.39)" xlink:href="#linear-gradient-15"/><clipPath id="clip-path-18"><polygon class="cls-1" points="82.87 47.42 85.9 50.33 90.4 50.15 86.92 46.93 82.87 47.42"/></clipPath><linearGradient id="linear-gradient-18" x1="-3794.59" y1="306.43" x2="-3792.97" y2="306.43" gradientTransform="translate(-384110.29 -242604.63) rotate(-143.11) scale(119.39)" xlink:href="#linear-gradient-15"/><clipPath id="clip-path-19"><polygon class="cls-1" points="73.52 38.4 77.08 41.84 75.8 36.63 73.52 38.4"/></clipPath><linearGradient id="linear-gradient-19" x1="-3794.59" y1="306.42" x2="-3792.97" y2="306.42" gradientTransform="translate(-384109.73 -242605.38) rotate(-143.11) scale(119.39)" xlink:href="#linear-gradient-15"/><clipPath id="clip-path-20"><polygon class="cls-1" points="115.14 99.79 98.58 109.05 135.95 98.61 131.73 94.54 115.14 99.79"/></clipPath><linearGradient id="linear-gradient-20" x1="-3841.3" y1="282.33" x2="-3839.68" y2="282.33" gradientTransform="translate(-273827.51 139634.5) rotate(157.21) scale(79.83)" gradientUnits="userSpaceOnUse"><stop offset="0" stop-color="#4bad4b"/><stop offset="0.22" stop-color="#009aba"/><stop offset="1" stop-color="#253169"/></linearGradient><clipPath id="clip-path-21"><polygon class="cls-1" points="131.73 94.54 135.95 98.61 136.66 92.97 131.73 94.54"/></clipPath><linearGradient id="linear-gradient-21" x1="-3841.3" y1="282.32" x2="-3839.68" y2="282.32" gradientTransform="translate(-273827.32 139634.96) rotate(157.21) scale(79.83)" xlink:href="#linear-gradient-20"/><clipPath id="clip-path-22"><polygon class="cls-1" points="96.63 105.65 115.14 99.79 129.09 91.99 127.15 90.12 96.63 105.65"/></clipPath><linearGradient id="linear-gradient-22" x1="-3833.02" y1="280.31" x2="-3831.4" y2="280.31" gradientTransform="translate(-318925.37 162452.26) rotate(157.21) scale(93.16)" gradientUnits="userSpaceOnUse"><stop offset="0" stop-color="#4bad4b"/><stop offset="0.26" stop-color="#009aba"/><stop offset="0.46" stop-color="#0d749d"/><stop offset="0.69" stop-color="#1a5081"/><stop offset="0.88" stop-color="#22396f"/><stop offset="1" stop-color="#253169"/></linearGradient><clipPath id="clip-path-23"><polygon class="cls-1" points="131.3 88 133.14 89.71 136.01 88.1 134.85 86.21 131.3 88"/></clipPath><linearGradient id="linear-gradient-23" x1="-3833.02" y1="280.31" x2="-3831.4" y2="280.31" gradientTransform="translate(-318925.74 162451.42) rotate(157.21) scale(93.16)" xlink:href="#linear-gradient-22"/><clipPath id="clip-path-24"><polygon class="cls-1" points="138.08 84.56 139.31 86.25 148.39 81.18 149.57 78.72 138.08 84.56"/></clipPath><linearGradient id="linear-gradient-24" x1="-3833.02" y1="280.31" x2="-3831.4" y2="280.31" gradientTransform="translate(-318925.96 162450.85) rotate(157.21) scale(93.16)" xlink:href="#linear-gradient-22"/><clipPath id="clip-path-25"><polygon class="cls-1" points="127.15 90.12 129.09 91.99 133.14 89.71 131.3 88 127.15 90.12"/></clipPath><linearGradient id="linear-gradient-25" x1="-3833.02" y1="280.31" x2="-3831.4" y2="280.31" gradientTransform="translate(-318925.65 162451.65) rotate(157.21) scale(93.16)" xlink:href="#linear-gradient-22"/><clipPath id="clip-path-26"><polygon class="cls-1" points="96.63 105.65 98.58 109.05 115.14 99.79 96.63 105.65"/></clipPath><linearGradient id="linear-gradient-26" x1="-3833.02" y1="280.29" x2="-3831.4" y2="280.29" gradientTransform="translate(-318924.84 162453.58) rotate(157.21) scale(93.16)" xlink:href="#linear-gradient-22"/><clipPath id="clip-path-27"><polygon class="cls-1" points="148.39 81.18 143.28 91.85 147.06 97.16 150.85 79.8 148.39 81.18"/></clipPath><linearGradient id="linear-gradient-27" x1="-3828.28" y1="279.13" x2="-3826.66" y2="279.13" gradientTransform="matrix(-94.9, 39.87, -39.87, -94.9, -352004.06, 179194.65)" xlink:href="#linear-gradient"/><clipPath id="clip-path-28"><polygon class="cls-1" points="136.01 88.1 141.08 96.43 143.28 91.85 139.31 86.25 136.01 88.1"/></clipPath><linearGradient id="linear-gradient-28" x1="-3828.77" y1="279.25" x2="-3827.16" y2="279.25" gradientTransform="translate(-348228.59 177283.48) rotate(157.21) scale(101.82)" gradientUnits="userSpaceOnUse"><stop offset="0" stop-color="#4bad4b"/><stop offset="0.31" stop-color="#009aba"/><stop offset="1" stop-color="#253169"/></linearGradient><clipPath id="clip-path-29"><polygon class="cls-1" points="114.08 52.21 134.85 86.21 138.08 84.56 114.77 51.76 114.08 52.21"/></clipPath><linearGradient id="linear-gradient-29" x1="-3828.77" y1="279.34" x2="-3827.16" y2="279.34" gradientTransform="translate(-348234.97 177268.32) rotate(157.21) scale(101.82)" xlink:href="#linear-gradient-28"/><clipPath id="clip-path-30"><polygon class="cls-1" points="134.85 86.21 136.01 88.1 139.31 86.25 138.08 84.56 134.85 86.21"/></clipPath><linearGradient id="linear-gradient-30" x1="-3828.77" y1="279.27" x2="-3827.16" y2="279.27" gradientTransform="translate(-348230 177280.14) rotate(157.21) scale(101.82)" xlink:href="#linear-gradient-28"/><clipPath id="clip-path-31"><polygon class="cls-1" points="141.08 96.43 147.06 97.16 143.28 91.85 141.08 96.43"/></clipPath><linearGradient id="linear-gradient-31" x1="-3828.77" y1="279.23" x2="-3827.16" y2="279.23" gradientTransform="translate(-348227.44 177286.24) rotate(157.21) scale(101.82)" xlink:href="#linear-gradient-28"/></defs><g class="cls-2"><polygon class="cls-3" points="151.73 80.81 148.75 82.06 147.51 79.08 150.48 77.84 151.73 80.81"/></g><path class="cls-4" d="M112.06,86.68h-.4c-2.85,0-5.09,1.22-7.29,2.91a33.73,33.73,0,0,1-.43-5.54c0-1.91.14-3.5.24-4.54a2.89,2.89,0,0,1,1.08,2.55,6,6,0,0,1-.26,1.79,4.65,4.65,0,0,0,1.12-3,4.88,4.88,0,0,0-.55-2.26,4.26,4.26,0,0,1,1.57,3.53c0,.24,0,.44,0,.65a4.44,4.44,0,0,0-1.21-5.44,3.59,3.59,0,0,1,2.63,3.52s0,0,0,.07a4.72,4.72,0,0,0,.16-1.23,3.72,3.72,0,0,0-.2-1.2,3.67,3.67,0,0,0-2.71-2.18,4.61,4.61,0,0,1,.51,0,3.21,3.21,0,0,1,2.2.74,3.37,3.37,0,0,1,.55.63,2.57,2.57,0,0,0-.55-1.33,3.12,3.12,0,0,0-2.36-1,2.62,2.62,0,0,0-1,.18A2.16,2.16,0,0,1,107,74.6a2.26,2.26,0,0,1,.82.15,2.36,2.36,0,0,0-1.79-.86,2.17,2.17,0,0,0-1.84,1c-.1-.16-.18-.37-.28-.57a5.39,5.39,0,0,1-.35-1.14s0-.06-.08-.06-.06,0-.08.06a4.87,4.87,0,0,1-.35,1.14,3.1,3.1,0,0,1-.3.57,2.15,2.15,0,0,0-1.79-1,2.4,2.4,0,0,0-1.79.88,1.83,1.83,0,0,1,.81-.17,2.13,2.13,0,0,1,1.77.9,2.76,2.76,0,0,0-1-.18,3.11,3.11,0,0,0-2.32,1,2.16,2.16,0,0,0-.53,1.35A2.86,2.86,0,0,1,98.4,77a3.05,3.05,0,0,1,2.12-.72c.18,0,.37,0,.59,0a3.61,3.61,0,0,0-2.71,2.16,3.57,3.57,0,0,0-.2,1.16,4.39,4.39,0,0,0,.2,1.27v-.07a3.57,3.57,0,0,1,2.65-3.5,4.53,4.53,0,0,0-1.69,3.44,4.17,4.17,0,0,0,.49,2c0-.23,0-.47,0-.73a4.1,4.1,0,0,1,1.56-3.4,4.6,4.6,0,0,0,.57,5.25,5.19,5.19,0,0,1-.3-1.79,2.82,2.82,0,0,1,1.1-2.53c.08,1,.2,2.59.2,4.48a32.39,32.39,0,0,1-.45,5.6c-2.19-1.69-4.43-2.91-7.26-2.91h-.41a8.89,8.89,0,0,0-4,1.1,0,0,0,0,0,0,0,0,0,0,0,0,0,0h0a10.37,10.37,0,0,1,3.07-.49c.29,0,.59,0,.88,0a11.34,11.34,0,0,1,3.52,1,17.84,17.84,0,0,1,4.17,2.75,45.87,45.87,0,0,1-4.33,3.64,1,1,0,0,0-.8-.41.9.9,0,0,0-.22,0,1,1,0,0,0-.75,1,.86.86,0,0,0,.22.61,1.33,1.33,0,0,0,1,.43,2,2,0,0,0,.73-.16c1.22-.51,2.77-2.14,4.64-3.85l.49-.43c.18.16.33.31.49.43,1.89,1.71,3.42,3.34,4.64,3.85a2.15,2.15,0,0,0,.73.16,1.27,1.27,0,0,0,1-.43.86.86,0,0,0,.23-.61,1,1,0,0,0,0-.24,1,1,0,0,0-.74-.74.82.82,0,0,0-.22,0,1,1,0,0,0-.8.41,48.54,48.54,0,0,1-4.33-3.64,19,19,0,0,1,4.17-2.75,10.22,10.22,0,0,1,3.52-1c.29,0,.59,0,.88,0a9.72,9.72,0,0,1,3.07.49h0a0,0,0,0,0,0,0s0,0,0,0a8.1,8.1,0,0,0-4-1.18"/><g class="cls-5"><polygon class="cls-6" points="62.69 18.04 85.98 46.61 57.03 70.23 33.74 41.64 62.69 18.04"/></g><g class="cls-7"><polygon class="cls-8" points="95.25 14.56 115.97 39.99 88.1 62.73 67.35 37.3 95.25 14.56"/></g><g class="cls-9"><polygon class="cls-10" points="73.44 27.49 77.37 32.27 72.26 36.43 68.35 31.64 73.44 27.49"/></g><g class="cls-11"><polygon class="cls-12" points="77.37 48.01 84.54 44.57 87.14 50.01 79.98 53.45 77.37 48.01"/></g><g class="cls-13"><polygon class="cls-14" points="85.03 46.22 105.1 36.59 111.19 49.26 91.11 58.89 85.03 46.22"/></g><g class="cls-15"><polygon class="cls-16" points="57.93 48.89 72.91 41.68 77.29 50.8 62.3 58.01 57.93 48.89"/></g><g class="cls-17"><polygon class="cls-18" points="98.16 45.16 107.71 40.58 111.47 48.42 101.92 53 98.16 45.16"/></g><g class="cls-19"><polygon class="cls-20" points="34.08 62.73 82.97 39.26 112.43 100.58 63.55 124.06 34.08 62.73"/></g><g class="cls-21"><polygon class="cls-22" points="57.27 50.52 59.37 49.5 60.21 51.25 58.11 52.27 57.27 50.52"/></g><g class="cls-23"><polygon class="cls-24" points="77.41 36.24 82.81 45.96 74.72 50.48 69.31 40.74 77.41 36.24"/></g><g class="cls-25"><polygon class="cls-26" points="89.87 42.92 119.58 96.25 80.36 118.11 50.66 64.77 89.87 42.92"/></g><g class="cls-27"><polygon class="cls-28" points="78.39 46.36 80.46 50.07 76.45 52.31 74.4 48.6 78.39 46.36"/></g><g class="cls-29"><polygon class="cls-30" points="92.05 91.56 101.21 108 87.43 115.69 78.27 99.24 92.05 91.56"/></g><g class="cls-31"><polygon class="cls-32" points="114.93 111.92 66.7 75.72 102.25 28.37 150.48 64.57 114.93 111.92"/></g><g class="cls-33"><polygon class="cls-34" points="82.91 52.76 70.63 43.53 79.81 31.3 92.09 40.52 82.91 52.76"/></g><g class="cls-35"><polygon class="cls-36" points="133.93 98.18 126.76 92.81 131.81 86.07 138.98 91.46 133.93 98.18"/></g><g class="cls-37"><polygon class="cls-38" points="87.69 53.96 81.24 49.11 85.58 43.31 92.03 48.16 87.69 53.96"/></g><g class="cls-39"><polygon class="cls-40" points="75.8 43.55 71.02 39.97 74.8 34.92 79.59 38.52 75.8 43.55"/></g><g class="cls-41"><polygon class="cls-42" points="141.12 106.88 104.2 122.39 93.41 96.72 130.35 81.2 141.12 106.88"/></g><g class="cls-43"><polygon class="cls-44" points="138.68 97.75 132.47 100.36 129.72 93.82 135.93 91.22 138.68 97.75"/></g><g class="cls-45"><polygon class="cls-46" points="134.62 103.33 101.5 117.24 91.07 92.46 124.22 78.53 134.62 103.33"/></g><g class="cls-47"><polygon class="cls-48" points="137.25 89.18 132 91.4 130.04 86.74 135.29 84.52 137.25 89.18"/></g><g class="cls-49"><polygon class="cls-50" points="152.25 85.13 139.81 90.36 135.4 79.84 147.84 74.62 152.25 85.13"/></g><g class="cls-51"><polygon class="cls-52" points="134.56 91.38 128.05 94.13 125.72 88.61 132.24 85.86 134.56 91.38"/></g><g class="cls-53"><polygon class="cls-54" points="118.44 107.67 99.4 115.67 93.31 101.17 112.37 93.17 118.44 107.67"/></g><g class="cls-55"><polygon class="cls-56" points="157.06 94.56 144.42 99.87 137.09 82.4 149.71 77.09 157.06 94.56"/></g><g class="cls-57"><polygon class="cls-58" points="146.92 94.9 137.09 99.04 132.36 87.78 142.2 83.66 146.92 94.9"/></g><g class="cls-59"><polygon class="cls-60" points="150.4 81.04 117.68 94.78 101.78 56.93 134.5 43.19 150.4 81.04"/></g><g class="cls-61"><polygon class="cls-62" points="140.59 87.57 135.52 89.71 133.56 85.09 138.63 82.95 140.59 87.57"/></g><g class="cls-63"><polygon class="cls-64" points="148.96 96.37 141.97 99.3 139.18 92.64 146.17 89.71 148.96 96.37"/></g><path class="cls-4" d="M29.91,148.59h.81v6.94h-.81Zm10.51,7h.81v-7h-.81Zm94.39,0h.8v-7h-.8Zm22.21-7h-.81v6.94H157Zm-112,3.72v-.9c-.73-.21-1.3-.46-1.3-1s.53-1.05,1.3-1.11v-.75a2,2,0,0,0-2.16,1.89c0,1.28,1.13,1.63,2.16,1.92m.46-3A2.26,2.26,0,0,1,47,150l.08.11.55-.6-.07-.09a3,3,0,0,0-2.07-1v.77Zm-.46,5.61a2.71,2.71,0,0,1-1.77-.91l-.09-.1-.52.61.07.07a3.1,3.1,0,0,0,2.33,1.09v-.76Zm.46-3.33v.9c.81.24,1.42.5,1.42,1.24,0,.55-.39,1.14-1.42,1.21v.76c1.65-.09,2.26-1.09,2.26-2,0-1.42-1.23-1.81-2.26-2.09m10.61-3h-.8v6.94h.8Zm.48.77h1.29a1.32,1.32,0,1,1,0,2.63H56.6v.74h1.73a2,2,0,0,0,1.79-2.06A2,2,0,0,0,58,148.59H56.61v.77Zm2.08,3.84h-1l1.56,2.35h1Zm2.92-4.61h-1l2.78,4v2.94h.82v-3.12Zm3,3.5,2.42-3.5H66l-1.91,2.8Zm-39.26,2.3,2.37-5.79h-.85l-1.94,4.79Zm-2.9-5.8h-.82l2.86,6.94h.82Zm5,2v5h.83v-7h0Zm-6.28-2h0v6.94h.81v-5Zm85.67,5.8,1.75-4.28.62-1.51h-.83l-2,4.79Zm2.07-3.79v5h.82v-7h0Zm-5-2H103l2.82,6.87,0,.07h.82Zm-1.33,0h0v6.94h.81v-5Zm9.91,0h-.82l.05.1,2.79,6.77,0,.07h.83Zm2.9,5.8,1.75-4.28.61-1.51h-.82l-2,4.79Zm2.05-3.79v5h.82v-7h0Zm-6.28-2h0v6.94h.8v-5Zm-60.58,0H48.75v.75h1.76Zm1.75.77H54v-.76H52.26ZM51,155.55h.79v-7H51Zm22.9-.67a2.87,2.87,0,0,1,0-5.61v-.75a3.6,3.6,0,0,0,0,7.12Zm.47-6.38v.75a2.87,2.87,0,0,1,0,5.65v.76a3.6,3.6,0,0,0,0-7.16m5.86.86h3.21v-.76H80.21Zm-.47-.77h-.81v6.94h.81Zm.47,3.77h3.14v-.76H80.21ZM93,153.88l-.07.09a2.26,2.26,0,0,1-1.75.91v.76a3.19,3.19,0,0,0,2.43-1.23l.09-.1Zm-1.81-4.63a2.41,2.41,0,0,1,1.76.91l.07.09.68-.44-.09-.1a3.17,3.17,0,0,0-2.42-1.23Zm-.47,5.63a2.85,2.85,0,0,1,0-5.61v-.77a3.58,3.58,0,0,0,0,7.12Zm7.1,0a2.88,2.88,0,0,1,0-5.61v-.76a3.6,3.6,0,0,0,0,7.13Zm.48-6.38v.75a2.87,2.87,0,0,1,0,5.65v.75a3.6,3.6,0,0,0,0-7.15m63.38,6.38a2.88,2.88,0,0,1,0-5.61v-.76a3.6,3.6,0,0,0,0,7.13Zm.48-6.38v.75a2.87,2.87,0,0,1,0,5.65v.75a3.6,3.6,0,0,0,0-7.15m-39.6,6.33a1.75,1.75,0,0,1-1.68-2V148.6h-.83v4.27a2.5,2.5,0,0,0,2.51,2.8v-.82Zm2.14-6.26v4.24a1.75,1.75,0,0,1-1.66,2v.81a2.51,2.51,0,0,0,2.49-2.81v-4.26h-.83Zm15.67,6.29a2.85,2.85,0,0,1,0-5.61v-.77a3.58,3.58,0,0,0,0,7.12Zm.47-5.63a2.41,2.41,0,0,1,1.76.91l.07.09.68-.44-.09-.1a3.19,3.19,0,0,0-2.42-1.23Zm1.81,4.63-.07.09a2.26,2.26,0,0,1-1.76.91v.76a3.16,3.16,0,0,0,2.43-1.23l.08-.1ZM33.58,148.59h-1l4.91,6.94h1.07Zm4.82,5.94V148.6h-.8v4.81Zm-5.68-4.91v5.93h.81v-4.77Zm118.65-1h-1.74v.76h1.74Zm1.28,0h-.81v7h.81Zm.47.76h1.72v-.76h-1.72ZM133,154.55v-6h-.8v4.84Zm-4.86-6h-1l4.91,6.94h1.05Zm-.82,1v5.93h.81v-4.79Zm40.44-1h-1l4.92,6.94h1.05Zm4.84,5.94v-5.94h-.81v4.82Zm-5.68-4.93v5.93h.8v-4.79ZM148,153h-1.67l-.31.79h2.29Zm-.14-3.82-.44,1.09,2.12,5.31h.91Zm-.28-.54h-.85l-2.77,6.79-.07.15h.91Z"/><path class="cls-4" d="M176.25,152.31v-.9c-.74-.21-1.3-.46-1.3-1s.52-1.05,1.3-1.11v-.75a2,2,0,0,0-2.16,1.89c0,1.28,1.12,1.63,2.16,1.92"/><path class="cls-4" d="M176.72,149.27a2.26,2.26,0,0,1,1.51.77l.09.11.54-.6-.07-.09a3,3,0,0,0-2.07-1v.77Z"/><path class="cls-4" d="M176.25,154.88a2.71,2.71,0,0,1-1.78-.91l-.08-.1-.53.61.07.07a3.12,3.12,0,0,0,2.33,1.09v-.76Z"/><path class="cls-4" d="M176.72,151.55v.9c.81.24,1.42.5,1.42,1.24,0,.55-.39,1.14-1.42,1.21v.76c1.65-.09,2.26-1.09,2.26-2,0-1.42-1.24-1.81-2.26-2.09"/><rect class="cls-4" x="44.82" y="159.95" width="0.81" height="6.95"/><rect class="cls-4" x="93.72" y="159.95" width="0.81" height="6.95"/><polygon class="cls-4" points="174.03 159.95 173.05 159.95 175.81 163.95 175.81 166.9 176.63 166.9 176.63 163.78 174.03 159.95"/><polygon class="cls-4" points="176.97 163.46 179.42 159.95 178.44 159.95 176.49 162.76 176.97 163.46"/><polygon class="cls-4" points="75.19 159.95 74.37 159.95 74.42 160.06 77.19 166.83 77.23 166.9 78.05 166.9 75.19 159.95"/><polygon class="cls-4" points="78.09 165.74 79.84 161.46 80.44 159.95 79.61 159.95 77.67 164.74 78.09 165.74"/><polygon class="cls-4" points="73.86 159.95 73.86 159.95 73.86 166.9 74.67 166.9 74.67 161.92 73.86 159.95"/><polygon class="cls-4" points="80.14 161.95 80.14 166.9 80.95 166.9 80.95 159.95 80.95 159.95 80.14 161.95"/><rect class="cls-4" x="89.61" y="159.95" width="0.81" height="6.95"/><rect class="cls-4" x="90.89" y="159.95" width="1.72" height="0.75"/><rect class="cls-4" x="87.4" y="159.95" width="1.74" height="0.75"/><path class="cls-4" d="M63,166.24a2.88,2.88,0,0,1,0-5.62v-.75A3.6,3.6,0,0,0,63,167Z"/><path class="cls-4" d="M63.44,159.85v.75a2.87,2.87,0,0,1,0,5.65V167a3.6,3.6,0,0,0,0-7.16"/><path class="cls-4" d="M99,166.24a2.88,2.88,0,0,1,0-5.62v-.75A3.6,3.6,0,0,0,99,167Z"/><path class="cls-4" d="M99.42,159.85v.75a2.87,2.87,0,0,1,0,5.65V167a3.6,3.6,0,0,0,0-7.16"/><rect class="cls-4" x="120.77" y="162.97" width="3.16" height="0.75"/><rect class="cls-4" x="120.77" y="166.15" width="3.23" height="0.75"/><polygon class="cls-4" points="24.56 160.48 24.12 161.59 26.23 166.9 27.14 166.9 24.56 160.48"/><polygon class="cls-4" points="24.68 164.31 23.02 164.31 22.7 165.11 25 165.11 24.68 164.31"/><polygon class="cls-4" points="24.26 159.95 23.42 159.95 20.65 166.74 20.58 166.9 21.47 166.9 24.26 159.95"/><polygon class="cls-4" points="33.61 165.9 33.61 159.95 32.81 159.95 32.81 164.78 33.61 165.9"/><polygon class="cls-4" points="28.77 159.95 27.79 159.95 32.7 166.9 33.75 166.9 28.77 159.95"/><polygon class="cls-4" points="27.93 160.97 27.93 166.9 28.74 166.9 28.74 162.11 27.93 160.97"/><polygon class="cls-4" points="103.89 160.99 103.89 166.9 104.7 166.9 104.7 162.15 103.89 160.99"/><polygon class="cls-4" points="109.58 165.92 109.58 159.95 108.77 159.95 108.77 164.78 109.58 165.92"/><polygon class="cls-4" points="108.65 166.9 109.72 166.9 104.74 159.95 103.74 159.95 108.61 166.85 108.65 166.9"/><polygon class="cls-4" points="145.12 165.9 145.12 159.95 144.3 159.95 144.3 164.78 145.12 165.9"/><polygon class="cls-4" points="140.28 159.95 139.3 159.95 144.18 166.9 145.25 166.9 140.28 159.95"/><polygon class="cls-4" points="139.42 160.99 139.42 166.9 140.23 166.9 140.23 162.13 139.42 160.99"/><polygon class="cls-4" points="52.86 165.88 52.86 159.95 52.03 159.95 52.03 164.76 52.86 165.88"/><polygon class="cls-4" points="47.16 161.01 47.16 166.9 47.98 166.9 47.98 162.15 47.16 161.01"/><polygon class="cls-4" points="51.91 166.9 53 166.9 48.02 159.95 47 159.95 51.88 166.85 51.91 166.9"/><rect class="cls-4" x="35.19" y="159.95" width="0.81" height="6.95"/><path class="cls-4" d="M37.46,160h-1v.76h1a2.52,2.52,0,0,1,2.66,2.65,2.57,2.57,0,0,1-2.66,2.79h-1v.75h1a3.33,3.33,0,0,0,3.5-3.54,3.28,3.28,0,0,0-3.5-3.41"/><rect class="cls-4" x="54.42" y="159.95" width="0.81" height="6.95"/><rect class="cls-4" x="55.68" y="159.95" width="3.23" height="0.75"/><rect class="cls-4" x="55.68" y="162.97" width="3.16" height="0.75"/><path class="cls-4" d="M69,160.71h1.3a1.32,1.32,0,1,1,0,2.63H69v.74h1.74A2,2,0,0,0,72.54,162a2,2,0,0,0-2.15-2.08H69Z"/><polygon class="cls-4" points="71.12 164.55 70.14 164.55 71.7 166.9 72.74 166.9 71.12 164.55"/><rect class="cls-4" x="67.75" y="159.95" width="0.81" height="6.95"/><polygon class="cls-4" points="86 164.31 84.32 164.31 84 165.11 86.32 165.11 86 164.31"/><polygon class="cls-4" points="85.84 160.48 85.42 161.57 87.54 166.9 88.44 166.9 85.84 160.48"/><polygon class="cls-4" points="85.54 159.95 84.72 159.95 81.93 166.74 81.79 166.9 82.77 166.9 85.54 159.95"/><polygon class="cls-4" points="136.58 163.73 136.58 162.97 133.03 162.97 133.03 159.95 132.23 159.95 132.23 163.73 136.58 163.73"/><rect class="cls-4" x="132.23" y="164.2" width="0.81" height="2.72"/><path class="cls-4" d="M170,160.6a2.34,2.34,0,0,1,1.77.92l.07.08.68-.43-.09-.11a3.18,3.18,0,0,0-2.45-1.23v.77Z"/><polygon class="cls-4" points="169.58 163.97 172.61 163.97 172.61 163.97 172.61 163.25 169.58 163.25 169.58 163.97"/><path class="cls-4" d="M171.81,164.45v1.05a2.44,2.44,0,0,1-1.77.75V167a3.39,3.39,0,0,0,2.52-1.13l0,0v-1.4Z"/><path class="cls-4" d="M169.58,166.24a2.84,2.84,0,0,1,0-5.58v-.78a3.59,3.59,0,0,0,0,7.13Z"/><rect class="cls-4" x="155.67" y="166.15" width="2.79" height="0.75"/><rect class="cls-4" x="115.42" y="159.95" width="0.81" height="6.95"/><rect class="cls-4" x="116.68" y="159.95" width="1.72" height="0.75"/><rect class="cls-4" x="113.21" y="159.95" width="1.74" height="0.75"/><rect class="cls-4" x="119.51" y="159.95" width="0.81" height="6.95"/><rect class="cls-4" x="120.77" y="162.97" width="3.16" height="0.75"/><rect class="cls-4" x="120.77" y="159.95" width="3.16" height="0.75"/><rect class="cls-4" x="137.05" y="159.95" width="0.81" height="6.95"/><rect class="cls-4" x="154.39" y="159.95" width="0.81" height="6.95"/><path class="cls-4" d="M161.68,166.24a2.88,2.88,0,0,1,0-5.62v-.75a3.6,3.6,0,0,0,0,7.12Z"/><path class="cls-4" d="M162.16,159.85v.75a2.87,2.87,0,0,1,0,5.65V167a3.6,3.6,0,0,0,0-7.16"/><path class="cls-4" d="M149.51,166.24a2.88,2.88,0,0,1,0-5.62v-.75a3.6,3.6,0,0,0,0,7.12Z"/><path class="cls-4" d="M150,159.85v.75a2.87,2.87,0,0,1,0,5.65V167a3.6,3.6,0,0,0,0-7.16"/><path class="cls-4" d="M128.25,166.24a2.86,2.86,0,0,1,0-5.62v-.77a3.58,3.58,0,0,0,0,7.12Z"/><path class="cls-4" d="M128.72,160.6a2.34,2.34,0,0,1,1.75.92l.07.08.69-.43-.09-.11a3.19,3.19,0,0,0-2.42-1.23Z"/><path class="cls-4" d="M130.53,165.25l-.07.09a2.34,2.34,0,0,1-1.76.91V167a3.16,3.16,0,0,0,2.42-1.23l.09-.11Z"/><path class="cls-4" d="M132.47,122h-.82v1.18h.82Zm3.76,7.84a4,4,0,0,0,2.47-.7,2.44,2.44,0,0,0,.84-1.89V122h-.8v5.16a1.59,1.59,0,0,1-.6,1.42,2.66,2.66,0,0,1-1.6.46H133.4l.09.81h2.74Zm-4.7-6.15h-.81v4.86h.81ZM130.47,122h-.82v1.18h.82Zm-26,3.72a1.79,1.79,0,0,1,.33,1.18v1.65h.81v-1.79a2.4,2.4,0,0,0-.53-1.57,2.12,2.12,0,0,0-1.72-.75H99.77v.81h3.63a1.42,1.42,0,0,1,1.06.47M143.11,122h-.81v7.86h.81Zm-6.85,1.11h-.8v5.46h.8Zm-36.94.6h-.79v4.86h.79Zm-8,12.8.3-.73a4.7,4.7,0,0,0-2.24-.69,4.65,4.65,0,0,0-2.27.69l.32.75a3.61,3.61,0,0,1,2-.61,3.7,3.7,0,0,1,1.94.59m-4.7-.42c-.17.12-.33.25-.45.35l-.09.07,1.35,3.41h.91L86.74,136Zm6,.53,0-.11-.09-.07c-.14-.1-.28-.23-.45-.35l-.11-.07-1.59,3.9h.86ZM82,133.38h-.8v6.5H82ZM131.53,129H40.07v.81h91.46ZM34,123.06h-.81v5.46H34Zm115.23,12h-.81v4.83h.81Zm-24.76-1.7h-.82v1.18h.82ZM40.89,122h-.8v6.57h.8Zm125.65,0h-.8v7.86h.8Zm-1.45,11.39h-.83v1.18h.83Zm5.51,0h-.83v1.18h.83Zm-6.3,6.53h.81V135h-.81ZM155.49,135h-.81v4.83h.81Zm5.44-3.28c1.4,0,1.58-1.1,1.58-2v-6.05h-.81v6.05c0,.74-.12,1.24-.73,1.24a1.15,1.15,0,0,1-.36-.07l-.15-.07-.28.76.14.05a1.54,1.54,0,0,0,.61.14M171.25,122h-.83v1.18h.83Zm-1.6,9.79c1.4,0,1.58-1.1,1.58-2v-6.05h-.81v6.05c0,.74-.12,1.24-.74,1.24a1.27,1.27,0,0,1-.35-.07l-.15-.07-.28.76.14.05a1.5,1.5,0,0,0,.61.14m7.88-1.95h0V129h-.33c-2,0-2.67-1.21-2.67-2.27a2.51,2.51,0,0,1,2.67-2.26h.33v-.81h0c-2.3,0-3.78,1.21-3.78,3.07s1.41,3.07,3.78,3.07m-20.95,0h0V129h-.34a2.35,2.35,0,0,1-2.61-2.27,2.46,2.46,0,0,1,2.61-2.26h.34v-.81h0c-2.19,0-3.72,1.27-3.72,3.07,0,1.48,1,3.07,3.72,3.07m-.67-7.84h-.82v1.18h.82Zm-.42,11.37h-.82v1.18h.82Zm6,6.53a2.27,2.27,0,0,1,1.72-4h.55V135h-.25c-2.26,0-3.68,1.18-3.68,3.05a2.82,2.82,0,0,0,.58,1.78Zm-3.64-16.21h-.81v6.15h.81Zm4.38,10.86h.83v-1.18h-.83ZM157.9,122h-.83v1.18h.83ZM66.37,141.18h0v-.82h-.33c-2,0-2.67-1.21-2.67-2.27a2.52,2.52,0,0,1,2.67-2.26h.33V135h0c-2.3,0-3.79,1.22-3.79,3.07s1.42,3.09,3.79,3.09m80.88,1.95h.82v-1.19h-.82Zm-25.86-5c0,1.49,1,3.07,3.72,3.07h0v-.82h-.33a2.35,2.35,0,0,1-2.61-2.27,2.48,2.48,0,0,1,2.61-2.26h.33V135h0c-2.2,0-3.72,1.29-3.72,3.09m-11,3.07h.81v-7.8h-.81Zm15.16-6.66h.82v-1.18h-.82Zm0,6.66h.79V135h-.79Zm-18.72-1.31h.81v-6.51h-.81Zm-6,1.94Zm1.74-1.38a6.31,6.31,0,0,1-.33.58l-.13.17h5.53v-.82h-5ZM26.74,122h-.83v1.18h.83ZM178,141.08s0,0,0,0,0,.07,0,.11c-.07.68-.58,1.08-1.47,1.08a3.07,3.07,0,0,1-1.49-.47l-.14-.07-.37.72.14.07a3.58,3.58,0,0,0,1.82.56,2.07,2.07,0,0,0,2.35-2V135H178v6.06Zm-28.79,2h.82v-1.19h-.82Zm28.28-1.95h0v-.82h-.33c-2,0-2.67-1.21-2.67-2.27a2.52,2.52,0,0,1,2.67-2.26h.33V135h0c-2.3,0-3.79,1.22-3.79,3.07s1.42,3.09,3.79,3.09m.51-17.52v6s0,0,0,.05v.09h0c-.07.7-.58,1.11-1.47,1.11a3,3,0,0,1-1.49-.48l-.14-.07-.37.72.14.07a3.49,3.49,0,0,0,1.82.56,2.08,2.08,0,0,0,2.35-2.05v-6Zm-51.18,17.52h44.77v-.82H126.86Zm44.91-6.66h.83v-1.18h-.83Zm-1,5.35h.81V135h-.81Zm-68.61.49.11-.21a.24.24,0,0,1,0-.09l0-.05c0-.07,0-.13.07-.2a3.57,3.57,0,0,0,.14-1,3.4,3.4,0,0,0-.47-1.75,3.08,3.08,0,0,0-1.34-1.21,3.21,3.21,0,0,0-1.19-.3v.81a2.38,2.38,0,0,1,2.21,2.45,2.35,2.35,0,0,1-2.21,2.42v.81a3.83,3.83,0,0,0,1.3-.33l0,0s0,0,0,0l.06,0,.17-.11.06,0,.21-.14.14-.12,0,0,.05-.06a2.83,2.83,0,0,0,.5-.64l0-.16ZM29,128.52h.8v-4.86H29Zm-6.55,0a1.59,1.59,0,0,1-.59-1.42v-2.37h-.81v2.48a2.47,2.47,0,0,0,.84,1.89,3.6,3.6,0,0,0,2.48.7h5.45V129H24.09a2.88,2.88,0,0,1-1.62-.48m3.44,6h.83v-1.18h-.83ZM29,139.87h.81V135H29ZM24.74,122h-.83v1.18h.83Zm0,11.37h-.83v1.18h.83Zm-2.27,6.56a1.59,1.59,0,0,1-.59-1.42v-2.35h-.81v2.46a2.42,2.42,0,0,0,.84,1.87,3.6,3.6,0,0,0,2.48.7h5.4v-.8H24.07a2.7,2.7,0,0,1-1.6-.46m44.41,1.18v.1c-.06.7-.6,1.13-1.49,1.13a3.12,3.12,0,0,1-1.5-.48l-.14-.07-.36.72.14.07a3.49,3.49,0,0,0,1.82.56c1.16,0,2.35-.19,2.35-1.58V135h-.81v6.06Zm-7.27-5.2a3.36,3.36,0,0,0-1.19-.29v.8a2.39,2.39,0,0,1,2.21,2.46,2.35,2.35,0,0,1-2.21,2.42v.81a3.37,3.37,0,0,0,1.28-.34h0s0,0,0,0l0,0a1.06,1.06,0,0,0,.2-.12s0,0,0,0,.14-.09.21-.14.09-.09.16-.14l.05-.06a2.92,2.92,0,0,0,.49-.65l.09-.17h0l.11-.21a.24.24,0,0,1,0-.09l0,0c0-.07.05-.12.07-.19a3.57,3.57,0,0,0,.14-1,3.32,3.32,0,0,0-.48-1.76,3.23,3.23,0,0,0-1.35-1.21m36.83,1.43h0a3.3,3.3,0,0,0,2.65,4.77v-.81a2.4,2.4,0,0,1-2.2-2.44,2.42,2.42,0,0,1,2.2-2.45v-.81a3.28,3.28,0,0,0-.7.1,3.37,3.37,0,0,0-2,1.64M96,140.43l0-.07H68.16v.8H96.47l-.12-.17a2.81,2.81,0,0,1-.35-.56m-41.14,0,0-.07H32v.8H55.32l-.13-.17a2.76,2.76,0,0,1-.33-.56m.44-3.12h0A3.3,3.3,0,0,0,58,142.08v-.81a2.4,2.4,0,0,1-2.2-2.44,2.42,2.42,0,0,1,2.2-2.45v-.81a3.11,3.11,0,0,0-.7.1,3.31,3.31,0,0,0-2,1.64m-22.48-3.93H32v6.5h.8Zm3.58-4.27a2.45,2.45,0,0,0,.85-1.89V122h-.81v5.16a1.59,1.59,0,0,1-.6,1.42,2.68,2.68,0,0,1-1.44.46H31.09l.09.81h2.73a4,4,0,0,0,2.49-.69"/></svg>