<svg id="Layer_1" data-name="Layer 1" xmlns="http://www.w3.org/2000/svg" viewBox="0 0 200 200"><defs><style>.cls-1{fill:#71b545;}.cls-2{fill:#ccd533;}.cls-3{fill:#273777;}.cls-4{fill:#2684c6;}.cls-5{fill:#24b3ba;}.cls-6{fill:#6f787f;}.cls-7{fill:#71b645;}</style></defs><path class="cls-1" d="M124.92,87.12s23.74,9.65,20.75,18.87c-5.16,2-11.21-2.71-14.47-9.93-3.11-6.9-6.28-8.94-6.28-8.94"/><path class="cls-2" d="M129.28,81.45s23.39,4.93,21.92,14.11c-.22,1.37-7.79.35-10.64-2.12-5.66-4.89-2.8-6.66-11.28-12"/><path class="cls-3" d="M131.79,75.39s7.17-1.41,12.42.43c4.13,1.44,8.28,3.08,9.48,9.27a10.27,10.27,0,0,1-9.94-1.51c-5.18-3.73-7-7.94-12-8.19"/><path class="cls-4" d="M132.32,68.86a17.45,17.45,0,0,1,8.17-1.75c4.8.18,11.42,1.71,12.12,6.8,0,0-3.66,3.46-11.38-1.2a21.3,21.3,0,0,0-8.91-3.85"/><path class="cls-5" d="M131.25,62.56s4-4.28,14.21-3.12a8.34,8.34,0,0,1,5.65,4.46s-3,4-11.32,0a11.16,11.16,0,0,0-8.54-1.33"/><path class="cls-1" d="M128.68,56.74s2.54-3.64,8.89-4.45c0,0,6.39-1.08,8.58,3.11,0,0-2.23,2.9-9.59,1.44-7.12-1.42-7.88-.1-7.88-.1"/><path class="cls-2" d="M124.92,51.32a10.17,10.17,0,0,1,9.45-7s3.11-.14,4.61,1.83a5.79,5.79,0,0,1-6.36,3.41s-6-.88-7.7,1.74"/><path class="cls-3" d="M119.35,47.15c-.31.07,1.1-7.33,6.83-8.93,0,0,2.17-.69,3.28.25-.07,1.43-.17,6.47-10.11,8.68"/><path class="cls-4" d="M118.35,33.44s3.8,7.7-4.7,10.9c0,0-1.1-3.7,0-6.6a7.44,7.44,0,0,1,4.7-4.3"/><path class="cls-5" d="M106.88,42.21s3.11-2.05,2.57-8.08l-.16-3.49s-6.87,3.52-2.41,11.57"/><path class="cls-3" d="M106.85,97.23s14.63,24.6,5.81,30.52c0,0-6.1-.58-6.1-13.66,0-5.23,1.18-12,.29-16.86"/><path class="cls-4" d="M114,94.82s15.26,13.19,11.16,28.84c0,0-5.83,1.29-7.38-7.23S116,103.06,114,94.82"/><path class="cls-5" d="M119.84,91.43a46.64,46.64,0,0,1,9.1,6.78s9.75,9.62,8,17c0,0-6.89,3.57-12.13-10.48s-2.63-7-4.93-13.27"/><path class="cls-6" d="M96.23,59.51a1.12,1.12,0,0,1,.08,1.14c0-.16.08-.33-.08-.41s-.08.08-.08.17a.42.42,0,0,0-.16-.33,4.08,4.08,0,0,0-.16,1.38c-.17-.08,0-.4-.17-.32s-.08.48,0,.73a4.06,4.06,0,0,1-.16-3.49A7.32,7.32,0,0,1,97,56.6c.08-.08.25-.33,0-.33s-.4.16-.49.41l-.16-.16c-.08.24-.24.48-.32.72,0-.08,0-.32-.08-.32-.25.08-.25.49-.33.73,0-.08,0-.32-.08-.24-.24.16-.24.56-.32.89,0-.08.08-.33-.08-.33s-.17.41-.17.65a.28.28,0,0,0-.08-.16c-.24.24-.16.57-.16.81-.16-.08-.08-.32-.16-.32-.24.24-.16.56-.24.89-.08-.16.08-.41-.08-.57A2.35,2.35,0,0,0,94,60c-.08-.24.08-.49-.08-.65-.16.25,0,.57-.08.81a3.76,3.76,0,0,1,.08-2.11,6.61,6.61,0,0,1,.57-1,4.32,4.32,0,0,1,.89-.81c.49-.4,1.13-.48,1.54-1-.16-.16-.41.08-.57-.08l-.16.16c0-.08,0-.16-.08-.16a.46.46,0,0,0-.33.16c0-.08,0-.16-.08-.16s-.24.16-.32.24a.28.28,0,0,0-.08-.16c-.08.08-.33.08-.33.32l-.16-.16a.42.42,0,0,0-.16.33c0-.08,0-.17-.08-.17a.46.46,0,0,0-.16.33l-.08-.08a1.16,1.16,0,0,0-.17.48.28.28,0,0,0-.08-.16c-.16.16-.08.41-.16.57A1.74,1.74,0,0,1,95,54.65a3.47,3.47,0,0,1,2.84-.08.28.28,0,0,0,.08-.16c-.08-.24-.32-.73-.64-.41a.29.29,0,0,1,.08-.24c-.16-.24-.41.08-.57,0l.08-.08c-.16-.25-.32.08-.49,0l.08-.08c0-.08-.08-.08-.16-.08s-.32.08-.32.32c0-.08.08-.32-.08-.32s-.33.4-.49.56a.67.67,0,0,1,.32-.81A2.53,2.53,0,0,1,98,53a1.93,1.93,0,0,1,1,1,4,4,0,0,0,.32-1.05.29.29,0,0,0,.08.24c.16-.32.09-.73.24-1,.17.32.09.73.25,1a.29.29,0,0,0,.08-.24,4,4,0,0,0,.32,1.05,1.89,1.89,0,0,1,1.3-1.05c.89-.17,2.35.08,2.27,1.21-.16-.16-.24-.48-.49-.56s-.08.24-.08.32c0-.24-.24-.24-.32-.32s-.16,0-.16.08.08.08.08.16c-.16-.08-.33-.24-.49-.08.08,0,.08.08.08.16a1.14,1.14,0,0,0-.48-.16c-.17.08.08.24,0,.32-.08-.16-.25-.08-.33-.08-.16.16-.49.65-.41.65a4.32,4.32,0,0,1,3,.08,2.09,2.09,0,0,1,1,.73,2.64,2.64,0,0,1,.16,1.38c-.16-.16,0-.41-.16-.57a.28.28,0,0,0-.08.16c0-.32-.24-.48-.41-.73-.08,0-.08.09-.08.17a.42.42,0,0,0-.16-.33l-.16.16c0-.24-.24-.24-.33-.32a.28.28,0,0,0-.08.16l-.24-.24c-.16,0-.25.16-.41,0s-.16,0-.16.16l-.16-.16c-.16.16-.41-.08-.57.08.73.65,1.79.89,2.43,1.78a3.57,3.57,0,0,1,.65,3.08c-.08-.24.08-.56-.08-.81-.16.16,0,.41-.08.65a2.6,2.6,0,0,0-.24-.73c-.16.16-.08.41-.08.57-.08-.33,0-.65-.25-.89-.08,0,0,.24-.16.32,0-.24.08-.57-.16-.81a.28.28,0,0,0-.08.16c0-.24.08-.57-.16-.65s-.08.25-.08.33c-.09-.33-.09-.73-.33-.89-.08-.08-.08.16-.08.24-.08-.24-.08-.65-.33-.73-.08,0-.08.24-.08.32-.08-.24-.24-.48-.32-.72l-.16.16a.73.73,0,0,0-.49-.49c-.08,0-.08.16-.08.24.49.65,1.13,1.14,1.54,1.79a4.12,4.12,0,0,1-.16,3.65c.08-.25.24-.65,0-.73s0,.24-.17.32a4.08,4.08,0,0,0-.16-1.38.42.42,0,0,0-.16.33c0-.09,0-.17-.08-.17s-.08.25-.08.41a1.86,1.86,0,0,1,.16-1.3,1.14,1.14,0,0,0-.16-.48.42.42,0,0,0-.16.32,4.26,4.26,0,0,0-.17-1c-.16.08-.08.24-.08.32-.16-.24.08-.57-.16-.73-.08,0,0,.24-.16.32,0-.24.08-.56-.16-.72-.08,0-.08.24-.08.32,0-.24-.08-.65-.33-.73-.08,0,0,.24-.08.32h-.16c0-.08,0-.16-.08-.16s-.17,0-.17.08c.08.25.41.25.49.49s.25.32.25.57a.3.3,0,0,0-.49-.08c.4.16.81.4.73.89a.54.54,0,0,0-.33-.41c-.08,0-.24,0-.24.08.33.33.65.65.57,1.14a.45.45,0,0,0-.24-.41.28.28,0,0,0-.17.08,2.08,2.08,0,0,1,.33,1.55c0-.17.08-.41-.08-.33s-.08.24-.08.41l-.09-.08c-.16.24.09.4,0,.64s-.08.41-.16.65c-.08-.24.08-.56-.08-.81a2.63,2.63,0,0,0-.16,1.14c0-.09,0-.17-.08-.17s0,.33-.17.41a12.22,12.22,0,0,0-.16-1.7c.09,0,.16,0,.16-.08s.08-.49-.07-.49,0,.32-.17.41c0-.33,0-.65-.24-.74s.08.25-.16.33-.17-.24-.33-.41a56.11,56.11,0,0,0,0,8.2c0,.41.24.81.16,1.22a.73.73,0,0,0-.08.57,1.28,1.28,0,0,0,.25.73c.08.32-.25.65-.17,1a9.25,9.25,0,0,0,.89,1.7H98c.33-.65.9-1.21.81-1.94,0-.25-.16-.49-.08-.73.41-.65.08-1.22.17-1.95a1.13,1.13,0,0,0,.16-.49,71.47,71.47,0,0,0,0-8.28c-.16.08-.08.25-.08.33s-.33.08-.41-.08c.08,0,.08-.08.08-.17-.16-.24-.16.09-.24.09a.87.87,0,0,0-.08.65c-.16-.09,0-.49-.16-.41s-.08.32-.08.49.08.08.16.08a10.86,10.86,0,0,0-.16,1.7c-.17-.08,0-.33-.17-.41s-.08.08-.08.17a2.63,2.63,0,0,0-.16-1.14c-.16.25,0,.57-.08.81-.08-.24-.08-.4-.16-.65s.16-.4,0-.64l-.08.08c0-.17.08-.41-.08-.41s-.08.16-.08.33a1.56,1.56,0,0,1,.32-1.46c.08-.09,0-.17-.08-.17-.24,0-.24.25-.33.41-.08-.49.25-.81.57-1.14,0-.08-.16-.08-.24-.08a.56.56,0,0,0-.33.41c-.08-.49.33-.73.73-.89a.29.29,0,0,0-.48.08,2,2,0,0,1,.64-.81.42.42,0,0,0-.32-.17c.16-.08,0-.24.16-.32,0-.08-.08-.08-.16-.08a1,1,0,0,0-.4.81c0-.08,0-.32-.08-.32-.25.16-.17.48-.17.72-.16-.08,0-.32-.16-.32-.24.16,0,.49-.16.73,0-.08.08-.24-.08-.32-.17.32-.08.73-.17,1a.42.42,0,0,0-.16-.32c-.08.24-.24.4-.08.64"/><path class="cls-6" d="M92.58,71.77a23.14,23.14,0,0,1,7.22,3.89,20.42,20.42,0,0,1,17.1-4.46c-5.75.16-11.75,1.7-16,5.75l3.41,3.17c.32-.49.32-1.14.73-1.62a1.82,1.82,0,0,1,1.62-.65,1.26,1.26,0,0,1,1,1.46,1.35,1.35,0,0,1-2.19.64c-.16-.08-.4.49-.24.74a3,3,0,0,0,1.62,1.13,1.29,1.29,0,0,1,2.11,0,1.1,1.1,0,0,1-.41,1.62c-1.54.65-3.16-.4-4.37-1.38-.73,1.14-2.68,2.35-3.82.89a1.13,1.13,0,0,1-.16-.89,1.27,1.27,0,0,1,1.46-1,1,1,0,0,1,.81.49c.16.24-.08.65.25.56s.64-.4.56-.48c-.81-1.54-2.35-2.35-3.56-3.49-1.22,1.14-2.6,2-3.57,3.41-.16.24.32.56.57.56s.16-.72.56-.89a1.62,1.62,0,0,1,1.22-.08,1.37,1.37,0,0,1,.73,1.38,1.55,1.55,0,0,1-1.78,1,3.26,3.26,0,0,1-2.19-1.54c-1.14.89-2.43,1.79-4,1.62a1.19,1.19,0,0,1-.82-.56,1.3,1.3,0,0,1,.41-1.7,1.28,1.28,0,0,1,1.7.4,3,3,0,0,0,1.62-1.13c.17-.25-.08-.82-.32-.74a2,2,0,0,1-1.38.25,1.37,1.37,0,0,1-.73-1.38,1.24,1.24,0,0,1,1.54-1,2.79,2.79,0,0,1,1.06.65c.4.48.4,1.13.73,1.62L98.5,77c-4.22-4-10.21-5.59-16-5.75a21.06,21.06,0,0,1,10,.57"/><path class="cls-3" d="M74.51,87.12S50.77,96.77,53.76,106c5.16,2,11.21-2.71,14.47-9.93,3.12-6.9,6.28-8.94,6.28-8.94"/><path class="cls-1" d="M70.15,81.45S46.77,86.38,48.23,95.56c.22,1.37,7.79.35,10.64-2.12,5.67-4.89,2.81-6.66,11.28-12"/><path class="cls-4" d="M67.9,75.39s-7.17-1.41-12.43.43C51.34,77.26,47.2,78.9,46,85.09a10.27,10.27,0,0,0,9.94-1.51c5.19-3.73,7-7.94,12-8.19"/><path class="cls-2" d="M68.18,62.56s-4-4.28-14.21-3.12a8.34,8.34,0,0,0-5.65,4.46s3,4,11.33,0a11.13,11.13,0,0,1,8.53-1.33"/><path class="cls-1" d="M70.76,56.74s-2.55-3.64-8.89-4.45c0,0-6.4-1.08-8.59,3.11,0,0,2.23,2.9,9.59,1.44,7.12-1.42,7.89-.1,7.89-.1"/><path class="cls-5" d="M74.51,51.32a10.16,10.16,0,0,0-9.44-7S62,44.2,60.45,46.17a5.79,5.79,0,0,0,6.36,3.41s6-.88,7.7,1.74"/><path class="cls-4" d="M80.08,47.15c.31.07-1.1-7.33-6.83-8.93,0,0-2.17-.69-3.28.25.08,1.43.17,6.47,10.11,8.68"/><path class="cls-3" d="M81.08,33.44s-3.8,7.7,4.7,10.9c0,0,1.1-3.7,0-6.6a7.42,7.42,0,0,0-4.7-4.3"/><path class="cls-2" d="M92.55,42.21S89.44,40.16,90,34.13l.17-3.49s6.86,3.52,2.4,11.57"/><path class="cls-1" d="M92.58,97.23S78,121.83,86.77,127.75c0,0,6.1-.58,6.1-13.66,0-5.23-1.18-12-.29-16.86"/><path class="cls-4" d="M79.6,91.43a46.57,46.57,0,0,0-9.11,6.78s-9.74,9.62-8,17c0,0,6.89,3.57,12.13-10.48s2.63-7,4.94-13.27"/><path class="cls-7" d="M99.72,29.79s4.94,10.29,0,11.81c-4.94-1.52,0-11.81,0-11.81"/><path class="cls-3" d="M67.49,68.86a17.45,17.45,0,0,0-8.17-1.75c-4.8.18-11.42,1.71-12.13,6.8,0,0,3.67,3.46,11.39-1.2a21.23,21.23,0,0,1,8.91-3.85"/><path class="cls-3" d="M24.13,146a.82.82,0,1,0,0-1.64.84.84,0,0,0-.89.82.82.82,0,0,0,.89.82"/><path class="cls-3" d="M21.65,146a.82.82,0,0,0,.89-.82.89.89,0,0,0-1.77,0,.81.81,0,0,0,.88.82"/><path class="cls-3" d="M27.78,154.61a.84.84,0,0,0-.89.83.89.89,0,0,0,1.78,0,.84.84,0,0,0-.89-.83"/><path class="cls-3" d="M30.26,154.61a.84.84,0,0,0-.89.83.89.89,0,0,0,1.78,0,.83.83,0,0,0-.89-.83"/><path class="cls-3" d="M41,154.55a.87.87,0,0,0-.94.84.94.94,0,1,0,.94-.84"/><path class="cls-3" d="M49.56,154.61a.84.84,0,0,0-.89.83.89.89,0,0,0,1.78,0,.83.83,0,0,0-.89-.83"/><path class="cls-3" d="M47.09,154.61a.84.84,0,0,0-.9.83.82.82,0,0,0,.9.81.81.81,0,0,0,.88-.81.83.83,0,0,0-.88-.83"/><path class="cls-3" d="M61,146.41a.81.81,0,0,0,.89-.82.89.89,0,0,0-1.78,0,.81.81,0,0,0,.89.82"/><path class="cls-3" d="M63.52,144.78a.83.83,0,0,0-.89.81.89.89,0,1,0,.89-.81"/><path class="cls-3" d="M61.54,152.22H49.21v-4.84h-1.6v4.84h-3.4a8.4,8.4,0,0,0,.15-1.51,3.64,3.64,0,0,0-1-2.66,3.1,3.1,0,0,0-2.27-.88,5,5,0,0,0-2.51.7l.66,1.4a2.78,2.78,0,0,1,1.66-.5,2,2,0,0,1,1.34.43,1.86,1.86,0,0,1,.56,1.38,8.6,8.6,0,0,1-.19,1.64H29.91v-4.84h-1.6v4.84H25.09v-5.41h-1.6v.57h-.23c-2.45,0-3.9,1.37-3.9,3.23,0,2.17,1.63,3.2,3.9,3.2H63.14v-6.43h-1.6Zm-38,0h-.7A1.68,1.68,0,0,1,21,150.61,1.78,1.78,0,0,1,22.88,149h.61Z"/><rect class="cls-3" x="65.48" y="144.55" width="1.6" height="9.26"/><path class="cls-3" d="M76.38,146.41a.81.81,0,0,0,.89-.82.89.89,0,0,0-1.77,0,.8.8,0,0,0,.88.82"/><path class="cls-3" d="M78.86,146.41a.82.82,0,1,0,0-1.63.83.83,0,0,0-.89.81.81.81,0,0,0,.89.82"/><path class="cls-3" d="M95.58,150.89a1.28,1.28,0,0,1-1.37,1.44c-.86,0-1.42-.5-1.44-1.54V148h-1.6v2.83a1.35,1.35,0,0,1-1.51,1.43H88.5V148H86.9v4.26H78.5v-4.84H76.9v4.84H71.49v-4.84h-1.6v6.23c0,.79-.22,1.12-.85,1.12a3.18,3.18,0,0,1-.76-.1l.11,1.6a3.65,3.65,0,0,0,.81.1c1.51,0,2.19-.76,2.28-2.52H89.66a3.15,3.15,0,0,0,2.27-1,2.51,2.51,0,0,0,2.28,1.1c2,0,3-1.05,3-3.24v-4.11H95.58Z"/><rect class="cls-3" x="99.99" y="145.62" width="1.6" height="6.02"/><path class="cls-3" d="M99.33,155.22a1.26,1.26,0,0,0,1.44,1.42h.57v-.52h-.48c-.46,0-.62-.21-.62-.57h1.46v-.86H99.33Z"/><path class="cls-3" d="M103.39,150.64a1.45,1.45,0,0,1-.48,1.19,2,2,0,0,1-1.29.38H98.37l.19,1.61h2.73a4.1,4.1,0,0,0,2.85-.83,3.3,3.3,0,0,0,.85-2.41v-5.27h.75V143.7h-2.35Z"/><rect class="cls-3" x="107.74" y="144.55" width="1.6" height="9.26"/><path class="cls-3" d="M119.4,147a.82.82,0,1,0-.9-.82.83.83,0,0,0,.9.82"/><path class="cls-3" d="M121.87,147a.82.82,0,1,0-.89-.82.82.82,0,0,0,.89.82"/><path class="cls-3" d="M123.27,152.22h-3.2a2.69,2.69,0,0,1-1.7-.44,1.79,1.79,0,0,1-.48-1.46v-2h-1.6v2.16a3.26,3.26,0,0,0,.76,2.37,3.86,3.86,0,0,0,2.9.93h4.92v-6.43h-1.6Z"/><path class="cls-3" d="M147.67,147.91H144.3l1.77-3.36h-1.71l-1.85,3.36a2.76,2.76,0,0,0,.54,1.59h4.78a1.24,1.24,0,0,1,1,.44,1.62,1.62,0,0,1,.31,1.05v1.23H128.64v-7.67H127v9.27h23.67v-2.76a3.36,3.36,0,0,0-.66-2.29,3.06,3.06,0,0,0-2.38-.86"/><rect class="cls-3" x="152.79" y="144.55" width="1.6" height="9.26"/><path class="cls-3" d="M167.69,145.54a.87.87,0,1,0,.86-.78.79.79,0,0,0-.86.78"/><path class="cls-3" d="M166.13,146.34a.79.79,0,1,0-.86-.8.79.79,0,0,0,.86.8"/><path class="cls-3" d="M167.34,144.53a.69.69,0,0,0,.76-.7.77.77,0,1,0-.76.7"/><path class="cls-3" d="M175,152.22h-.87a2.65,2.65,0,0,1-1.61-.47,6.87,6.87,0,0,0,.09-1.06v-4.11H171v4.31a1.28,1.28,0,0,1-1.37,1.44,1.37,1.37,0,0,1-1.44-1.53h0V148h-1.6v2.84a1.35,1.35,0,0,1-1.5,1.43h-1.17V148h-1.6v4.27H158.8v-4.84h-1.6v6.23c0,.79-.22,1.12-.86,1.12a3.1,3.1,0,0,1-.75-.1l.11,1.6a3.65,3.65,0,0,0,.81.1c1.51,0,2.19-.76,2.28-2.52h6.27a3.18,3.18,0,0,0,2.27-1,2.48,2.48,0,0,0,2.27,1.1,2.66,2.66,0,0,0,2.42-1.06,2,2,0,0,0,1.81.93h2.72v-9.26H175Z"/><rect class="cls-3" x="178.88" y="144.55" width="1.6" height="9.26"/><path class="cls-3" d="M19.45,169.15l.68-.8a3,3,0,0,0,2,.83c.7,0,1.14-.32,1.14-.81v0c0-.46-.26-.71-1.46-1-1.37-.34-2.15-.74-2.15-1.93v0a2,2,0,0,1,2.21-1.87,3.54,3.54,0,0,1,2.34.81l-.61.86a2.89,2.89,0,0,0-1.75-.67c-.66,0-1.05.34-1.05.77v0c0,.5.29.72,1.53,1s2.08.82,2.08,1.89v0c0,1.21-.95,1.93-2.31,1.93a3.92,3.92,0,0,1-2.69-1"/><polygon class="cls-3" points="28.75 164.69 26.7 164.69 26.7 163.64 31.94 163.64 31.94 164.69 29.89 164.69 29.89 170.1 28.75 170.1 28.75 164.69"/><path class="cls-3" d="M34.66,163.64h2.87a2.62,2.62,0,0,1,1.87.64,2,2,0,0,1,.53,1.4v0a1.93,1.93,0,0,1-1.53,2l1.74,2.45H38.8l-1.59-2.26H35.79v2.26H34.66Zm2.79,3.2c.82,0,1.33-.42,1.33-1.08v0c0-.69-.49-1.07-1.34-1.07H35.79v2.17Z"/><path class="cls-3" d="M45.13,163.59h1L49,170.1h-1.2l-.66-1.56H44.12l-.67,1.56H42.29Zm1.63,3.94L45.64,165l-1.11,2.58Z"/><polygon class="cls-3" points="52.41 164.69 50.36 164.69 50.36 163.64 55.6 163.64 55.6 164.69 53.55 164.69 53.55 170.1 52.41 170.1 52.41 164.69"/><polygon class="cls-3" points="58.31 163.64 63.1 163.64 63.1 164.65 59.45 164.65 59.45 166.33 62.69 166.33 62.69 167.35 59.45 167.35 59.45 169.08 63.15 169.08 63.15 170.1 58.31 170.1 58.31 163.64"/><path class="cls-3" d="M65.73,166.89v0a3.29,3.29,0,0,1,3.33-3.34,3.49,3.49,0,0,1,2.48.87l-.72.86a2.56,2.56,0,0,0-1.81-.69,2.18,2.18,0,0,0-2.09,2.28v0a2.15,2.15,0,0,0,2.19,2.3,2.61,2.61,0,0,0,1.56-.49v-1.2H69v-1h2.75v2.71a4.1,4.1,0,0,1-2.69,1,3.2,3.2,0,0,1-3.35-3.32"/><rect class="cls-3" x="74.83" y="163.64" width="1.14" height="6.46"/><path class="cls-3" d="M78.92,166.89v0a3.27,3.27,0,0,1,3.33-3.34,3.37,3.37,0,0,1,2.53,1l-.73.84a2.57,2.57,0,0,0-1.81-.8,2.16,2.16,0,0,0-2.13,2.28v0a2.18,2.18,0,0,0,2.13,2.29,2.53,2.53,0,0,0,1.86-.84l.73.74a3.34,3.34,0,0,1-2.63,1.15,3.25,3.25,0,0,1-3.28-3.32"/><path class="cls-3" d="M91.82,163.64h2.54a2.18,2.18,0,0,1,2.46,2.16v0c0,1.44-1.16,2.2-2.59,2.2H93v2.08H91.82ZM94.27,167c.86,0,1.4-.48,1.4-1.16v0c0-.75-.55-1.15-1.4-1.15H93V167Z"/><path class="cls-3" d="M101.14,163.59h1L105,170.1h-1.2l-.66-1.56h-3.06l-.66,1.56H98.3Zm1.63,3.94L101.65,165l-1.11,2.58Z"/><path class="cls-3" d="M107.66,163.64h2.87a2.62,2.62,0,0,1,1.87.64,2,2,0,0,1,.53,1.4v0a1.93,1.93,0,0,1-1.53,2l1.74,2.45H111.8l-1.59-2.26h-1.42v2.26h-1.13Zm2.79,3.2c.82,0,1.33-.42,1.33-1.08v0c0-.69-.49-1.07-1.34-1.07h-1.65v2.17Z"/><polygon class="cls-3" points="117.41 164.69 115.36 164.69 115.36 163.64 120.59 163.64 120.59 164.69 118.55 164.69 118.55 170.1 117.41 170.1 117.41 164.69"/><polygon class="cls-3" points="123.31 163.64 124.36 163.64 127.83 168.1 127.83 163.64 128.94 163.64 128.94 170.1 127.99 170.1 124.43 165.5 124.43 170.1 123.31 170.1 123.31 163.64"/><polygon class="cls-3" points="132.12 163.64 136.91 163.64 136.91 164.65 133.25 164.65 133.25 166.33 136.49 166.33 136.49 167.35 133.25 167.35 133.25 169.08 136.95 169.08 136.95 170.1 132.12 170.1 132.12 163.64"/><path class="cls-3" d="M139.82,163.64h2.87a2.62,2.62,0,0,1,1.87.64,2,2,0,0,1,.53,1.4v0a1.93,1.93,0,0,1-1.54,2l1.75,2.45H144l-1.59-2.26H141v2.26h-1.13Zm2.79,3.2c.81,0,1.33-.42,1.33-1.08v0c0-.69-.5-1.07-1.34-1.07H141v2.17Z"/><path class="cls-3" d="M147.57,169.15l.68-.8a3,3,0,0,0,2,.83c.7,0,1.14-.32,1.14-.81v0c0-.46-.25-.71-1.45-1-1.38-.34-2.15-.74-2.15-1.93v0a2,2,0,0,1,2.2-1.87,3.59,3.59,0,0,1,2.35.81l-.61.86a2.9,2.9,0,0,0-1.76-.67c-.66,0-1,.34-1,.77v0c0,.5.29.72,1.54,1s2.07.82,2.07,1.89v0c0,1.21-.95,1.93-2.31,1.93a3.92,3.92,0,0,1-2.69-1"/><polygon class="cls-3" points="155.42 163.64 156.56 163.64 156.56 166.32 159.64 166.32 159.64 163.64 160.77 163.64 160.77 170.1 159.64 170.1 159.64 167.38 156.56 167.38 156.56 170.1 155.42 170.1 155.42 163.64"/><rect class="cls-3" x="164.02" y="163.64" width="1.14" height="6.46"/><path class="cls-3" d="M168.39,163.64h2.55a2.18,2.18,0,0,1,2.46,2.16v0c0,1.44-1.16,2.2-2.59,2.2h-1.28v2.08h-1.14Zm2.46,3.36c.86,0,1.39-.48,1.39-1.16v0c0-.75-.54-1.15-1.39-1.15h-1.32V167Z"/><path class="cls-3" d="M175.64,169.15l.68-.8a3,3,0,0,0,2,.83c.7,0,1.15-.32,1.15-.81v0c0-.46-.26-.71-1.46-1-1.38-.34-2.15-.74-2.15-1.93v0a2,2,0,0,1,2.21-1.87,3.58,3.58,0,0,1,2.34.81l-.61.86a2.89,2.89,0,0,0-1.75-.67c-.67,0-1.06.34-1.06.77v0c0,.5.3.72,1.54,1s2.07.82,2.07,1.89v0c0,1.21-.95,1.93-2.3,1.93a4,4,0,0,1-2.7-1"/><path class="cls-2" d="M99.79,98.64c-.89,2.19-10.24,25.82,0,32.07,10.24-6.25.89-29.88,0-32.07"/><path class="cls-5" d="M85.61,94.82S70.35,108,74.45,123.66c0,0,5.83,1.29,7.38-7.23s1.84-13.37,3.78-21.61"/></svg>