<svg id="Layer_1" data-name="Layer 1" xmlns="http://www.w3.org/2000/svg" viewBox="0 0 200 200"><defs><style>.cls-1{fill:#006e43;}.cls-2{fill:#ffc636;}.cls-3{fill:#5a5b5d;}</style></defs><path class="cls-1" d="M67.48,131.27a3.67,3.67,0,0,0,0,7.33,3.67,3.67,0,1,0,0-7.33m10.24,0a3.67,3.67,0,1,0,0,7.33,3.67,3.67,0,0,0,0-7.33"/><path class="cls-1" d="M109.53,116h-4.41V94.54a17.06,17.06,0,0,1,4.41-11.85Zm-10-19.87V116H91.17V67.24C76.71,69.14,75.72,77.48,75.72,84.9v29.61c0,.14,0,.28,0,.42-.08,4-1.29,8.92-3.81,11.93-2.39-3-3.6-7.91-3.7-11.93,0-.22,0-.42,0-.62V100c0-7.44-1-15.76-15.55-17.76,6.83,3.71,9.93,9.43,9.93,16.16v14.35c0,.72,0,1.47.08,2.22.43,5.65,2.62,11.9,9.26,13.93,7.08-2,9-8.28,9.36-13.93,0-.75.07-1.5.07-2.22V83.1a16.47,16.47,0,0,1,4.31-11.64v50.47h29.41V78.78C100.6,80.69,99.5,88.61,99.5,96.14"/><path class="cls-1" d="M112.24,67.34a3.62,3.62,0,0,0,0,7.23,3.62,3.62,0,0,0,0-7.23"/><polygon class="cls-1" points="126.59 57.1 126.59 121.94 120.97 121.94 120.97 60.61 126.59 57.1"/><path class="cls-1" d="M142.45,116h-4.31V94.54a17.17,17.17,0,0,1,4.31-11.94Zm-9.93-19.87v25.79h9.93v5.53c0,6.63-3.11,12.34-9.93,16.06,14.55-1.91,15.55-12.26,15.55-19.78V78.68c-14.55,2-15.55,9.93-15.55,17.46"/><path class="cls-2" d="M67.41,50.48a6.92,6.92,0,1,1,6.9-6.93,6.91,6.91,0,0,1-6.9,6.93m0-20.68A14.8,14.8,0,0,0,52.63,44.58c0,3.28,2.09,8.64,6.41,16.37,3,5.46,6.05,10,6.17,10.21l2.2,3.34,2.19-3.34c.14-.19,3.13-4.75,6.19-10.21,4.3-7.73,6.41-13.09,6.41-16.37A14.8,14.8,0,0,0,67.41,29.8"/><path class="cls-3" d="M56.56,157.88H54.09a2.59,2.59,0,0,1-.74-.1,2,2,0,0,1-.65-.33,1.64,1.64,0,0,1-.44-.56,1.87,1.87,0,0,1-.17-.82,1.81,1.81,0,0,1,.14-.69,1.53,1.53,0,0,1,.4-.55,1.84,1.84,0,0,1,.64-.38,2.69,2.69,0,0,1,.89-.13,2.37,2.37,0,0,1,.35,0l.44.06.46.11a2.07,2.07,0,0,1,.37.11v2.31h.78Zm-3.23-4.19a.56.56,0,0,1-.43-.19.55.55,0,0,1-.18-.43.6.6,0,0,1,.18-.45.58.58,0,0,1,.43-.18.6.6,0,0,1,.44.18.61.61,0,0,1,.19.45.56.56,0,0,1-.19.43.58.58,0,0,1-.44.19m1.42,1.63-.23,0a1.86,1.86,0,0,0-.36,0,1.21,1.21,0,0,0-.81.23.79.79,0,0,0-.26.6.76.76,0,0,0,.27.63,1.1,1.1,0,0,0,.73.23h.66Zm.14-1.63a.56.56,0,0,1-.44-.19.58.58,0,0,1-.18-.43.64.64,0,0,1,.18-.45.59.59,0,0,1,.44-.18.6.6,0,0,1,.43.18.61.61,0,0,1,.19.45.56.56,0,0,1-.19.43.57.57,0,0,1-.43.19"/><path class="cls-3" d="M57.23,156.93V152h1v3a2.72,2.72,0,0,1,.45-.31,3.57,3.57,0,0,1,.57-.23,3.39,3.39,0,0,1,.61-.15,3.19,3.19,0,0,1,.59-.06,2.65,2.65,0,0,1,.73.09,1.14,1.14,0,0,1,.49.31,1.37,1.37,0,0,1,.29.55,3.46,3.46,0,0,1,.09.85v1.77H56.4v-1Zm3.82,0v-.71c0-.13,0-.25,0-.37a.91.91,0,0,0-.1-.29.52.52,0,0,0-.2-.19.61.61,0,0,0-.32-.07,2.52,2.52,0,0,0-.52.06,2.54,2.54,0,0,0-.62.24,2.21,2.21,0,0,0-.58.46,2.48,2.48,0,0,0-.46.78v.09Z"/><path class="cls-3" d="M63.93,154.32h1v4.15a1.19,1.19,0,0,1-.39,1,1.59,1.59,0,0,1-1,.31,2.33,2.33,0,0,1-.38,0l-.33-.09v-.87l.29.08a.93.93,0,0,0,.27,0,.53.53,0,0,0,.37-.12.58.58,0,0,0,.13-.44Z"/><path class="cls-3" d="M67.91,157.88a2,2,0,0,1-1.22-.32,1.24,1.24,0,0,1-.43-1.06V152h1v4.48a.33.33,0,0,0,.19.34,1,1,0,0,0,.44.09h.33v.95Z"/><path class="cls-3" d="M68.1,156.93H71v-1.1a.54.54,0,0,0-.06-.27.33.33,0,0,0-.15-.16.44.44,0,0,0-.2-.08l-.23,0h-.81l-.31,0-.31.06-.28.09v-.93a2.36,2.36,0,0,1,.6-.18,4,4,0,0,1,.64-.07h.55a2.57,2.57,0,0,1,.65.08,1.35,1.35,0,0,1,.51.25,1.2,1.2,0,0,1,.31.44,1.61,1.61,0,0,1,.11.65v1.19h.77v1H68.1Zm2.16-3.25a.6.6,0,0,1-.44-.18.6.6,0,0,1-.18-.43.63.63,0,0,1,.62-.64.65.65,0,0,1,.44.19.61.61,0,0,1,.18.45.6.6,0,0,1-.18.43.64.64,0,0,1-.44.18"/><path class="cls-3" d="M72.68,157.88v-.95H73a1,1,0,0,0,.44-.09.32.32,0,0,0,.18-.34V152h1v4.48a1.26,1.26,0,0,1-.42,1.06,2.06,2.06,0,0,1-1.22.32Z"/><rect class="cls-3" x="76.04" y="152.02" width="1.04" height="5.86"/><path class="cls-3" d="M83.73,155.72a1.51,1.51,0,0,1,.13-.67,1.17,1.17,0,0,1,.36-.43,1.4,1.4,0,0,1,.49-.24,2.22,2.22,0,0,1,.57-.07,2.49,2.49,0,0,1,.36,0l.43.07a3.69,3.69,0,0,1,.45.11,2.3,2.3,0,0,1,.42.13v2.29h.75v.95H85.91v-2.57l-.12,0-.17,0h-.27l-.2,0a.7.7,0,0,0-.19.1.47.47,0,0,0-.14.17.5.5,0,0,0-.06.26v1.81a1.05,1.05,0,0,1-.23.7,1.47,1.47,0,0,1-.58.4,3.13,3.13,0,0,1-.76.18,6.75,6.75,0,0,1-.75,0h0a3.86,3.86,0,0,1-.84-.08,2.11,2.11,0,0,1-.74-.28,1.58,1.58,0,0,1-.54-.55,1.83,1.83,0,0,1-.2-.89V155.5h1v1.61a.74.74,0,0,0,.11.44.84.84,0,0,0,.29.27,1.21,1.21,0,0,0,.42.13,3.89,3.89,0,0,0,.49,0h.41l.42,0a1.2,1.2,0,0,0,.33-.09c.09,0,.14-.1.14-.18Z"/><path class="cls-3" d="M90.62,157.88a2.6,2.6,0,0,1-.73-.09,4.37,4.37,0,0,1-.58-.21,1.08,1.08,0,0,1-.44.23,2.37,2.37,0,0,1-.61.07h-.73v-.95h.68a.53.53,0,0,0,.59-.61V152h1v4.37a1.52,1.52,0,0,1,0,.23,1.38,1.38,0,0,1-.06.16,1,1,0,0,0,.33.11,1.75,1.75,0,0,0,.4,0h.64v.95Z"/><path class="cls-3" d="M93.81,155.19a.86.86,0,0,0-.64.26,1,1,0,0,0-.27.73.91.91,0,0,0,.08.36.9.9,0,0,0,.22.39H95v.95H91v-.95H92a3.34,3.34,0,0,1-.1-.43,1.56,1.56,0,0,1,0-.35,2.24,2.24,0,0,1,.14-.8,1.62,1.62,0,0,1,.38-.59,1.72,1.72,0,0,1,.57-.36,1.9,1.9,0,0,1,.71-.13,2.58,2.58,0,0,1,.59.07,2.75,2.75,0,0,1,.51.21v1a1.5,1.5,0,0,0-.48-.28,1.63,1.63,0,0,0-.5-.07"/><path class="cls-3" d="M98.49,154.32h1v2.61h.77v.95h-.77v.59a1.19,1.19,0,0,1-.39,1,1.59,1.59,0,0,1-1,.31,2.21,2.21,0,0,1-.37,0l-.33-.09v-.87l.29.08a.93.93,0,0,0,.27,0,.51.51,0,0,0,.36-.12.58.58,0,0,0,.14-.44Z"/><path class="cls-3" d="M103.22,157.88a3.07,3.07,0,0,1-.73-.08l-.57-.21a1.35,1.35,0,0,1-.45.22,2.32,2.32,0,0,1-.61.07h-.73v-.95h.68a.53.53,0,0,0,.59-.61v-2h1v2.06a.83.83,0,0,1,0,.24.6.6,0,0,1,0,.16,1.08,1.08,0,0,0,.32.11,2.58,2.58,0,0,0,.4,0h.64v.95ZM101.14,160a.53.53,0,0,1-.43-.18.56.56,0,0,1-.19-.43.6.6,0,0,1,.19-.45.57.57,0,0,1,.43-.18.62.62,0,0,1,.44.18.63.63,0,0,1,.18.45.61.61,0,0,1-.62.61m1.55,0a.58.58,0,0,1-.44-.18.62.62,0,0,1-.18-.43.67.67,0,0,1,.18-.45.62.62,0,0,1,.44-.18.6.6,0,0,1,.44.18.64.64,0,0,1,.19.45.59.59,0,0,1-.19.43.57.57,0,0,1-.44.18"/><path class="cls-3" d="M103.57,156.93h2.94v-1.1a.54.54,0,0,0-.06-.27.39.39,0,0,0-.15-.16.5.5,0,0,0-.2-.08l-.23,0h-.81l-.31,0-.31.06-.28.1v-.94a2.36,2.36,0,0,1,.6-.18,3,3,0,0,1,.64-.06h.54a2.67,2.67,0,0,1,.66.07,1.38,1.38,0,0,1,.5.25,1.16,1.16,0,0,1,.32.43,1.86,1.86,0,0,1,.11.66v2.14h-4Zm2.07,3a.67.67,0,0,1-.45-.18.62.62,0,0,1-.18-.44.64.64,0,0,1,.18-.45.62.62,0,0,1,.45-.17.59.59,0,0,1,.43.17.65.65,0,0,1,.19.45.63.63,0,0,1-.19.44.64.64,0,0,1-.43.18"/><path class="cls-3" d="M108.24,151.21h.34a1.55,1.55,0,0,1,0-.15,1.15,1.15,0,0,1,0-.14,1,1,0,0,1,.07-.37.69.69,0,0,1,.19-.25.7.7,0,0,1,.27-.15,1.12,1.12,0,0,1,.32,0,.84.84,0,0,1,.27,0,1.21,1.21,0,0,1,.28.14v.58a1,1,0,0,0-.21-.11.65.65,0,0,0-.26-.06.38.38,0,0,0-.22,0q-.09,0-.09.21a.32.32,0,0,0,0,.12.34.34,0,0,0,.06.15h.7v.54h-1.68Zm2.06,6.67a2.06,2.06,0,0,1-1.22-.32,1.27,1.27,0,0,1-.43-1.06V152h1v4.48a.32.32,0,0,0,.18.34,1,1,0,0,0,.44.09h.34v.95Z"/><path class="cls-3" d="M113.57,157.89a2.24,2.24,0,0,1-.72-.1,2.71,2.71,0,0,1-.57-.21,1.2,1.2,0,0,1-.45.23,2.39,2.39,0,0,1-.62.08h-.72v-1h.68a.53.53,0,0,0,.59-.61v-2h1v2.06a1.54,1.54,0,0,1,0,.24,1.38,1.38,0,0,1-.06.16,1.28,1.28,0,0,0,.33.11,2.58,2.58,0,0,0,.4,0h.63v1Zm-2.12-4.21a.6.6,0,0,1-.44-.18.59.59,0,0,1-.17-.43.6.6,0,0,1,.17-.45.6.6,0,0,1,.88,0,.58.58,0,0,1,.19.45.57.57,0,0,1-.19.43.6.6,0,0,1-.44.18m1.56,0a.59.59,0,0,1-.44-.18.61.61,0,0,1-.19-.43.62.62,0,0,1,.19-.45.6.6,0,0,1,.44-.19.61.61,0,0,1,.43.19.62.62,0,0,1,.19.45.61.61,0,0,1-.19.43.6.6,0,0,1-.43.18"/><path class="cls-3" d="M113.94,157.88v-.95h.33a1,1,0,0,0,.45-.09.34.34,0,0,0,.18-.34V152h1v4.48a1.24,1.24,0,0,1-.43,1.06,2,2,0,0,1-1.22.32Z"/><rect class="cls-3" x="117.31" y="152.02" width="1.04" height="5.86"/><path class="cls-3" d="M124,157.89h-.65a2.65,2.65,0,0,1-.74-.11,2,2,0,0,1-.65-.33,1.53,1.53,0,0,1-.44-.56,1.87,1.87,0,0,1-.17-.82,1.81,1.81,0,0,1,.14-.69,1.63,1.63,0,0,1,.39-.55,2.18,2.18,0,0,1,.65-.38,2.62,2.62,0,0,1,.88-.14l.36,0,.45.07a2.42,2.42,0,0,1,.45.1l.37.12v3.45a1.69,1.69,0,0,1-.18.82,1.58,1.58,0,0,1-.47.52,2,2,0,0,1-.63.28,2.68,2.68,0,0,1-.68.08,3,3,0,0,1-1.31-.28v-1a3.54,3.54,0,0,0,.65.29,2.34,2.34,0,0,0,.66.09,1.06,1.06,0,0,0,.66-.21.77.77,0,0,0,.26-.64Zm0-2.57-.23,0a1.9,1.9,0,0,0-.37,0,1.19,1.19,0,0,0-.8.23.86.86,0,0,0,0,1.24,1.15,1.15,0,0,0,.73.22H124Z"/><path class="cls-3" d="M125.91,151.21h.35a1.31,1.31,0,0,1-.05-.15.82.82,0,0,1,0-.14.84.84,0,0,1,.07-.37.52.52,0,0,1,.18-.25.84.84,0,0,1,.28-.15,1.55,1.55,0,0,1,.31,0,.84.84,0,0,1,.27,0,1.46,1.46,0,0,1,.28.14v.58a1,1,0,0,0-.21-.11.92.92,0,0,0-.26-.07.48.48,0,0,0-.22,0q-.09,0-.09.21a1.05,1.05,0,0,0,0,.13.37.37,0,0,0,.07.14h.69v.55h-1.68Zm1.54,6.68h-1V152h1Z"/><path class="cls-3" d="M132.13,156.93a5.12,5.12,0,0,1-.45-.62,1.12,1.12,0,0,1-.2-.6,1.08,1.08,0,0,1,.21-.7,1.5,1.5,0,0,1,.52-.45,2.13,2.13,0,0,1,.67-.23,3.07,3.07,0,0,1,.65-.07,3.35,3.35,0,0,1,.79.09,2.12,2.12,0,0,1,.65.27,1.6,1.6,0,0,1,.44.46,1.28,1.28,0,0,1,.16.63.74.74,0,0,1-.06.28,1.53,1.53,0,0,1-.16.31,2.92,2.92,0,0,1-.21.32l-.24.31H136v.95h-3.55a1.48,1.48,0,0,0-.64.13c-.17.08-.26.18-.26.31s.08.21.22.29a1.34,1.34,0,0,0,.56.1h.79v1h-.82a2.72,2.72,0,0,1-.72-.1,1.92,1.92,0,0,1-.55-.29,1.37,1.37,0,0,1-.48-1.05,1.26,1.26,0,0,1,.42-.95,2.07,2.07,0,0,1,1.18-.44m1.4-1.76a2.41,2.41,0,0,0-.5.05,1.69,1.69,0,0,0-.35.14,1,1,0,0,0-.21.18.32.32,0,0,0-.06.17.48.48,0,0,0,.1.26,2.73,2.73,0,0,0,.28.33l.37.34.37.29.35-.29.33-.34a2.39,2.39,0,0,0,.25-.33.54.54,0,0,0,.09-.26.3.3,0,0,0-.05-.17.61.61,0,0,0-.18-.18,1.22,1.22,0,0,0-.32-.14,2,2,0,0,0-.47-.05"/><path class="cls-3" d="M138.91,157.88a3.16,3.16,0,0,1-.74-.08l-.57-.21a1.21,1.21,0,0,1-.44.22,2.4,2.4,0,0,1-.62.07h-.72v-.95h.68a.53.53,0,0,0,.59-.61v-2h1v2.06a1.54,1.54,0,0,1,0,.24,1.38,1.38,0,0,1-.06.16,1.28,1.28,0,0,0,.33.11,2.58,2.58,0,0,0,.4,0h.64v.95ZM136.83,160a.57.57,0,0,1-.44-.18.58.58,0,0,1-.18-.43.63.63,0,0,1,.18-.45.6.6,0,0,1,.44-.18.63.63,0,0,1,.62.63.63.63,0,0,1-.62.61m1.55,0a.57.57,0,0,1-.44-.18.58.58,0,0,1-.18-.43.63.63,0,0,1,.18-.45.6.6,0,0,1,.44-.18.62.62,0,0,1,.44.18.63.63,0,0,1,.18.45.61.61,0,0,1-.62.61"/><path class="cls-3" d="M142.35,157.88a2.68,2.68,0,0,1-.74-.09,4.79,4.79,0,0,1-.57-.21,1.22,1.22,0,0,1-.44.23,2.4,2.4,0,0,1-.62.07h-.72v-.95h.68c.39,0,.59-.21.59-.62v-2h1v2.06a.8.8,0,0,1,0,.23.6.6,0,0,1-.05.16,1.82,1.82,0,0,0,.33.11,2.58,2.58,0,0,0,.4,0h.64v.95ZM141,160a.65.65,0,0,1-.44-.18.62.62,0,0,1-.18-.44.64.64,0,0,1,.18-.45.6.6,0,0,1,.44-.17.57.57,0,0,1,.43.17.61.61,0,0,1,.19.45.59.59,0,0,1-.19.44.62.62,0,0,1-.43.18"/><path class="cls-3" d="M142.71,157.88v-.95H143a1,1,0,0,0,.44-.09c.13-.05.18-.16.18-.34V152h1v4.48a1.24,1.24,0,0,1-.43,1.06,2,2,0,0,1-1.22.32Z"/><rect class="cls-3" x="146.08" y="152.02" width="1.04" height="5.86"/><path class="cls-3" d="M56.64,167.56a2.37,2.37,0,0,1-2.41,2.64,2.32,2.32,0,0,1-2.3-2.56A2.4,2.4,0,0,1,54.31,165a2.32,2.32,0,0,1,2.33,2.54m-3.74.07c0,1,.51,1.83,1.39,1.83s1.38-.82,1.38-1.87-.47-1.83-1.38-1.83-1.39.84-1.39,1.87"/><polygon class="cls-3" points="58.02 165.1 60.91 165.1 60.91 165.86 58.93 165.86 58.93 167.24 60.78 167.24 60.78 167.99 58.93 167.99 58.93 170.12 58.02 170.12 58.02 165.1"/><polygon class="cls-3" points="62.4 165.1 65.3 165.1 65.3 165.86 63.32 165.86 63.32 167.24 65.16 167.24 65.16 167.99 63.32 167.99 63.32 170.12 62.4 170.12 62.4 165.1"/><rect class="cls-3" x="66.48" y="167.82" width="1.9" height="0.63"/><path class="cls-3" d="M69.72,165.17a7.8,7.8,0,0,1,1.4-.11,2.25,2.25,0,0,1,1.48.42,1.43,1.43,0,0,1,.49,1.1,1.53,1.53,0,0,1-.43,1.14,2.21,2.21,0,0,1-1.59.54,2.76,2.76,0,0,1-.44,0v1.89h-.91Zm.91,2.34a2.45,2.45,0,0,0,.44,0c.69,0,1.1-.34,1.1-.93s-.38-.85-1-.85a2.68,2.68,0,0,0-.52,0Z"/><polygon class="cls-3" points="74.47 165.1 75.39 165.1 75.39 169.35 77.45 169.35 77.45 170.12 74.47 170.12 74.47 165.1"/><path class="cls-3" d="M79.77,168.7l-.43,1.42h-1l1.61-5h1.17l1.62,5h-1l-.45-1.42Zm1.43-.7-.39-1.23c-.1-.3-.18-.65-.25-.94h0c-.07.29-.15.64-.24.94L79.92,168Z"/><path class="cls-3" d="M84.09,170.12v-5h1l1.29,2.15a13.38,13.38,0,0,1,.86,1.68h0c-.06-.67-.09-1.31-.09-2.08V165.1h.85v5h-.94l-1.31-2.2a16.92,16.92,0,0,1-.9-1.74h0c0,.64,0,1.31,0,2.13v1.8Z"/><path class="cls-3" d="M91.82,169.12a2.58,2.58,0,0,0,1.22.32c.59,0,.91-.28.91-.69s-.25-.6-.89-.83c-.83-.29-1.35-.74-1.35-1.45s.68-1.45,1.76-1.45a2.71,2.71,0,0,1,1.21.25l-.22.74a2.09,2.09,0,0,0-1-.24c-.58,0-.83.32-.83.61s.29.56,1,.82c.87.33,1.29.77,1.29,1.49s-.61,1.5-1.9,1.5a3.07,3.07,0,0,1-1.36-.31Z"/><path class="cls-3" d="M97.31,168.7l-.44,1.42h-.94l1.61-5H98.7l1.63,5h-1l-.45-1.42Zm1.43-.7-.39-1.23c-.1-.3-.18-.65-.25-.94h0c-.07.29-.15.64-.24.94L97.46,168Z"/><polygon class="cls-3" points="101.63 165.1 102.54 165.1 102.54 169.35 104.61 169.35 104.61 170.12 101.63 170.12 101.63 165.1"/><polygon class="cls-3" points="108.7 167.89 106.8 167.89 106.8 169.37 108.92 169.37 108.92 170.12 105.89 170.12 105.89 165.1 108.81 165.1 108.81 165.85 106.8 165.85 106.8 167.15 108.7 167.15 108.7 167.89"/><path class="cls-3" d="M110.29,169.12a2.58,2.58,0,0,0,1.22.32c.59,0,.91-.28.91-.69s-.25-.6-.89-.83c-.83-.29-1.36-.74-1.36-1.45s.69-1.45,1.77-1.45a2.71,2.71,0,0,1,1.21.25l-.22.74a2.09,2.09,0,0,0-1-.24c-.58,0-.83.32-.83.61s.29.56,1,.82c.87.33,1.29.77,1.29,1.49s-.61,1.5-1.91,1.5a3.06,3.06,0,0,1-1.35-.31Z"/><path class="cls-3" d="M121.36,167.56A2.38,2.38,0,0,1,119,170.2a2.33,2.33,0,0,1-2.31-2.56A2.4,2.4,0,0,1,119,165a2.32,2.32,0,0,1,2.33,2.54m-3.75.07c0,1,.51,1.83,1.39,1.83s1.39-.82,1.39-1.87-.47-1.83-1.39-1.83-1.39.84-1.39,1.87"/><path class="cls-3" d="M122.74,165.17a8.6,8.6,0,0,1,1.38-.1,2.36,2.36,0,0,1,1.55.4,1.28,1.28,0,0,1,.43,1,1.34,1.34,0,0,1-.91,1.26v0a1.24,1.24,0,0,1,.7,1,10,10,0,0,0,.4,1.4h-1a7.66,7.66,0,0,1-.33-1.19c-.14-.65-.38-.86-.9-.87h-.46v2.06h-.91Zm.91,2.22h.54c.61,0,1-.33,1-.83s-.39-.8-1-.8a2.78,2.78,0,0,0-.56,0Z"/><path class="cls-3" d="M129.7,165.17a8.69,8.69,0,0,1,1.38-.1,2.32,2.32,0,0,1,1.55.4,1.28,1.28,0,0,1,.43,1,1.32,1.32,0,0,1-.91,1.26v0a1.24,1.24,0,0,1,.7,1,10,10,0,0,0,.4,1.4h-.95a7.66,7.66,0,0,1-.33-1.19c-.14-.65-.38-.86-.9-.87h-.46v2.06h-.91Zm.91,2.22h.54c.62,0,1-.33,1-.83s-.38-.8-1-.8a2.78,2.78,0,0,0-.56,0Z"/><polygon class="cls-3" points="137.33 167.89 135.44 167.89 135.44 169.37 137.55 169.37 137.55 170.12 134.53 170.12 134.53 165.1 137.44 165.1 137.44 165.85 135.44 165.85 135.44 167.15 137.33 167.15 137.33 167.89"/><path class="cls-3" d="M139,170.12v-5H140l1.29,2.15a14.74,14.74,0,0,1,.85,1.68h0c-.06-.67-.08-1.31-.08-2.08V165.1h.84v5H142l-1.31-2.2a16.92,16.92,0,0,1-.9-1.74h0c0,.64,0,1.31,0,2.13v1.8Z"/><polygon class="cls-3" points="145.53 165.87 144.11 165.87 144.11 165.1 147.89 165.1 147.89 165.87 146.45 165.87 146.45 170.12 145.53 170.12 145.53 165.87"/></svg>