<svg id="Layer_1" data-name="Layer 1" xmlns="http://www.w3.org/2000/svg" viewBox="0 0 200 200"><defs><style>.cls-1{fill:#06a549;}.cls-2{fill:#0075be;}.cls-3{fill:#e84e24;}</style></defs><path class="cls-1" d="M176.36,103a.88.88,0,0,1,.77.39l-.35.17a.62.62,0,0,0-.19-.18.54.54,0,0,0-.24,0,.56.56,0,0,0-.3.08.26.26,0,0,0-.12.21c0,.12.11.21.32.28l.28.09a1.2,1.2,0,0,1,.51.28.57.57,0,0,1,.17.41.65.65,0,0,1-.27.54,1,1,0,0,1-.66.21,1,1,0,0,1-.62-.18.79.79,0,0,1-.3-.51l.44-.08a.57.57,0,0,0,.11.29.5.5,0,0,0,.39.15.52.52,0,0,0,.33-.11.37.37,0,0,0,.14-.28.28.28,0,0,0,0-.13.23.23,0,0,0-.07-.1.48.48,0,0,0-.13-.09.75.75,0,0,0-.18-.08l-.28-.1c-.39-.13-.59-.33-.59-.59a.53.53,0,0,1,.25-.44,1,1,0,0,1,.62-.18"/><polygon class="cls-1" points="179.09 103.35 178.09 103.35 178.09 103.91 179.06 103.91 179.06 104.24 178.09 104.24 178.09 105.36 177.66 105.36 177.66 103.02 179.09 103.02 179.09 103.35"/><path class="cls-1" d="M180.09,105h.2a1.68,1.68,0,0,0,.48,0,1.11,1.11,0,0,0,.35-.16.77.77,0,0,0,0-1.25,1.39,1.39,0,0,0-.83-.21h-.2Zm-.43.34V103h.6a3,3,0,0,1,.68.06,1.49,1.49,0,0,1,.49.24,1.05,1.05,0,0,1,0,1.74,1.3,1.3,0,0,1-.49.23,2.73,2.73,0,0,1-.67.07Z"/><path class="cls-1" d="M183.64,104.46l-.43-.8-.45.8Zm.17.33h-1.23l-.32.57h-.46l1.42-2.49,1.37,2.49h-.48Z"/><path class="cls-2" d="M174.26,92.08c-5.4-3.54-15.69,8.19-15.69,8.19v.43l3.18-3.08c6.22-5.44,9.14-2.33,9.14-2.33,4.49,4.85-13.63,16.58-13.63,16.58l.07.16c3.93-1.54,12-8.26,12-8.26,9.33-8.54,4.88-11.69,4.88-11.69"/><path class="cls-1" d="M189.43,93.88v-.16A98.7,98.7,0,0,0,177.8,98.6s-.43-3.37,5.63-5.14l0-.33s-8.35,1.8-8.58,7.34c0,0-9,6.65-5.77,10.87,0,0,2.59,3.24,10.09-1.08,0,0,5.05-3.08,6.82-4.55l0-.36s-9.66,8.05-13,3.21,14.51-14.12,16.54-14.68"/><path class="cls-3" d="M177.67,87.56A2.33,2.33,0,1,0,180,89.89a2.33,2.33,0,0,0-2.32-2.33"/><path class="cls-2" d="M10.81,95.67c-.13-.13-.23-.24-.23-.72a1.81,1.81,0,0,1,1.8-1.66,3.18,3.18,0,0,1,1,.26l-.22.46a1.57,1.57,0,0,0-.77-.21c-.6,0-1.29.51-1.29,1s0,.52.16.67.55.21,1.09.21h1.18l-.28.5H10.57v-.5Z"/><rect class="cls-2" x="14.56" y="87.42" width="1.11" height="8.75"/><path class="cls-2" d="M24.34,94.62c0,3.56-1.45,3.93-4,4-.32,0-1.23,0-1.23,0s-.29-.42-.71-1.11c2,0,3.76.19,4.27-.57a3.36,3.36,0,0,0,.57-2.19c0-2.06-.79-3.82-2.63-3.78C19.38,91,18,91.5,18,93.81c0,1,.52,1.25,1.43,1.25h3l-.77,1.11H20c-2.29,0-3.1-.27-3.1-2.36a3.89,3.89,0,0,1,3.76-4c2.73,0,3.73,2.58,3.73,4.79"/><path class="cls-2" d="M25.89,96.17l-.56-1.11h4.25c1.17,0,1.87.09,2.28-.44a2,2,0,0,0,.37-1.47c0-1-1.4-2.14-2.73-2.14-1.84,0-2.36,1.1-2.87,2.51H25.46s.16-.59.28-1A3.77,3.77,0,0,1,29.5,89.9a3.94,3.94,0,0,1,3.91,3.62A3.83,3.83,0,0,1,33,95.06h1.22v1.11Z"/><polygon class="cls-2" points="35.4 95.06 35.4 87.42 36.51 87.42 36.51 96.17 33.68 96.17 33.68 95.06 35.4 95.06"/><rect class="cls-2" x="38" y="87.42" width="1.11" height="8.75"/><path class="cls-2" d="M47.79,94.62c0,3.56-1.46,3.93-4,4-.32,0-1.23,0-1.23,0s-.29-.42-.71-1.11c2,0,3.76.19,4.27-.57a3.36,3.36,0,0,0,.57-2.19c0-2.06-.79-3.82-2.63-3.78-1.23,0-2.65.56-2.65,2.87,0,1,.52,1.25,1.43,1.25h3l-.76,1.11H43.39c-2.29,0-3.1-.27-3.1-2.36a3.89,3.89,0,0,1,3.76-4c2.73,0,3.74,2.58,3.74,4.79"/><path class="cls-2" d="M52.38,95.67c-.12-.13-.22-.24-.22-.72A1.8,1.8,0,0,1,54,93.29a3.19,3.19,0,0,1,1,.26l-.22.46A1.61,1.61,0,0,0,54,93.8c-.6,0-1.29.51-1.29,1s0,.52.16.67.56.21,1.1.21h1.17l-.28.5H52.15v-.5Z"/><rect class="cls-2" x="56.14" y="87.42" width="1.11" height="8.75"/><path class="cls-2" d="M62.85,88.32a.75.75,0,0,1-.64.85.76.76,0,0,1-.86-.65.76.76,0,0,1,1.5-.2m-4,7.85-.57-1.11H62.5c1.17,0,1.87.09,2.29-.44a2,2,0,0,0,.37-1.47c0-1-1.4-2.14-2.73-2.14-1.84,0-2.36,1.1-2.88,2.51H58.39s.16-.59.28-1a3.77,3.77,0,0,1,3.76-2.66,4,4,0,0,1,3.91,3.62A3.83,3.83,0,0,1,66,95.06h1.21v1.11Z"/><path class="cls-2" d="M71.58,88.17a.75.75,0,0,1-.64.85.76.76,0,1,1-.21-1.5.75.75,0,0,1,.85.65m3.15,5c0-1-1.32-2.14-3.2-2.14-1.32,0-3.17,1.11-3.17,2.14,0,.81,0,1.13.3,1.47.42.53,1.69.44,2.86.44s2.49.09,2.91-.44c.27-.34.3-.66.3-1.47m-8.12,1.91h1.11c-.27-.25-.46-.49-.46-1.54A3.39,3.39,0,0,1,68.47,91H67.33l1-1.11h3.6a3.94,3.94,0,0,1,3.9,3.62c0,1-.19,1.29-.46,1.54h1.11v1.11H66.61Z"/><polygon class="cls-2" points="77.81 95.06 77.81 87.45 78.92 87.45 78.92 95.06 80.32 95.06 80.32 96.18 76.09 96.17 76.09 95.06 77.81 95.06"/><polygon class="cls-2" points="81.64 95.06 81.64 87.42 82.75 87.42 82.75 96.17 79.92 96.17 79.92 95.06 81.64 95.06"/><path class="cls-2" d="M92.48,88a.76.76,0,1,1-1.5.2.76.76,0,1,1,1.5-.2m-1.62,0a.76.76,0,1,1-.85-.65.76.76,0,0,1,.85.65m-2.62,5.18c0,.81-.07,1.15.2,1.5.42.52,1.36.41,2.53.41h2.52c.92,0,.42-1.79.42-1.79C93.39,91.86,92.89,91,91,91c-1.32,0-2.8,1.11-2.8,2.14M95,89.9v5.16h.88v1.11h-7a2.52,2.52,0,0,1-1.41-1c-.3-.54-.32-.62-.32-1.67A3.94,3.94,0,0,1,91,89.9a4,4,0,0,1,2.85,1.17l0-1.17Z"/><path class="cls-2" d="M100.65,92.8a2.94,2.94,0,0,1,.68,2.69,1.78,1.78,0,0,1-.38.78c-.39.53-1,1.12-1.52.78-.89-.53-1.89-1.08-1.89-1.08l.16-1.23a14,14,0,0,0,2,1.13s.61,0,.61-1.16a1.48,1.48,0,0,0-1.6-1.54c-1,0-1.22.44-1.41,1.24s0,1.3-.74,1.65a1.54,1.54,0,0,1-.75.11h-.3V95.06h.3c.21,0,.44,0,.44-.17a2.47,2.47,0,0,1,2.66-2.76,2.53,2.53,0,0,1,1.77.67"/><polygon class="cls-2" points="105.16 96.17 102.33 96.17 102.33 87.42 103.44 87.42 103.44 95.06 105.16 95.06 105.16 96.17"/><path class="cls-2" d="M112.81,93.15c0-1-1.31-2.14-3.19-2.14-1.33,0-3.17,1.11-3.17,2.14,0,.81,0,1.13.29,1.47.42.53,1.7.44,2.87.44s2.49.09,2.91-.44c.27-.34.29-.66.29-1.47m-8.12,1.91h1.12c-.27-.25-.47-.49-.47-1.54A3.36,3.36,0,0,1,106.56,91h-1.14l1-1.11H110a4,4,0,0,1,3.91,3.62c0,1-.2,1.29-.47,1.54h1.12v1.11h-9.88Z"/><polygon class="cls-2" points="115.9 95.06 115.9 87.42 117 87.42 117 96.17 114.18 96.17 114.18 95.06 115.9 95.06"/><rect class="cls-2" x="118.5" y="87.42" width="1.11" height="8.75"/><path class="cls-2" d="M129,88a.76.76,0,1,1-1.5.2A.76.76,0,1,1,129,88m-1.62,0a.76.76,0,1,1-1.5.2.76.76,0,1,1,1.5-.2m-2.62,5.18c0,.81-.07,1.15.2,1.5.42.52,1.36.41,2.53.41h2.52c.92,0,.42-1.79.42-1.79-.52-1.41-1-2.26-2.87-2.26-1.32,0-2.8,1.11-2.8,2.14m6.8-3.25v5.16h.88v1.11h-7a2.52,2.52,0,0,1-1.41-1c-.3-.54-.32-.62-.32-1.67a3.94,3.94,0,0,1,3.9-3.62,4,4,0,0,1,2.86,1.17V89.9Z"/><path class="cls-2" d="M133.44,90.25c-.09-.09-.16-.17-.16-.52a1.31,1.31,0,0,1,1.29-1.19,2.52,2.52,0,0,1,.73.18l-.16.34a1.1,1.1,0,0,0-.57-.16c-.43,0-.92.38-.92.72s0,.37.11.47.4.16.78.16h.85l-.19.35h-1.92v-.35Zm.32,4.81V91.62h1.1v3.44h1.41v1.12H132V95.06Z"/><path class="cls-2" d="M139.32,97.51a.75.75,0,1,1-1.49.19.75.75,0,1,1,1.49-.19m-1.62,0a.75.75,0,1,1-1.49.19.75.75,0,1,1,1.49-.19m-.25-2.45V91.62h1.1v3.44H140v1.12h-4.23V95.06Z"/><path class="cls-2" d="M147.53,93.15c0-1-1.56-2.13-2.79-2.13v4c1.23,0,2.12,0,2.49-.44s.3-.66.3-1.47m-3.89-2.05a2.57,2.57,0,0,0-2.47,2.05c0,.81,0,1.12.29,1.47s2.18.44,2.18.44Zm0-1.59,1.1-.5v.89a3.94,3.94,0,0,1,3.9,3.62c0,1-.2,1.29-.47,1.54h1.12v1.11h-9.88V95.06h1.12c-.27-.25-.47-.49-.47-1.54A4,4,0,0,1,143.64,90Z"/><polygon class="cls-2" points="150.57 95.06 150.57 87.42 151.67 87.42 151.67 96.17 148.84 96.17 148.84 95.06 150.57 95.06"/><rect class="cls-2" x="153.17" y="87.42" width="1.11" height="8.75"/><path class="cls-2" d="M15.38,104l-.89.53A1.6,1.6,0,0,0,14,104a1.27,1.27,0,0,0-1.37.11.8.8,0,0,0-.3.64c0,.36.26.64.79.86l.72.29a3.06,3.06,0,0,1,1.3.88,2,2,0,0,1,.41,1.26,2.25,2.25,0,0,1-.67,1.66,2.31,2.31,0,0,1-1.68.66,2.21,2.21,0,0,1-1.56-.57,2.6,2.6,0,0,1-.76-1.58l1.12-.24a1.73,1.73,0,0,0,.26.88,1.13,1.13,0,0,0,1,.47,1.15,1.15,0,0,0,.85-.34,1.29,1.29,0,0,0,.28-1.26.92.92,0,0,0-.18-.32,1.56,1.56,0,0,0-.33-.28,2.92,2.92,0,0,0-.47-.25l-.7-.29c-1-.42-1.49-1-1.49-1.84a1.74,1.74,0,0,1,.63-1.37,2.27,2.27,0,0,1,1.56-.55,2.16,2.16,0,0,1,2,1.22"/><path class="cls-2" d="M17.93,107.86a1.65,1.65,0,0,0,.35,1.08,1.18,1.18,0,0,0,.92.42,1.22,1.22,0,0,0,.95-.41,1.57,1.57,0,0,0,.36-1.06,1.55,1.55,0,0,0-.36-1.06,1.18,1.18,0,0,0-.94-.41,1.17,1.17,0,0,0-.92.41,1.52,1.52,0,0,0-.36,1m2.52-2.26h1.06v4.57H20.45v-.48a2,2,0,0,1-1.41.62,2,2,0,0,1-1.57-.69,2.52,2.52,0,0,1-.62-1.75,2.44,2.44,0,0,1,.62-1.72,2,2,0,0,1,1.54-.69,2,2,0,0,1,1.44.67Z"/><path class="cls-2" d="M24.67,105.6v2.62c0,.76.31,1.14.91,1.14s.9-.38.9-1.14V105.6h1.06v2.65a3,3,0,0,1-.13,1,1.66,1.66,0,0,1-.46.64,2.23,2.23,0,0,1-2.74,0,1.56,1.56,0,0,1-.46-.64,2.57,2.57,0,0,1-.14-1V105.6Z"/><path class="cls-2" d="M30.31,107.86a1.65,1.65,0,0,0,.35,1.08,1.17,1.17,0,0,0,.92.41,1.21,1.21,0,0,0,1-.4,1.57,1.57,0,0,0,.36-1.06,1.61,1.61,0,0,0-.36-1.07,1.2,1.2,0,0,0-.94-.4,1.17,1.17,0,0,0-.92.41,1.52,1.52,0,0,0-.36,1m2.52-5.64h1.06v8H32.83v-.48a2,2,0,0,1-3-.07,2.52,2.52,0,0,1-.62-1.75,2.4,2.4,0,0,1,.62-1.71,1.94,1.94,0,0,1,1.54-.7,2,2,0,0,1,1.44.66Z"/><path class="cls-2" d="M36.93,110.17H35.87V105.6h1.06Zm-1.22-6.48a.62.62,0,0,1,.2-.48.63.63,0,0,1,.48-.2.64.64,0,0,1,.49.2.66.66,0,0,1,.2.48.68.68,0,0,1-.2.49.63.63,0,0,1-.48.21.65.65,0,0,1-.49-.21.64.64,0,0,1-.2-.49"/><polygon class="cls-2" points="46.28 103.95 43.75 103.95 43.75 105.68 46.19 105.68 46.19 106.72 43.75 106.72 43.75 110.17 42.67 110.17 42.67 102.91 46.28 102.91 46.28 103.95"/><path class="cls-2" d="M49,107.87a1.57,1.57,0,0,0,.36,1.08,1.42,1.42,0,0,0,2,0,1.52,1.52,0,0,0,.37-1.07,1.5,1.5,0,0,0-.37-1.07,1.43,1.43,0,0,0-2,0,1.48,1.48,0,0,0-.37,1.05m-1.09,0a2.3,2.3,0,0,1,.71-1.69,2.5,2.5,0,0,1,3.48,0,2.46,2.46,0,0,1,0,3.45,2.41,2.41,0,0,1-1.75.69,2.33,2.33,0,0,1-1.73-.71,2.39,2.39,0,0,1-.7-1.75"/><path class="cls-2" d="M55.35,107.87a1.57,1.57,0,0,0,.36,1.08,1.42,1.42,0,0,0,2,0,1.52,1.52,0,0,0,.37-1.07,1.5,1.5,0,0,0-.37-1.07,1.28,1.28,0,0,0-1-.4,1.3,1.3,0,0,0-1,.4,1.48,1.48,0,0,0-.37,1.05m-1.09,0a2.3,2.3,0,0,1,.71-1.69,2.43,2.43,0,0,1,1.74-.7,2.4,2.4,0,0,1,1.74.71,2.44,2.44,0,0,1,0,3.45,2.41,2.41,0,0,1-1.75.69A2.35,2.35,0,0,1,55,109.6a2.39,2.39,0,0,1-.7-1.75"/><path class="cls-2" d="M61.91,107.86a1.65,1.65,0,0,0,.35,1.08,1.17,1.17,0,0,0,.92.41,1.21,1.21,0,0,0,.95-.4,1.57,1.57,0,0,0,.36-1.06,1.61,1.61,0,0,0-.36-1.07,1.2,1.2,0,0,0-.94-.4,1.17,1.17,0,0,0-.92.41,1.52,1.52,0,0,0-.36,1m2.52-5.64h1.06v8H64.43v-.48a2,2,0,0,1-3-.07,2.52,2.52,0,0,1-.62-1.75,2.4,2.4,0,0,1,.62-1.71,1.94,1.94,0,0,1,1.54-.7,2,2,0,0,1,1.44.66Z"/><path class="cls-2" d="M73.19,105.35l.09-.06.38-.3a1.33,1.33,0,0,0,.21-.22.64.64,0,0,0,.14-.43.61.61,0,0,0-.19-.47.73.73,0,0,0-.52-.18.67.67,0,0,0-.49.19.54.54,0,0,0-.21.44,1,1,0,0,0,.26.63l.27.33.06.07m-.24,1.4-.06,0a4.93,4.93,0,0,0-.91.74.92.92,0,0,0-.24.6,1.23,1.23,0,0,0,1.19,1.19,2.29,2.29,0,0,0,1.46-.83Zm.87-.62,1.31,1.58.05,0,.4-.46.36-.44.71.73a4.44,4.44,0,0,1-.34.44c-.14.16-.31.36-.51.57l1.34,1.66H75.78l-.73-.88a2.91,2.91,0,0,1-2.07,1,2.34,2.34,0,0,1-1.64-.62,2,2,0,0,1-.66-1.53,2.13,2.13,0,0,1,1-1.81l.47-.33,0,0,.07-.05a2.26,2.26,0,0,1-.72-1.51,1.6,1.6,0,0,1,.48-1.2,1.94,1.94,0,0,1,2.5,0,1.52,1.52,0,0,1,.22,2,4.5,4.5,0,0,1-1,.91"/><path class="cls-2" d="M83.22,109.14h.5A4,4,0,0,0,85,109a2.6,2.6,0,0,0,.89-.52,2.47,2.47,0,0,0,.81-1.92,2.52,2.52,0,0,0-.8-1.93,3.1,3.1,0,0,0-2.14-.66h-.5Zm-1.08,1v-7.26h1.53a5.35,5.35,0,0,1,1.73.22,3.18,3.18,0,0,1,1.24.72,3.74,3.74,0,0,1,0,5.4,3.37,3.37,0,0,1-1.24.72,5.46,5.46,0,0,1-1.71.2Z"/><path class="cls-2" d="M89.51,105.6h1.06V106a1.9,1.9,0,0,1,.52-.42,1.15,1.15,0,0,1,.55-.13,1.74,1.74,0,0,1,.87.28l-.48,1a1,1,0,0,0-.59-.22c-.58,0-.87.44-.87,1.31v2.37H89.51Z"/><path class="cls-2" d="M95.09,105.6v2.62c0,.76.31,1.14.91,1.14s.9-.38.9-1.14V105.6H98v2.65a2.75,2.75,0,0,1-.14,1,1.53,1.53,0,0,1-.45.64,2.23,2.23,0,0,1-2.74,0,1.56,1.56,0,0,1-.46-.64,2.57,2.57,0,0,1-.14-1V105.6Z"/><path class="cls-2" d="M103.22,107.89a1.56,1.56,0,0,0-.36-1.07,1.18,1.18,0,0,0-.93-.4,1.13,1.13,0,0,0-1,.44,1.87,1.87,0,0,0,0,2.06,1.15,1.15,0,0,0,1,.44,1.17,1.17,0,0,0,1-.45,1.58,1.58,0,0,0,.32-1m1,2.18a4.88,4.88,0,0,1,0,.57,2.6,2.6,0,0,1-.06.44,1.92,1.92,0,0,1-.44.89,2.17,2.17,0,0,1-1.71.71,2.27,2.27,0,0,1-1.51-.49,2.05,2.05,0,0,1-.71-1.41h1.07a1.26,1.26,0,0,0,.2.52,1.13,1.13,0,0,0,1,.43c.77,0,1.16-.48,1.16-1.43v-.64a2,2,0,0,1-3,0,2.52,2.52,0,0,1-.6-1.72,2.65,2.65,0,0,1,.56-1.7,1.93,1.93,0,0,1,1.59-.75,1.84,1.84,0,0,1,1.44.65v-.51h1.06Z"/><path class="cls-2" d="M113.86,107.38l-1.08-2.47-1.13,2.47Zm.44,1h-3.11l-.81,1.76H109.2l3.6-7.73,3.47,7.73h-1.2Z"/><path class="cls-2" d="M118.6,105.6v2.62q0,1.14.9,1.14t.9-1.14V105.6h1.06v2.65a3,3,0,0,1-.13,1,1.66,1.66,0,0,1-.46.64,2,2,0,0,1-1.37.47,2,2,0,0,1-1.36-.47,1.5,1.5,0,0,1-.47-.64,2.57,2.57,0,0,1-.14-1V105.6Z"/><polygon class="cls-2" points="124.72 106.58 124.72 110.17 123.66 110.17 123.66 106.58 123.21 106.58 123.21 105.6 123.66 105.6 123.66 103.91 124.72 103.91 124.72 105.6 125.54 105.6 125.54 106.58 124.72 106.58"/><path class="cls-2" d="M127,102.22H128V106a1.84,1.84,0,0,1,1.25-.51,1.61,1.61,0,0,1,1.25.51,2.07,2.07,0,0,1,.4,1.4v2.8h-1.07v-2.71a1.31,1.31,0,0,0-.19-.8.77.77,0,0,0-.63-.24.86.86,0,0,0-.78.34A2.31,2.31,0,0,0,128,108v2.21H127Z"/><path class="cls-2" d="M133.63,107.87A1.52,1.52,0,0,0,134,109a1.29,1.29,0,0,0,1,.41,1.32,1.32,0,0,0,1-.4,1.52,1.52,0,0,0,.37-1.07,1.5,1.5,0,0,0-.37-1.07,1.41,1.41,0,0,0-2,0,1.49,1.49,0,0,0-.38,1.05m-1.08,0a2.27,2.27,0,0,1,.71-1.69,2.49,2.49,0,0,1,3.47,0,2.45,2.45,0,0,1,0,3.45,2.45,2.45,0,0,1-1.76.69,2.35,2.35,0,0,1-1.73-.71,2.38,2.38,0,0,1-.69-1.75"/><path class="cls-2" d="M139.2,105.6h1.06V106a1.74,1.74,0,0,1,.51-.42,1.21,1.21,0,0,1,.55-.13,1.77,1.77,0,0,1,.88.28l-.49,1a1,1,0,0,0-.59-.22c-.57,0-.86.44-.86,1.31v2.37H139.2Z"/><path class="cls-2" d="M144.65,110.17h-1.06V105.6h1.06Zm-1.22-6.48a.63.63,0,0,1,.21-.48.62.62,0,0,1,.48-.2.68.68,0,0,1,.69.68.68.68,0,0,1-.2.49.67.67,0,0,1-.49.21.63.63,0,0,1-.48-.21.65.65,0,0,1-.21-.49"/><polygon class="cls-2" points="147.67 106.58 147.67 110.17 146.6 110.17 146.6 106.58 146.16 106.58 146.16 105.6 146.6 105.6 146.6 103.91 147.67 103.91 147.67 105.6 148.49 105.6 148.49 106.58 147.67 106.58"/><polygon class="cls-2" points="151.49 109.33 149.43 105.6 150.66 105.6 152.06 108.23 153.37 105.6 154.56 105.6 150.91 112.67 149.7 112.67 151.49 109.33"/><rect class="cls-1" x="10.59" y="100.41" width="143.57" height="0.34"/></svg>