<svg id="Layer_1" data-name="Layer 1" xmlns="http://www.w3.org/2000/svg" xmlns:xlink="http://www.w3.org/1999/xlink" viewBox="0 0 200 200"><defs><style>.cls-1{fill:none;}.cls-2{fill:#b0afb1;}.cls-3{fill:#2a2421;}.cls-4{clip-path:url(#clip-path);}.cls-5{fill:url(#linear-gradient);}.cls-6{fill:url(#linear-gradient-2);}.cls-7{fill:#9dd4f4;}.cls-8{fill:#0762a6;}.cls-9{clip-path:url(#clip-path-3);}.cls-10{fill:url(#linear-gradient-3);}.cls-11{fill:url(#linear-gradient-4);}</style><clipPath id="clip-path"><polygon class="cls-1" points="158.55 115.6 169.15 105 158.56 84.37 158.55 115.6"/></clipPath><linearGradient id="linear-gradient" x1="-2549.3" y1="3574.48" x2="-2547.58" y2="3574.48" gradientTransform="matrix(0, 13.53, 13.53, 0, -48184, 34565.05)" gradientUnits="userSpaceOnUse"><stop offset="0" stop-color="#fff"/><stop offset="1" stop-color="#fdfdfd"/></linearGradient><linearGradient id="linear-gradient-2" x1="-2549.3" y1="3574.48" x2="-2547.58" y2="3574.48" gradientTransform="matrix(0, 13.53, 13.53, 0, -48184, 34565.05)" gradientUnits="userSpaceOnUse"><stop offset="0" stop-color="#b0afb1"/><stop offset="1" stop-color="#fff"/></linearGradient><clipPath id="clip-path-3"><polygon class="cls-1" points="179.19 94.96 189.8 115.6 189.79 84.37 179.19 94.96"/></clipPath><linearGradient id="linear-gradient-3" x1="-2317.83" y1="3056.6" x2="-2316.11" y2="3056.6" gradientTransform="matrix(0, -13.53, -13.53, 0, 41549.88, -31251.21)" xlink:href="#linear-gradient"/><linearGradient id="linear-gradient-4" x1="-2317.83" y1="3056.6" x2="-2316.11" y2="3056.6" gradientTransform="matrix(0, -13.53, -13.53, 0, 41549.88, -31251.21)" xlink:href="#linear-gradient-2"/></defs><path class="cls-2" d="M15.75,95.36a11.3,11.3,0,0,0-1.21,1.28,5.34,5.34,0,0,0,1.21.14A5.43,5.43,0,0,0,17,96.64a10.55,10.55,0,0,0-1.22-1.28m-5.19-2.59a5.37,5.37,0,0,0,3.08,3.58,10.63,10.63,0,0,1,1.5-1.5,10.69,10.69,0,0,0-4.58-2.08m7.3,3.58A5.38,5.38,0,0,0,21,92.77a10.74,10.74,0,0,0-4.58,2.08,10.56,10.56,0,0,1,1.49,1.5M15.75,86.06a5.36,5.36,0,0,0-5.36,5.36,5,5,0,0,0,.09,1,11.06,11.06,0,0,1,5.27,2,11.09,11.09,0,0,1,5.28-2,5,5,0,0,0,.09-1,5.36,5.36,0,0,0-5.37-5.36m3.16,4.58c0,.11,0,.23,0,.34a3.14,3.14,0,0,0-1.35-2.24A3.15,3.15,0,0,1,17,92.46l-.26.23a3.16,3.16,0,0,0-.23-4.2,2.79,2.79,0,0,0-.32-.28H16.1v5a.35.35,0,0,1-.35.35.35.35,0,0,1-.34-.35h0v-5h-.09a3.92,3.92,0,0,0-.31.28,3.14,3.14,0,0,0-.23,4.2l-.26-.23A3.17,3.17,0,0,1,14,88.74,3.14,3.14,0,0,0,12.62,91c0-.11,0-.23,0-.34a3.15,3.15,0,0,1,2.25-3,3.12,3.12,0,0,0-2.55.64,2,2,0,0,1,.24-.26,3.14,3.14,0,0,1,3.21-.76A3.17,3.17,0,0,1,19,88l.22.26a3.1,3.1,0,0,0-2.54-.64,3.15,3.15,0,0,1,2.25,3"/><path class="cls-3" d="M33.35,94.66a3.11,3.11,0,0,1-.55.87,2.58,2.58,0,0,1-2,.86c-1.61,0-2.82-1.78-2.82-3.77a3.46,3.46,0,0,1,3.19-3.69,5.16,5.16,0,0,1,2.23.84c.29,0,.34-.47.45-.66h.44a5.33,5.33,0,0,0-.08,1.13v4.32c0,.47.08,1.35,1,1.41h1.65v.42H35.69c-1.16,0-2.1-.16-2.34-1.73m-2.21-5.31C29.71,89.35,29,91,29,92.73,29,95.22,30.21,96,31,96a2.12,2.12,0,0,0,2-1.55,7.07,7.07,0,0,0,.19-2c0-1.44-.23-3-2-3m-.79-2.14a.57.57,0,0,1-.6-.58.6.6,0,0,1,.6-.63.6.6,0,0,1,.61.63.58.58,0,0,1-.61.58m2.14,0a.58.58,0,0,1-.61-.58.6.6,0,0,1,.61-.63.6.6,0,0,1,.6.63.57.57,0,0,1-.6.58"/><path class="cls-3" d="M36.7,99.25a.58.58,0,0,1-.6-.6.6.6,0,0,1,.6-.61.59.59,0,0,1,.6.61.57.57,0,0,1-.6.6m5.43-2.87a2.43,2.43,0,0,1-2.4-1.58,2,2,0,0,1-2.15,1.58h-1V96h.7c1,0,1.47-.64,1.47-1.67V90.14c0-.4,0-.47-.57-.63l1.6-.32v4.1c0,1.09.72,2.68,2,2.68h.5v.41Zm-3.28,2.87a.58.58,0,0,1-.61-.6.6.6,0,0,1,.61-.61.61.61,0,0,1,.61.61.59.59,0,0,1-.61.6"/><path class="cls-3" d="M42,96h.15c1.08,0,1.52-.64,1.52-1.67V87c0-.4,0-.55-.57-.71l1.6-.33V94.3a2,2,0,0,1-2.21,2.08H42Z"/><path class="cls-3" d="M47.54,94.4V87.11c0-.45-.23-.61-1.19-.61v-.42l2.22-.1V94.5A1.29,1.29,0,0,0,49.86,96h.66v.41h-.74c-1.3,0-2.24-.47-2.24-2"/><path class="cls-3" d="M60.52,96.39A2.51,2.51,0,0,1,58.19,95a3.19,3.19,0,0,1-5.72.6l-.07-.07a1.87,1.87,0,0,1-1.71.88h-.48V96h.49a1.48,1.48,0,0,0,.77-.31c1.63-1.51.45-5.34,4.05-5.34,1.87,0,2.89,2,2.89,3.46a3.48,3.48,0,0,1,0,.58A2.09,2.09,0,0,0,60.17,96h.35C61.61,96,62,95.33,62,94.3V87c0-.4,0-.55-.58-.71l1.6-.33V94.3a2,2,0,0,1-2.2,2.09Zm-5.27-5.7c-1.88,0-1.68,2.75-2.6,4.44a.31.31,0,0,1,.14.14,3.14,3.14,0,0,0,2.38,1.41c1.15,0,2.14-1.26,2.14-2.82s-.67-3.12-2-3.17Z"/><path class="cls-3" d="M65.46,87c0-.4,0-.55-.58-.71l1.6-.33V96.39h-1Z"/><path class="cls-3" d="M80.32,93.86c0,2.64-1.56,5.39-4.61,5.39s-4.64-2.75-4.64-5.39V91.53c0-.43-.24-.6-1.19-.6v-.42l2.21-.1v3.45c0,3.89,1.81,5,3.62,5,1.54,0,3.13-.82,3.49-3.6A2.28,2.28,0,0,1,77,96.39a2.49,2.49,0,0,1-2.33-2.51A4.43,4.43,0,0,1,79.3,89.2h1Zm-1-4.22a2.08,2.08,0,0,0-.4,0c-1.56,0-3.23,1.67-3.23,4.19,0,1,.57,2.2,1.65,2.25s2-1.23,2-2.57Zm-1.71-2.26a.57.57,0,0,1-.59-.59.58.58,0,0,1,.59-.61.6.6,0,0,1,.63.61.59.59,0,0,1-.63.59m2.16,0a.57.57,0,0,1-.6-.59.6.6,0,1,1,1.19,0,.57.57,0,0,1-.59.59"/><path class="cls-3" d="M90.16,96.38H87.82a3.56,3.56,0,0,1-3.66,3.07c-.22,0-.45,0-1-.07,1.45-.32,3.13-.76,3.67-3H84.64a2.49,2.49,0,0,1-2.33-2.5A4.42,4.42,0,0,1,87,89.2h1V95a7,7,0,0,1-.09,1h2.25ZM87,95.06V89.64a1.35,1.35,0,0,0-.39,0c-1.55,0-3.23,1.67-3.23,4.19A2,2,0,0,0,85,96h1.88a6.29,6.29,0,0,0,.08-.91"/><path class="cls-3" d="M89.84,96H90c1.08,0,1.51-.64,1.51-1.67V91.36c0-.41,0-.48-.57-.64l1.58-.32v2.89c0,1.07.71,2.68,2,2.68,1.11,0,1.54-.64,1.54-1.67V90.76c0-.43,0-.47-.58-.65l1.6-.31v3.49c0,1.09.75,2.68,2,2.68s1.55-.64,1.55-1.67V90.14c0-.4,0-.47-.59-.63l1.6-.32v4.1c0,1.09.75,2.68,2,2.68h.5v.41H104a2.48,2.48,0,0,1-2.41-1.58,2,2,0,0,1-2.14,1.58A2.44,2.44,0,0,1,97,94.8a2,2,0,0,1-2.12,1.58A2.46,2.46,0,0,1,92.57,95l-.06-.08a2,2,0,0,1-2.16,1.5h-.51Z"/><path class="cls-3" d="M103.86,96H104c1.09,0,1.53-.64,1.53-1.67V87c0-.4,0-.55-.57-.71l1.61-.33V94.3a2,2,0,0,1-2.22,2.08h-.49Z"/><path class="cls-3" d="M109,87c0-.4,0-.55-.58-.71L110,86V96.39h-1Z"/><path class="cls-3" d="M120,94.66a3.11,3.11,0,0,1-.55.87,2.58,2.58,0,0,1-2,.86c-1.61,0-2.82-1.78-2.82-3.77a3.46,3.46,0,0,1,3.19-3.69,5.16,5.16,0,0,1,2.23.84c.29,0,.34-.47.45-.66h.44a5.33,5.33,0,0,0-.08,1.13v4.32c0,.47.08,1.35,1.05,1.41h1.65v.42h-1.19c-1.15,0-2.09-.16-2.34-1.73m-2.21-5.31c-1.43,0-2.11,1.61-2.11,3.38,0,2.49,1.18,3.24,2,3.24a2.12,2.12,0,0,0,2-1.55,7.07,7.07,0,0,0,.19-2c0-1.44-.22-3-2-3M117,87.21a.58.58,0,0,1-.61-.58.61.61,0,1,1,1.22,0,.58.58,0,0,1-.61.58m2.15,0a.58.58,0,0,1-.62-.58.61.61,0,0,1,.62-.63.6.6,0,0,1,.59.63.57.57,0,0,1-.59.58"/><path class="cls-3" d="M128.76,96.39a2.42,2.42,0,0,1-2.39-1.59,2,2,0,0,1-2.15,1.59h-1V96h.71c1,0,1.46-.64,1.46-1.67V90.14c0-.4,0-.47-.58-.63l1.61-.32v4.1c0,1.09.72,2.68,2,2.68h.51v.42Zm-2.07-9.16v-.36h-.56a1.32,1.32,0,0,1-1.19-1.34.68.68,0,0,1,.63-.75c.2,0,.4,0,.46.2a.5.5,0,0,0-.21.36.34.34,0,0,0,.34.34c.19,0,.32-.1.32-.41a.82.82,0,0,0-.87-.81,1.18,1.18,0,0,0-1.17,1.26,1.47,1.47,0,0,0,.73,1.15h-.86l-.14.36Z"/><path class="cls-3" d="M128.75,99.25a.58.58,0,0,1-.6-.6.6.6,0,0,1,.6-.61.59.59,0,0,1,.6.61.57.57,0,0,1-.6.6m5.42-2.87a2.43,2.43,0,0,1-2.4-1.58,2,2,0,0,1-2.15,1.58h-1V96h.71c1,0,1.46-.64,1.46-1.67V90.14c0-.4,0-.47-.57-.63l1.61-.32v4.1c0,1.09.72,2.68,2,2.68h.5v.41Zm-3.27,2.87a.58.58,0,0,1-.62-.6.61.61,0,1,1,1.22,0,.58.58,0,0,1-.6.6"/><path class="cls-3" d="M143.05,96.38h-9V96h1.35c0-.14,0-.24.06-.36a3.78,3.78,0,0,1,2.85-3.28,1.92,1.92,0,0,1,2.07,1.89A1.84,1.84,0,0,1,139,96h2.88c0-3.86-1.6-5.78-3-5.78-1.9,0-2.46,1.1-2.74,2.67h-.19c0-2.28,1.41-3.09,2.9-3.09h0c2.46,0,4.27,3.17,4.27,6.2ZM135.72,96h.89c1.19,0,2.77-.52,2.77-2a1.2,1.2,0,0,0-1.31-1.16,2.48,2.48,0,0,0-2.15,2.12Z"/><path class="cls-3" d="M17.4,107.3H17c-.26-1.41-1-3.06-2.73-3.06-1.33,0-2.84,1-2.84,4.44s1.29,4.44,2.89,4.44c1.76,0,2.74-1.4,2.81-3.37h.47c0,2.3-1.22,3.75-3.28,3.75-2.75,0-4.14-2.47-4.14-4.82,0-2.74,1.88-4.82,4.14-4.82,1.3,0,2,.87,2.25.87s.35-.41.43-.57h.38Z"/><path class="cls-3" d="M22.69,108.79v3.6c0,.4.16.48.36.48s.42-.24.42-1.05h.37c0,.9-.25,1.51-1.11,1.51-.61,0-.91-.41-.94-1.16h0a2.3,2.3,0,0,1-2.07,1.33,1.67,1.67,0,0,1-1.82-1.59c0-1.72,2.65-2.18,3.89-2.5v-1c0-.77-.4-1.26-1.38-1.26a2.55,2.55,0,0,0-1.51.49l0,0a.57.57,0,0,1,.56.58.64.64,0,0,1-.63.66c-.38,0-.62-.29-.62-.76,0-.75.93-1.38,2.14-1.38,1.49,0,2.34.49,2.34,2m-.93,1c-1.23.27-2.86.65-2.86,2.25A1.06,1.06,0,0,0,20,113c1,0,1.75-1,1.75-2.3Z"/><path class="cls-3" d="M24.68,107.89c0-.4-.22-.54-1.07-.54V107l2-.08v1.2h0c.45-.64.77-1.29,2-1.29,1.63,0,2.73,1.65,2.73,3.34a3.12,3.12,0,0,1-2.94,3.35,2.06,2.06,0,0,1-1.75-.86h0v2.07c0,.41.22.54,1.11.54v.39h-3.2v-.39c.95,0,1.17-.13,1.17-.54Zm.92,2.26c0,2.32.46,3,1.86,3,1,0,1.87-.84,1.87-3s-.87-3-1.87-3-1.86.84-1.86,3"/><path class="cls-3" d="M33.91,113.33h-3.2V113c.95,0,1.16-.13,1.16-.54v-4.52c0-.4-.21-.54-1.07-.54V107l2-.08v5.51c0,.41.21.54,1.11.54Zm-1-8.56a.63.63,0,0,1-.64.64.64.64,0,0,1-.66-.64.66.66,0,0,1,.66-.67.65.65,0,0,1,.64.67"/><path class="cls-3" d="M37.86,106.81v.38h-2V112c0,.84.42,1.13.88,1.13s1-.3,1-1.37v-.58h.38v.49c0,1.08-.5,1.84-1.61,1.84a1.41,1.41,0,0,1-1.55-1.57v-4.74h-1v-.38c1.13,0,1.45-1.11,1.54-2h.37v2Z"/><path class="cls-3" d="M43.34,108.79v3.6c0,.4.17.48.37.48s.41-.24.41-1.05h.39c0,.9-.26,1.51-1.11,1.51-.62,0-.92-.41-.95-1.16h0a2.31,2.31,0,0,1-2.06,1.33,1.68,1.68,0,0,1-1.83-1.59c0-1.72,2.65-2.18,3.89-2.5v-1c0-.77-.4-1.26-1.37-1.26a2.55,2.55,0,0,0-1.52.49l0,0a.58.58,0,0,1,.57.58.65.65,0,0,1-.64.66c-.38,0-.61-.29-.61-.76,0-.75.92-1.38,2.14-1.38,1.49,0,2.32.49,2.32,2m-.92,1c-1.23.27-2.86.65-2.86,2.25a1.06,1.06,0,0,0,1.11,1c1,0,1.75-1,1.75-2.3Z"/><path class="cls-3" d="M46.65,112.41c0,.41.21.54,1.1.54v.38H44.56V113c.95,0,1.17-.13,1.17-.54V105c0-.41-.22-.54-1.07-.54v-.38l2,0Z"/><path class="cls-3" d="M51.48,104h2.63l2.43,7.49h.05L59.16,104h2.52v.37c-1,0-1.23.07-1.23.93V112c0,.87.18.93,1.26.93v.38H58.15V113c1.12,0,1.27-.06,1.27-.93v-7.29h0l-3,8.6h-.31l-2.86-8.6h0V112c0,.66.31.94,1.29,1v.38h-3V113c1,0,1.26-.31,1.26-1v-6.65c0-.86-.17-.93-1.26-.93Z"/><path class="cls-3" d="M66.84,108.79v3.6c0,.4.16.48.36.48s.42-.24.42-1.05H68c0,.9-.26,1.51-1.11,1.51-.63,0-.92-.41-.94-1.16h0a2.32,2.32,0,0,1-2.07,1.33A1.68,1.68,0,0,1,62,111.91c0-1.72,2.65-2.18,3.9-2.5v-1c0-.77-.41-1.26-1.38-1.26a2.58,2.58,0,0,0-1.52.49l0,0a.58.58,0,0,1,.57.58A.64.64,0,0,1,63,109c-.38,0-.61-.29-.61-.76,0-.75.93-1.38,2.14-1.38,1.49,0,2.33.49,2.33,2m-.92,1c-1.23.27-2.87.65-2.87,2.25a1.06,1.06,0,0,0,1.1,1,2.11,2.11,0,0,0,1.77-2.3Z"/><path class="cls-3" d="M69.16,107.89c0-.4-.21-.54-1.07-.54V107l2-.08v1.62h0c.3-.79.79-1.71,1.76-1.71a1,1,0,0,1,1,.93.61.61,0,0,1-.62.67.56.56,0,0,1-.62-.61.58.58,0,0,1,.32-.54.23.23,0,0,0-.2-.07c-.35,0-1.18.41-1.53,2a15.66,15.66,0,0,0-.19,3c0,.68.22.81,1.22.81v.38H68.08V113c.87,0,1.08-.13,1.08-.54Z"/><path class="cls-3" d="M79.42,107v.37c-1,.09-1.41.41-3.09,2.09l1.75,2.68c.51.8.68.83,1.44.83v.38H77.85L75.67,110l-.62.56v1.83c0,.41.21.54,1.11.54v.38H73V113c1,0,1.17-.13,1.17-.54V105c0-.41-.22-.54-1.07-.54v-.38l2,0v6.11l2.08-1.89c.23-.22.42-.41.42-.62s-.24-.28-1-.28V107Z"/><path class="cls-3" d="M80.57,110v.38c0,1.52.74,2.73,2.07,2.73a2.33,2.33,0,0,0,2.16-1.3l.32.21a2.66,2.66,0,0,1-2.59,1.47,3.14,3.14,0,0,1-3-3.35c0-2,1.09-3.34,2.93-3.34,1.68,0,2.64,1.6,2.64,3.2Zm3.52-.39c0-1.1-.33-2.43-1.72-2.43s-1.8,1.26-1.8,2.43Z"/><path class="cls-3" d="M89.05,106.81v.38H87V112c0,.84.4,1.13.87,1.13s1-.3,1-1.37v-.58h.38v.49c0,1.08-.5,1.84-1.62,1.84a1.41,1.41,0,0,1-1.55-1.57v-4.74h-1v-.38c1.14,0,1.46-1.11,1.54-2H87v2Z"/><path class="cls-3" d="M92,113.33V113c.88,0,1.18-.12,1.35-.59L96.48,104h.33l3.1,8.41c.16.43.47.51,1.17.51v.38H97.63V113c1,0,1.2-.11,1.2-.38a23.26,23.26,0,0,0-.8-2.4H94.66a17.24,17.24,0,0,0-.78,2.42c0,.31.31.36,1.23.36v.38Zm2.8-3.62h3.05l-1.52-4.17Z"/><path class="cls-3" d="M106.36,112.41c0,.41.21.54,1,.54v.38l-1.93.08v-1h0a2.18,2.18,0,0,1-2,1.09c-1.16,0-2-.42-2-1.79v-3.82c0-.4-.22-.54-1.07-.54V107l2-.08v4.91a1.17,1.17,0,0,0,1.28,1.31c1.13,0,1.89-.92,1.89-2.44v-2.79c0-.4-.22-.54-1.07-.54V107l2-.08Z"/><path class="cls-3" d="M111,106.81v.38h-2V112c0,.84.4,1.13.87,1.13s1-.3,1-1.37v-.58h.38v.49c0,1.08-.5,1.84-1.61,1.84a1.41,1.41,0,0,1-1.55-1.57v-4.74h-1v-.38c1.13,0,1.46-1.11,1.54-2H109v2Z"/><path class="cls-3" d="M116.69,113.33V109c0-.7,0-1.76-1.25-1.76-1.06,0-1.92,1-1.92,2.81v2.41c0,.41.22.54,1.08.54v.38h-3.15V113c.93,0,1.15-.13,1.15-.54V105c0-.41-.22-.54-1.07-.54v-.38l2,0v4h0a2.17,2.17,0,0,1,2.12-1.27,1.75,1.75,0,0,1,1.94,2v3.6c0,.41.17.54,1.05.54v.38Z"/><path class="cls-3" d="M118.59,110.15a3,3,0,1,1,2.93,3.35,3.1,3.1,0,0,1-2.93-3.35m4.84,0c0-1.9-.6-3-1.91-3s-1.91,1.06-1.91,3,.6,3,1.91,3,1.91-1.06,1.91-3"/><path class="cls-3" d="M125.4,107.89c0-.4-.22-.54-1.07-.54V107l2-.08v1.62h0c.31-.79.79-1.71,1.77-1.71a1,1,0,0,1,1,.93.61.61,0,0,1-.62.67.61.61,0,0,1-.3-1.15.23.23,0,0,0-.2-.07c-.36,0-1.18.41-1.53,2a15.66,15.66,0,0,0-.19,3c0,.68.21.81,1.22.81v.38h-3.22V113c.86,0,1.08-.13,1.08-.54Z"/><path class="cls-3" d="M132.67,113.33h-3.2V113c.95,0,1.17-.13,1.17-.54v-4.52c0-.4-.22-.54-1.07-.54V107l2-.08v5.51c0,.41.21.54,1.11.54Zm-1-8.56a.65.65,0,0,1-1.3,0,.65.65,0,1,1,1.3,0"/><path class="cls-3" d="M136.35,106.88v.38h-2v4.8c0,.84.41,1.13.88,1.13s1-.3,1-1.37v-.58h.38v.49c0,1.08-.5,1.84-1.61,1.84a1.4,1.4,0,0,1-1.55-1.57v-4.74h-1v-.38c1.13,0,1.46-1.1,1.55-2h.37v2Z"/><path class="cls-3" d="M136.24,106.89h3v.37c-1,0-1.1.12-1.1.32a41.24,41.24,0,0,0,1.68,4.35h0a32.61,32.61,0,0,0,1.6-4.24c0-.31-.21-.43-1-.43v-.37h2.56v.37a1,1,0,0,0-1.16.77l-2,5.07c-.74,1.87-1.19,2.44-2.2,2.44a1.21,1.21,0,0,1-1.29-1.09.69.69,0,0,1,.69-.72.56.56,0,0,1,.6.52.6.6,0,0,1-.64.66.82.82,0,0,0,.7.25c.78,0,1.33-.82,1.66-2.08l-2.1-5.31c-.17-.42-.5-.51-1-.51Z"/><g class="cls-4"><rect class="cls-5" x="152.01" y="83.68" width="23.69" height="32.62" transform="translate(-27.58 85.86) rotate(-27.17)"/></g><g class="cls-4"><rect class="cls-6" x="152.01" y="83.68" width="23.69" height="32.62" transform="translate(-27.58 85.86) rotate(-27.17)"/></g><polygon class="cls-7" points="179.2 94.96 189.79 84.36 158.56 84.37 179.2 94.96"/><polygon class="cls-8" points="169.15 105 158.55 115.6 189.8 115.6 169.15 105"/><g class="cls-9"><rect class="cls-10" x="172.65" y="83.68" width="23.7" height="32.62" transform="translate(-25.3 95.29) rotate(-27.17)"/></g><g class="cls-9"><rect class="cls-11" x="172.65" y="83.68" width="23.7" height="32.62" transform="translate(-25.3 95.29) rotate(-27.17)"/></g></svg>