<svg id="Layer_1" data-name="Layer 1" xmlns="http://www.w3.org/2000/svg" viewBox="0 0 200 200"><defs><style>.cls-1{fill:#979a9c;}.cls-2{fill:#4b728c;}.cls-3{fill:#4a9ea9;}</style></defs><path class="cls-1" d="M66.29,158.43h-.6v-2.29l-.1,0c-.29.67-.6,1.33-.86,2-.1.27-.25.41-.52.33a.72.72,0,0,1-.43-.33c-.34-.7-.61-1.42-1-2.1v2.42h-.58c0-.2,0-.37,0-.57v-3.16c0-.2-.12-.47.23-.53s.45.16.55.42c.35.85.72,1.71,1.07,2.59,0,.11.1.21.19.41.45-1,.88-2,1.25-3,.16-.39.37-.58.82-.37,0,1.37,0,2.75,0,4.17"/><path class="cls-1" d="M80.86,158.42H80.2v-2.91c0-.06.11-.15.17-.18a7.31,7.31,0,0,1,1.54-.11,3.22,3.22,0,0,0,.76,0c1.33-.18,2.23.14,2.21,1.7,0,.4,0,.83,0,1.24s-.1.37-.37.37-.32-.13-.32-.35v-1.52c0-.72-.4-1-1.11-.78a.5.5,0,0,0-.23.39c0,.7,0,1.4,0,2.15l-.66,0c0-.64,0-1.24,0-1.85s-.39-1-1.06-.76a.56.56,0,0,0-.27.39c0,.72,0,1.44,0,2.19"/><path class="cls-1" d="M43.91,158.47c0-.64,0-1.26,0-1.89s-.26-.78-.84-.76c-.37,0-.55.12-.53.55s0,1,0,1.58,0,.58-.66.45c0-.59,0-1.19,0-1.8s-.37-.93-1-.78c-.27.06-.31.2-.31.43,0,.72,0,1.42,0,2.16h-.66c0-.95,0-1.9,0-2.84,0-.08.14-.24.23-.24.57,0,1.11,0,1.68-.05a4,4,0,0,1,.49,0,7.22,7.22,0,0,1,1.54.11c.6.18.7.78.74,1.33s0,.9,0,1.34,0,.53-.66.43"/><path class="cls-1" d="M57.67,155h-.5a.6.6,0,0,1,.06-.11,2.45,2.45,0,0,0-.71-.38c-.11,0-.41.28-.41.42s.18.6.32.62c.46.06.46.29.38.63-.72.27-.93.52-.87,1a.82.82,0,0,0,.84.7c.5.06.82-.21,1-.8l-.52-.06c0-.15,0-.31,0-.54.5,0,1,0,1.48,0,.1,0,.23.19.23.31a.57.57,0,0,1-.21.33c-.06,0-.18,0-.31,0a1.56,1.56,0,0,1-1.59,1.42,1.39,1.39,0,0,1-1.42-.84,1.43,1.43,0,0,1,.37-1.69,1.28,1.28,0,0,1-.09-1.7,1.13,1.13,0,0,1,1.28-.39,1,1,0,0,1,.72,1.09"/><path class="cls-1" d="M127.06,157h-1.17v-.58c.54,0,1.07,0,1.6,0,.1,0,.23.23.23.33a1.79,1.79,0,0,1-2.65,1.5c-.92-.41-1.21-1.07-1.13-2.4a1.84,1.84,0,0,1,1.34-1.6,1.81,1.81,0,0,1,1.82.37c.1.1.07.3.11.43-.17,0-.39.12-.5,0a1.43,1.43,0,0,0-1.89.12,1.84,1.84,0,0,0-.06,2.08,1.36,1.36,0,0,0,1.32.47,1.09,1.09,0,0,0,1-.78"/><path class="cls-1" d="M104.42,158.36v1.3h-.66v-4.07a.34.34,0,0,1,.11-.24,1.86,1.86,0,0,1,2.73,1,1.63,1.63,0,0,1-2.18,2m0-1.56v.39c0,.51.21.7.72.64a1,1,0,0,0,.84-1.21c-.06-.56-.37-.82-1-.8s-.54,0-.54.78Z"/><path class="cls-1" d="M73.66,158.44c-.5,0-1,0-1.48,0a1.41,1.41,0,0,1-1.29-1.25,3.55,3.55,0,0,1,.06-1.08,1.5,1.5,0,0,1,1.62-1l.49.08v-1.43h.6Zm-.54-1.7a3.09,3.09,0,0,1,0-.43c.06-.41-.14-.53-.51-.55-.88,0-1.29.53-1,1.47a.86.86,0,0,0,.93.62.61.61,0,0,0,.61-.78,1.82,1.82,0,0,1,0-.33"/><path class="cls-1" d="M150.27,158.4c.48-1.35,1-2.68,1.46-4a.5.5,0,0,1,.39-.26c.15,0,.41.1.45.22.48,1.31,1,2.63,1.42,4-.41.17-.66.13-.82-.3-.33-.95-.35-.93-1.37-.93h-.42a4.71,4.71,0,0,0-.32.86c-.09.43-.33.56-.79.43m1.89-3.36c-.2.55-.38,1-.55,1.47h1.09c-.17-.49-.35-.94-.54-1.47"/><path class="cls-1" d="M90.38,155.94c.19.51.13.58-.31.58H88.6v1.31h2.07c.1.41.08.63-.39.6-.65,0-1.31,0-2,0-.23,0-.39-.05-.39-.35,0-1.28,0-2.57,0-4,.88,0,1.73,0,2.57,0,.1,0,.16.3.3.51H88.58v1.27c.65,0,1.23,0,1.8,0"/><path class="cls-1" d="M161.58,155a8.4,8.4,0,0,1,1.42.29,1.53,1.53,0,0,1,.76,1.45c0,.39,0,.76,0,1.15,0,.57,0,.58-.66.47,0-.57,0-1.13,0-1.7a.9.9,0,0,0-1.15-.92c-.26.08-.41.18-.4.49,0,.61,0,1.21,0,1.81,0,.12-.19.28-.35.32s-.29-.16-.29-.24c0-1.46,0-2.92,0-4.37.65-.09.66-.09.66.47,0,.31,0,.61,0,.78"/><path class="cls-1" d="M37.29,158.4l-1-.16c-.21,0-.41-.17-.29-.41a.51.51,0,0,1,.43-.18c.49,0,1,.08,1.44,0s.53-.34.49-.71-.31-.48-.63-.54-.54,0-.8-.06a1,1,0,0,1-.93-.88,1.19,1.19,0,0,1,.58-1.17,2.48,2.48,0,0,1,2.13,0c.06,0,.16.25.11.29a.57.57,0,0,1-.37.24c-.34,0-.68-.08-1-.08a.66.66,0,0,0-.45.12c-.13.13-.31.37-.27.52s.25.33.45.39.57,0,.86.08c.72.16,1.11.62,1.07,1.19a1.32,1.32,0,0,1-1.27,1.25,3.08,3.08,0,0,1-.43,0l-.06.06"/><path class="cls-1" d="M117.5,157h-2.22a.86.86,0,0,0,1.42.57c.32-.28.51-.24.74,0a1.49,1.49,0,0,1-1.89.72,1.68,1.68,0,0,1-.91-2.11,1.43,1.43,0,0,1,1.75-1.07c.84.17,1.23.82,1.11,1.85m-.64-.53a.8.8,0,0,0-.84-.74.74.74,0,0,0-.74.74Z"/><path class="cls-1" d="M136.63,157.07c.37.76,1,1,1.53.51.29-.26.48-.22.7,0-.22.88-1.66,1.11-2.35.46a1.79,1.79,0,0,1-.44-1.83,1.4,1.4,0,0,1,1.27-1.11,1.44,1.44,0,0,1,1.61,1.64.42.42,0,0,1-.35.25c-.48,0-1,0-1.48,0a4.72,4.72,0,0,0-.49,0m1.68-.55c-.15-.54-.49-.81-.88-.76s-.74.22-.74.73l.29,0h1.33"/><path class="cls-1" d="M98.18,157c.33.82,1,1,1.58.53.23-.22.42-.18.54,0s0,.35-.13.45a1.53,1.53,0,0,1-1.55.36,1.39,1.39,0,0,1-1.05-1.16c-.27-1.31.65-2.32,1.84-2,.76.19,1.13.82,1,1.83Zm1.67-.51a.8.8,0,0,0-.87-.74.74.74,0,0,0-.72.74Z"/><path class="cls-1" d="M67.79,157.07c.36.76,1,1,1.53.51.31-.27.48-.2.72.06a1.45,1.45,0,0,1-1.6.81,1.52,1.52,0,0,1-1.25-1.2c-.17-1.16.33-1.95,1.33-2.09a1.49,1.49,0,0,1,1.61,1.58.48.48,0,0,1-.35.31c-.48,0-1,0-1.48,0a2.16,2.16,0,0,0-.51,0m1.66-.55c-.13-.5-.45-.78-.88-.74a.72.72,0,0,0-.72.74Z"/><path class="cls-1" d="M129.16,157.05a.91.91,0,0,0,1.5.55c.36-.3.51-.18.73.09a1.52,1.52,0,0,1-1.76.73,1.48,1.48,0,0,1-1.09-1.49,1.55,1.55,0,0,1,.78-1.61,1.44,1.44,0,0,1,1.58.09,1.29,1.29,0,0,1,.55,1.37.55.55,0,0,1-.4.25c-.64,0-1.26,0-1.89,0m.06-.55h1.58a.82.82,0,0,0-.84-.74.77.77,0,0,0-.74.74"/><path class="cls-1" d="M145,158.44a15.83,15.83,0,0,1-1.7,0,1.4,1.4,0,0,1-1.19-1.24,1.75,1.75,0,0,1,.39-1.6,2.48,2.48,0,0,1,2.33-.22.36.36,0,0,1,.13.22c0,1,0,1.89,0,2.87m-.66-1.7c0-.22,0-.41,0-.63s-.08-.25-.12-.25a2.69,2.69,0,0,0-1.06,0c-.38.14-.46.57-.44,1a.88.88,0,0,0,.56.86c.65.23,1.06,0,1.06-.67Z"/><path class="cls-1" d="M48.14,158.44c-.57,0-1.09,0-1.6,0a1.57,1.57,0,0,1-1.31-1.76,1.44,1.44,0,0,1,1.46-1.48c1.43,0,1.43,0,1.43,1.36,0,.61,0,1.23,0,1.88m-.59-1.7a3.32,3.32,0,0,0,0-.63.43.43,0,0,0-.21-.27,1,1,0,0,0-1.23.29,1.41,1.41,0,0,0,.12,1.39,1,1,0,0,0,1,.21c.41-.11.29-.43.31-.7a1.62,1.62,0,0,1,0-.29"/><path class="cls-1" d="M176.41,157.56c.28-.68.55-1.25.75-1.84s.39-.64.91-.46c-.35.89-.72,1.77-1.07,2.67-.17.45-.37.92-.55,1.36s-.29.55-.85.22c.68-.71.23-1.44,0-2.17s-.41-1.38-.63-2.06c.47-.16.76-.1.88.44s.35,1.14.54,1.84"/><path class="cls-1" d="M167.6,156.78a1.51,1.51,0,1,1-3,0,1.52,1.52,0,0,1,1.5-1.68,1.46,1.46,0,0,1,1.5,1.68m-2.38,0c0,.66.33,1,.9,1s.9-.39.92-1-.32-1-.9-1-.92.35-.92,1"/><path class="cls-1" d="M94.45,158.42h-.66c0-.59,0-1.17,0-1.74,0-.74-.55-1.09-1.31-.86a.61.61,0,0,0-.23.37c0,.61,0,1.21,0,1.82,0,.25,0,.42-.35.42s-.33-.15-.33-.4c0-.78,0-1.56,0-2.35,0-.25.06-.37.33-.42a2.14,2.14,0,0,1,1.91.15,1.52,1.52,0,0,1,.64,1.27Z"/><path class="cls-1" d="M135.25,158.43h-.66v-1.79a.83.83,0,0,0-.63-.86c-.64-.19-.93,0-.93.72v1.58c0,.28-.14.41-.38.35a.42.42,0,0,1-.27-.33c0-.82,0-1.62,0-2.43a.47.47,0,0,1,.12-.34,1.8,1.8,0,0,1,2.73,1.29,18,18,0,0,1,0,1.81"/><path class="cls-1" d="M156.7,155.16h.64c0,1,0,2,0,3,0,.08-.19.24-.31.24a8.51,8.51,0,0,1-1,0,1.37,1.37,0,0,1-1.43-1.3c0-.51,0-1,0-1.52s0-.53.61-.39V157a.83.83,0,0,0,.82.87c.47,0,.7-.17.7-.64,0-.65,0-1.31,0-2"/><path class="cls-1" d="M78.56,155.2c.39-.14.6-.12.6.37,0,.89,0,1.79,0,2.67a1.3,1.3,0,0,1,0,.19,11.43,11.43,0,0,1-1.55,0A1.5,1.5,0,0,1,76.36,157a1.69,1.69,0,0,1,0-.39v-1.42H77V157a.84.84,0,0,0,1.13.84.48.48,0,0,0,.41-.54Z"/><path class="cls-1" d="M112.41,158.47l-.8-.11c-.23,0-.35-.12-.27-.38a.35.35,0,0,1,.47-.27,2.92,2.92,0,0,0,.93.06c.14,0,.28-.19.42-.29-.12-.14-.22-.33-.36-.41s-.31,0-.46,0a.92.92,0,0,1-.84-.82.85.85,0,0,1,.72-1,5.23,5.23,0,0,1,1.31,0,.56.56,0,0,1,.19.36.51.51,0,0,1-.35.23c-.26,0-.51-.1-.74-.08s-.32.2-.47.29a2.3,2.3,0,0,0,.43.34,4.2,4.2,0,0,0,.51,0,1.06,1.06,0,0,1,.74,1.06,1.08,1.08,0,0,1-1,.92h-.43"/><path class="cls-1" d="M119.32,158.47a4.37,4.37,0,0,1-.78-.13c-.12,0-.26-.27-.22-.33a.58.58,0,0,1,.37-.3c.32,0,.63.1.94.06s.33-.21.49-.33a3,3,0,0,0-.45-.39c-.12-.06-.28,0-.43,0a.9.9,0,0,1-.84-.84.84.84,0,0,1,.72-.95,5.11,5.11,0,0,1,1.35.08c.08,0,.19.25.15.31a.59.59,0,0,1-.35.25c-.31,0-.62-.08-.94-.06-.11,0-.23.22-.32.33a2,2,0,0,0,.32.28.94.94,0,0,0,.34,0,.93.93,0,0,1,1,1,1,1,0,0,1-1,1h-.33"/><path class="cls-1" d="M96.89,158.4c-1,.15-1.29-.08-1.29-1.08v-1.56l-.45-.1c-.15-.42,0-.62.37-.58.26-.29-.21-.88.4-.92s.17.65.44.9c.61.08.61.08.57.57l-.62.06v2c.37.06.85,0,.58.69"/><path class="cls-1" d="M158.61,155.08c.28-.31-.21-.91.43-.91s.13.62.49.93c.17,0,.72-.16.49.53-.16,0-.37,0-.59,0v2.06c.47,0,.8.08.59.69a5.8,5.8,0,0,1-.59,0,.7.7,0,0,1-.68-.8v-1.88c-.18,0-.32-.05-.45-.07-.2-.4-.08-.61.31-.59"/><path class="cls-1" d="M172.42,155.14c.15,0,.29-.06.37-.06.25-.29-.24-.92.43-.92s.12.65.41.92l.54,0c0,.16,0,.31,0,.51l-.68.05c0,.61,0,1.23,0,1.84,0,.14.35.23.6.41v.44c-1.07.26-1.34-.27-1.32-1,0-.48,0-1,0-1.48,0,0,0-.06,0-.12l-.43-.09a1.91,1.91,0,0,0,0-.51"/><path class="cls-1" d="M146,153.77h.53a4.55,4.55,0,0,1,0,.52v2.87c0,.29-.08.64.37.76.08,0,.15.25.12.37s-.2.17-.31.17c-.53.05-.79-.15-.81-.64,0-1.29,0-2.57,0-3.86,0-.06,0-.1.06-.18"/><path class="cls-1" d="M49.17,153.77h.58V157c0,.33-.09.72.41.84.07,0,.14.25.1.37a.38.38,0,0,1-.31.18c-.54,0-.76-.18-.76-.71,0-1.28,0-2.59,0-3.94"/><path class="cls-1" d="M51,153.77h.57v3.4c0,.31,0,.6.37.72.08,0,.14.27.12.41s-.18.13-.29.15c-.4.05-.77,0-.79-.48,0-1.41,0-2.79,0-4.2"/><path class="cls-1" d="M103.07,155.2c.06.39,0,.58-.41.56s-.68.16-.64.69,0,1.3,0,2h-.66v-2.87a.26.26,0,0,1,.15-.19,2.27,2.27,0,0,1,1.54-.16"/><path class="cls-1" d="M140.51,158.43h-.66v-1.22c0-.43,0-.86,0-1.29s.12-.63.53-.68.78-.08,1.17-.12c.11.45.06.66-.39.66s-.66.16-.63.67,0,1.28,0,2"/><path class="cls-1" d="M170.16,155.1c.06.45,0,.68-.39.68s-.69.18-.63.7,0,1.27,0,1.9c-.62.15-.66.12-.66-.45,0-.72,0-1.42,0-2.15,0-.27.08-.43.35-.49s.86-.13,1.31-.19"/><path class="cls-1" d="M107.48,158.42v-2.81a.68.68,0,0,1,0-.2,2.12,2.12,0,0,1,1.58-.21.37.37,0,0,1,.1.29.45.45,0,0,1-.22.25.89.89,0,0,1-.33,0c-.33,0-.53.18-.49.59,0,.64,0,1.31,0,2a.31.31,0,0,1-.06.12Z"/><path class="cls-1" d="M171.52,155.22v3.19h-.61v-2.8c0-.51.06-.55.61-.39"/><path class="cls-1" d="M110.5,158.43h-.58v-3.21c.54-.16.58-.12.58.41Z"/><path class="cls-1" d="M74.76,155.16h.52v3.26h-.52Z"/><path class="cls-1" d="M110.29,153.79c.1.2.31.39.27.55s-.29.29-.45.45c-.11-.18-.31-.35-.33-.53s.19-.31.31-.48h.2"/><path class="cls-1" d="M74.44,154.32c.3-.21.49-.47.63-.45a.67.67,0,0,1,.41.47c0,.14-.23.41-.39.43s-.35-.21-.65-.45"/><path class="cls-1" d="M171.83,154.28c-.29.24-.47.51-.6.49a.62.62,0,0,1-.41-.45c0-.14.21-.41.37-.43s.35.2.64.39"/><path class="cls-2" d="M150.58,99.74c0,2.05,0,4,0,6a5.56,5.56,0,0,0,4.37,5.31.73.73,0,0,0,.72-.24q4.76-4.78,9.57-9.57l.47-.45v1c0,1.26,0,2.55,0,3.82a5.52,5.52,0,0,0,4.15,5.36.83.83,0,0,0,1-.25c.93-1,1.91-1.93,2.88-2.89a.64.64,0,0,0,.18-.76,7.16,7.16,0,0,0-3.06-3.72c-1.33-.88-2.71-1.66-4.06-2.5A5.82,5.82,0,0,1,164,96.89a9.16,9.16,0,0,1-.15-1.27c0-2.24,0-4.46,0-6.71a1.12,1.12,0,0,1,.29-.68c.41-.51.86-1,1.29-1.46l.15.12c0,.56.1,1.11.14,1.67a9.38,9.38,0,0,0,4.1,7.1c1.28.9,2.63,1.74,4,2.54a7.1,7.1,0,0,1,3.49,4.91,7.31,7.31,0,0,1,.1,1.33.87.87,0,0,1-.23.54l-10.2,10.18c-.35.35-.72.14-1,.08a5.68,5.68,0,0,1-4.51-4.6,12.84,12.84,0,0,1,0-2.15v-2.81l-.43.4c-2.92,2.92-5.87,5.83-8.76,8.77a1.29,1.29,0,0,1-1.42.41,6,6,0,0,1-4.27-3.71c-.74.76-1.46,1.52-2.2,2.27-.45.43-.9.85-1.37,1.27a.94.94,0,0,1-.52.27,14,14,0,0,1-4-.27,4.41,4.41,0,0,1-3.3-3.12c0-.1-.07-.2.06-.12l-2.28,2a15.62,15.62,0,0,1-1.42,1.28,1.39,1.39,0,0,1-1,.22,5.7,5.7,0,0,1-4.52-3.65s-.06-.07,0,0l-3.51,3.42c-.51.48-1.08.29-1.6.15a5.77,5.77,0,0,1-4.06-3.63c-.66.69-1.33,1.39-2,2.05-.5.51-1,1-1.56,1.47a.75.75,0,0,1-.45.23,11.54,11.54,0,0,1-4.42-.35,4.36,4.36,0,0,1-3.08-3.75c0-.21-.08-.41-.16-.74-.76.78-1.46,1.52-2.18,2.24a11,11,0,0,1-5.37,3.13,11.11,11.11,0,0,1-2.48.33q-25.73,0-51.5,0a13.83,13.83,0,0,1-3.68-.28,4.56,4.56,0,0,1-3.47-4.77c0-.14,0-.32.11-.4,1.35-1.38,2.71-2.75,4.12-4.15.1.63.17,1.15.25,1.7a2.67,2.67,0,0,0,1.64,2.06,14.45,14.45,0,0,0,3.88,1.16,40.4,40.4,0,0,0,7.37.48q24.36,0,48.73,0a1.21,1.21,0,0,0,1-.4q6.7-6.76,13.4-13.48a3.58,3.58,0,0,0,.35-.51.88.88,0,0,1-.23,1c-2.31,2.29-4.57,4.61-6.91,6.85a1.66,1.66,0,0,0-.52,1.76,4.41,4.41,0,0,0,4.13,3.64c1,.14,1.93.16,2.85.21,0-2.65.05-5.22,0-7.79a3.3,3.3,0,0,1,1.23-2.93c1-.8,1.79-1.75,2.69-2.65a4.72,4.72,0,0,1,.43-.39v8.41a5.54,5.54,0,0,0,4.54,5.24,1.2,1.2,0,0,0,.27,0V104.2a1.06,1.06,0,0,1,.33-.8l4-3.9a4.7,4.7,0,0,1,0,.51c0,1.76,0,3.51,0,5.27a5.52,5.52,0,0,0,4.23,5.55c.22.06.43.1.72.16,0-.43-.05-.84-.05-1.25v-7.86a.81.81,0,0,1,.19-.54c1.29-1.31,2.6-2.6,3.9-3.88a1.49,1.49,0,0,1,.24-.14v.58c0,2.81,0,5.62,0,8.43a4.37,4.37,0,0,0,3.8,4.47c1.09.17,2.2.19,3.22.27v-6.92a.47.47,0,0,1,.15-.37c1.31-1.33,2.61-2.66,3.94-4l.16-.06"/><path class="cls-3" d="M40.12,58.59V40.3h.57c3.16,0,6.32-.06,9.47,0a12.45,12.45,0,0,1,8.06,3.12A12.9,12.9,0,0,1,62.62,51a12.36,12.36,0,0,1,.22,1.7.54.54,0,0,1-.13.37q-2,1.94-3.94,3.86s-.06,0-.14,0V54.79A11,11,0,0,0,58,50.24a8.48,8.48,0,0,0-7.22-5.59,61.61,61.61,0,0,0-6.38,0V58.49H57.09a2.27,2.27,0,0,1-.27.35c-1.27,1.25-2.56,2.52-3.85,3.75a1.09,1.09,0,0,1-.64.21c-3.73,0-7.43,0-11.15,0h-.65V88.37a1.09,1.09,0,0,1-.35.84c-1.25,1.26-2.46,2.53-3.68,3.82l-.18-.12v-30c-3.06-.25-5.93,0-8.13,2.38a7.2,7.2,0,0,0-2,5c0,7.7,0,15.41,0,23.13,0,.12,0,.21,0,.39h9.36L34.29,95c-.93.91-1.85,1.85-2.79,2.77A.73.73,0,0,1,31,98c-2.94,0-5.86,0-8.81,0L22,98c0-.17,0-.33,0-.48V70.64a11.79,11.79,0,0,1,9-11.62,13,13,0,0,1,2.63-.35c2-.06,3.92,0,5.89,0a2.39,2.39,0,0,1,.66-.06"/><path class="cls-3" d="M36.59,135.25v-5.91a6.29,6.29,0,0,1,.08-2.09c.25-.6.92-1,1.4-1.54.71-.72,1.49-1.38,2.11-2.14a1.85,1.85,0,0,1,2-.63,16.53,16.53,0,0,1,1.91.65,1,1,0,0,0,.53,0A13.09,13.09,0,0,1,49,122.9a4.37,4.37,0,0,1,4.48,3.75,7.29,7.29,0,0,1,.18,1.46c.06,2.21.07,4.41.12,6.59,0,.28-.05.47-.37.47H51.43v-.57c0-2,0-4,0-6.08a7.83,7.83,0,0,0-.15-1.52,2,2,0,0,0-2.4-1.85,17.29,17.29,0,0,0-2.22.41c-.31.06-.4.23-.4.52,0,2.83,0,5.66,0,8.47,0,.5-.2.66-.61.68s-1.09,0-1.71,0v-7.1a6.2,6.2,0,0,0-.12-1.13,2.09,2.09,0,0,0-2.42-1.85,16.49,16.49,0,0,0-2.15.39c-.33.06-.41.25-.41.58,0,2.83,0,5.66,0,8.47,0,.43-.11.62-.54.64s-1.11,0-1.76,0"/><path class="cls-2" d="M109.49,81.82V103a1,1,0,0,1-.33.78c-1.31,1.21-2.6,2.46-4,3.77,0-.24,0-.39,0-.55q0-10.32,0-20.63a1.1,1.1,0,0,1,.29-.7q1.94-2,3.9-3.94a.2.2,0,0,0,.1.08"/><path class="cls-3" d="M114.46,117.74v5.61c.57-.13,1.09-.27,1.62-.37a5.53,5.53,0,0,1,6.59,4.78c.18,1.64.08,3.31.1,5,0,.65,0,1.27,0,1.91,0,.37-.14.53-.49.53s-.92,0-1.38,0-.45-.14-.45-.49c0-2,0-4.11,0-6.16a3.18,3.18,0,0,0-2.25-3.24,3.66,3.66,0,0,0-3.31.47.89.89,0,0,0-.43.82c0,2.67,0,5.32,0,8,0,.41-.1.64-.55.6s-1,0-1.42,0c-.25,0-.37-.12-.35-.39V120.31a1,1,0,0,1,.33-.8c.49-.47,1-1,1.44-1.46a3.11,3.11,0,0,0,.51-.31"/><path class="cls-3" d="M137.8,134.9a6.61,6.61,0,0,1-4.64,0,5.45,5.45,0,0,1-3.43-5.19c0-.6.06-1.21,0-1.81a1.25,1.25,0,0,1,.43-1c1.09-1.09,2.2-2.18,3.24-3.32a2,2,0,0,1,1.53-.68,12.87,12.87,0,0,1,5,.8c.23.1.35.2.35.47,0,3.53,0,7,0,10.57,0,.37-.16.49-.47.51a8.66,8.66,0,0,1-1.44,0c-.16,0-.31-.2-.61-.37m.28-6c0-.94,0-1.89,0-2.83a.47.47,0,0,0-.39-.54c-.57-.12-1.11-.29-1.66-.39a3.25,3.25,0,0,0-3.78,2.16,7.8,7.8,0,0,0-.06,3.26c.58,2.75,4.13,3,5.67,1.6a.79.79,0,0,0,.2-.51c0-.9,0-1.82,0-2.75"/><path class="cls-3" d="M160.17,134.88a6.61,6.61,0,0,1-4.56,0,5.38,5.38,0,0,1-3.49-5,7.41,7.41,0,0,1,.13-2.46c.28-.7,1-1.21,1.58-1.79s1.35-1.31,1.95-2a1.93,1.93,0,0,1,1.54-.69,13.44,13.44,0,0,1,5.06.82.44.44,0,0,1,.33.49c0,3.53-.06,7.08-.06,10.61a.37.37,0,0,1-.37.43,10.4,10.4,0,0,1-1.58,0c-.18,0-.31-.2-.53-.37m.26-6c0-.94,0-1.89,0-2.83a.44.44,0,0,0-.38-.5c-.56-.14-1.13-.3-1.71-.41a3.25,3.25,0,0,0-3.81,2.2,7.8,7.8,0,0,0-.07,3.08c.39,2.09,2.22,2.85,4.25,2.48a4.82,4.82,0,0,0,1.42-.7.74.74,0,0,0,.26-.55c.05-.92,0-1.83,0-2.77"/><path class="cls-2" d="M73.12,101.76c-.66,1.72-2,2.66-3.42,3.63-1.51-1.25-3-2.47-4.56-3.7.1-.12.18-.24.27-.33,1.14-1.12,2.29-2.23,3.42-3.36a.47.47,0,0,1,.64-.08,9.67,9.67,0,0,1,3.14,2.34c.23.3.37.65.65,1.12l3.45-3.83A10.85,10.85,0,0,1,80.27,100a1.89,1.89,0,0,1,.24,2.52,8.65,8.65,0,0,1-2.85,2.63.49.49,0,0,1-.43-.08c-1.22-1-2.44-2-3.66-3-.14-.12-.3-.2-.45-.32"/><path class="cls-3" d="M72.1,129.11a6.1,6.1,0,0,1-.83,3.6,5.82,5.82,0,0,1-10.36-1.24,10.1,10.1,0,0,1-.21-3.59,1.11,1.11,0,0,1,.35-.65c1.26-1.3,2.53-2.59,3.84-3.88a1.64,1.64,0,0,1,.82-.41,5.53,5.53,0,0,1,6.2,4.08,14.63,14.63,0,0,1,.19,2.09m-2.28,0a9.21,9.21,0,0,0-.13-1.56,3.23,3.23,0,0,0-3.57-2.41,3,3,0,0,0-3,2.26,8.76,8.76,0,0,0-.07,3,3.46,3.46,0,0,0,6.65.18,10.2,10.2,0,0,0,.13-1.49"/><path class="cls-3" d="M104.92,123.76c-.54.57-1.09,1.12-1.65,1.66a.63.63,0,0,1-.39,0,5.55,5.55,0,0,0-3,0,1.55,1.55,0,0,0-.83.7c-.41.8.15,1.54,1.13,1.58a14.93,14.93,0,0,1,2.32.2,3.51,3.51,0,0,1,2.94,3.72,3.71,3.71,0,0,1-3,3.55,11.22,11.22,0,0,1-4.82-.25c-.39-.08-.78-.2-1.26-.32.58-.62,1.09-1.22,1.63-1.75.12-.12.41-.08.63,0a8.84,8.84,0,0,0,3.12.16,1.49,1.49,0,0,0,1.34-2,1,1,0,0,0-.84-.82c-.81-.14-1.63-.24-2.45-.3a3.37,3.37,0,0,1-2.58-5.24,3.9,3.9,0,0,1,2.7-1.64,9,9,0,0,1,5,.6,1,1,0,0,1,.15.12"/><path class="cls-3" d="M172.77,122.92h3.66c-.37.67-.72,1.27-1.07,1.86a.59.59,0,0,1-.41.15c-.7,0-1.4,0-2.14,0,0,.18,0,.34,0,.49v6.26c0,1,.29,1.27,1.28,1.29h1c-.14.17-.2.27-.27.35-.36.35-.69.72-1.06,1s-.48.82-1,.7a2.37,2.37,0,0,1-1.75-1.11,3.93,3.93,0,0,1-.4-2.13c0-2.08,0-4.16,0-6.25v-.63H167.8c.33-.68.62-1.28.93-1.89.06-.1.27-.13.41-.13.45,0,.92,0,1.42,0,0-.75,0-1.43,0-2.09a1.06,1.06,0,0,1,.27-.67c.62-.64,1.3-1.24,2-1.89-.06,1.52-.06,3.07-.06,4.66"/><path class="cls-2" d="M115.22,73.14a2.55,2.55,0,0,1-.35.7c-1.44,1.46-2.93,2.89-4.37,4.37a.7.7,0,0,1-.84.19L102.35,76a.56.56,0,0,0-.68.16c-.61.68-1.23,1.31-1.89,2a.81.81,0,0,1,.27-.95c1.4-1.39,2.81-2.8,4.19-4.2a.57.57,0,0,1,.7-.15c2.44.84,4.9,1.65,7.34,2.51a.49.49,0,0,0,.64-.15c.57-.63,1.17-1.21,1.77-1.82a2.5,2.5,0,0,1,.34-.31.36.36,0,0,1,.19.08"/><path class="cls-2" d="M123.35,86.71c.24-.27.47-.55.73-.8L127,83.08c.19-.19.35-.27.6-.1a29.32,29.32,0,0,1,2.68,1.82c1.32,1.13,1.38,2.2.21,3.47a19,19,0,0,1-2.36,2,.53.53,0,0,1-.49,0l-4.19-3.39a.41.41,0,0,0-.1-.18"/><path class="cls-2" d="M129.42,94.16l3.84-3.73a.35.35,0,0,1,.35-.05,10.15,10.15,0,0,1,3,2,2,2,0,0,1,0,3.26c-.7.76-1.58,1.37-2.36,2.07-.19.17-.35.11-.54,0-1.39-1.17-2.81-2.34-4.31-3.57"/><path class="cls-2" d="M144.65,94.16c1.3-1.27,2.57-2.5,3.86-3.73a.35.35,0,0,1,.35-.05,23.79,23.79,0,0,1,3,2c1.15,1,1.17,2,.12,3.19-.78.86-1.71,1.58-2.59,2.38-1.6-1.31-3.12-2.51-4.7-3.82"/><path class="cls-2" d="M119.41,94.28c1.29-1.39,2.54-2.74,3.77-4a11.86,11.86,0,0,1,3.29,2.15,2.07,2.07,0,0,1,.24,3.12,10.79,10.79,0,0,1-2.83,2.39c-1.5-1.23-3-2.45-4.47-3.62"/><path class="cls-3" d="M81.54,125.69c.84-.87,1.7-1.77,2.56-2.65a.63.63,0,0,1,.43-.12,5.45,5.45,0,0,1,5.16,4.45,10.77,10.77,0,0,1,.1,1.13c0,2.05.06,4.12.1,6.16,0,.34-.08.53-.43.53H87.59v-6.71a3.22,3.22,0,0,0-3-3.31,7.2,7.2,0,0,0-2.88.46c-.1,0-.16,0-.2.06"/><path class="cls-1" d="M107.71,144.86h.61v4.29h5v-2.06h.61v1.15c0,.78.29,1,1.11.91v-2.06h.58v1.17c0,.8.21,1,1.05.89,0-.68,0-1.38,0-2.08,0-.41.12-.59.61-.43v1.75c0,.63.11.74.74.78.19,0,.41,0,.68,0v-2.55h.64v1.67c0,.77.08.84.82.88h.51c0-.43,0-.84,0-1.25a1.45,1.45,0,0,1,1-1.32,1.53,1.53,0,0,1,1.65.47,1.72,1.72,0,0,1,.18,1.71,3.79,3.79,0,0,1-.24.39h2.85v-4.29l.61,0v3.61c0,.62.25.82.86.76.23,0,.46,0,.74,0V144.9h.56v4.89l-2.16-.09c-.74,0-1.48,0-2.21.06s-1.54,0-2.3,0a17.65,17.65,0,0,1-2.3,0c-.72-.1-1.44.21-2.13,0s-1.46.35-2-.14a2,2,0,0,1-.43.16c-.41,0-.8-.12-1.21-.14-.14,0-.27.14-.41.14h-6c0-1.68,0-3.28,0-4.92m13.56,3.43s-.06,0-.1,0c.14.27.21.65.43.8s1,0,1.23-.27a1.34,1.34,0,0,0,.11-1.42.79.79,0,0,0-1-.37,1.16,1.16,0,0,0-.72,1.17Z"/><path class="cls-1" d="M170.31,149.23h.92a18,18,0,0,0,0-2.08,1.31,1.31,0,0,0-1.4-1.06c-.39,0-.79.08-1.19.06a.4.4,0,0,1-.32-.24.38.38,0,0,1,.2-.29,3.31,3.31,0,0,1,2.24.12,1.89,1.89,0,0,1,1.09,1.72c0,.58,0,1.17,0,1.73h3.67v-4.31h.62v4.82a1.35,1.35,0,0,1-.29,0c-2.69,0-5.38.06-8.07.06-.35,0-.7-.12-1.08-.16-.09,0-.21.1-.33.1a7,7,0,0,1-1.71,0c-.32-.08-.55.08-.82.06-1.13,0-2.26,0-3.39,0-.84,0-1.68.06-2.54.06a3.73,3.73,0,0,1-.94-.12,1.35,1.35,0,0,1-1-1.6,1.53,1.53,0,0,1,1.35-1.4c.44,0,.91,0,1.42,0v2.53h4.87v-2.59h.59v1.58c0,.86.1.95.94,1h.66v-2.57h.66v1.67c0,.78,0,.8.8.94.25,0,.51,0,.84.06a1.34,1.34,0,0,1-.1-1.74c.59-.74,1.46-.54,2.32-.56,0,.7,0,1.44,0,2.22m-12.15-2.07c-.58-.07-1.17,0-1.42.53a1.43,1.43,0,0,0,0,1.15c.29.53.88.29,1.4.33Zm11.55.3c-1,0-1.43.27-1.43.89s.47.92,1.39.8c0-.07,0-.17,0-.27,0-.47,0-.92,0-1.42"/><path class="cls-1" d="M81.84,149.17V146.6h.58v1.66c0,.77.1.91.9.91,1.44,0,2.88,0,4.35,0a1,1,0,0,0,.25,0c-.29-.48-.57-1-.84-1.44a.62.62,0,0,1,.27-.92,2.71,2.71,0,0,1,2.46-.21c.35.14.39.35.33.68A3.08,3.08,0,0,1,89,149.11h2.17c0-.6,0-1.22,0-1.85,0-.45.15-.56.58-.43l.06.82-.12-.15c.32-.22.61-.45.92-.67A1.46,1.46,0,0,1,95,147.9c.14,1.25.14,1.25,1.38,1.25h1.25v-4.33h.57v4.84a2.88,2.88,0,0,1-.41,0c-.88,0-1.76-.08-2.64-.1-.13,0-.25.18-.38.18a17.81,17.81,0,0,1-2.31,0,11.07,11.07,0,0,0-1.15-.06,5.76,5.76,0,0,1-2.73-.23.15.15,0,0,0-.13,0,5.44,5.44,0,0,1-2.5.25c-.86,0-1.72,0-2.57,0-1.1,0-2.19,0-3.28,0a4.4,4.4,0,0,1-.82-.14c0,.63,0,1.33-.78,1.62a1.28,1.28,0,0,1-1.32-.23,4.18,4.18,0,0,0,.23-.36c.06,0,.1,0,.12,0,.76.29,1.13,0,1.15-.8v-3.24l.56,0v1.77c0,.69.12.8.8.84s1.15,0,1.82,0m12.61,0c0-.39,0-.72,0-1s-.13-.78-.54-.94a1.15,1.15,0,0,0-1.29.24,5,5,0,0,0-.72,1c-.24.41-.06.74.41.76.68,0,1.38,0,2.14,0m-5-2.06a1.73,1.73,0,0,0-1.72.13c-.09.06-.17.29-.11.37.23.41.51.8.76,1.21a2.1,2.1,0,0,0,1.07-1.71"/><path class="cls-1" d="M38.25,146.67v2.54H43v-4.33a5.43,5.43,0,0,1,.56,0v3l.33-.46a1.83,1.83,0,0,1,1.53-.84A1.32,1.32,0,0,1,46.87,148c0,1.41.27,1.29,1.38,1.23a.81.81,0,0,0,.24-.06v-2c.49-.15.64,0,.6.45,0,.26,0,.51,0,.76,0,.74.24.94,1.06.82v-2a5,5,0,0,1,.58,0v1.26c0,.73.35,1,1.13.82v-2.51h.55v3.16c-.45,0-.92-.08-1.37-.1-.25,0-.5.08-.76.06s-.7-.16-1.05-.16c-.51,0-1,.12-1.5.18,0,0-.06,0-.1,0-.51-.22-1,0-1.48,0s-1.09,0-1.62,0a3.59,3.59,0,0,1-.8-.21,1.27,1.27,0,0,1-.43.14c-1.09,0-2.16,0-3.26,0-.85,0-1.71.05-2.57.05a3.72,3.72,0,0,1-.94-.11,1.36,1.36,0,0,1-1-1.66,1.54,1.54,0,0,1,1.33-1.35,12.68,12.68,0,0,1,1.4,0m8,2.5v-.95a1,1,0,0,0-.5-1,1.11,1.11,0,0,0-1.25.16,4.87,4.87,0,0,0-.82,1.09.44.44,0,0,0,.37.7c.72,0,1.44,0,2.2,0m-8.62-2a1.33,1.33,0,0,0-1.4.49,1.36,1.36,0,0,0,0,1.27c.39.43.9.25,1.38.25,0-.7,0-1.34,0-2"/><path class="cls-1" d="M56,149.74c-.3,1.52-1.56,2.06-2.72,1.17l.26-.37c1.3.39,1.89.13,1.81-.8h-.6a1.25,1.25,0,0,1-1.38-.86,1.72,1.72,0,0,1,.44-1.87,2.75,2.75,0,0,1,1.95-.41c.08,0,.18.23.18.35,0,.72,0,1.46,0,2.2h2.38v-2.57l.6,0v1.73c0,.71.14.84.82.86s1.13,0,1.66,0c0-.43,0-.84,0-1.24A1.42,1.42,0,0,1,63,146.54,1.3,1.3,0,0,1,64.34,148a8.23,8.23,0,0,1-.21,1.15h1.58v-4.27h.62v4.86H63.74c-.88,0-1.76,0-2.64,0s-1.65,0-2.47,0-1.72,0-2.63,0m6.63-.55c.83,0,1.11-.31,1.17-1.15a.87.87,0,0,0-.88-1c-.57,0-.94.52-.94,1.3s.16.84.65.84m-7.26,0v-2c-1-.06-1.44.33-1.42,1.16s.33.94,1.42.84"/><path class="cls-3" d="M81.52,125.69a3.73,3.73,0,0,1,0,.47c0,2.83,0,5.64,0,8.47,0,.42-.15.62-.54.62a12.07,12.07,0,0,1-1.47-.08.5.5,0,0,1-.31-.35c0-2.22,0-4.43,0-6.65a.53.53,0,0,1,.12-.35c.7-.7,1.42-1.4,2.14-2.13h0"/><path class="cls-1" d="M151.69,149.74c-1.21,0-2.4.07-3.57,0a6.75,6.75,0,0,0-1.68,0c-1.19.11-2.38,0-3.6,0v-4.86h.54v4.27h3.4a7.81,7.81,0,0,1-.69-.91c-.55-1-.62-1.27.72-1.76a2.38,2.38,0,0,1,1.76.1c.29.11.39.27.33.62a3.32,3.32,0,0,1-1.15,2h3.35v-4.27h.57c0,1.58,0,3.18,0,4.86m-3.41-2.62a1.71,1.71,0,0,0-1.45,0c-.54.23-.6.36-.27.87a6.4,6.4,0,0,0,.66.84,2.24,2.24,0,0,0,1.06-1.68"/><path class="cls-1" d="M134.29,146.67v2.54H139a10.32,10.32,0,0,1,0-1.48,1.33,1.33,0,0,1,1.31-1.17,1.36,1.36,0,0,1,1.52.88,1.61,1.61,0,0,1-.51,1.93,2.15,2.15,0,0,1-1.05.35c-1.42,0-2.83,0-4.25,0-.84,0-1.68.06-2.52.06a3.59,3.59,0,0,1-.93-.12,1.38,1.38,0,0,1-1-1.64,1.51,1.51,0,0,1,1.3-1.37c.47,0,.94,0,1.46,0m5.17,1.61c0,.66.16.91.57.91.78,0,1.25-.41,1.26-1.11a.93.93,0,0,0-.86-1c-.56,0-1,.51-1,1.22m-5.75-1.12c-.59,0-1.17,0-1.39.53a1.63,1.63,0,0,0,0,1.19c.28.51.86.27,1.37.29,0-.68,0-1.32,0-2"/><path class="cls-3" d="M148.33,122.34c0,.92.1,1.77.12,2.61a.67.67,0,0,1-.13.3c-1.1,1.18-2.21,2.37-3.4,3.68a15.29,15.29,0,0,0,0-1.93,2.27,2.27,0,0,1,.9-2.18c.76-.65,1.42-1.41,2.14-2.11.12-.12.22-.22.39-.37"/><path class="cls-1" d="M71.58,146.54c0,1.29,0,2.48,0,3.65a1.13,1.13,0,0,1-1.15,1.05,1.75,1.75,0,0,1-1.44-.35l.25-.39c1.28.41,1.83.17,1.83-.8h-.56A1.33,1.33,0,0,1,69,148.37a1.59,1.59,0,0,1,1.23-1.73l1.35-.1m-.51.62a1.23,1.23,0,0,0-1.31.49,1.1,1.1,0,0,0,0,1.25c.34.43.82.27,1.27.25,0-.68,0-1.32,0-2"/><path class="cls-1" d="M75.73,149.84a1.44,1.44,0,0,1-1.56-1.49,1.57,1.57,0,1,1,3.12,0,1.4,1.4,0,0,1-1.56,1.5m-.9-1.56c0,.68.26,1,.88,1a.86.86,0,0,0,.94-1c0-.71-.39-1.19-.9-1.21s-.92.5-.92,1.23"/><path class="cls-1" d="M103.19,147.57c0,.28,0,.53,0,.8,0,.63.21.88.84.88h2.06V146.6h.55v3.12c-1,0-2.11,0-3.16,0-.7,0-1-.9-.87-1.78.07-.37.25-.46.62-.35"/><rect class="cls-1" x="99.29" y="144.86" width="0.61" height="4.84"/><rect class="cls-1" x="152.8" y="144.86" width="0.61" height="4.86"/><path class="cls-1" d="M177.21,144.86h.59v4.84l-.59,0Z"/><rect class="cls-1" x="67.48" y="144.86" width="0.52" height="4.84"/><path class="cls-1" d="M106.93,144.55c.18-.64.43-.82.9-.62s.6.27.9,0c0,0,.11,0,.17,0,0,.58-.31.76-.82.58-.31-.11-.62-.37-.89.08a1,1,0,0,1-.26,0"/><path class="cls-1" d="M164.48,145.88c-.35.39-.84.09-1.25.39a3.36,3.36,0,0,1,.14-1.09c.1-.18.45-.26.7-.34.08,0,.2.16.35.3-.35.15-.8-.08-.76.4s.55.08.82.34"/><path class="cls-1" d="M83.12,150.34c-.25.16-.43.35-.54.31s-.26-.25-.38-.39c.14-.11.28-.29.42-.29s.27.2.5.37"/><path class="cls-1" d="M167.06,150.28c-.24.18-.4.39-.49.37s-.28-.23-.39-.35c.11-.11.23-.31.37-.33s.25.16.51.31"/><path class="cls-1" d="M81.48,150.73c-.07-.13-.23-.31-.21-.43s.21-.23.33-.35c.1.14.28.25.29.39s-.15.28-.23.41l-.18,0"/><path class="cls-1" d="M166.08,150.32c-.27.18-.41.36-.53.33a.52.52,0,0,1-.31-.35.5.5,0,0,1,.31-.35c.12,0,.26.2.53.37"/><path class="cls-1" d="M158.59,145.64c-.27.18-.41.35-.54.33s-.26-.19-.39-.29c.11-.11.21-.31.35-.33s.29.14.58.29"/><path class="cls-1" d="M58.51,145.74c-.13.08-.27.25-.41.23s-.25-.19-.39-.29c.12-.12.24-.31.37-.33s.28.14.43.2Z"/><path class="cls-1" d="M134.16,145.64c-.28.18-.41.33-.55.33s-.25-.19-.37-.29c.12-.11.21-.31.35-.33s.28.14.57.29"/><path class="cls-1" d="M105.24,145.14c.15.27.33.43.29.54s-.23.31-.37.29a.46.46,0,0,1-.33-.33c0-.12.21-.25.41-.5"/><path class="cls-1" d="M37,145.72c-.13.1-.27.25-.41.25s-.27-.17-.39-.29c.12-.12.22-.31.36-.33s.29.12.42.19a.55.55,0,0,0,0,.18"/><path class="cls-1" d="M104.59,145.74c-.13.08-.27.25-.39.23s-.23-.19-.37-.29c.12-.12.22-.31.35-.33s.28.14.41.21Z"/><path class="cls-1" d="M76.63,145.78c-.14.08-.29.21-.41.19s-.22-.21-.33-.33c.11-.12.23-.29.37-.31s.25.16.39.23a.82.82,0,0,0,0,.22"/><path class="cls-1" d="M75.34,145.25c.08.14.25.27.24.39s-.2.33-.32.33a.51.51,0,0,1-.35-.31c0-.12.14-.27.24-.41a.61.61,0,0,0,.19,0"/><path class="cls-1" d="M59,146.05c-.08-.14-.23-.27-.22-.39s.22-.23.32-.35c.11.12.29.21.31.35s-.14.25-.22.39Z"/><path class="cls-1" d="M88.64,145.06c.08.13.25.29.24.39s-.22.25-.36.37c-.11-.12-.29-.23-.31-.37s.16-.28.24-.41a.65.65,0,0,0,.19,0"/><path class="cls-1" d="M37.43,146.05c-.08-.14-.23-.27-.21-.39s.21-.23.31-.35c.12.12.29.21.31.35s-.14.25-.21.39Z"/><path class="cls-1" d="M156.91,146.05c-.07-.14-.23-.27-.19-.39s.21-.23.33-.33c.12.12.29.21.31.35s-.14.26-.23.39a.82.82,0,0,0-.22,0"/><path class="cls-1" d="M132.5,146.05c-.08-.14-.23-.29-.2-.41a.46.46,0,0,1,.34-.31.43.43,0,0,1,.29.33c0,.12-.16.25-.24.39Z"/><path class="cls-1" d="M118.91,146.05c-.08-.14-.22-.29-.2-.41s.22-.21.33-.33c.12.12.3.23.3.35s-.16.25-.24.39Z"/><path class="cls-1" d="M115.75,145c-.22.17-.33.35-.45.35a.46.46,0,0,1-.33-.29c0-.1.17-.3.29-.31s.27.11.49.25"/><path class="cls-1" d="M116.16,145.8c-.12.06-.26.19-.37.17s-.3-.21-.28-.27a.47.47,0,0,1,.29-.31c.1,0,.24.16.36.23Z"/><path class="cls-1" d="M114.79,145.21c.14.24.29.38.26.47a.54.54,0,0,1-.32.29s-.25-.19-.25-.27.16-.25.31-.49"/></svg>