<svg id="Layer_1" data-name="Layer 1" xmlns="http://www.w3.org/2000/svg" viewBox="0 0 200 200"><defs><style>.cls-1,.cls-3{fill:#0f1177;}.cls-1{fill-rule:evenodd;}.cls-2{fill:#ff7300;}</style></defs><path class="cls-1" d="M32.26,74.56a23.3,23.3,0,0,1,13.42,7C41.09,75.84,34.89,72,28.91,71.8c-9.68-.34-15.1,8.93-12.08,20.73a31.34,31.34,0,0,0,1.67,4.8,32.16,32.16,0,0,0,4,7.12,38.46,38.46,0,0,0,3.72,4.32,35.81,35.81,0,0,1-2.64-3.13C15.69,95,16.69,83.13,26.25,79.7c4.17-1.49,9.56-.84,14.58.83C36.09,77.22,30.35,75.16,24,77.32a10,10,0,0,0-5.35,4.18c2-5,6.41-7.81,13.63-6.94"/><path class="cls-2" d="M53.14,96.67h-.07c5.65,9.34,6.91,18.9,3.18,24-5.06,7-18.24,3.11-29.44-8.56-10.95-11.42-16-26.1-11.46-33.25-.1.13-.21.26-.3.39C9.64,86.72,15,102.86,27,115.35S53,131.93,58.42,124.5c4.28-5.87,1.84-17.19-5.28-27.83"/><path class="cls-2" d="M50.5,92.06c1.42,1.72,1.86,3.71,1,4.44s-2.76-.07-4.18-1.79-1.87-3.71-1-4.44,2.75.07,4.18,1.79"/><path class="cls-3" d="M72.74,95.21a1.13,1.13,0,0,1,.57.19l.52.34a8.64,8.64,0,0,0,.65-1.06.76.76,0,0,0-.3-.59,1,1,0,0,0-.65-.26,2.69,2.69,0,0,0-1.88.85,2.51,2.51,0,0,0-.89,1.84c0,.28.19.48.55.6l.88.23a3.53,3.53,0,0,0-.83.62,1.31,1.31,0,0,0-.46.86v.11a5.55,5.55,0,0,1,3.66-1.47c.33-.46.63-.9.89-1.31-2,0-3.15-.19-3.5-.58a1.52,1.52,0,0,1,.79-.37"/><path class="cls-3" d="M84,95.18a3.88,3.88,0,0,0-.32-1.49,3,3,0,0,0-.85-1.2l-.89,1.57a3.09,3.09,0,0,1,.6.8,2.07,2.07,0,0,1,.33.9s0,0,0,0H79.43c-.29,0-.45-.08-.49-.24a18.34,18.34,0,0,1-.33-2.66l-.18-2.76a5.41,5.41,0,0,0-.58.68,2.25,2.25,0,0,0-.45.7l.52,5.93H83.5c.3,0,.46-.76.46-2.28"/><path class="cls-3" d="M82.16,98.79a2.38,2.38,0,0,0-.64-.51,2.3,2.3,0,0,0-.62.51c-.35.33-.52.53-.52.59s.17.23.51.5a2.17,2.17,0,0,0,.64.43c.8-.45,1.19-.75,1.19-.91s-.18-.28-.56-.61"/><path class="cls-3" d="M93.17,95.09c-.32.12-.65.24-1,.38h-.11a7.23,7.23,0,0,1,1.5-1.58.87.87,0,0,1,0,.34.9.9,0,0,1-.47.86m.47,2.9h-.35a1.23,1.23,0,0,1-.76-.26A1.52,1.52,0,0,1,92,97.1a2.31,2.31,0,0,1,.92.21,1.32,1.32,0,0,1,.72.58V98m12.14-6.66c-.48-.29-.75-.5-.8-.63a1.66,1.66,0,0,1-.09-.5l-.1-.08a7.73,7.73,0,0,0-1.07,1.78,3.45,3.45,0,0,0,.46.47,8.37,8.37,0,0,1,.33,1.6,12.19,12.19,0,0,1,.2,1.69.28.28,0,0,1,0,.15h-1.14a2.31,2.31,0,0,1-.4,0,.26.26,0,0,1-.24-.24c0-.37-.12-1.27-.21-2.72a16,16,0,0,0-.37-2.71l-.06-.05-1.16,1.64.6,4.1H99.84c-.44,0-1-.43-1.82-1.28-.53-.62-1.08-1.24-1.61-1.85l3.44-.7a14.8,14.8,0,0,0,.44-1.63c-.12,0-1.63.29-4.53.92a12.14,12.14,0,0,0-.62,2.25l2.36,2.29H93.73l.5-1.19a3.79,3.79,0,0,0,.32-1.21v-.86a2.5,2.5,0,0,0-1.58.79,5.16,5.16,0,0,0-1.18,1.41c-.21.46-.37.81-.46,1.06h-.79a1.72,1.72,0,0,1-1.45-.66l-.91-1.37c-.08.1-.24.36-.49.76a3.06,3.06,0,0,0-.37.7,5,5,0,0,0,.44.6,1.77,1.77,0,0,1,.44.83c0,.36-.43.81-1.27,1.38a3.93,3.93,0,0,1-1.91.83,1.92,1.92,0,0,1-1-.3,2.41,2.41,0,0,1-.5-.31c-.06,0-.07,0-.07,0v.2a5.23,5.23,0,0,0,1.47,1,4.16,4.16,0,0,0,1.62.53,1.91,1.91,0,0,0,1.53-1l.94-1.66.08-.09a1.35,1.35,0,0,0,.59.18h1.11s.16.19.35.56a6.83,6.83,0,0,0,.65,1,1.28,1.28,0,0,0,.94.55c.83,0,1.47-.72,1.92-2.15h2.87l.62-1,1.1,1h1.9l.54-1,0,.58c0,.29.13.42.25.42h3.09a.64.64,0,0,0,.24-.15,3.08,3.08,0,0,0,.27-.9,3.47,3.47,0,0,0,.14-1l-.17-2,1.18-1.53a7,7,0,0,1-1-.53"/><path class="cls-3" d="M111.81,91a4.62,4.62,0,0,0,1.25.64c.06,0,.21-.15.46-.44a3.82,3.82,0,0,0,.44-.57L112.69,90l-.8.63a3,3,0,0,1-1.14-.63c-.5.55-.8.89-.89,1a5.58,5.58,0,0,0,1.25.65l.7-.61"/><path class="cls-3" d="M118.64,98.85q-.28.3-.39.3a3.52,3.52,0,0,1-1.07-.64,9.84,9.84,0,0,0-.82,1,6.46,6.46,0,0,0,1.15.73c.31-.32.53-.54.68-.68l1.14.68a4.26,4.26,0,0,0,.87-1L119,98.5a1.41,1.41,0,0,0-.37.35"/><path class="cls-3" d="M112.39,95a3.06,3.06,0,0,1,.57-.39,5.22,5.22,0,0,0,.69-.74l.27,1.33-1.53-.2m6.49-.85a6.55,6.55,0,0,1,.93,1.7h-3.89c-.39,0-.63-.12-.71-.35a16.59,16.59,0,0,1-.47-2.14c-.19-1.16-.34-1.93-.43-2.28l-.07-.05-.91,1.56a2.24,2.24,0,0,0,.15.46l-1.65.94a2.33,2.33,0,0,0-.85.86,8.26,8.26,0,0,0-.6,1.84l2.74.49q.19,0,.51-.51a3.14,3.14,0,0,1,.46-.71l.3,1a.82.82,0,0,0,.75.58h5.44a16,16,0,0,0,.34-2.37,4,4,0,0,0-1.18-2.47l-.86,1.48"/><path class="cls-3" d="M123.58,92.25,123.06,94a2.37,2.37,0,0,1,1.12.7c.44.42.67.77.67,1a.13.13,0,0,1,0,.06h-3l-.15,1.66h3.66c.33,0,.5-.58.5-1.75a3.56,3.56,0,0,0-2.3-3.47"/><path class="cls-3" d="M129.74,95.81a1,1,0,0,1-.91-.45.06.06,0,0,0,0-.06c0-.08,0-.18.19-.31s.24-.21.31-.21.3.13.44.38a5.65,5.65,0,0,1,.27.57.67.67,0,0,1-.3.08M147,91.33c-.48-.29-.75-.5-.8-.63a1.4,1.4,0,0,1-.09-.5l-.1-.08a7.73,7.73,0,0,0-1.07,1.78,3,3,0,0,0,.47.47,9.29,9.29,0,0,1,.33,1.6,14.07,14.07,0,0,1,.2,1.69.42.42,0,0,1,0,.15h-1.46c-.47,0-.7-.32-.7-1a2.1,2.1,0,0,0,0-.21c0-.1,0-.18,0-.23a2.78,2.78,0,0,0-.06-.64,3,3,0,0,0-.59.62,1.59,1.59,0,0,0-.4.69,1.16,1.16,0,0,0,0,.27,1.09,1.09,0,0,1,0,.26.34.34,0,0,1-.07.19,6.08,6.08,0,0,0-1.15,0,8.53,8.53,0,0,0,.25-2,.38.38,0,0,0,0-.17,5.1,5.1,0,0,0-.65.77,2,2,0,0,0-.45.84.82.82,0,0,1-.13.55h-1.34a7.17,7.17,0,0,0,.45-1.72l0-.39a2.35,2.35,0,0,0-.67.6,1.49,1.49,0,0,0-.44.71,1.69,1.69,0,0,1-.19.8H136.1c.11-.18.22-.36.31-.53a1.06,1.06,0,0,0,.2-.54,1.32,1.32,0,0,0-.66-1.09,2.26,2.26,0,0,0-1.26-.42,2.1,2.1,0,0,0-1.57.53,6.88,6.88,0,0,0-.79,1.45l.55-.06a1.43,1.43,0,0,1,1.19.66h-2.82q-.41-2.61-1.44-2.61c-.44,0-.88.43-1.33,1.27a4.31,4.31,0,0,0-.58,1.85.93.93,0,0,0,.76.92c.07,0,.5.11,1.31.25a6,6,0,0,1-1.33,1,3.5,3.5,0,0,1-1.56.47,3.39,3.39,0,0,1-.65-.12,2.79,2.79,0,0,0-.67-.12.21.21,0,0,0-.13,0v.15a3.06,3.06,0,0,0,1.26.77,4.17,4.17,0,0,0,1.47.31,2.29,2.29,0,0,0,1.6-.89,5.56,5.56,0,0,0,1-1.61h3.23c.22-.33.39-.58.49-.76.2.34.34.6.44.76h2.77a.47.47,0,0,0,.3-.18.91.91,0,0,1,.24-.23,1.07,1.07,0,0,1,.13.41h1.8s.08,0,.17-.13.14-.14.17-.14.17.09.31.27h2l.3-.42c.08.19.16.33.19.42h2.74a.72.72,0,0,0,.25-.15,4,4,0,0,0,.27-.9,3.72,3.72,0,0,0,.13-1l-.17-2L148,91.86a7.67,7.67,0,0,1-1-.53"/><path class="cls-3" d="M149.22,92.72l.69,4.88a3.84,3.84,0,0,0,.88-2.59,33.58,33.58,0,0,0-.44-4.28,8.26,8.26,0,0,0-1.13,2"/><path class="cls-3" d="M156.54,91a4.49,4.49,0,0,0,1.24.64c.06,0,.22-.15.47-.44a4.32,4.32,0,0,0,.43-.57L157.42,90l-.81.63a3.11,3.11,0,0,1-1.14-.63c-.5.55-.79.89-.89,1a5.82,5.82,0,0,0,1.26.65c.36-.33.59-.53.7-.61"/><path class="cls-3" d="M157.11,95a2.65,2.65,0,0,1,.58-.39,4.52,4.52,0,0,0,.68-.74l.27,1.33-1.53-.2m7.43-.87-1.78-1.42c1.43-.45,2.51-.77,3.22-1,.19-.6.33-1.16.45-1.66l-4.79,1.41-.24,1a3.64,3.64,0,0,0-.17,1c0,.08.18.32.55.7s.59.57.7.57a.26.26,0,0,0,.25-.18l1.7,1.31h-3.79c-.39,0-.63-.12-.71-.35a18.53,18.53,0,0,1-.47-2.14q-.28-1.75-.42-2.28L159,91l-.91,1.56a3.07,3.07,0,0,0,.15.46l-1.66.94a2.46,2.46,0,0,0-.84.86,8.83,8.83,0,0,0-.6,1.84l2.74.49c.13,0,.3-.14.52-.51a3.29,3.29,0,0,1,.45-.71c.1.32.2.65.31,1a.8.8,0,0,0,.74.58h5.51a13.34,13.34,0,0,0,.49-1.79c0-.3-.45-.84-1.32-1.59"/><path class="cls-3" d="M176.75,92.31,178,93a2.44,2.44,0,0,0,.93-1l-1.3-.73-.42.38a2.33,2.33,0,0,1-.39.3,3.14,3.14,0,0,1-1.15-.65,8.61,8.61,0,0,0-1,1,7,7,0,0,0,1.31.68,9,9,0,0,1,.71-.63"/><path class="cls-3" d="M176.25,91.12a2,2,0,0,0,.48.35q.15,0,.51-.33a2.88,2.88,0,0,0,.41-.43,5,5,0,0,0-.92-.83c-.59.46-.88.74-.88.84s.12.17.4.4"/><path class="cls-3" d="M183,91.33a2.43,2.43,0,0,1-.81-.63,1.41,1.41,0,0,1-.08-.5l-.09-.08a7.36,7.36,0,0,0-1.08,1.78,3,3,0,0,0,.46.47,8.37,8.37,0,0,1,.33,1.6,12.19,12.19,0,0,1,.2,1.69.28.28,0,0,1,0,.15h-1.45c-.47,0-.71-.32-.71-1a.84.84,0,0,0,0-.21,1.21,1.21,0,0,0,0-.23,2.31,2.31,0,0,0-.06-.64,3.31,3.31,0,0,0-.58.62,1.65,1.65,0,0,0-.41.69.86.86,0,0,0,.05.27,1.09,1.09,0,0,1,0,.26.25.25,0,0,1-.08.19,6,6,0,0,0-1.14,0,8.39,8.39,0,0,0,.25-2,.38.38,0,0,0,0-.17,5.44,5.44,0,0,0-.65.76,2.11,2.11,0,0,0-.45.84.81.81,0,0,1-.14.55h-1.34a6.89,6.89,0,0,0,.46-1.72l0-.39a2.23,2.23,0,0,0-.67.6,1.41,1.41,0,0,0-.44.71,1.81,1.81,0,0,1-.19.8h-1.49a1.72,1.72,0,0,1-1.45-.66l-.91-1.37a8.94,8.94,0,0,0-.49.76,3.06,3.06,0,0,0-.37.7,5,5,0,0,0,.44.6,1.77,1.77,0,0,1,.44.83c0,.36-.42.81-1.27,1.38a3.91,3.91,0,0,1-1.9.83,2,2,0,0,1-1-.3,2.92,2.92,0,0,1-.5-.31s-.08,0-.08,0v.2a5.31,5.31,0,0,0,1.48,1,4.14,4.14,0,0,0,1.63.53,1.94,1.94,0,0,0,1.53-1l.93-1.66.08-.09a1.39,1.39,0,0,0,.59.18h1.92a.46.46,0,0,0,.31-.18.93.93,0,0,1,.23-.23,1,1,0,0,1,.14.41h1.79s.09,0,.18-.13.14-.14.17-.14.17.09.31.27h2l.31-.42.2.42h2.73a.64.64,0,0,0,.24-.15,3.08,3.08,0,0,0,.27-.9,3.47,3.47,0,0,0,.14-1l-.18-2,1.19-1.53a7,7,0,0,1-1-.53"/><path class="cls-3" d="M186.29,90.73a8.17,8.17,0,0,0-1.12,2l.68,4.88a3.82,3.82,0,0,0,.89-2.58,32.2,32.2,0,0,0-.45-4.29"/><path class="cls-3" d="M74.81,109a6.63,6.63,0,0,0-1.45-.47,3.68,3.68,0,0,1-1.23-.45.5.5,0,0,1-.2-.41.48.48,0,0,1,.21-.41,1.55,1.55,0,0,1,.92-.24,1.26,1.26,0,0,1,.84.23,1.16,1.16,0,0,1,.37.74l1.34,0a2,2,0,0,0-.66-1.48,2.79,2.79,0,0,0-1.89-.56,3.29,3.29,0,0,0-1.31.24,1.89,1.89,0,0,0-.82.67,1.75,1.75,0,0,0,.32,2.29,3.69,3.69,0,0,0,1.52.66,9.52,9.52,0,0,1,1.07.29,1.17,1.17,0,0,1,.49.28.62.62,0,0,1,.13.4.77.77,0,0,1-.33.64,1.41,1.41,0,0,1-1,.28,1.46,1.46,0,0,1-1-.31,1.64,1.64,0,0,1-.47-1l-1.3.13a2.47,2.47,0,0,0,.8,1.7,2.85,2.85,0,0,0,1.93.58,3.7,3.7,0,0,0,1.44-.24,2,2,0,0,0,1-2.87,1.84,1.84,0,0,0-.73-.68"/><path class="cls-3" d="M79.59,110.56a3,3,0,0,1,0,.63.75.75,0,0,1-.31.42,1.1,1.1,0,0,1-.65.23.7.7,0,0,1-.51-.19.66.66,0,0,1-.19-.47.56.56,0,0,1,.24-.45,2,2,0,0,1,.7-.22c.35-.08.61-.15.76-.2v.25m1.25.47,0-1.48a2.7,2.7,0,0,0-.17-1.14,1.25,1.25,0,0,0-.59-.51,2.94,2.94,0,0,0-1.27-.21,2.5,2.5,0,0,0-1.42.34,1.76,1.76,0,0,0-.66,1l1.14.22a.77.77,0,0,1,.84-.62,1.16,1.16,0,0,1,.69.16.74.74,0,0,1,.17.54v.13a7.22,7.22,0,0,1-1.23.31,3.72,3.72,0,0,0-1,.3,1.22,1.22,0,0,0-.54.49,1.37,1.37,0,0,0-.19.73,1.32,1.32,0,0,0,.42,1,1.66,1.66,0,0,0,1.17.4,2,2,0,0,0,.79-.16,2.53,2.53,0,0,0,.69-.48,1.19,1.19,0,0,0,0,.14c0,.17.09.29.12.38h1.28a3.66,3.66,0,0,1-.23-.65,5.25,5.25,0,0,1-.06-.94"/><path class="cls-3" d="M85.2,109.84a4.74,4.74,0,0,1-.1,1.3.92.92,0,0,1-.35.46,1,1,0,0,1-.59.18.77.77,0,0,1-.47-.14.66.66,0,0,1-.26-.37,5.87,5.87,0,0,1-.07-1.25v-2.23H82.08v3.07a2.61,2.61,0,0,0,.18,1.07,1.3,1.3,0,0,0,.56.6,1.81,1.81,0,0,0,.87.21,1.84,1.84,0,0,0,.91-.23,1.8,1.8,0,0,0,.69-.62v.72h1.18v-4.82H85.2v2"/><path class="cls-3" d="M90.63,111.37a1,1,0,0,1-1.61-.13,2.24,2.24,0,0,1-.22-1.13,1.66,1.66,0,0,1,.31-1.08,1,1,0,0,1,1.53,0,2,2,0,0,1,.29,1.21,1.81,1.81,0,0,1-.3,1.13m.29-3a1.8,1.8,0,0,0-1.39-.67,1.85,1.85,0,0,0-1.45.63,3.28,3.28,0,0,0,0,3.74,1.83,1.83,0,0,0,1.42.67,1.63,1.63,0,0,0,.81-.21,2.05,2.05,0,0,0,.7-.62v.71H92.2V106H90.92v2.42"/><rect class="cls-3" x="93.45" y="105.95" width="1.28" height="1.18"/><rect class="cls-3" x="93.45" y="107.79" width="1.28" height="4.82"/><polygon class="cls-3" points="99.96 109.68 103.3 109.68 103.3 108.55 99.96 108.55 99.96 107.08 103.54 107.08 103.54 105.95 98.62 105.95 98.62 112.62 103.67 112.62 103.67 111.49 99.96 111.49 99.96 109.68"/><rect class="cls-3" x="104.8" y="105.95" width="1.28" height="6.66"/><path class="cls-3" d="M108.35,109.81a1.18,1.18,0,0,1,.26-.84.86.86,0,0,1,.69-.31.88.88,0,0,1,.67.29,1.29,1.29,0,0,1,.29.86h-1.91m2.57-1.41a2.13,2.13,0,0,0-1.69-.7,2,2,0,0,0-1.59.68,2.68,2.68,0,0,0-.63,1.88,2.81,2.81,0,0,0,.48,1.66,2.14,2.14,0,0,0,1.86.82,2.28,2.28,0,0,0,1.32-.36,2,2,0,0,0,.78-1.07l-1.28-.21a1.07,1.07,0,0,1-.3.53.8.8,0,0,1-.51.16,1,1,0,0,1-.73-.31,1.32,1.32,0,0,1-.31-.9h3.19a3.17,3.17,0,0,0-.59-2.18"/><path class="cls-3" d="M115.23,111.5a.85.85,0,0,1-.59.21.94.94,0,0,1-.77-.35,2,2,0,0,1-.29-1.22,1.76,1.76,0,0,1,.28-1.11,1,1,0,0,1,.76-.33.89.89,0,0,1,.58.18.94.94,0,0,1,.29.55l1.25-.22a2,2,0,0,0-.74-1.14,2.39,2.39,0,0,0-1.39-.38,2.19,2.19,0,0,0-1.7.67,2.62,2.62,0,0,0-.63,1.86,2.58,2.58,0,0,0,.63,1.85,2.15,2.15,0,0,0,1.67.67,2.05,2.05,0,0,0,2.23-1.76l-1.26-.2a1.34,1.34,0,0,1-.32.72"/><path class="cls-3" d="M119.43,111.68a.32.32,0,0,1-.22-.07.26.26,0,0,1-.11-.16,4.05,4.05,0,0,1,0-.69v-2h.87v-1h-.87V106.1l-1.27.74v1h-.58v1h.58v2.11a6,6,0,0,0,0,.91,1.14,1.14,0,0,0,.18.5.92.92,0,0,0,.4.3,1.71,1.71,0,0,0,.62.11,2.48,2.48,0,0,0,1-.19l-.09-1a1.74,1.74,0,0,1-.52.12"/><path class="cls-3" d="M122.49,107.84a1.84,1.84,0,0,0-.55.64v-.69h-1.17v4.82H122v-1.48a7.76,7.76,0,0,1,.1-1.61,1,1,0,0,1,.29-.53.69.69,0,0,1,.46-.15,1.11,1.11,0,0,1,.59.21l.39-1.11a1.48,1.48,0,0,0-.83-.24,1.07,1.07,0,0,0-.55.14"/><rect class="cls-3" x="124.42" y="107.79" width="1.28" height="4.82"/><rect class="cls-3" x="124.42" y="105.95" width="1.28" height="1.18"/><path class="cls-3" d="M129.68,111.5a.84.84,0,0,1-.59.21,1,1,0,0,1-.77-.35,2,2,0,0,1-.28-1.22,1.7,1.7,0,0,1,.28-1.11,1,1,0,0,1,.76-.33.88.88,0,0,1,.57.18.85.85,0,0,1,.29.55l1.25-.22a2,2,0,0,0-.73-1.14,2.42,2.42,0,0,0-1.4-.38,2.2,2.2,0,0,0-1.7.67,2.62,2.62,0,0,0-.63,1.86,2.58,2.58,0,0,0,.63,1.85,2.16,2.16,0,0,0,1.68.67,2.29,2.29,0,0,0,1.48-.44,2.33,2.33,0,0,0,.75-1.32l-1.27-.2a1.27,1.27,0,0,1-.32.72"/><rect class="cls-3" x="132.17" y="107.79" width="1.27" height="4.82"/><rect class="cls-3" x="132.17" y="105.95" width="1.27" height="1.18"/><path class="cls-3" d="M136.47,111.68a.31.31,0,0,1-.22-.07.24.24,0,0,1-.12-.16c0-.07,0-.29,0-.69v-2H137v-1h-.87V106.1l-1.29.74v1h-.57v1h.57v2.11a7,7,0,0,0,.05.91,1.46,1.46,0,0,0,.18.5.9.9,0,0,0,.41.3,1.71,1.71,0,0,0,.62.11,2.43,2.43,0,0,0,1-.19l-.09-1a1.69,1.69,0,0,1-.51.12"/><path class="cls-3" d="M139.72,111.22l-1.15-3.43h-1.33l1.81,4.84a1.62,1.62,0,0,1-.33.67.75.75,0,0,1-.65.26,2.68,2.68,0,0,1-.53,0l.11,1a3.45,3.45,0,0,0,.72.08,2.55,2.55,0,0,0,.64-.08,1.57,1.57,0,0,0,.49-.21,1.31,1.31,0,0,0,.34-.36,3.27,3.27,0,0,0,.32-.65l.32-.86,1.68-4.63h-1.32l-1.12,3.43"/><path class="cls-3" d="M149.31,111.24a1.4,1.4,0,0,1-.93.34,1.46,1.46,0,0,1-1.17-.53,2.76,2.76,0,0,1-.46-1.8,2.66,2.66,0,0,1,.46-1.72,1.56,1.56,0,0,1,1.2-.53,1.46,1.46,0,0,1,.93.3,1.41,1.41,0,0,1,.49.81l1.32-.32a2.62,2.62,0,0,0-.68-1.21,2.79,2.79,0,0,0-2-.73,2.91,2.91,0,0,0-2.25.93,3.61,3.61,0,0,0-.86,2.57,3.48,3.48,0,0,0,.85,2.47,3.13,3.13,0,0,0,3.95.38,2.94,2.94,0,0,0,1-1.64l-1.31-.4a2,2,0,0,1-.55,1.08"/><path class="cls-3" d="M155.32,111.32a1,1,0,0,1-.84.39,1,1,0,0,1-.84-.39,1.58,1.58,0,0,1-.34-1.1,1.62,1.62,0,0,1,.34-1.11,1.09,1.09,0,0,1,.84-.38,1.07,1.07,0,0,1,.84.38,1.61,1.61,0,0,1,.35,1.1,1.59,1.59,0,0,1-.35,1.11m-.84-3.62a2.67,2.67,0,0,0-1.29.31,2.09,2.09,0,0,0-.88.91,2.48,2.48,0,0,0-.32,1.23,2.78,2.78,0,0,0,.32,1.41,2,2,0,0,0,.91.88,2.81,2.81,0,0,0,1.26.3,2.4,2.4,0,0,0,1.79-.72,2.48,2.48,0,0,0,.71-1.81,2.51,2.51,0,0,0-.7-1.81,2.43,2.43,0,0,0-1.8-.7"/><path class="cls-3" d="M164.29,107.91a1.79,1.79,0,0,0-.9-.21,1.67,1.67,0,0,0-.79.19,2.09,2.09,0,0,0-.68.57,1.4,1.4,0,0,0-.56-.57,1.58,1.58,0,0,0-.8-.19,1.91,1.91,0,0,0-1.51.75v-.66h-1.17v4.82h1.27v-2.34a3.34,3.34,0,0,1,.1-1,1,1,0,0,1,.34-.46,1,1,0,0,1,.54-.16.75.75,0,0,1,.39.1.58.58,0,0,1,.2.31,3.35,3.35,0,0,1,.07.9v2.64h1.28V110.3a3.08,3.08,0,0,1,.11-1,.89.89,0,0,1,.84-.64.61.61,0,0,1,.55.28,2.22,2.22,0,0,1,.12.92v2.75H165v-3.07a3,3,0,0,0-.13-1,1.36,1.36,0,0,0-.55-.63"/><path class="cls-3" d="M169.31,111.37a.94.94,0,0,1-.75.36,1,1,0,0,1-.78-.39,1.86,1.86,0,0,1-.33-1.21,1.64,1.64,0,0,1,.32-1.08,1,1,0,0,1,1.53,0,1.77,1.77,0,0,1,.3,1.13,1.91,1.91,0,0,1-.29,1.18m-.41-3.67a1.72,1.72,0,0,0-1.51.8v-.71H166.2v6.66h1.27V112a2.25,2.25,0,0,0,.69.54,1.57,1.57,0,0,0,.73.16,1.8,1.8,0,0,0,1.42-.67,2.7,2.7,0,0,0,.6-1.88,2.67,2.67,0,0,0-.59-1.83,1.79,1.79,0,0,0-1.42-.66"/><path class="cls-3" d="M174.57,110.56a2.76,2.76,0,0,1,0,.63.8.8,0,0,1-.31.42,1.1,1.1,0,0,1-.65.23.66.66,0,0,1-.5-.19.63.63,0,0,1-.2-.47.53.53,0,0,1,.24-.45,2,2,0,0,1,.7-.22c.35-.08.6-.15.77-.2v.25m1.24.47v-1.48a2.74,2.74,0,0,0-.16-1.14,1.28,1.28,0,0,0-.6-.51,2.86,2.86,0,0,0-1.26-.21,2.5,2.5,0,0,0-1.42.34,1.82,1.82,0,0,0-.67,1l1.15.22a1,1,0,0,1,.3-.48.94.94,0,0,1,.54-.14,1.11,1.11,0,0,1,.68.16.67.67,0,0,1,.19.54v.13a7.4,7.4,0,0,1-1.24.31,3.84,3.84,0,0,0-1,.3,1.22,1.22,0,0,0-.54.49,1.43,1.43,0,0,0,.23,1.75,1.67,1.67,0,0,0,1.16.4,1.94,1.94,0,0,0,.8-.16,2.53,2.53,0,0,0,.69-.48s0,.07,0,.14a3.2,3.2,0,0,0,.13.38h1.26a2.93,2.93,0,0,1-.22-.65,5.25,5.25,0,0,1-.06-.94"/><path class="cls-3" d="M181.12,108.23a1.3,1.3,0,0,0-.53-.38,1.88,1.88,0,0,0-.76-.16,1.9,1.9,0,0,0-1.58.81v-.71h-1.18v4.82h1.28v-2.18a4.42,4.42,0,0,1,.09-1.1.91.91,0,0,1,.36-.48,1,1,0,0,1,.59-.19.78.78,0,0,1,.43.13.82.82,0,0,1,.27.36,4,4,0,0,1,.08,1v2.45h1.27v-3a4.54,4.54,0,0,0-.07-.86,1.41,1.41,0,0,0-.25-.54"/><path class="cls-3" d="M185.75,107.79l-1.13,3.43-1.15-3.43h-1.34l1.82,4.84a1.75,1.75,0,0,1-.33.67.75.75,0,0,1-.65.27,2.77,2.77,0,0,1-.53-.06l.11,1a4.18,4.18,0,0,0,.72.07,3.06,3.06,0,0,0,.64-.07,1.72,1.72,0,0,0,.49-.22,1.18,1.18,0,0,0,.34-.36,3,3,0,0,0,.32-.65l.31-.86,1.7-4.63h-1.32"/></svg>