<svg id="Layer_1" data-name="Layer 1" xmlns="http://www.w3.org/2000/svg" viewBox="0 0 200 200"><defs><style>.cls-1{fill:#000b8c;}</style></defs><path class="cls-1" d="M18.16,95.31h2.22v-2H18.16Zm74-18.66H89.9v1.94h2.22ZM46.59,93.92H48.8V92H46.59Zm7.16-5.69h0M14.3,95.31h2.22v-2H14.3ZM46.5,80.9a8.68,8.68,0,0,0-3.75.81v3.77H45V82.65a3.68,3.68,0,0,1,1.65-.33c2.27,0,4.68,2.13,4.68,6.05a3.27,3.27,0,0,1-.06.55H41l0-.51c0-4.42-3-7.51-7.26-7.51a8.68,8.68,0,0,0-3.75.81v3.77h2.22V82.65a3.55,3.55,0,0,1,1.64-.33c2.27,0,4.68,2.13,4.68,6.05v.55H27.79V80h-2c-5.41,0-5.58,2.77-5.58,6V89c0,1.59-.57,1.91-1.43,1.91H17c-1.1,0-2.93-.19-2.93-4.18,0-3.38,1.48-4.86,4.44-4.83V80.55c-2.28,0-3.7.43-5,1.7a5.9,5.9,0,0,0-1.62,4.49c0,4.14,1.83,5.54,4.33,5.54h3.12c2,0,3.08-1.25,3.08-3.53v-3c0-2.8.42-4.33,3.14-4.33v8.89H53.49a12,12,0,0,0,.26-2.11c-.08-4.31-3-7.33-7.25-7.33m40.18,2.56c0,2.2,1.53,3.62,4.11,3.62h1.58v.19c0,1.1-.52,1.65-1.48,1.65h-6.7c-2.77,0-3.8-.77-3.8-3V81.56H78.18v4.69c0,3.16,1.45,4.09,5.66,4.09h7.58a2.73,2.73,0,0,0,2.35-1.1,3.7,3.7,0,0,0,.76-2.39V80H91.08c-3,0-4.4,1.14-4.4,3.42m5.63-2v4.33h-.93a2.23,2.23,0,0,1-2.52-2.22c0-1.38.78-2.11,2.42-2.11ZM55.89,90.34h2.22v-15H55.89Zm68.35-7.55c-2-1.8-5.95-1.16-7.21-.92v7h-2.1c0-.2.08-.69.08-.69.3-3.73-1.89-5.83-5-5.83-2.38,0-4.53,1.52-6.08,3.63l-.32.5v-3.7h-2.22v4c0,1.41-.48,2-1.5,2H98.88V81.56H96.66v8.86a5.12,5.12,0,0,1-.38,2.64,1.72,1.72,0,0,1-1,.83v.71c2.52-.06,3.61-1.33,3.61-4.26h21.56c3,0,5-1.73,5-4.37a4,4,0,0,0-1.21-3.18m-11.41,5.32s-.09.81-.09.81h-8.61l.15-.28c1.61-3.18,3.63-4.65,5.87-4.55,2,.08,2.86,1.77,2.68,4m7.23.81h-.81V83.17a2.7,2.7,0,0,1,.8-.09c2,0,3.18,1.09,3.18,2.94a2.87,2.87,0,0,1-3.17,2.9m-51,1.42h2.23v-15H69.08Zm-4.35-3.51c0,1.74-.81,2.09-1.5,2.09h-.76V81.56H60.24v8.86a5.12,5.12,0,0,1-.38,2.64,1.72,1.72,0,0,1-1,.83v.71c2.52-.06,3.62-1.33,3.62-4.26h1.31a2.83,2.83,0,0,0,2.4-1.11A3.91,3.91,0,0,0,67,86.77V75.38H64.73Z"/><path class="cls-1" d="M141.12,124.38h47V74.77h-47ZM184.88,121H144.35V78.19h40.53Z"/><path class="cls-1" d="M156.6,88.46v8.12l-7.13,4.35v9.75l7.91,4.88h0s7.26-4.32,7.26-4.32l7,4.32,8.1-4.94v-9.69l-7.14-4.35V88.46l-8-4.87Zm0,12.06v5.84l4.78,2.92-3.92,2.39-4.75-2.91v-5.87Zm8.05-13,4.76,2.92v14l-4.76,2.9s-4.79-2.88-4.81-2.9v-14Zm8,18.88h0v-5.84l3.91,2.37v5.87l-4.77,2.91-3.91-2.39Z"/><rect class="cls-1" x="26.51" y="106.01" width="2.22" height="14.96"/><path class="cls-1" d="M17.47,106.74,12,121h2.08l1.42-4h5.33l1.29,4h2.56l-5.07-14.23Zm.79,2.51,2.08,6.31H16Z"/><path class="cls-1" d="M83.49,106.74V121h4.19c3.08,0,5.09-1.63,5.09-4.13a3.52,3.52,0,0,0-3.48-3.42v-.35a3.49,3.49,0,0,0,2.61-3.41c0-1.89-1.46-2.92-3.8-2.92Zm2.22,1.4h1.62a2,2,0,0,1,2.29,2.06,2.66,2.66,0,0,1-2.86,2.63H85.71Zm0,6.1h1.92c1.83,0,2.91,1,2.91,2.63a2.62,2.62,0,0,1-2.89,2.68H85.71Z"/><polygon class="cls-1" points="116.81 106.01 116.81 120.97 119.03 120.97 119.03 115.05 123.18 121.14 125.36 120.33 121.51 115.14 124.45 111.47 122.47 110.47 119.03 115.01 119.03 106.01 116.81 106.01"/><path class="cls-1" d="M107.76,112.09l-.3.35V110.9h-2.21V121h2.22v-6c0-1.7,1-2.8,2.48-2.8s2.21.94,2.21,2.62V121h2.22v-6.54c0-2.51-1.14-3.77-3.37-3.77a4.23,4.23,0,0,0-3.25,1.43"/><rect class="cls-1" x="73.98" y="110.9" width="2.22" height="10.07"/><rect class="cls-1" x="73.98" y="107.28" width="2.22" height="1.94"/><rect class="cls-1" x="57.76" y="107.28" width="2.22" height="1.94"/><path class="cls-1" d="M62.42,106v15h2.21v-6a2.49,2.49,0,0,1,2.48-2.8c1.4,0,2.21.94,2.21,2.62V121h2.22v-6.54c0-2.51-1.13-3.77-3.36-3.77a4.23,4.23,0,0,0-3.25,1.43l-.31.35V106Z"/><path class="cls-1" d="M36,106.74V121h2.23v-6h1.85l2.9,6.24,2.54-.49-3.24-6.17.15-.09a4.49,4.49,0,0,0,2.24-4.08c0-2.26-1.58-3.62-4.25-3.62Zm2.23,1.4h1.82a2.27,2.27,0,0,1,2.4,2.48,2.74,2.74,0,0,1-2.71,2.92H38.24Z"/><path class="cls-1" d="M57.76,110.9v10.15a7.85,7.85,0,0,1-.38,2.64,1.54,1.54,0,0,1-1,.83v.71C58.9,125.17,60,123.89,60,121V110.9Z"/><path class="cls-1" d="M98.94,110.66a5.24,5.24,0,0,0-3.54,1.27l.64,1a3.78,3.78,0,0,1,2.57-1,1.9,1.9,0,0,1,1.85,1.76l0,.17-2.37.74c-2.4.71-3.53,1.87-3.53,3.62a2.74,2.74,0,0,0,2.65,3,4.27,4.27,0,0,0,3.31-2V121h2.26v-6.62c0-2.45-1.3-3.69-3.87-3.69m.65,8.36a1.9,1.9,0,0,1-1.4.72A1.57,1.57,0,0,1,96.83,118a2.58,2.58,0,0,1,2.06-2.58s1.46-.49,1.46-.49l.23-.09,0,.25a5.17,5.17,0,0,1-1,3.93"/><path class="cls-1" d="M51.45,110.66a5.22,5.22,0,0,0-3.54,1.27l.64,1a3.8,3.8,0,0,1,2.57-1A1.91,1.91,0,0,1,53,113.71l0,.17-2.37.74c-2.4.71-3.52,1.87-3.52,3.62a2.74,2.74,0,0,0,2.64,3,4.27,4.27,0,0,0,3.31-2V121h2.26v-6.62c0-2.45-1.3-3.69-3.87-3.69m.66,8.36a2,2,0,0,1-1.4.72A1.57,1.57,0,0,1,49.34,118a2.58,2.58,0,0,1,2.06-2.58s1.46-.49,1.46-.49l.23-.09,0,.25a5.23,5.23,0,0,1-1,3.93"/></svg>