<svg id="Layer_1" data-name="Layer 1" xmlns="http://www.w3.org/2000/svg" viewBox="0 0 200 200"><defs><style>.cls-1{fill:#502c84;}</style></defs><path class="cls-1" d="M48.41,138.39c8,0,14.58-2.51,18.9-6.71a17.43,17.43,0,0,0,5.15-12.56,16.26,16.26,0,0,0-4.79-11.72c-3.12-3.11-7.55-5.37-13.17-6.46l-9.21-1.77c-3.81-.73-6-2.62-6-5.27,0-3.45,3.34-5.84,8.74-5.84a11.37,11.37,0,0,1,8.13,3,8.94,8.94,0,0,1,2.28,4.9l13.28-3A16.08,16.08,0,0,0,66.83,83c-4.31-4.31-11-7-18.9-7-7.29,0-13.39,2.39-17.59,6.2A17.48,17.48,0,0,0,24.72,95.1a15,15,0,0,0,4.31,11c2.87,2.86,7.07,5,12.56,6.34l9.1,2.15c4.54,1.08,6.57,2.75,6.57,5.73,0,3.7-3.34,5.87-8.85,5.87-4,0-7.18-1.3-9.22-3.48a8.19,8.19,0,0,1-2.39-5.51l-13.64,3a16.93,16.93,0,0,0,5.15,10.52c4.56,4.82,11.86,7.69,20.1,7.69m100.93,0c8.85,0,15.67-3.23,20.32-7.77a26.51,26.51,0,0,0,7.18-12.08l-14-4.68a13.23,13.23,0,0,1-3.7,6.21,13.68,13.68,0,0,1-9.8,3.7,15.08,15.08,0,0,1-10.66-4.31c-2.76-2.87-4.43-7.07-4.43-12.33s1.67-9.44,4.43-12.31a14.63,14.63,0,0,1,10.52-4.17,12.69,12.69,0,0,1,9.44,3.59,15.66,15.66,0,0,1,3.59,6.34l14.22-4.78A26.64,26.64,0,0,0,169.74,84C165,79.29,158,76,148.81,76a30.38,30.38,0,0,0-21.66,8.74,31.9,31.9,0,0,0-8.76,22.49,31.39,31.39,0,0,0,9.07,22.49,30.77,30.77,0,0,0,21.88,8.72m-48.3,0c6.21,0,10.64-1.92,12.56-3.59V121.88a13.79,13.79,0,0,1-8,2.39,8.39,8.39,0,0,1-6-1.92c-1.2-1.19-1.79-3.23-1.79-6V61.61H82V77.76H113.6V93.07H82v27.14c0,5.51,1.67,9.94,4.68,13,3.34,3.36,8.24,5.15,14.36,5.15"/></svg>